<svg width="380" height="380" viewBox="0 0 380 380" fill="none" xmlns="http://www.w3.org/2000/svg">
<path d="M292.085 299.706C291.093 298.855 288.881 296.161 290.587 293.027C291.212 291.878 292.541 291.309 293.743 290.803C294.945 290.297 296.209 289.857 297.204 289.011C299.08 287.414 299.597 284.763 300.843 282.633C302.273 280.189 304.941 278.357 307.761 278.485C310.99 278.632 313.682 281.269 314.903 284.276C316.124 287.282 316.166 290.621 316.191 293.868C316.205 295.663 316.126 297.688 314.807 298.9C313.592 300.018 311.762 300.032 310.115 299.981C304.234 299.8 298.352 299.62 292.471 299.439" fill="#F5F5F5"/>
<path d="M325.832 251.186H279.43L287.788 301.027C288.154 303.204 289.729 304.882 291.75 305.464C291.803 305.481 291.859 305.493 291.913 305.509C292.051 305.544 292.184 305.591 292.326 305.615C292.632 305.679 292.948 305.711 293.269 305.724L293.277 305.772L293.503 305.736H314.185C314.574 305.736 314.954 305.696 315.322 305.623C317.764 305.245 319.719 303.285 320.016 300.751L324.046 266.41L324.227 265.045H324.206L325.802 251.445L325.832 251.186ZM317.078 282.978H312.316L312.797 268.513H318.314L317.078 282.978ZM318.776 268.513H323.335L321.638 282.978H317.54L318.776 268.513ZM305.172 299.014L304.882 286.447H311.74L311.322 299.014H305.172ZM297.758 286.447H304.422L304.711 299.014H298.735L297.758 286.447ZM298.273 299.014H292.687C292.156 295.621 291.465 291.212 290.717 286.447H297.297L298.273 299.014ZM297.489 282.978L296.364 268.513H304.008L304.342 282.978H297.489ZM304.802 282.978L304.469 268.513H312.336L311.855 282.978H304.802ZM304.389 265.045L304.081 251.649H312.896L312.451 265.045H304.389ZM303.929 265.045H296.095L295.054 251.649H303.62L303.929 265.045ZM295.633 265.045H287.345C287.052 263.195 286.773 261.443 286.522 259.868C285.657 254.452 285.332 252.415 285.152 251.649H294.592L295.633 265.045ZM295.903 268.513L297.027 282.978H290.172C289.942 281.511 289.708 280.026 289.475 278.54C288.937 275.126 288.4 271.712 287.894 268.513H295.903ZM289.706 282.978H285.229L282.802 268.513H287.427C288.134 272.984 288.918 277.959 289.706 282.978ZM290.251 286.447C290.934 290.796 291.605 295.083 292.22 299.014H287.918L285.81 286.447H290.251ZM311.784 299.014L312.201 286.447H316.782L315.708 299.014H311.784ZM312.912 265.045L313.357 251.649H319.755L318.611 265.045H312.912ZM284.713 251.649C284.897 252.617 285.744 257.888 286.878 265.045H282.221L279.974 251.649H284.713ZM319.757 299.014H316.17L317.244 286.447H321.231L319.757 299.014ZM323.742 265.045H319.073L320.217 251.649H325.314L323.742 265.045Z" fill="#E0E0E0"/>
<path d="M173.649 14.2734H161.56V305.365H173.649V14.2734Z" fill="#E0E0E0"/>
<path d="M161.56 26.5542H41.2031V305.365H161.56V26.5542Z" fill="#EBEBEB"/>
<path d="M44.5762 14.2734H33.4385V305.365H44.5762V14.2734Z" fill="#E0E0E0"/>
<path d="M173.649 14.2734H33.4385V26.5542H173.649V14.2734Z" fill="#E0E0E0"/>
<path d="M173.649 14.2734C173.664 14.2924 173.502 14.4647 173.198 14.7621C172.831 15.1097 172.397 15.522 171.892 16.0009C170.715 17.103 169.218 18.5057 167.562 20.0568C165.881 21.651 164.381 23.1183 163.353 24.2331C162.838 24.7899 162.442 25.2595 162.202 25.6051C162.079 25.7774 162.006 25.9202 161.954 26.0188C161.924 26.1196 161.9 26.1778 161.889 26.1779C161.877 26.1781 161.876 26.119 161.888 25.9961C161.92 25.8837 161.98 25.719 162.089 25.5298C162.302 25.1482 162.677 24.6463 163.172 24.0622C164.164 22.8928 165.644 21.3908 167.329 19.793C169.013 18.1959 170.581 16.8004 171.732 15.8097C172.307 15.3146 172.779 14.9213 173.11 14.6563C173.442 14.3912 173.633 14.2546 173.649 14.2734Z" fill="#EBEBEB"/>
<path d="M44.5762 26.8067C44.5059 26.8736 41.9555 24.122 38.8805 20.6617C35.8043 17.2001 33.3683 14.3406 33.4385 14.2737C33.5088 14.2068 36.0587 16.9578 39.1348 20.4194C42.21 23.8797 44.6465 26.7399 44.5762 26.8067Z" fill="#EBEBEB"/>
<path d="M51.7854 190.654C49.5488 190.654 47.7358 188.841 47.7358 186.604V157.467C47.7358 155.231 49.5488 153.418 51.7854 153.418C54.0219 153.418 55.8349 155.231 55.8349 157.467V186.604C55.8349 188.841 54.0219 190.654 51.7854 190.654Z" fill="#E0E0E0"/>
<path d="M53.4294 181.51C53.4294 180.73 52.8184 180.097 52.0646 180.097C51.3108 180.097 50.6997 180.73 50.6997 181.51C50.6997 182.061 51.0074 182.533 51.4516 182.766V184.407C51.4516 184.757 51.7261 185.041 52.0646 185.041C52.4031 185.041 52.6775 184.757 52.6775 184.407V182.766C53.1218 182.533 53.4294 182.061 53.4294 181.51Z" fill="#EBEBEB"/>
<path d="M72.0653 165.959H53.5853C52.5318 165.959 51.6777 166.814 51.6777 167.867V168.505C51.6777 169.558 52.5318 170.413 53.5853 170.413H72.0653C73.1189 170.413 73.9729 169.558 73.9729 168.505V167.867C73.9729 166.814 73.1189 165.959 72.0653 165.959Z" fill="#E0E0E0"/>
<path d="M59.7787 170.54C59.7778 170.566 59.5365 170.578 59.1014 170.6C58.5883 170.623 57.9738 170.651 57.2565 170.684C56.4764 170.708 55.538 170.73 54.499 170.587C53.9846 170.509 53.4326 170.413 52.8918 170.167C52.359 169.926 51.8314 169.534 51.513 168.944C51.2047 168.355 51.1592 167.64 51.4258 167.051C51.5534 166.761 51.7861 166.504 52.043 166.359C52.2942 166.207 52.5507 166.11 52.8023 166.024C53.8151 165.675 54.7813 165.7 55.5546 165.688C56.3382 165.692 56.9688 165.729 57.4044 165.757C57.8399 165.786 58.0805 165.812 58.0803 165.837C58.0808 165.895 57.1115 165.898 55.5588 165.941C54.7833 165.985 53.8539 165.989 52.9024 166.337C52.4296 166.511 51.9291 166.716 51.732 167.201C51.521 167.669 51.5568 168.282 51.8159 168.772C52.0822 169.267 52.5433 169.623 53.0295 169.847C53.5166 170.075 54.0436 170.176 54.5446 170.26C55.5493 170.418 56.4762 170.423 57.2533 170.431C58.811 170.423 59.782 170.485 59.7787 170.54Z" fill="#EBEBEB"/>
<path d="M146.728 43.1697H60.3599V132.572H146.728V43.1697Z" fill="#FAFAFA"/>
<path d="M343.974 14.2734H241.577V176.096H343.974V14.2734Z" fill="#E0E0E0"/>
<path d="M340.866 17.3132H244.335V173.436H340.866V17.3132Z" fill="#F5F5F5"/>
<path d="M331.092 26.4077H292.601V86.1355H331.092V26.4077Z" fill="white"/>
<path d="M313.894 31.6883C313.894 32.4819 313.251 33.125 312.457 33.125C311.664 33.125 311.021 32.4819 311.021 31.6883C311.021 30.8948 311.664 30.2517 312.457 30.2517C313.251 30.2517 313.894 30.8948 313.894 31.6883Z" fill="#E0E0E0"/>
<path d="M292.301 102.758H253.81V162.486H292.301V102.758Z" fill="white"/>
<path d="M275.103 108.039C275.103 108.832 274.46 109.476 273.666 109.476C272.873 109.476 272.229 108.832 272.229 108.039C272.229 107.246 272.873 106.602 273.666 106.602C274.46 106.602 275.103 107.246 275.103 108.039Z" fill="#E0E0E0"/>
<path d="M286.162 26.4077H253.289V73.0485H286.162V26.4077Z" fill="white"/>
<path d="M270.919 30.6437C270.919 31.3029 270.384 31.837 269.726 31.837C269.066 31.837 268.532 31.3029 268.532 30.6437C268.532 29.9847 269.066 29.4504 269.726 29.4504C270.384 29.4504 270.919 29.9847 270.919 30.6437Z" fill="#E0E0E0"/>
<path d="M332.357 103.58L297.201 107.546L299.398 127.024L334.555 123.059L332.357 103.58Z" fill="white"/>
<path d="M316.413 109.256C316.413 109.929 315.868 110.474 315.196 110.474C314.524 110.474 313.979 109.929 313.979 109.256C313.979 108.584 314.524 108.039 315.196 108.039C315.868 108.039 316.413 108.584 316.413 109.256Z" fill="#E0E0E0"/>
<path d="M287.165 116.382C287.165 116.54 281.121 116.669 273.667 116.669C266.21 116.669 260.167 116.54 260.167 116.382C260.167 116.223 266.21 116.095 273.667 116.095C281.121 116.095 287.165 116.223 287.165 116.382Z" fill="#E0E0E0"/>
<path d="M287.165 120.655C287.165 120.814 281.121 120.942 273.667 120.942C266.21 120.942 260.167 120.814 260.167 120.655C260.167 120.497 266.21 120.368 273.667 120.368C281.121 120.368 287.165 120.497 287.165 120.655Z" fill="#E0E0E0"/>
<path d="M287.165 124.929C287.165 125.087 281.121 125.215 273.667 125.215C266.21 125.215 260.167 125.087 260.167 124.929C260.167 124.77 266.21 124.642 273.667 124.642C281.121 124.642 287.165 124.77 287.165 124.929Z" fill="#E0E0E0"/>
<path d="M287.165 129.202C287.165 129.36 281.121 129.489 273.667 129.489C266.21 129.489 260.167 129.36 260.167 129.202C260.167 129.044 266.21 128.915 273.667 128.915C281.121 128.915 287.165 129.044 287.165 129.202Z" fill="#E0E0E0"/>
<path d="M287.165 133.475C287.165 133.634 281.121 133.762 273.667 133.762C266.21 133.762 260.167 133.634 260.167 133.475C260.167 133.317 266.21 133.188 273.667 133.188C281.121 133.188 287.165 133.317 287.165 133.475Z" fill="#E0E0E0"/>
<path d="M287.165 137.749C287.165 137.907 281.121 138.035 273.667 138.035C266.21 138.035 260.167 137.907 260.167 137.749C260.167 137.59 266.21 137.462 273.667 137.462C281.121 137.462 287.165 137.59 287.165 137.749Z" fill="#E0E0E0"/>
<path d="M287.165 142.022C287.165 142.18 281.121 142.309 273.667 142.309C266.21 142.309 260.167 142.18 260.167 142.022C260.167 141.864 266.21 141.735 273.667 141.735C281.121 141.735 287.165 141.864 287.165 142.022Z" fill="#E0E0E0"/>
<path d="M329.063 111.804C329.085 111.961 323.118 112.933 315.737 113.975C308.353 115.016 302.352 115.734 302.33 115.577C302.308 115.42 308.273 114.448 315.657 113.406C323.038 112.365 329.041 111.647 329.063 111.804Z" fill="#E0E0E0"/>
<path d="M329.6 114.477C329.622 114.634 323.655 115.606 316.274 116.647C308.89 117.689 302.888 118.406 302.866 118.249C302.844 118.093 308.81 117.121 316.193 116.079C323.575 115.038 329.577 114.32 329.6 114.477Z" fill="#E0E0E0"/>
<path d="M330.09 116.945C330.112 117.102 324.145 118.074 316.764 119.116C309.38 120.158 303.379 120.875 303.357 120.718C303.334 120.561 309.3 119.589 316.684 118.548C324.065 117.506 330.068 116.789 330.09 116.945Z" fill="#E0E0E0"/>
<path d="M327.707 38.9025C327.707 39.0612 320.879 39.1894 312.458 39.1894C304.034 39.1894 297.207 39.0612 297.207 38.9025C297.207 38.7444 304.034 38.6157 312.458 38.6157C320.879 38.6157 327.707 38.7444 327.707 38.9025Z" fill="#E0E0E0"/>
<path d="M327.707 41.4436C327.707 41.6019 320.879 41.7302 312.458 41.7302C304.034 41.7302 297.207 41.6019 297.207 41.4436C297.207 41.2851 304.034 41.1567 312.458 41.1567C320.879 41.1567 327.707 41.2851 327.707 41.4436Z" fill="#E0E0E0"/>
<path d="M327.707 43.9844C327.707 44.143 320.879 44.2713 312.458 44.2713C304.034 44.2713 297.207 44.143 297.207 43.9844C297.207 43.8263 304.034 43.6975 312.458 43.6975C320.879 43.6975 327.707 43.8263 327.707 43.9844Z" fill="#E0E0E0"/>
<path d="M327.707 46.5252C327.707 46.6836 320.879 46.8121 312.458 46.8121C304.034 46.8121 297.207 46.6836 297.207 46.5252C297.207 46.367 304.034 46.2385 312.458 46.2385C320.879 46.2385 327.707 46.367 327.707 46.5252Z" fill="#E0E0E0"/>
<path d="M327.707 49.0662C327.707 49.2247 320.879 49.3532 312.458 49.3532C304.034 49.3532 297.207 49.2247 297.207 49.0662C297.207 48.9078 304.034 48.7793 312.458 48.7793C320.879 48.7793 327.707 48.9078 327.707 49.0662Z" fill="#E0E0E0"/>
<path d="M327.707 51.607C327.707 51.7654 320.879 51.8939 312.458 51.8939C304.034 51.8939 297.207 51.7654 297.207 51.607C297.207 51.4486 304.034 51.3203 312.458 51.3203C320.879 51.3203 327.707 51.4486 327.707 51.607Z" fill="#E0E0E0"/>
<path d="M327.707 54.1481C327.707 54.3064 320.879 54.4347 312.458 54.4347C304.034 54.4347 297.207 54.3064 297.207 54.1481C297.207 53.9896 304.034 53.8611 312.458 53.8611C320.879 53.8611 327.707 53.9896 327.707 54.1481Z" fill="#E0E0E0"/>
<path d="M327.707 61.6882C327.707 61.8468 320.879 61.9751 312.458 61.9751C304.034 61.9751 297.207 61.8468 297.207 61.6882C297.207 61.53 304.034 61.4016 312.458 61.4016C320.879 61.4016 327.707 61.53 327.707 61.6882Z" fill="#E0E0E0"/>
<path d="M327.922 64.3721C327.922 64.5305 321.094 64.6589 312.673 64.6589C304.248 64.6589 297.421 64.5305 297.421 64.3721C297.421 64.2137 304.248 64.0852 312.673 64.0852C321.094 64.0852 327.922 64.2137 327.922 64.3721Z" fill="#E0E0E0"/>
<path d="M328.137 67.0559C328.137 67.2143 321.309 67.3428 312.887 67.3428C304.463 67.3428 297.636 67.2143 297.636 67.0559C297.636 66.8975 304.463 66.769 312.887 66.769C321.309 66.769 328.137 66.8975 328.137 67.0559Z" fill="#E0E0E0"/>
<path d="M328.351 69.7395C328.351 69.8979 321.523 70.0264 313.102 70.0264C304.678 70.0264 297.851 69.8979 297.851 69.7395C297.851 69.5812 304.678 69.4526 313.102 69.4526C321.523 69.4526 328.351 69.5812 328.351 69.7395Z" fill="#E0E0E0"/>
<path d="M328.566 72.423C328.566 72.5814 321.738 72.7099 313.317 72.7099C304.892 72.7099 298.065 72.5814 298.065 72.423C298.065 72.2648 304.892 72.1365 313.317 72.1365C321.738 72.1365 328.566 72.2648 328.566 72.423Z" fill="#E0E0E0"/>
<path d="M328.781 75.1069C328.781 75.2655 321.953 75.3938 313.531 75.3938C305.107 75.3938 298.28 75.2655 298.28 75.1069C298.28 74.9487 305.107 74.8203 313.531 74.8203C321.953 74.8203 328.781 74.9487 328.781 75.1069Z" fill="#E0E0E0"/>
<path d="M367.535 305.772C367.535 305.881 288.044 305.97 190.009 305.97C91.9394 305.97 12.4648 305.881 12.4648 305.772C12.4648 305.662 91.9394 305.574 190.009 305.574C288.044 305.574 367.535 305.662 367.535 305.772Z" fill="#263238"/>
<path d="M250.235 107.476L251.807 100.791C250.126 97.8126 249.22 94.3477 249.36 90.6794C249.763 80.1298 258.641 71.9043 269.191 72.3069C279.74 72.7093 287.966 81.5876 287.563 92.1371C287.161 102.686 278.282 110.912 267.733 110.51C263.328 110.341 259.331 108.692 256.196 106.063L256.202 106.072L250.235 107.476Z" fill="white"/>
<path d="M250.235 107.476C250.235 107.476 250.356 107.454 250.608 107.399C250.877 107.34 251.253 107.257 251.742 107.149C252.772 106.918 254.272 106.581 256.219 106.144C256.258 106.135 256.283 106.096 256.274 106.057C256.272 106.047 256.267 106.038 256.262 106.031L256.256 106.022L256.149 106.12C258.037 107.714 260.88 109.488 264.677 110.26C266.563 110.66 268.671 110.758 270.873 110.482C273.072 110.212 275.371 109.538 277.557 108.366C279.741 107.2 281.807 105.538 283.5 103.427C285.192 101.321 286.516 98.7676 287.201 95.9472C287.868 93.1272 287.918 90.0673 287.239 87.0845C287.111 86.3283 286.825 85.6096 286.599 84.8706C286.498 84.4961 286.307 84.1542 286.163 83.7936C286.002 83.4403 285.866 83.0732 285.682 82.7286C285.286 82.056 284.962 81.3336 284.484 80.7031L283.81 79.7268L283.044 78.8142C278.988 74.0293 272.725 71.7274 267.071 72.1828C264.233 72.3943 261.54 73.2365 259.215 74.5204C256.884 75.8025 254.919 77.5173 253.404 79.4303C250.355 83.2774 249.152 87.8107 249.234 91.631C249.288 95.4885 250.484 98.6362 251.74 100.828L251.732 100.773C251.24 102.956 250.862 104.637 250.603 105.787C250.481 106.336 250.388 106.758 250.321 107.057C250.26 107.34 250.235 107.476 250.235 107.476C250.235 107.476 250.279 107.32 250.352 107.03C250.427 106.727 250.533 106.301 250.671 105.746C250.949 104.613 251.355 102.958 251.883 100.808C251.887 100.789 251.884 100.769 251.875 100.753C250.652 98.5636 249.496 95.4398 249.466 91.6284C249.408 87.8525 250.617 83.3907 253.632 79.6122C255.132 77.7334 257.071 76.0516 259.366 74.7962C261.657 73.5389 264.305 72.7168 267.094 72.5132C272.654 72.0755 278.799 74.3402 282.783 79.0399L283.536 79.9359L284.197 80.8949C284.668 81.5137 284.985 82.2238 285.375 82.8837C285.556 83.222 285.689 83.5828 285.847 83.9297C285.989 84.2837 286.177 84.6192 286.277 84.987C286.498 85.7128 286.78 86.418 286.906 87.1609C287.576 90.0894 287.53 93.0973 286.88 95.8697C286.211 98.6425 284.915 101.156 283.256 103.232C281.595 105.312 279.567 106.954 277.42 108.111C275.271 109.273 273.008 109.946 270.84 110.223C268.67 110.505 266.587 110.421 264.722 110.037C260.965 109.298 258.136 107.567 256.243 106.007C256.212 105.981 256.166 105.985 256.14 106.016C256.118 106.041 256.117 106.079 256.135 106.105L256.142 106.114L256.185 106.001C254.27 106.472 252.794 106.835 251.781 107.084C251.287 107.207 250.906 107.302 250.634 107.37C250.374 107.436 250.235 107.476 250.235 107.476Z" fill="#263238"/>
<path d="M268.381 110.83C267.097 110.83 265.845 110.702 264.638 110.446C260.803 109.667 257.974 107.866 256.225 106.43L256.197 106.504L256.094 106.366L250.649 107.585C250.392 107.641 250.268 107.663 250.268 107.663L250.227 107.483L250.048 107.442C250.048 107.442 250.073 107.304 250.136 107.017L251.524 100.834C250.412 98.867 249.101 95.6993 249.045 91.6336C248.951 87.2985 250.486 82.8068 253.254 79.3122C254.845 77.3053 256.875 75.5909 259.123 74.354C261.547 73.0159 264.291 72.1994 267.057 71.9932C273.091 71.5081 279.275 74.0731 283.189 78.6914L283.956 79.6047L284.641 80.5951C284.966 81.0241 285.225 81.5035 285.476 81.967C285.597 82.1908 285.718 82.4142 285.847 82.6324C285.973 82.8699 286.075 83.11 286.174 83.3423C286.227 83.467 286.279 83.5917 286.336 83.7149C286.388 83.844 286.442 83.9628 286.495 84.0815C286.601 84.3168 286.712 84.5599 286.783 84.8211C286.843 85.0204 286.911 85.2241 286.979 85.4275C287.152 85.9519 287.332 86.4936 287.427 87.0525C288.091 89.9727 288.078 93.0668 287.386 95.991C286.725 98.713 285.433 101.325 283.649 103.546C282.013 105.586 279.937 107.31 277.647 108.534C275.547 109.659 273.276 110.378 270.896 110.671C270.047 110.777 269.208 110.83 268.381 110.83ZM256.423 105.909C258.126 107.302 260.942 109.1 264.758 109.851C266.651 110.24 268.746 110.304 270.816 110.035C273.115 109.741 275.307 109.037 277.329 107.944C279.536 106.755 281.534 105.085 283.108 103.113C284.822 100.966 286.063 98.4462 286.695 95.8252C287.357 93.006 287.366 90.0242 286.721 87.2035C286.632 86.6773 286.469 86.1867 286.297 85.6672C286.228 85.4598 286.159 85.252 286.095 85.0423C286.032 84.8119 285.936 84.5985 285.833 84.3728C285.778 84.2496 285.721 84.126 285.671 84.0003C285.617 83.883 285.563 83.7557 285.509 83.628C285.415 83.4094 285.32 83.1831 285.208 82.9734C285.081 82.76 284.959 82.5341 284.837 82.3073C284.598 81.8672 284.352 81.4122 284.046 81.01L283.379 80.044L282.637 79.162C278.873 74.721 272.931 72.2466 267.109 72.7023C264.443 72.8971 261.798 73.6786 259.457 74.963C257.286 76.1509 255.323 77.7997 253.78 79.7308C251.095 83.0966 249.592 87.4321 249.656 91.6255C249.684 95.2091 250.72 98.0922 251.705 100.031L251.78 99.6986L251.866 100.341C251.925 100.451 251.983 100.557 252.041 100.66C252.073 100.719 252.083 100.787 252.067 100.851L251.982 101.202L252.058 101.765L251.908 101.503L250.536 107.076C250.524 107.123 250.513 107.167 250.503 107.208C250.53 107.201 250.558 107.194 250.588 107.186L256.065 105.835C256.098 105.816 256.136 105.804 256.175 105.801C256.186 105.8 256.197 105.8 256.207 105.8L256.221 105.796L256.292 105.733L256.319 105.772L256.492 105.73L256.423 105.909Z" fill="#263238"/>
<path d="M259.601 91.9157L262.271 88.9629L267.935 93.5092L276.348 83.8477L279.1 86.5273L267.806 98.9508L259.601 91.9157Z" fill="#B3CAFF"/>
<path d="M127.277 340.493C127.046 340.493 126.814 340.486 126.583 340.473C112.891 339.709 103.89 316.547 106.092 287.742C107.129 274.186 110.54 261.561 115.696 252.19C121.032 242.493 127.698 237.371 134.442 237.736C148.135 238.501 157.136 261.662 154.933 290.467C153.896 304.023 150.485 316.649 145.33 326.019C140.176 335.384 133.79 340.493 127.277 340.493ZM133.769 239.997C128.412 239.997 122.735 244.758 118.112 253.16C113.094 262.278 109.771 274.612 108.755 287.89C106.72 314.503 114.964 337.541 126.757 338.199C132.247 338.52 138.146 333.714 142.914 325.05C147.931 315.931 151.254 303.597 152.27 290.319C154.305 263.707 146.061 240.669 134.268 240.011C134.102 240.001 133.935 239.997 133.769 239.997Z" fill="white"/>
<path d="M133.769 239.997C133.769 239.997 133.999 239.975 134.445 240.011C134.672 240.035 134.948 240.064 135.275 240.097C135.601 240.148 135.97 240.249 136.395 240.341C138.063 240.799 140.32 242.054 142.363 244.307C144.397 246.557 146.296 249.674 147.842 253.478C149.387 257.284 150.646 261.76 151.499 266.774C153.183 276.795 153.381 288.99 150.911 302.229C150.29 305.536 149.477 308.903 148.433 312.295C147.385 315.686 146.118 319.11 144.478 322.482C142.851 325.852 140.872 329.197 138.234 332.241C136.906 333.752 135.389 335.181 133.583 336.348C132.687 336.937 131.7 337.44 130.637 337.807C129.584 338.195 128.425 338.401 127.264 338.397C126.103 338.398 124.941 338.193 123.895 337.782C123.35 337.614 122.877 337.331 122.375 337.097C121.921 336.803 121.428 336.55 121.019 336.214C119.301 334.944 117.942 333.393 116.802 331.772C114.542 328.507 113.057 324.975 111.891 321.469C109.614 314.424 108.677 307.386 108.35 300.699C108.038 294.003 108.422 287.627 109.216 281.711C110.014 275.794 111.239 270.329 112.799 265.441C115.879 255.669 120.306 248.143 124.897 244.003C127.158 241.916 129.468 240.762 131.144 240.339C131.353 240.285 131.55 240.233 131.734 240.185C131.924 240.156 132.1 240.128 132.265 240.103C132.591 240.047 132.867 240.013 133.092 240.014C133.54 239.996 133.769 239.997 133.769 239.997C133.777 240.044 132.83 239.959 131.172 240.415C129.522 240.858 127.254 242.02 125.029 244.108C120.511 248.249 116.146 255.761 113.116 265.514C111.58 270.392 110.377 275.845 109.598 281.748C108.823 287.651 108.454 294.01 108.776 300.684C109.113 307.349 110.058 314.363 112.328 321.364C113.489 324.848 114.968 328.353 117.197 331.57C118.321 333.166 119.656 334.685 121.319 335.913C121.716 336.241 122.19 336.481 122.627 336.766C123.107 336.987 123.561 337.261 124.078 337.419C125.073 337.811 126.17 338.002 127.265 338.001C128.358 338.005 129.454 337.813 130.463 337.441C131.48 337.089 132.434 336.605 133.305 336.032C135.061 334.898 136.555 333.495 137.866 332.005C140.47 329.002 142.439 325.683 144.058 322.334C147.293 315.616 149.215 308.751 150.49 302.171C152.975 288.975 152.813 276.81 151.174 266.814C150.345 261.812 149.112 257.347 147.597 253.551C146.081 249.756 144.216 246.648 142.22 244.402C140.215 242.152 138.005 240.894 136.365 240.417C135.947 240.32 135.583 240.213 135.261 240.157L134.441 240.052C133.999 240.002 133.768 240.011 133.769 239.997Z" fill="#263238"/>
<path d="M127.277 340.493C127.271 340.445 128.269 340.524 130.063 340.128C130.959 339.933 132.025 339.561 133.207 339.003C134.37 338.415 135.631 337.62 136.901 336.584C139.44 334.504 141.955 331.467 144.236 327.671C146.492 323.862 148.538 319.3 150.224 314.121C153.547 303.76 155.577 290.917 154.915 276.705C154.533 269.616 153.485 262.144 150.838 254.751C149.506 251.07 147.734 247.394 145.105 244.115C143.779 242.491 142.212 240.974 140.31 239.806C138.399 238.675 136.124 237.896 133.757 237.932C131.388 237.894 129.114 238.672 127.143 239.726C125.176 240.82 123.493 242.24 122.011 243.765C119.045 246.837 116.883 250.351 115.056 253.875C111.471 260.978 109.369 268.28 107.977 275.279C105.304 289.319 105.475 302.281 107.338 312.905C108.278 318.22 109.71 322.955 111.497 326.94C113.272 330.926 115.477 334.151 117.85 336.364C120.195 338.611 122.717 339.73 124.495 340.121C125.382 340.352 126.092 340.382 126.56 340.451C127.034 340.474 127.277 340.493 127.277 340.493C127.277 340.493 127.034 340.502 126.557 340.491C126.086 340.436 125.369 340.418 124.47 340.198C122.67 339.829 120.102 338.719 117.717 336.468C115.303 334.252 113.062 331.016 111.255 327.02C109.437 323.024 107.978 318.277 107.015 312.948C105.105 302.296 104.899 289.305 107.556 275.219C108.941 268.196 111.04 260.867 114.64 253.721C116.476 250.173 118.649 246.631 121.656 243.515C123.159 241.966 124.871 240.518 126.892 239.394C128.917 238.309 131.28 237.498 133.757 237.536C136.231 237.499 138.607 238.314 140.577 239.483C142.539 240.688 144.136 242.24 145.483 243.89C148.153 247.222 149.933 250.93 151.271 254.636C153.929 262.079 154.969 269.577 155.342 276.689C155.982 290.945 153.912 303.813 150.54 314.196C148.828 319.386 146.754 323.956 144.466 327.772C142.154 331.575 139.603 334.617 137.026 336.695C135.736 337.731 134.455 338.523 133.275 339.105C132.075 339.658 130.994 340.021 130.086 340.205C129.183 340.393 128.474 340.475 127.997 340.478C127.521 340.495 127.277 340.493 127.277 340.493Z" fill="#263238"/>
<g opacity="0.3">
<path d="M127.277 340.493C127.046 340.493 126.814 340.486 126.583 340.473C112.891 339.709 103.89 316.547 106.092 287.742C107.129 274.186 110.54 261.561 115.696 252.19C121.032 242.493 127.698 237.371 134.442 237.736C148.135 238.501 157.136 261.662 154.933 290.467C153.896 304.023 150.485 316.649 145.33 326.019C140.176 335.384 133.79 340.493 127.277 340.493ZM133.769 239.997C128.412 239.997 122.735 244.758 118.112 253.16C113.094 262.278 109.771 274.612 108.755 287.89C106.72 314.503 114.964 337.541 126.757 338.199C132.247 338.52 138.146 333.714 142.914 325.05C147.931 315.931 151.254 303.597 152.27 290.319C154.305 263.707 146.061 240.669 134.268 240.011C134.102 240.001 133.935 239.997 133.769 239.997Z" fill="black"/>
</g>
<path d="M164.394 248.562C159.823 236.327 152.568 229.324 143.964 228.845C135.389 228.357 127.102 234.501 120.705 246.125C114.85 256.767 110.98 271.059 109.809 286.373C108.637 301.686 110.297 316.288 114.481 327.489C119.052 339.725 126.307 346.728 134.911 347.207C135.223 347.225 135.535 347.233 135.848 347.233C144.112 347.233 152.007 341.127 158.17 329.926C164.025 319.285 167.895 304.992 169.066 289.678C170.238 274.366 168.578 259.764 164.394 248.562ZM161.078 289.233C159.97 303.713 156.364 317.133 150.924 327.019C146.167 335.664 140.386 340.666 135.432 340.384C130.489 340.108 125.508 334.511 122.108 325.411C118.221 315.004 116.69 301.299 117.798 286.818C118.905 272.338 122.511 258.919 127.951 249.033C132.583 240.615 138.195 235.657 143.051 235.657C143.183 235.657 143.313 235.66 143.443 235.667C148.386 235.943 153.368 241.54 156.767 250.641C160.654 261.047 162.185 274.753 161.078 289.233Z" fill="#455A64"/>
<path d="M161.078 289.233C161.078 289.233 161.075 289.027 161.094 288.627C161.115 288.215 161.146 287.623 161.187 286.85C161.255 285.287 161.354 282.982 161.331 280.013C161.315 277.045 161.187 273.411 160.745 269.212C160.524 267.113 160.223 264.873 159.785 262.513C159.355 260.152 158.811 257.667 158.057 255.096C157.3 252.527 156.385 249.855 155.121 247.174C153.845 244.507 152.291 241.767 149.985 239.369C148.825 238.196 147.485 237.056 145.799 236.396C144.976 236.031 144.053 235.874 143.131 235.831C142.202 235.842 141.273 236.011 140.388 236.313C138.629 236.951 137.072 238.012 135.683 239.215C134.294 240.428 133.065 241.805 131.941 243.264C127.475 249.14 124.507 256.156 122.252 263.517C120.037 270.908 118.665 278.755 118.029 286.827C117.429 294.904 117.594 302.839 118.664 310.415C119.777 317.966 121.656 325.252 125.185 331.578C126.075 333.15 127.095 334.646 128.281 336.007C129.461 337.365 130.861 338.578 132.509 339.4C134.146 340.242 136.135 340.449 137.885 339.925C139.657 339.459 141.16 338.476 142.488 337.442C145.138 335.319 147.095 332.773 148.765 330.271C150.427 327.753 151.741 325.205 152.883 322.742C154.022 320.276 154.94 317.873 155.726 315.58C156.52 313.289 157.16 311.101 157.698 309.045C158.776 304.93 159.456 301.342 159.925 298.401C160.4 295.46 160.653 293.165 160.823 291.608C160.9 290.837 160.96 290.247 161.001 289.836C161.044 289.437 161.078 289.233 161.078 289.233C161.078 289.233 161.076 289.439 161.048 289.839C161.018 290.251 160.973 290.842 160.916 291.615C160.775 293.174 160.551 295.474 160.104 298.422C159.662 301.369 159.007 304.966 157.951 309.093C157.424 311.155 156.794 313.35 156.009 315.65C155.232 317.952 154.322 320.365 153.188 322.844C152.051 325.32 150.741 327.881 149.077 330.42C147.402 332.944 145.442 335.514 142.75 337.682C141.398 338.738 139.865 339.752 138.005 340.247C136.173 340.806 134.012 340.584 132.308 339.703C130.584 338.846 129.152 337.601 127.947 336.221C126.737 334.838 125.703 333.324 124.801 331.737C121.228 325.354 119.338 318.042 118.214 310.461C117.134 302.858 116.965 294.901 117.567 286.801C118.204 278.706 119.584 270.837 121.813 263.421C124.084 256.032 127.066 248.991 131.585 243.063C132.723 241.591 133.968 240.198 135.385 238.966C136.802 237.743 138.396 236.655 140.234 235.991C141.16 235.676 142.144 235.496 143.137 235.487C144.123 235.532 145.107 235.707 145.968 236.09C147.735 236.788 149.101 237.963 150.281 239.16C152.622 241.607 154.175 244.372 155.452 247.06C156.716 249.762 157.625 252.448 158.375 255.029C159.122 257.612 159.657 260.107 160.076 262.475C160.504 264.842 160.794 267.089 161.003 269.193C161.421 273.402 161.523 277.042 161.512 280.013C161.507 282.986 161.378 285.292 161.28 286.853C161.219 287.626 161.173 288.218 161.141 288.629C161.107 289.029 161.078 289.233 161.078 289.233Z" fill="#263238"/>
<path d="M164.394 248.562C164.394 248.562 164.773 249.48 165.372 251.258C165.975 253.036 166.744 255.69 167.484 259.149C168.972 266.058 170.132 276.263 169.286 288.828C168.85 295.103 167.947 301.968 166.174 309.212C165.285 312.831 164.177 316.543 162.768 320.298C161.367 324.053 159.647 327.849 157.459 331.574C155.263 335.283 152.58 338.957 148.966 342.075C147.156 343.62 145.085 345.006 142.721 345.995C141.552 346.513 140.281 346.854 138.993 347.133C137.686 347.341 136.349 347.473 135.004 347.404C132.315 347.269 129.684 346.45 127.406 345.181C125.11 343.916 123.19 342.195 121.534 340.325C118.215 336.555 116.016 332.112 114.263 327.557C110.883 318.367 109.63 308.957 109.29 299.923C109 290.871 109.703 282.125 111.187 273.904C112.669 265.685 114.935 257.973 118.051 251.062C119.604 247.608 121.369 244.351 123.426 241.392C125.489 238.445 127.773 235.735 130.482 233.577C133.146 231.398 136.245 229.754 139.506 229.074C142.768 228.373 146.051 228.745 148.76 229.715C151.464 230.733 153.617 232.254 155.318 233.824C157.022 235.404 158.316 237.033 159.379 238.54C161.444 241.59 162.614 244.148 163.355 245.884C164.079 247.628 164.394 248.562 164.394 248.562C164.394 248.562 164.288 248.337 164.102 247.89C163.907 247.446 163.663 246.772 163.268 245.912C162.5 244.187 161.304 241.644 159.224 238.619C158.154 237.125 156.856 235.511 155.157 233.952C153.461 232.403 151.323 230.91 148.659 229.919C145.99 228.975 142.772 228.622 139.577 229.318C136.382 229.994 133.336 231.618 130.708 233.78C128.035 235.92 125.776 238.614 123.734 241.547C121.698 244.492 119.948 247.736 118.41 251.18C115.321 258.068 113.075 265.76 111.609 273.959C110.14 282.159 109.448 290.886 109.743 299.911C110.088 308.919 111.344 318.3 114.705 327.436C116.446 331.963 118.631 336.372 121.902 340.089C123.534 341.932 125.419 343.621 127.657 344.854C129.879 346.091 132.425 346.884 135.03 347.017C136.333 347.085 137.629 346.956 138.897 346.756C140.147 346.485 141.383 346.156 142.524 345.651C144.831 344.687 146.868 343.33 148.654 341.807C152.22 338.736 154.891 335.094 157.078 331.41C159.258 327.709 160.978 323.931 162.381 320.191C163.791 316.452 164.904 312.753 165.798 309.144C167.583 301.923 168.503 295.074 168.959 288.812C169.845 276.272 168.738 266.082 167.306 259.176C166.595 255.718 165.855 253.062 165.282 251.28C165.018 250.383 164.758 249.713 164.614 249.255C164.461 248.799 164.394 248.562 164.394 248.562Z" fill="#263238"/>
<g opacity="0.3">
<path d="M164.395 248.562C159.824 236.327 152.569 229.324 143.965 228.845C135.389 228.357 127.102 234.501 120.706 246.125C114.851 256.767 110.98 271.059 109.809 286.373C108.637 301.686 110.298 316.288 114.481 327.489C119.053 339.725 126.307 346.728 134.911 347.207C135.224 347.225 135.536 347.233 135.849 347.233C144.113 347.233 152.008 341.127 158.17 329.926C164.026 319.285 167.896 304.992 169.067 289.678C170.239 274.366 168.579 259.764 164.395 248.562ZM161.078 289.233C159.97 303.713 156.364 317.133 150.924 327.019C146.167 335.664 140.387 340.666 135.432 340.384C130.489 340.108 125.508 334.511 122.109 325.411C118.221 315.004 116.69 301.299 117.798 286.818C118.906 272.338 122.512 258.919 127.952 249.033C132.584 240.615 138.196 235.657 143.052 235.657C143.183 235.657 143.314 235.66 143.444 235.667C148.387 235.943 153.368 241.54 156.767 250.641C160.655 261.047 162.186 274.753 161.078 289.233Z" fill="black"/>
<path d="M135.849 347.233C135.536 347.233 135.224 347.225 134.911 347.207C126.307 346.728 119.053 339.725 114.481 327.489C110.298 316.288 108.637 301.686 109.809 286.373C110.98 271.059 114.851 256.767 120.706 246.125C127.102 234.501 135.389 228.357 143.965 228.845C152.569 229.324 159.824 236.327 164.395 248.562C168.579 259.764 170.239 274.366 169.067 289.678C167.896 304.992 164.026 319.285 158.17 329.926C152.008 341.127 144.113 347.233 135.849 347.233ZM143.052 235.657C138.196 235.657 132.584 240.615 127.952 249.033C122.512 258.919 118.906 272.338 117.798 286.818C116.69 301.299 118.221 315.004 122.109 325.411C125.508 334.511 130.489 340.108 135.432 340.384C140.387 340.666 146.167 335.664 150.924 327.019C156.364 317.133 159.97 303.713 161.078 289.233C162.186 274.753 160.655 261.047 156.767 250.641C153.368 241.54 148.387 235.943 143.444 235.667C143.314 235.66 143.183 235.657 143.052 235.657Z" fill="black"/>
</g>
<path d="M147.479 289.045C146.941 296.08 143.883 301.636 140.65 301.456C137.416 301.275 135.231 295.426 135.769 288.392C136.308 281.357 139.365 275.801 142.598 275.981C145.832 276.161 148.017 282.01 147.479 289.045Z" fill="#263238"/>
<path d="M128.942 355.193C136.651 355.193 142.899 349.396 142.899 342.245C142.899 335.094 136.651 329.297 128.942 329.297C121.234 329.297 114.985 335.094 114.985 342.245C114.985 349.396 121.234 355.193 128.942 355.193Z" fill="#455A64"/>
<g opacity="0.4">
<path d="M128.942 355.193C136.651 355.193 142.899 349.396 142.899 342.245C142.899 335.094 136.651 329.297 128.942 329.297C121.234 329.297 114.985 335.094 114.985 342.245C114.985 349.396 121.234 355.193 128.942 355.193Z" fill="black"/>
</g>
<path d="M133.248 342.245C133.248 344.451 131.32 346.24 128.942 346.24C126.564 346.24 124.636 344.451 124.636 342.245C124.636 340.039 126.564 338.25 128.942 338.25C131.32 338.25 133.248 340.039 133.248 342.245Z" fill="white"/>
<path d="M130.727 309.235H138.192V319.238H142.236C142.236 319.238 141.407 333.281 139.748 335.878C138.604 337.668 133.866 341.514 131.031 343.731C129.892 344.622 128.169 344.367 127.382 343.194C126.844 342.39 126.899 341.362 127.523 340.613C128.962 338.885 131.455 335.739 132.179 333.858C133.216 331.165 132.179 320.104 132.179 320.104H130.727V309.235Z" fill="#263238"/>
<g opacity="0.3">
<path d="M130.727 309.235H138.192V319.238H142.236C142.236 319.238 141.407 333.281 139.748 335.878C138.604 337.668 133.866 341.514 131.031 343.731C129.892 344.622 128.169 344.367 127.382 343.194C126.844 342.39 126.899 341.362 127.523 340.613C128.962 338.885 131.455 335.739 132.179 333.858C133.216 331.165 132.179 320.104 132.179 320.104H130.727V309.235Z" fill="black"/>
</g>
<path d="M129.144 254.455C129.476 255.452 149.55 275.739 210.185 265.097L256.964 261.088L256.852 248.136L131.804 244.81L129.144 254.455Z" fill="#263238"/>
<path d="M130.278 231.126V208.433C130.278 206.079 132.421 204.17 135.064 204.17H169.391C172.035 204.17 174.178 206.079 174.178 208.433V231.94C174.178 234.339 171.956 236.266 169.264 236.202L134.937 235.388C132.344 235.327 130.278 233.437 130.278 231.126Z" fill="#263238"/>
<path d="M261.115 189.25C261.115 189.25 255.251 165.312 246.125 166.045L241.571 167.841L255.446 191.843L261.115 189.25Z" fill="#455A64"/>
<path d="M249.846 179.272C254.3 179.529 258.809 179.795 263.057 181.157C267.305 182.519 271.332 185.12 273.479 189.03C275.376 192.486 275.634 196.574 275.851 200.511C276.415 210.76 276.98 221.026 276.634 231.286C276.491 235.527 276.096 240.034 273.535 243.416C270.152 247.884 264.062 249.096 258.53 249.988C256.328 250.342 254.085 250.698 251.877 250.377C249.67 250.056 247.464 248.948 246.367 247.006C245.298 245.115 245.437 242.802 245.605 240.637C247.204 220.11 248.803 199.583 250.403 179.055" fill="#455A64"/>
<path d="M256.504 196.106C256.449 196.12 256.217 195.415 255.857 194.273C255.497 193.131 255 191.555 254.418 189.825C253.835 188.095 253.278 186.54 252.874 185.412C252.471 184.285 252.228 183.583 252.28 183.562C252.329 183.541 252.663 184.206 253.135 185.31C253.606 186.415 254.208 187.962 254.793 189.699C255.377 191.436 255.834 193.032 256.126 194.197C256.419 195.362 256.555 196.093 256.504 196.106Z" fill="#263238"/>
<path d="M261.538 191.247C261.483 191.261 261.252 190.555 260.891 189.414C260.531 188.272 260.034 186.696 259.452 184.966C258.869 183.236 258.312 181.68 257.908 180.553C257.505 179.425 257.262 178.724 257.315 178.702C257.363 178.682 257.697 179.346 258.169 180.451C258.64 181.555 259.242 183.102 259.827 184.84C260.411 186.577 260.868 188.173 261.16 189.337C261.453 190.502 261.589 191.233 261.538 191.247Z" fill="#263238"/>
<path d="M265.838 181.951C265.848 181.942 265.96 182.056 266.163 182.283C266.377 182.503 266.653 182.859 266.99 183.332C267.658 184.281 268.44 185.797 269.018 187.796C269.597 189.794 269.943 192.253 270.148 194.978C270.365 197.704 270.47 200.708 270.532 203.858C270.654 210.162 270.58 215.87 270.426 219.998C270.343 222.063 270.243 223.732 270.141 224.883C270.097 225.459 270.037 225.905 270.002 226.207C269.964 226.509 269.938 226.667 269.924 226.665C269.911 226.664 269.911 226.504 269.923 226.2C269.94 225.854 269.961 225.415 269.987 224.873C270.042 223.721 270.1 222.052 270.147 219.99C270.229 215.865 270.258 210.163 270.137 203.866C270.074 200.719 269.981 197.723 269.784 195.005C269.6 192.288 269.285 189.853 268.748 187.871C268.212 185.89 267.482 184.381 266.861 183.417C266.245 182.447 265.801 181.982 265.838 181.951Z" fill="#263238"/>
<path d="M269.912 227.113C269.946 227.07 270.404 227.369 271.116 227.886C271.513 228.183 271.925 228.491 272.355 228.812C272.575 229 272.85 229.132 273.075 229.475C273.314 229.847 273.135 230.369 272.788 230.592C272.419 230.842 271.976 230.784 271.656 230.63C271.323 230.467 271.094 230.206 270.92 229.956C270.581 229.451 270.368 228.96 270.218 228.537C269.926 227.688 269.887 227.134 269.933 227.125C269.993 227.11 270.131 227.641 270.478 228.434C270.654 228.827 270.89 229.292 271.216 229.743C271.379 229.962 271.579 230.167 271.821 230.279C272.062 230.393 272.364 230.408 272.561 230.268C272.771 230.12 272.859 229.853 272.739 229.669C272.625 229.467 272.345 229.286 272.128 229.098C271.717 228.754 271.322 228.424 270.942 228.106C270.274 227.532 269.878 227.156 269.912 227.113Z" fill="#263238"/>
<path d="M277.025 217.171C277.022 217.28 275.919 217.343 274.561 217.312C273.202 217.28 272.103 217.166 272.105 217.057C272.108 216.947 273.211 216.884 274.57 216.916C275.928 216.947 277.027 217.062 277.025 217.171Z" fill="#263238"/>
<path d="M252.85 240.224C251.476 236.711 252.845 171.257 252.85 167.863C252.856 163.366 170.076 165.045 170.076 165.045L167.542 240.224H252.85Z" fill="#263238"/>
<path d="M251.491 172.037C251.353 169.94 251.335 167.837 251.456 165.739C251.561 163.921 251.615 161.908 252.207 160.168C252.276 159.962 252.13 160.317 252.29 159.997C252.417 159.807 252.439 159.764 252.357 159.868C252.271 159.969 252.305 159.935 252.46 159.765C252.236 159.927 252.546 159.711 252.637 159.665C252.768 159.596 252.763 159.6 252.622 159.676C252.724 159.643 252.828 159.616 252.933 159.595C253.133 159.545 252.764 159.583 253.128 159.568C253.35 159.559 253.57 159.552 253.793 159.555C254.245 159.561 254.697 159.596 255.148 159.628C257.155 159.769 259.112 160 261.078 160.33C262.203 160.519 263.354 160.034 263.678 158.854C263.957 157.84 263.334 156.443 262.202 156.253C259.729 155.838 257.234 155.53 254.731 155.372C252.393 155.224 250.01 155.602 248.693 157.774C248.171 158.636 247.928 159.635 247.777 160.619C247.573 161.938 247.414 163.266 247.307 164.596C247.109 167.072 247.1 169.558 247.264 172.037C247.339 173.176 248.181 174.151 249.378 174.151C250.464 174.151 251.567 173.182 251.491 172.037Z" fill="#263238"/>
<path d="M246.49 166.028C246.49 166.028 243.207 191.434 255.446 198.815L253.054 203.991C253.054 203.991 244.276 202.414 242.329 194.289C240.382 186.165 239.725 165.514 239.725 165.514C241.935 164.471 244.199 164.892 246.49 166.028Z" fill="#455A64"/>
<path d="M189.97 147.79L195.775 146.673L213.073 145.292C213.073 145.292 220.938 146.785 220.755 146.815C220.572 146.845 210.76 160.074 197.584 159.558C184.408 159.043 189.97 147.79 189.97 147.79Z" fill="#FFBF9D"/>
<path d="M114.729 316.795L114.161 326.204C114.161 326.204 91.5103 329.45 90.5889 332.861L131.728 339.987L132.763 319.638L114.729 316.795Z" fill="#263238"/>
<path d="M131.728 339.987L132.192 337.038L92.575 331.309C92.575 331.309 90.6054 331.692 90.5889 332.861L131.728 339.987Z" fill="#455A64"/>
<path d="M113.53 325.904C113.502 326.082 114.491 326.336 115.367 327.075C116.265 327.794 116.624 328.647 116.823 328.609C117.014 328.607 116.923 327.499 115.844 326.621C114.775 325.735 113.519 325.735 113.53 325.904Z" fill="white"/>
<path d="M108.906 326.725C108.826 326.888 109.637 327.339 110.172 328.204C110.735 329.055 110.748 329.892 110.95 329.919C111.133 329.98 111.476 328.97 110.788 327.905C110.111 326.836 108.943 326.557 108.906 326.725Z" fill="white"/>
<path d="M105.56 330.838C105.735 330.907 106.189 330.074 105.864 329.018C105.547 327.96 104.675 327.415 104.561 327.547C104.419 327.673 104.926 328.297 105.178 329.167C105.454 330.032 105.364 330.786 105.56 330.838Z" fill="white"/>
<path d="M114.733 321.707C114.785 321.882 115.755 321.798 116.877 322.063C118.005 322.307 118.822 322.795 118.957 322.662C119.098 322.554 118.364 321.752 117.038 321.457C115.715 321.152 114.662 321.551 114.733 321.707Z" fill="white"/>
<path d="M225.232 206.957L229.499 148.877L218.681 145.493C218.681 145.493 208.507 158.316 196.799 158.037C185.092 157.758 190.697 147.691 190.697 147.691L178.726 149.363C176.04 149.738 173.648 151.255 172.164 153.525L160.283 171.696L172.827 179.082L174.226 178.648C174.888 186.39 177.673 201.163 178.709 206.503C178.956 207.779 178.68 209.099 177.942 210.17L172.082 218.684C172.082 218.684 224.632 232.655 229.092 225.519C233.552 218.382 225.232 206.957 225.232 206.957Z" fill="#B3CAFF"/>
<path d="M132.303 258.623V317.511C132.303 320.023 136.208 320.028 136.208 317.511V258.623C136.208 256.11 132.303 256.106 132.303 258.623Z" fill="#455A64"/>
<path d="M206.268 258.779V322.531C206.268 325.251 210.495 325.256 210.495 322.531V258.779C210.495 256.059 206.268 256.054 206.268 258.779Z" fill="#455A64"/>
<path d="M170.186 347.457C172.516 337.497 175.338 327.625 177.99 317.736C180.731 307.516 183.61 297.312 186.078 287.031C186.516 285.207 186.873 283.325 187.652 281.591C188.03 280.751 188.551 280 189.104 279.254C189.403 278.851 188.871 279.468 189.299 279.023C189.469 278.846 189.635 278.667 189.817 278.501C189.93 278.399 190.637 277.883 190.183 278.181C190.426 278.021 190.674 277.871 190.935 277.738C191.062 277.673 191.19 277.614 191.32 277.555C191.837 277.319 190.924 277.673 191.495 277.488C191.883 277.363 192.274 277.254 192.675 277.171C194.507 276.793 204.173 276.963 206.268 277.275C207.394 277.443 208.542 277.005 208.868 275.905C209.145 274.971 208.525 273.662 207.392 273.493C203.597 272.927 192.042 272.549 188.583 274.467C185.869 275.971 184.173 278.778 183.213 281.48C182.391 283.794 181.952 286.237 181.352 288.609C180.789 290.836 180.208 293.059 179.624 295.281C176.406 307.525 173.076 319.743 169.828 331.98C168.553 336.782 167.24 341.581 166.109 346.415C165.534 348.876 169.608 349.927 170.186 347.457Z" fill="#455A64"/>
<path d="M202.189 359.147C209.784 359.147 215.941 352.871 215.941 345.129C215.941 337.388 209.784 331.112 202.189 331.112C194.594 331.112 188.437 337.388 188.437 345.129C188.437 352.871 194.594 359.147 202.189 359.147Z" fill="#455A64"/>
<path d="M207.091 345.129C207.091 347.518 205.004 349.454 202.43 349.454C199.855 349.454 197.768 347.518 197.768 345.129C197.768 342.741 199.855 340.805 202.43 340.805C205.004 340.805 207.091 342.741 207.091 345.129Z" fill="white"/>
<path d="M204.362 309.393H212.444V320.222H216.821C216.821 320.222 215.924 335.425 214.128 338.237C212.89 340.174 207.76 344.338 204.691 346.739C203.458 347.703 201.592 347.427 200.741 346.157C200.158 345.286 200.218 344.173 200.893 343.362C202.451 341.492 205.15 338.085 205.934 336.05C207.056 333.134 205.934 321.159 205.934 321.159H204.362V309.393Z" fill="#263238"/>
<path d="M207.772 167.619C207.832 168.549 210.961 206.783 206.689 209.14C202.417 211.497 182.286 207.887 180.853 206.802C179.42 205.716 176.046 168.774 177.519 166.859C178.993 164.944 207.662 165.913 207.772 167.619Z" fill="#455A64"/>
<path d="M178.535 167.531C178.535 167.531 204.271 168.525 204.781 169.262C205.291 170 206.028 205.832 206.766 205.832C207.504 205.832 208.368 204.593 208.368 204.593C208.368 204.593 207.549 168.894 207.188 167.998C206.826 167.101 184.332 165.318 178.535 167.531Z" fill="white"/>
<path d="M187.323 166.867H189.467L189.654 164.887H187.206L187.323 166.867Z" fill="#FFBF9D"/>
<path d="M192.892 167.657H194.416L194.549 164.887H192.808L192.892 167.657Z" fill="#263238"/>
<path d="M236.865 175.282C236.865 175.282 240.842 200.546 235.964 205.842C231.086 211.139 230.947 210.024 225.093 209.048C219.239 208.072 187.462 196.365 187.601 196.644C187.74 196.922 191.643 186.887 191.643 186.887L222.584 191.269L221.887 177.828L236.865 175.282Z" fill="#FFBF9D"/>
<path d="M160.981 172.106C160.298 172.803 145.092 194.355 145.092 198.147C145.092 201.94 147.601 204.17 147.601 204.17H189.343L189.97 194.553L162.235 191.269L171.883 178.526L160.981 172.106Z" fill="#FFBF9D"/>
<path d="M191.873 186.92C191.873 186.92 182.814 180.816 181.227 180.663C179.64 180.509 173.292 179.792 173.292 179.792C173.292 179.792 170.528 180.919 169.913 182.301C169.299 183.683 169.913 184.656 169.913 184.656C169.913 184.656 168.531 185.857 168.838 186.92C169.146 187.983 169.709 188.188 169.709 188.188C169.709 188.188 168.084 189.826 168.794 190.696C169.504 191.566 171.603 191.874 171.603 191.874C171.603 191.874 170.937 193.051 171.961 193.614C172.985 194.177 177.469 195.969 180.244 196.276C183.018 196.583 189.301 196.644 189.301 196.644C189.301 196.644 191.465 187.345 191.554 187.116" fill="#FFBF9D"/>
<path d="M210.995 204.17C210.99 204.746 212.389 206.786 208.499 207.593C208.499 207.593 208.572 210.753 204.535 210.164C200.498 209.575 189.342 204.17 189.342 204.17C189.342 204.17 189.058 194.651 189.97 194.553C190.883 194.455 210.334 196.583 210.408 196.95C210.481 197.317 211.236 203.85 211.236 203.85" fill="#FFBF9D"/>
<path d="M154.138 191.44C154.106 191.347 155.889 190.776 158.175 190.761C160.462 190.733 162.254 191.271 162.225 191.365C162.2 191.482 160.41 191.128 158.179 191.157C155.949 191.17 154.165 191.557 154.138 191.44Z" fill="#FF9A6C"/>
<path d="M229.092 195.552C228.995 195.63 227.97 194.125 226.097 193.009C224.239 191.866 222.431 191.656 222.455 191.534C222.439 191.438 224.351 191.475 226.302 192.671C228.264 193.845 229.184 195.521 229.092 195.552Z" fill="#FF9A6C"/>
<path d="M221.712 208.199C221.707 208.212 221.53 208.162 221.196 208.056C220.825 207.934 220.342 207.774 219.741 207.575C218.44 207.126 216.631 206.502 214.415 205.737C209.893 204.136 203.718 201.948 196.896 199.532C194.438 198.649 192.064 197.797 189.868 197.009L189.936 197.02C184.449 197.133 179.761 196.166 176.568 195.183C174.965 194.696 173.718 194.223 172.872 193.877C172.449 193.706 172.129 193.558 171.911 193.462C171.695 193.363 171.584 193.307 171.589 193.296C171.593 193.286 171.712 193.322 171.936 193.401C172.193 193.494 172.518 193.612 172.918 193.758C173.776 194.065 175.031 194.501 176.635 194.954C179.831 195.869 184.488 196.777 189.928 196.641L189.963 196.64L189.996 196.652C192.193 197.435 194.569 198.282 197.03 199.159C203.837 201.618 209.998 203.844 214.51 205.474C216.708 206.288 218.502 206.952 219.793 207.43C220.384 207.658 220.858 207.841 221.222 207.981C221.548 208.111 221.716 208.186 221.712 208.199Z" fill="#FF9A6C"/>
<path d="M174.063 160.591C174.119 160.595 174.089 161.672 174.032 163.41C173.976 165.149 173.898 167.549 173.909 170.199C173.921 172.85 174.038 175.247 174.163 176.98C174.286 178.713 174.393 179.784 174.333 179.792C174.306 179.796 174.247 179.532 174.164 179.051C174.078 178.571 173.982 177.872 173.884 177.005C173.687 175.272 173.525 172.864 173.513 170.201C173.502 167.539 173.624 165.133 173.752 163.395C173.817 162.527 173.88 161.824 173.936 161.34C173.992 160.856 174.035 160.589 174.063 160.591Z" fill="#263238"/>
<path d="M229.499 148.877C229.499 148.877 234.834 149.952 236.414 156.405C238.378 164.424 241.26 176.434 241.26 176.434L220.433 178.987L218.681 168.495L229.499 148.877Z" fill="#B3CAFF"/>
<path d="M239.725 176.622C239.726 176.636 239.605 176.662 239.372 176.7C239.093 176.741 238.757 176.789 238.353 176.848C237.402 176.966 236.134 177.124 234.595 177.316C231.42 177.694 227.031 178.19 222.182 178.713C221.59 178.776 221.005 178.839 220.454 178.898L220.254 178.919L220.237 178.719C219.855 174.257 219.534 170.287 219.322 167.432C219.227 166.051 219.149 164.917 219.09 164.062C219.044 163.27 219.031 162.833 219.056 162.831C219.082 162.829 219.144 163.261 219.235 164.05C219.324 164.902 219.443 166.032 219.587 167.409C219.87 170.258 220.237 174.224 220.629 178.685L220.412 178.506C220.963 178.446 221.547 178.383 222.139 178.319C226.989 177.796 231.382 177.345 234.565 177.038C236.109 176.897 237.382 176.781 238.336 176.695C238.744 176.665 239.082 176.641 239.364 176.621C239.599 176.609 239.723 176.609 239.725 176.622Z" fill="#263238"/>
<path d="M198.041 224.45C195.112 223.671 183.325 221.444 173.237 218.985C173.237 218.985 170.678 221.02 168.906 221.201C147.231 223.409 120.525 231.577 114.89 239.021C109.667 245.92 112.953 320.265 112.953 320.265L133.007 322.685C133.007 322.685 141.087 259.982 141.862 258.987C142.691 257.921 206.313 255.343 203.977 246.74C202.225 240.287 205.478 249.991 203.486 243.16C201.495 236.329 198.041 224.45 198.041 224.45Z" fill="#455A64"/>
<g opacity="0.2">
<path d="M148.463 258.279C148.463 258.279 134.879 245.482 149.213 235.868C163.547 226.254 179.629 225.03 179.629 225.03L174.783 222.343C174.783 222.343 190.163 224.371 189.441 224.876C188.719 225.38 161.25 257.202 160.401 257.194C159.551 257.186 148.463 258.279 148.463 258.279Z" fill="black"/>
</g>
<path d="M228.041 222.535C225.9 215.935 209.206 223.012 209.206 223.012C200.163 223.897 157.422 225.584 152.228 240.225C150.67 244.617 153.226 249.798 156.012 253.737C158.724 257.57 163.211 259.743 167.897 259.445L174.783 259.008L220.433 252.59C220.925 252.496 233.452 239.214 228.041 222.535Z" fill="#455A64"/>
<path d="M228.041 222.535C228.041 222.535 228.089 222.658 228.167 222.904C228.248 223.164 228.361 223.529 228.508 224.003C228.754 224.984 229.141 226.439 229.328 228.372C229.538 230.299 229.554 232.7 229.135 235.449C228.702 238.191 227.813 241.275 226.268 244.448C225.502 246.037 224.571 247.643 223.467 249.232C222.914 250.026 222.315 250.814 221.655 251.579C221.305 251.964 221.02 252.329 220.542 252.696C219.972 252.832 219.507 252.859 218.976 252.946C214.846 253.533 210.413 254.163 205.722 254.83C196.336 256.157 185.915 257.63 174.81 259.2L174.803 259.201L174.796 259.201C173.24 259.301 171.671 259.401 170.088 259.502C168.517 259.592 166.896 259.778 165.264 259.553C162.02 259.131 158.903 257.476 156.708 254.933C156.044 254.172 155.485 253.345 154.951 252.514C154.419 251.679 153.915 250.829 153.472 249.95C152.585 248.196 151.888 246.334 151.645 244.391C151.386 242.456 151.732 240.434 152.678 238.755C153.6 237.056 154.981 235.701 156.445 234.565C157.92 233.427 159.513 232.49 161.148 231.714C162.771 230.908 164.441 230.266 166.097 229.669C169.425 228.514 172.743 227.658 175.976 226.955C188.941 224.22 200.437 223.619 209.194 222.893L209.159 222.902C212.168 221.689 214.948 220.841 217.418 220.293C219.885 219.751 222.06 219.532 223.811 219.72C224.684 219.816 225.449 220.006 226.059 220.298C226.661 220.601 227.117 220.959 227.4 221.32C227.683 221.678 227.849 221.987 227.922 222.207C228.006 222.423 228.041 222.535 228.041 222.535C228.041 222.535 227.985 222.43 227.891 222.22C227.809 222.007 227.634 221.707 227.349 221.363C227.063 221.016 226.611 220.674 226.018 220.387C225.416 220.11 224.661 219.933 223.798 219.849C222.067 219.683 219.91 219.918 217.459 220.476C215.007 221.039 212.236 221.903 209.253 223.123L209.235 223.13L209.218 223.132C200.454 223.906 188.977 224.546 176.051 227.301C172.83 228.008 169.526 228.866 166.22 230.019C164.576 230.615 162.918 231.254 161.314 232.054C159.696 232.825 158.126 233.752 156.681 234.869C155.245 235.984 153.904 237.307 153.02 238.941C152.113 240.562 151.787 242.468 152.035 244.344C152.271 246.222 152.95 248.045 153.824 249.771C154.261 250.637 154.758 251.475 155.283 252.301C155.813 253.125 156.366 253.94 157.007 254.673C159.139 257.144 162.166 258.751 165.316 259.162C166.89 259.382 168.475 259.202 170.063 259.112C171.646 259.012 173.216 258.912 174.771 258.814L174.756 258.815C185.862 257.263 196.283 255.807 205.67 254.494C210.362 253.842 214.796 253.225 218.928 252.651L219.699 252.543L220.081 252.49L220.272 252.464L220.367 252.451L220.391 252.447C220.401 252.469 220.402 252.394 220.42 252.496C220.4 252.387 220.417 252.461 220.413 252.435L220.417 252.43C220.745 252.166 221.119 251.75 221.437 251.389C222.092 250.637 222.688 249.858 223.24 249.073C224.341 247.502 225.273 245.911 226.041 244.338C227.59 241.194 228.491 238.138 228.94 235.418C229.375 232.691 229.38 230.305 229.192 228.386C229.028 226.46 228.664 225.005 228.44 224.021C228.308 223.543 228.206 223.176 228.133 222.915C228.066 222.665 228.041 222.535 228.041 222.535Z" fill="#263238"/>
<path d="M134.193 245.886C134.231 245.854 134.825 246.474 135.694 247.554C136.564 248.632 137.696 250.183 138.807 251.985C139.916 253.789 140.79 255.498 141.361 256.761C141.933 258.024 142.219 258.833 142.173 258.853C142.119 258.876 141.743 258.108 141.109 256.883C140.477 255.658 139.571 253.983 138.47 252.193C137.367 250.403 136.281 248.84 135.472 247.723C134.664 246.606 134.147 245.924 134.193 245.886Z" fill="#263238"/>
<path d="M235.089 104.839C233.08 104.548 231.072 104.257 229.063 103.966C231.132 103.857 233.252 103.267 234.784 101.873C236.316 100.479 237.116 98.1691 236.342 96.2478C235.681 94.6062 234.022 93.5329 232.301 93.1226C230.031 92.5815 227.537 93.0602 225.629 94.4033C223.721 95.7466 222.429 97.932 222.172 100.252L225.41 108.634C225.309 109.712 225.988 110.848 227.024 111.163C228.06 111.477 229.321 110.824 229.561 109.768C229.725 109.049 229.322 108.283 228.712 107.901C230.845 108.329 233.118 108.051 235.076 107.098C235.803 106.744 236.579 105.882 236.075 105.249C235.847 104.964 235.45 104.892 235.089 104.839Z" fill="#263238"/>
<path d="M226.701 107.212C226.701 107.212 230.626 124.683 231.859 132.255C233.091 139.828 232.432 143.584 225.716 143.584C218.999 143.584 194.658 146.287 189.4 142.294C184.142 138.301 185.261 106.406 185.261 106.406L226.701 107.212Z" fill="#263238"/>
<path d="M196.135 122.573C196.377 117.642 193.206 113.479 189.051 113.275C184.897 113.071 181.333 116.903 181.091 121.835C180.849 126.766 184.021 130.929 188.175 131.132C192.329 131.336 195.893 127.504 196.135 122.573Z" fill="#455A64"/>
<path d="M224.023 101.651C219.82 95.7377 213.884 92.0948 206.655 91.4839C202.577 91.1393 200.829 91.8731 197.835 92.4669C194.841 93.0605 192.081 94.458 190.158 96.8287C187.874 99.6443 185.899 102.837 185.261 106.406C184.606 110.072 184.643 113.705 185.143 116.731C185.75 120.405 187.857 126.103 189.835 129.259L196.05 130.445C201.245 130.976 206.512 131.505 211.665 130.661C216.818 129.818 221.932 127.423 224.951 123.162C229.144 117.242 228.226 107.564 224.023 101.651Z" fill="#263238"/>
<path d="M215.639 101.02L203.409 95.1704L200.1 95.3291C192.71 94.8538 187.062 102.656 186.607 108.636C186.102 115.281 185.748 123.412 186.471 128.384C187.927 138.381 196.28 139.772 196.28 139.772C196.28 139.772 195.752 147.87 195.464 151.174L212.806 148.535L218.732 104.619C218.792 102.798 217.448 101.234 215.639 101.02Z" fill="#FFBF9D"/>
<path d="M201.407 127.081C201.374 126.557 201.116 126.078 200.77 125.738C200.076 125.057 199.004 124.923 198.179 125.413C197.354 125.903 196.827 126.988 196.906 128.034C197.307 128.672 197.955 129.129 198.7 129.244C198.816 129.262 198.933 129.274 199.05 129.28C199.619 129.303 200.21 129.151 200.672 128.761C201.134 128.372 201.448 127.727 201.407 127.081Z" fill="#FF9A6C"/>
<path d="M190.678 116.785C190.645 117.461 191.191 118.045 191.895 118.092C192.598 118.139 193.196 117.631 193.229 116.956C193.262 116.28 192.716 115.695 192.014 115.648C191.309 115.601 190.711 116.11 190.678 116.785Z" fill="#263238"/>
<path d="M188.633 112.113C188.79 112.282 189.768 111.577 191.145 111.598C192.521 111.6 193.522 112.321 193.674 112.154C193.748 112.081 193.59 111.778 193.155 111.452C192.726 111.127 191.991 110.807 191.133 110.8C190.276 110.793 189.55 111.1 189.131 111.418C188.704 111.737 188.556 112.037 188.633 112.113Z" fill="#263238"/>
<path d="M196.718 123.469C196.726 123.391 195.872 123.232 194.487 123.037C194.136 122.995 193.804 122.921 193.748 122.681C193.669 122.426 193.821 122.049 193.996 121.642C194.338 120.795 194.695 119.908 195.071 118.978C196.563 115.185 197.65 112.064 197.497 112.006C197.343 111.947 196.008 114.974 194.515 118.767C194.156 119.702 193.812 120.594 193.484 121.447C193.346 121.845 193.112 122.295 193.284 122.824C193.376 123.088 193.631 123.282 193.856 123.346C194.08 123.418 194.278 123.424 194.452 123.437C195.846 123.53 196.712 123.547 196.718 123.469Z" fill="#263238"/>
<path d="M196.265 139.76C196.265 139.76 202.971 140.279 209.672 136.368C209.672 136.368 206.092 143.245 196.119 142.182L196.265 139.76Z" fill="#FF9A6C"/>
<path d="M200.758 124.474C200.534 124.458 200.512 125.952 199.219 126.997C197.929 128.044 196.338 127.856 196.323 128.064C196.301 128.158 196.674 128.359 197.346 128.386C198.005 128.417 198.972 128.218 199.763 127.579C200.552 126.939 200.898 126.075 200.957 125.463C201.022 124.839 200.86 124.466 200.758 124.474Z" fill="#263238"/>
<path d="M189.427 107.34C189.654 107.68 190.711 107.468 191.941 107.587C193.175 107.666 194.188 108.043 194.463 107.743C194.585 107.597 194.455 107.268 194.033 106.924C193.616 106.582 192.893 106.261 192.046 106.192C191.199 106.125 190.436 106.327 189.975 106.599C189.505 106.872 189.328 107.176 189.427 107.34Z" fill="#263238"/>
<path d="M205.392 117.311C205.382 117.987 204.801 118.536 204.095 118.538C203.39 118.541 202.826 117.996 202.836 117.32C202.846 116.644 203.427 116.094 204.132 116.092C204.838 116.089 205.402 116.635 205.392 117.311Z" fill="#263238"/>
<path d="M207.233 112.842C207.066 113.001 206.134 112.236 204.759 112.17C203.386 112.084 202.341 112.741 202.2 112.565C202.131 112.487 202.307 112.194 202.763 111.896C203.211 111.6 203.965 111.327 204.821 111.373C205.678 111.421 206.382 111.773 206.78 112.117C207.187 112.463 207.315 112.771 207.233 112.842Z" fill="#263238"/>
<path d="M206.707 108.391C206.42 108.689 205.376 108.312 204.101 108.232C202.828 108.113 201.734 108.323 201.502 107.984C201.4 107.82 201.587 107.516 202.074 107.244C202.554 106.973 203.344 106.771 204.219 106.839C205.095 106.908 205.84 107.229 206.267 107.572C206.702 107.915 206.834 108.244 206.707 108.391Z" fill="#263238"/>
<path d="M215.891 121.207C215.902 120.464 216.784 118.723 217.519 118.618C219.482 118.338 223.012 118.541 222.981 123.517C222.937 130.32 215.461 129.134 215.45 128.939C215.442 128.786 215.852 123.772 215.891 121.207Z" fill="#FFBF9D"/>
<path d="M217.998 126.205C218.028 126.184 218.116 126.289 218.315 126.382C218.511 126.472 218.846 126.537 219.202 126.406C219.922 126.147 220.534 125.01 220.575 123.784C220.596 123.164 220.471 122.574 220.254 122.084C220.049 121.585 219.73 121.236 219.368 121.17C219.009 121.084 218.752 121.299 218.667 121.489C218.574 121.679 218.617 121.816 218.581 121.827C218.562 121.844 218.435 121.712 218.492 121.432C218.521 121.296 218.602 121.136 218.763 121.007C218.927 120.875 219.167 120.809 219.419 120.838C219.944 120.878 220.412 121.363 220.65 121.9C220.917 122.44 221.073 123.104 221.049 123.799C220.997 125.17 220.287 126.448 219.301 126.726C218.822 126.847 218.424 126.701 218.219 126.539C218.009 126.37 217.975 126.217 217.998 126.205Z" fill="#FF9A6C"/>
<path d="M217.794 118.656L215.952 120.325C209.002 112.706 195.685 93.9062 196.424 95.0228C196.424 95.0228 201.658 93.2741 207.12 94.5908C212.583 95.9072 222.879 99.385 222.275 105.893C221.672 112.4 217.794 118.656 217.794 118.656Z" fill="#263238"/>
<path d="M221.672 112.305C225.863 113.155 228.442 117.878 227.433 122.853C226.423 127.828 222.207 131.172 218.016 130.322C213.825 129.471 211.245 124.749 212.255 119.774C213.264 114.798 217.48 111.455 221.672 112.305Z" fill="#455A64"/>
<path d="M221.259 114.34C221.254 114.39 220.68 114.229 219.657 114.356C218.648 114.472 217.177 115.05 215.957 116.431C214.737 117.778 213.846 119.955 214.019 122.369C214.112 123.567 214.492 124.814 215.239 125.883C215.977 126.95 217.126 127.793 218.472 128.073C219.82 128.339 221.207 128.012 222.304 127.317C223.409 126.623 224.245 125.623 224.797 124.556C225.898 122.4 225.926 120.048 225.326 118.332C224.742 116.584 223.612 115.479 222.728 114.979C221.835 114.464 221.244 114.388 221.259 114.34C221.259 114.34 221.86 114.357 222.804 114.845C223.737 115.317 224.949 116.435 225.591 118.24C226.247 120.013 226.254 122.458 225.121 124.723C224.552 125.844 223.681 126.903 222.51 127.646C221.349 128.389 219.851 128.751 218.393 128.461C216.937 128.159 215.7 127.242 214.921 126.105C214.132 124.965 213.742 123.651 213.656 122.396C213.495 119.869 214.454 117.621 215.75 116.243C217.044 114.831 218.596 114.274 219.64 114.203C220.699 114.121 221.259 114.34 221.259 114.34Z" fill="#263238"/>
<path d="M217.565 113.267C217.565 113.267 217.933 94.5046 202.397 91.3956C202.397 91.3956 206.942 89.629 212.791 92.8341C218.641 96.0392 220.719 104.82 221.572 112.8L217.565 113.267Z" fill="#455A64"/>
<path d="M178.754 351.697L95.4795 337.873L96.3888 333.213L179.663 347.037L178.754 351.697Z" fill="#263238"/>
<g opacity="0.3">
<path d="M178.754 351.697L95.4795 337.873L96.3888 333.213L179.663 347.037L178.754 351.697Z" fill="black"/>
</g>
<g opacity="0.3">
<path d="M160.146 348.608L160.932 343.927L179.663 347.037L178.754 351.697L160.146 348.608Z" fill="black"/>
</g>
<path d="M214.181 254.409C214.181 254.409 214.181 216.588 217.175 209.271C220.169 201.955 255.603 200.292 257.1 207.276C258.597 214.26 257.1 250.691 257.1 250.691L214.181 254.409Z" fill="#263238"/>
<path d="M214.214 253.464C214.218 253.461 214.254 254.396 214.39 254.381C214.54 254.365 214.736 254.345 214.988 254.319C215.529 254.267 216.302 254.193 217.3 254.097C219.334 253.91 222.284 253.637 226.033 253.291C233.542 252.617 244.242 251.656 257.083 250.502L256.91 250.683C257.148 244.266 257.363 237.253 257.478 229.816C257.536 226.097 257.571 222.271 257.526 218.363C257.522 217.385 257.501 216.403 257.474 215.416C257.456 214.429 257.423 213.438 257.37 212.443C257.337 211.447 257.257 210.452 257.17 209.453C257.144 208.95 257.053 208.462 256.981 207.968C256.939 207.726 256.918 207.463 256.859 207.238C256.8 207.019 256.712 206.803 256.578 206.611C255.769 205.444 254.291 204.86 252.922 204.41C251.518 203.968 250.066 203.702 248.621 203.498C245.724 203.109 242.83 203.006 239.995 203.052C234.332 203.177 228.837 203.805 223.849 205.285C222.61 205.671 221.405 206.119 220.288 206.695C219.191 207.279 218.122 207.995 217.518 209.011C217.051 210.093 216.756 211.293 216.547 212.463C216.28 213.627 216.185 214.81 215.999 215.953C215.43 220.559 215.184 224.886 214.963 228.83C214.545 236.724 214.426 243.123 214.326 247.543C214.285 249.739 214.254 251.452 214.232 252.634C214.22 253.202 214.211 253.642 214.204 253.958C214.195 254.245 214.181 254.409 214.181 254.409C214.181 254.409 214.167 254.268 214.159 253.958C214.155 253.642 214.15 253.202 214.143 252.634C214.146 251.451 214.15 249.738 214.154 247.541C214.202 243.119 214.274 236.717 214.652 228.815C214.853 224.865 215.082 220.535 215.637 215.908C215.82 214.756 215.911 213.573 216.177 212.391C216.39 211.201 216.667 210.007 217.181 208.82C217.858 207.683 218.978 206.951 220.104 206.343C221.251 205.748 222.475 205.291 223.73 204.898C228.774 203.389 234.289 202.753 239.988 202.62C242.84 202.571 245.751 202.672 248.68 203.064C250.143 203.27 251.614 203.538 253.054 203.991C253.773 204.219 254.486 204.491 255.165 204.854C255.832 205.228 256.503 205.681 256.948 206.373C257.103 206.598 257.213 206.859 257.285 207.127C257.354 207.391 257.37 207.637 257.415 207.893C257.489 208.4 257.582 208.906 257.608 209.41C257.696 210.419 257.776 211.423 257.808 212.422C257.862 213.421 257.894 214.416 257.912 215.405C257.939 216.395 257.959 217.379 257.962 218.358C258.005 222.273 257.965 226.101 257.902 229.823C257.777 237.265 257.546 244.278 257.289 250.699L257.283 250.866L257.116 250.88C244.215 251.956 233.466 252.854 225.922 253.483C222.19 253.785 219.251 254.023 217.226 254.187C216.243 254.263 215.482 254.322 214.948 254.363C214.704 254.38 214.514 254.393 214.369 254.403C214.241 254.411 214.211 253.468 214.214 253.464Z" fill="#455A64"/>
<path d="M268.058 250.806C263.908 237.8 257.323 230.357 249.512 229.847C241.728 229.329 234.205 235.86 228.399 248.215C223.084 259.526 219.571 274.718 218.508 290.995C217.444 307.271 218.951 322.792 222.749 334.698C226.898 347.704 233.484 355.147 241.294 355.657C241.578 355.676 241.861 355.684 242.145 355.684C249.647 355.684 256.813 349.194 262.408 337.289C267.723 325.978 271.236 310.786 272.299 294.509C273.363 278.233 271.855 262.712 268.058 250.806ZM265.047 294.035C264.041 309.426 260.768 323.69 255.83 334.198C251.512 343.388 246.264 348.704 241.767 348.405C237.28 348.111 232.758 342.162 229.672 332.489C226.143 321.428 224.754 306.86 225.759 291.469C226.765 276.078 230.038 261.814 234.976 251.306C239.181 242.358 244.275 237.088 248.684 237.088C248.803 237.088 248.921 237.091 249.039 237.099C253.526 237.393 258.048 243.342 261.134 253.015C264.663 264.076 266.052 278.644 265.047 294.035Z" fill="#455A64"/>
<path d="M265.047 294.035C265.047 294.035 265.045 293.817 265.061 293.391C265.081 292.953 265.109 292.324 265.146 291.502C265.208 289.841 265.298 287.391 265.277 284.236C265.262 281.081 265.146 277.218 264.745 272.755C264.544 270.524 264.271 268.143 263.873 265.634C263.483 263.125 262.989 260.484 262.305 257.75C261.617 255.02 260.787 252.18 259.639 249.33C258.481 246.496 257.07 243.583 254.977 241.034C253.925 239.788 252.708 238.575 251.178 237.874C250.431 237.486 249.592 237.319 248.756 237.273C247.912 237.285 247.069 237.465 246.266 237.786C244.669 238.464 243.255 239.592 241.995 240.871C240.734 242.16 239.618 243.624 238.598 245.174C234.543 251.42 231.85 258.878 229.803 266.702C227.792 274.557 226.546 282.898 225.97 291.478C225.424 300.063 225.574 308.497 226.546 316.55C227.556 324.576 229.261 332.32 232.465 339.044C233.273 340.715 234.199 342.306 235.275 343.752C236.347 345.196 237.617 346.485 239.114 347.359C240.599 348.254 242.405 348.473 243.994 347.916C245.603 347.421 246.967 346.376 248.172 345.277C250.578 343.021 252.354 340.315 253.87 337.655C255.378 334.978 256.571 332.271 257.608 329.653C258.643 327.031 259.476 324.477 260.189 322.04C260.91 319.605 261.49 317.279 261.979 315.093C262.957 310.72 263.575 306.906 264 303.781C264.431 300.655 264.661 298.214 264.815 296.56C264.886 295.741 264.94 295.113 264.977 294.676C265.016 294.252 265.047 294.035 265.047 294.035C265.047 294.035 265.045 294.254 265.02 294.679C264.992 295.117 264.952 295.746 264.9 296.567C264.773 298.224 264.569 300.669 264.163 303.802C263.762 306.935 263.167 310.758 262.209 315.144C261.73 317.337 261.159 319.67 260.446 322.115C259.741 324.561 258.914 327.126 257.885 329.761C256.853 332.392 255.664 335.115 254.153 337.814C252.633 340.496 250.854 343.228 248.41 345.532C247.182 346.655 245.791 347.732 244.103 348.259C242.44 348.852 240.478 348.617 238.931 347.68C237.366 346.77 236.066 345.447 234.972 343.98C233.874 342.509 232.935 340.9 232.116 339.214C228.873 332.429 227.158 324.657 226.137 316.599C225.156 308.518 225.003 300.059 225.55 291.45C226.128 282.846 227.38 274.482 229.404 266.599C231.466 258.746 234.173 251.261 238.275 244.96C239.308 243.396 240.438 241.916 241.724 240.606C243.01 239.306 244.457 238.149 246.126 237.444C246.967 237.109 247.86 236.918 248.761 236.908C249.656 236.956 250.549 237.142 251.331 237.549C252.935 238.291 254.175 239.539 255.246 240.812C257.371 243.413 258.781 246.352 259.941 249.209C261.088 252.081 261.913 254.936 262.594 257.679C263.272 260.425 263.757 263.076 264.138 265.593C264.527 268.11 264.789 270.498 264.979 272.734C265.358 277.208 265.451 281.077 265.441 284.235C265.436 287.395 265.32 289.846 265.231 291.506C265.176 292.327 265.134 292.956 265.104 293.394C265.073 293.819 265.047 294.035 265.047 294.035Z" fill="#263238"/>
<path d="M268.058 250.806C268.058 250.806 268.402 251.781 268.946 253.671C269.492 255.561 270.191 258.382 270.862 262.059C272.213 269.402 273.266 280.249 272.498 293.605C272.102 300.275 271.283 307.572 269.673 315.27C268.867 319.118 267.86 323.064 266.582 327.054C265.31 331.046 263.748 335.081 261.762 339.04C259.769 342.982 257.333 346.887 254.053 350.201C252.41 351.844 250.529 353.317 248.383 354.368C247.322 354.918 246.169 355.281 245 355.578C243.813 355.798 242.599 355.939 241.379 355.865C238.938 355.722 236.55 354.851 234.481 353.503C232.397 352.159 230.655 350.329 229.151 348.342C226.138 344.334 224.142 339.611 222.551 334.77C219.483 325.002 218.345 315 218.036 305.397C217.773 295.776 218.411 286.48 219.758 277.742C221.104 269.005 223.161 260.808 225.99 253.463C227.399 249.791 229.001 246.33 230.869 243.185C232.741 240.052 234.814 237.172 237.274 234.878C239.692 232.562 242.505 230.814 245.465 230.091C248.426 229.346 251.407 229.741 253.866 230.773C256.32 231.855 258.275 233.471 259.819 235.14C261.366 236.819 262.54 238.551 263.505 240.153C265.38 243.395 266.442 246.114 267.115 247.959C267.771 249.813 268.058 250.806 268.058 250.806C268.058 250.806 267.961 250.566 267.792 250.091C267.615 249.619 267.394 248.902 267.035 247.988C266.338 246.155 265.253 243.452 263.364 240.237C262.393 238.649 261.215 236.934 259.672 235.277C258.133 233.63 256.192 232.043 253.774 230.989C251.352 229.986 248.43 229.61 245.53 230.351C242.63 231.07 239.864 232.795 237.479 235.093C235.053 237.368 233.002 240.232 231.148 243.349C229.299 246.479 227.712 249.928 226.315 253.588C223.511 260.91 221.472 269.086 220.141 277.8C218.808 286.516 218.18 295.791 218.448 305.385C218.761 314.959 219.901 324.93 222.952 334.642C224.532 339.453 226.516 344.14 229.485 348.09C230.967 350.049 232.678 351.845 234.709 353.155C236.726 354.47 239.037 355.313 241.403 355.454C242.585 355.526 243.761 355.389 244.912 355.177C246.047 354.889 247.169 354.539 248.205 354.002C250.299 352.978 252.148 351.535 253.769 349.917C257.007 346.653 259.431 342.781 261.416 338.865C263.395 334.932 264.956 330.916 266.23 326.941C267.51 322.967 268.52 319.034 269.332 315.199C270.952 307.523 271.787 300.243 272.201 293.587C273.006 280.259 272 269.427 270.701 262.087C270.056 258.412 269.384 255.589 268.864 253.694C268.624 252.741 268.388 252.029 268.257 251.542C268.119 251.057 268.058 250.806 268.058 250.806Z" fill="#263238"/>
<path d="M250.738 348.52C250.528 348.52 250.318 348.513 250.108 348.499C237.678 347.687 229.508 323.067 231.507 292.45C232.448 278.041 235.544 264.622 240.224 254.662C245.069 244.355 251.12 238.91 257.242 239.299C269.671 240.111 277.842 264.73 275.843 295.347C274.901 309.756 271.805 323.176 267.125 333.135C262.447 343.09 256.65 348.52 250.738 348.52ZM256.63 241.701C251.768 241.701 246.614 246.762 242.418 255.693C237.863 265.384 234.846 278.495 233.924 292.608C232.077 320.895 239.561 345.382 250.266 346.081C255.25 346.423 260.604 341.314 264.932 332.105C269.487 322.413 272.503 309.302 273.425 295.189C275.273 266.903 267.789 242.416 257.084 241.716C256.933 241.706 256.782 241.701 256.63 241.701Z" fill="white"/>
<path d="M256.63 241.701C256.63 241.701 256.839 241.678 257.244 241.716C257.45 241.741 257.701 241.772 257.997 241.808C258.294 241.862 258.629 241.969 259.015 242.067C260.529 242.553 262.577 243.887 264.432 246.283C266.278 248.674 268.002 251.987 269.405 256.031C270.808 260.075 271.951 264.834 272.725 270.162C274.254 280.814 274.433 293.777 272.191 307.848C271.628 311.364 270.89 314.942 269.942 318.548C268.99 322.152 267.841 325.792 266.351 329.375C264.875 332.957 263.078 336.513 260.684 339.749C259.478 341.355 258.101 342.873 256.462 344.114C255.649 344.74 254.752 345.274 253.787 345.665C252.832 346.077 251.78 346.296 250.726 346.292C249.672 346.293 248.617 346.075 247.667 345.638C247.173 345.459 246.743 345.159 246.287 344.91C245.876 344.598 245.428 344.329 245.057 343.971C243.497 342.622 242.264 340.973 241.229 339.25C239.177 335.779 237.83 332.026 236.771 328.299C234.704 320.81 233.853 313.33 233.556 306.222C233.273 299.105 233.622 292.328 234.343 286.04C235.067 279.75 236.179 273.941 237.595 268.746C240.391 258.359 244.409 250.359 248.577 245.959C250.629 243.741 252.726 242.514 254.247 242.065C254.437 242.007 254.616 241.952 254.784 241.901C254.955 241.87 255.116 241.841 255.265 241.814C255.561 241.754 255.811 241.718 256.016 241.719C256.423 241.7 256.63 241.701 256.63 241.701C256.638 241.751 255.778 241.66 254.273 242.145C252.775 242.616 250.716 243.852 248.697 246.07C244.596 250.472 240.633 258.457 237.883 268.823C236.488 274.008 235.397 279.804 234.689 286.079C233.985 292.353 233.651 299.112 233.943 306.207C234.249 313.291 235.107 320.745 237.168 328.187C238.222 331.89 239.564 335.616 241.587 339.035C242.607 340.732 243.82 342.347 245.329 343.652C245.689 344 246.12 344.255 246.516 344.558C246.952 344.793 247.364 345.084 247.834 345.252C248.737 345.669 249.733 345.872 250.726 345.871C251.719 345.875 252.714 345.671 253.629 345.275C254.552 344.902 255.419 344.387 256.21 343.778C257.804 342.572 259.159 341.081 260.35 339.498C262.714 336.305 264.501 332.778 265.971 329.218C268.907 322.078 270.652 314.781 271.809 307.786C274.065 293.76 273.917 280.83 272.43 270.205C271.677 264.889 270.559 260.142 269.183 256.108C267.807 252.074 266.114 248.77 264.302 246.383C262.482 243.992 260.476 242.654 258.987 242.147C258.608 242.044 258.278 241.931 257.985 241.871C257.692 241.827 257.444 241.79 257.24 241.759C256.839 241.706 256.63 241.716 256.63 241.701Z" fill="#263238"/>
<path d="M250.738 348.52C250.732 348.469 251.638 348.553 253.266 348.132C254.08 347.925 255.047 347.529 256.12 346.936C257.176 346.311 258.321 345.467 259.474 344.365C261.779 342.154 264.062 338.926 266.132 334.892C268.18 330.842 270.037 325.994 271.568 320.488C274.584 309.476 276.427 295.825 275.826 280.718C275.479 273.184 274.528 265.242 272.125 257.383C270.916 253.471 269.308 249.563 266.921 246.078C265.718 244.352 264.295 242.739 262.568 241.498C260.834 240.296 258.769 239.468 256.62 239.506C254.469 239.466 252.405 240.293 250.616 241.413C248.831 242.576 247.303 244.085 245.957 245.707C243.265 248.971 241.302 252.707 239.644 256.453C236.39 264.002 234.482 271.763 233.218 279.203C230.792 294.127 230.947 307.904 232.638 319.196C233.492 324.846 234.791 329.878 236.413 334.114C238.025 338.351 240.026 341.779 242.18 344.131C244.308 346.519 246.598 347.708 248.212 348.124C249.017 348.37 249.662 348.402 250.087 348.475C250.517 348.5 250.738 348.52 250.738 348.52C250.738 348.52 250.517 348.529 250.084 348.518C249.656 348.459 249.006 348.441 248.19 348.206C246.556 347.814 244.224 346.634 242.06 344.242C239.868 341.886 237.834 338.447 236.194 334.199C234.543 329.951 233.219 324.906 232.344 319.242C230.611 307.919 230.424 294.112 232.836 279.139C234.093 271.675 235.998 263.885 239.266 256.288C240.933 252.518 242.905 248.753 245.635 245.44C247 243.795 248.554 242.255 250.388 241.06C252.226 239.908 254.371 239.045 256.619 239.086C258.866 239.047 261.023 239.913 262.811 241.155C264.592 242.436 266.042 244.085 267.264 245.839C269.687 249.381 271.303 253.323 272.518 257.261C274.931 265.173 275.875 273.142 276.214 280.702C276.795 295.855 274.916 309.532 271.854 320.568C270.301 326.085 268.418 330.943 266.341 334.999C264.242 339.04 261.926 342.274 259.587 344.483C258.416 345.584 257.254 346.426 256.182 347.044C255.093 347.632 254.112 348.018 253.288 348.214C252.468 348.414 251.824 348.501 251.391 348.504C250.959 348.521 250.738 348.52 250.738 348.52Z" fill="#263238"/>
<path d="M252.703 293.835C252.214 301.312 249.439 307.218 246.504 307.027C243.568 306.835 241.585 300.618 242.073 293.141C242.562 285.664 245.337 279.758 248.272 279.949C251.208 280.141 253.191 286.358 252.703 293.835Z" fill="#263238"/>
</svg>
