<svg width="200" height="200" viewBox="0 0 200 200" fill="none" xmlns="http://www.w3.org/2000/svg">
<circle cx="100" cy="100" r="100" fill="#57A40A"/>
<rect x="12.9995" y="0.00012207" width="47" height="47" rx="23.5" fill="#DC7B04"/>
<path d="M26.4603 29.7961V26.3081L37.0203 12.1001H42.4603L32.1243 26.3081L29.5963 25.5721H47.2283V29.7961H26.4603ZM38.5243 34.5001V29.7961L38.6843 25.5721V21.3801H43.5803V34.5001H38.5243Z" fill="#FEFEFE"/>
<path d="M24.0664 135.184V144.193H37.2422H51.7732V135.184H24.0664Z" fill="#F5F5F5"/>
<path d="M22.9048 132.665V135.184H52.7412V132.665H37.2422H22.9048Z" fill="#E0E0E0"/>
<path d="M37.823 144.193H51.7732V135.184H52.7412V132.665H37.2422V134.951L37.823 144.193Z" fill="#E0E0E0"/>
<path d="M33.5617 136.636H27.9429V137.992H33.5617V136.636Z" fill="#E0E0E0"/>
<path d="M34.4325 139.688H27.2188V142.552H34.4325V139.688Z" fill="white"/>
<path d="M28.3301 123.667V132.676H41.5037H56.0347V123.667H28.3301Z" fill="#F5F5F5"/>
<path d="M27.166 121.148V123.667H57.0046V121.148H41.5034H27.166Z" fill="#E0E0E0"/>
<path d="M42.0842 132.676H56.0344V123.667H57.0046V121.148H41.5034V123.434L42.0842 132.676Z" fill="#E0E0E0"/>
<path d="M37.8229 125.119H32.2041V126.474H37.8229V125.119Z" fill="#E0E0E0"/>
<path d="M38.6943 128.173H31.4805V131.037H38.6943V128.173Z" fill="white"/>
<path d="M45.3668 55.0449H24.854V84.7779H45.3668V55.0449Z" fill="#E0E0E0"/>
<path d="M44.337 55.0449H23.8242V84.7779H44.337V55.0449Z" fill="#F5F5F5"/>
<path d="M41.7894 58.2657H26.374V81.5571H41.7894V58.2657Z" fill="white"/>
<path d="M41.7894 81.5571C41.7894 81.5571 41.7894 81.5175 41.7894 81.4427C41.7894 81.3679 41.7894 81.2557 41.7894 81.1127C41.7894 80.8201 41.7894 80.3911 41.7894 79.8345C41.7894 78.7191 41.7894 77.0911 41.7762 75.0363C41.7762 70.9311 41.7608 65.1143 41.752 58.2657L41.8026 58.3163H26.3894L26.4444 58.2613C26.4444 67.0481 26.4444 75.1485 26.4444 81.5527L26.4004 81.5087L37.6204 81.5307L40.7202 81.5417H41.5342C41.719 81.5417 41.8158 81.5417 41.8158 81.5417H41.543H40.7378H37.6578L26.4092 81.5659H26.3652V81.5219C26.3652 75.1177 26.3652 67.0173 26.3652 58.2305V58.1733H26.4224H41.8356H41.8862V58.2679C41.8862 65.1297 41.8686 70.9575 41.862 75.0737C41.862 77.1219 41.862 78.7455 41.8466 79.8587C41.8466 80.4109 41.8466 80.8355 41.8466 81.1259C41.8466 81.2667 41.8466 81.3767 41.8466 81.4515C41.8466 81.5263 41.7894 81.5571 41.7894 81.5571Z" fill="#E0E0E0"/>
<path d="M44.3968 55.0449C44.2903 55.2329 44.1674 55.4111 44.0294 55.5773C43.7918 55.8941 43.453 56.3275 43.068 56.7961C42.683 57.2647 42.32 57.6761 42.0538 57.9753C41.9205 58.1416 41.7733 58.2961 41.6138 58.4373C41.7292 58.2554 41.8602 58.0839 42.0054 57.9247L42.9822 56.7279L43.9678 55.5289C44.0969 55.3558 44.2404 55.1939 44.3968 55.0449Z" fill="#E0E0E0"/>
<path d="M41.8599 81.4823C42.6259 82.7009 43.5278 83.8287 44.5483 84.8439L41.8599 81.4823Z" fill="white"/>
<path d="M44.5571 84.8439C44.3855 84.7194 44.2284 84.5763 44.0885 84.4171C43.3734 83.6874 42.7343 82.8869 42.1811 82.0279C42.0576 81.8562 41.9529 81.6719 41.8687 81.4779C42.0069 81.6372 42.1333 81.8063 42.2471 81.9839C42.4671 82.3007 42.7905 82.7363 43.1601 83.2005C43.5297 83.6647 43.8861 84.0805 44.1457 84.3599C44.2941 84.5113 44.4316 84.673 44.5571 84.8439Z" fill="#E0E0E0"/>
<path d="M23.8198 84.7538L26.506 81.4384L23.8198 84.7538Z" fill="white"/>
<path d="M26.5082 81.4384C26.1057 82.0248 25.6724 82.5895 25.2102 83.1302C24.7757 83.6954 24.3115 84.2374 23.8198 84.7538C24.2236 84.1676 24.6575 83.6029 25.12 83.062C25.5543 82.497 26.0176 81.9551 26.5082 81.4384Z" fill="#E0E0E0"/>
<path d="M23.8198 55.0449C24.2886 55.5398 24.7293 56.0606 25.1398 56.6047C25.5755 57.1242 25.9817 57.6677 26.3564 58.2327C25.8937 57.7367 25.4582 57.216 25.0518 56.6729C24.6126 56.1525 24.2013 55.6091 23.8198 55.0449Z" fill="#E0E0E0"/>
<path d="M36.9869 62.9935H31.8257V77.6499H36.9869V62.9935Z" fill="#E0E0E0"/>
<path d="M156.04 141.043C155.556 140.627 154.474 139.309 155.307 137.776C155.613 137.213 156.264 136.935 156.847 136.687C157.43 136.438 158.053 136.225 158.541 135.807C159.459 135.026 159.712 133.728 160.321 132.687C161.021 131.49 162.325 130.595 163.705 130.657C165.284 130.729 166.602 132.018 167.198 133.49C167.795 134.962 167.817 136.594 167.83 138.183C167.83 139.063 167.797 140.051 167.152 140.645C166.558 141.192 165.663 141.199 164.858 141.173L156.225 140.909" fill="#F5F5F5"/>
<path d="M172.551 117.307H149.849L153.939 141.69C154.023 142.198 154.25 142.672 154.593 143.056C154.936 143.441 155.382 143.72 155.877 143.861L155.956 143.883C156.025 143.899 156.088 143.923 156.159 143.934C156.311 143.965 156.465 143.982 156.621 143.987V144.011L156.733 143.993H166.853C167.04 143.993 167.226 143.974 167.41 143.938C168 143.846 168.544 143.564 168.958 143.134C169.373 142.703 169.635 142.149 169.704 141.556L171.684 124.754L171.772 124.094H171.761L172.54 117.433L172.551 117.307ZM168.268 132.859H165.94L166.175 125.784H168.875L168.268 132.859ZM169.099 125.784H171.33L170.498 132.859H168.494L169.099 125.784ZM162.444 140.704L162.301 134.557H165.656L165.452 140.704H162.444ZM158.816 134.557H162.077L162.218 140.704H159.294L158.816 134.557ZM159.067 140.704H156.335C156.075 139.045 155.736 136.887 155.371 134.557H158.59L159.067 140.704ZM158.68 132.859L158.13 125.784H161.87L162.033 132.859H158.68ZM162.257 132.859L162.094 125.784H165.94L165.72 132.859H162.257ZM162.057 124.085L161.905 117.534H166.217L165.997 124.085H162.057ZM161.837 124.085H158.002L157.494 117.534H161.674L161.837 124.085ZM157.778 124.085H153.721C153.578 123.181 153.442 122.325 153.319 121.553C152.896 118.913 152.738 117.908 152.659 117.534H157.279L157.778 124.085ZM157.91 125.784L158.46 132.859H155.105C154.993 132.142 154.885 131.416 154.764 130.69C154.5 129.018 154.238 127.348 153.99 125.784H157.91ZM154.878 132.859H152.678L151.49 125.784H153.754C154.108 127.971 154.5 130.404 154.876 132.859H154.878ZM155.147 134.557C155.479 136.685 155.807 138.781 156.108 140.704H154.005L152.973 134.557H155.147ZM165.68 140.704L165.885 134.557H168.125L167.601 140.704H165.68ZM166.233 124.085L166.453 117.534H169.581L169.02 124.085H166.233ZM152.436 117.534C152.527 118.007 152.94 120.585 153.495 124.085H151.215L150.115 117.534H152.436ZM169.581 140.704H167.821L168.36 134.557H170.311L169.581 140.704ZM171.53 124.085H169.24L169.799 117.534H172.298L171.53 124.085Z" fill="#E0E0E0"/>
<path d="M173.057 56.6377V76.6027H144.382L143.348 56.7785L173.057 56.6377Z" fill="#E0E0E0"/>
<path d="M143.348 56.7785V76.5609H172.023V56.7785H143.348Z" fill="white"/>
<path d="M172.16 76.6973H143.212V56.6421H172.16V76.6973ZM143.485 76.4245H171.88V56.9149H143.485V76.4245Z" fill="#E0E0E0"/>
<path d="M168.917 59.236H146.455V74.1036H168.917V59.236Z" fill="white"/>
<path d="M168.917 59.2359H168.807H168.488H167.253L162.633 59.2535L146.463 59.2865L146.527 59.2205C146.527 63.7635 146.527 68.7971 146.527 74.0859L146.457 74.0155L168.919 74.0287L168.864 74.0859C168.875 69.5605 168.886 65.8513 168.892 63.2685C168.892 61.9771 168.903 60.9695 168.908 60.2765C168.908 59.9348 168.908 59.673 168.908 59.4911C168.908 59.3129 168.908 59.2183 168.908 59.2183C168.908 59.2183 168.908 59.3041 168.908 59.4801C168.908 59.6561 168.908 59.9201 168.908 60.2545C168.908 60.9431 168.908 61.9485 168.921 63.2333C168.921 65.8249 168.939 69.5473 168.952 74.0859V74.1431H168.895L146.433 74.1563H146.362V74.1079C146.362 68.8279 146.362 63.7855 146.362 59.2425V59.1787H146.428L162.64 59.2095L167.26 59.2271H168.481H168.791L168.917 59.2359Z" fill="#E0E0E0"/>
<path d="M143.348 56.7279C143.525 56.8135 143.691 56.9206 143.841 57.0469C144.136 57.2669 144.534 57.5595 144.965 57.9049C145.396 58.2503 145.777 58.5759 146.043 58.8201C146.198 58.942 146.336 59.0832 146.455 59.2403C146.428 59.2711 145.737 58.7013 144.877 58.0149C144.017 57.3285 143.324 56.7543 143.348 56.7279Z" fill="#E0E0E0"/>
<path d="M172.023 56.7785C172.047 56.8093 171.363 57.3835 170.514 58.0633C169.665 58.7431 168.941 59.2667 168.917 59.2359C168.892 59.2051 169.577 58.6309 170.426 57.9511C171.275 57.2713 171.999 56.7477 172.023 56.7785Z" fill="#E0E0E0"/>
<path d="M172.001 76.5632L168.8 73.9738L172.001 76.5632Z" fill="white"/>
<path d="M168.8 73.9738C168.826 73.943 169.561 74.4974 170.443 75.2124C171.325 75.9274 172.023 76.5324 171.999 76.5632C171.974 76.594 171.237 76.0396 170.355 75.3224C169.473 74.6052 168.778 74.0024 168.8 73.9738Z" fill="#E0E0E0"/>
<path d="M143.348 76.561C143.324 76.5302 143.993 75.9604 144.842 75.2894C145.691 74.6184 146.397 74.0992 146.422 74.13C146.446 74.1608 145.779 74.7306 144.93 75.4016C144.081 76.0726 143.372 76.5918 143.348 76.561Z" fill="#E0E0E0"/>
<path d="M151.015 63.867V68.8456H165.15V63.867H151.015Z" fill="#E0E0E0"/>
<path d="M172.551 144.193C172.551 144.224 139.481 144.251 98.6948 144.251C57.909 144.251 24.832 144.224 24.832 144.193C24.832 144.163 57.8958 144.136 98.6948 144.136C139.494 144.136 172.551 144.16 172.551 144.193Z" fill="#263238"/>
<path d="M42.9994 67.288H154.927C155.32 67.288 155.697 67.4442 155.975 67.7223C156.253 68.0003 156.409 68.3775 156.409 68.7708V140.205C156.409 141.054 156.071 141.869 155.471 142.469C154.87 143.07 154.056 143.407 153.206 143.408H44.4998C43.6497 143.408 42.8344 143.07 42.2333 142.469C41.6321 141.868 41.2944 141.053 41.2944 140.203V68.9908C41.295 68.539 41.4749 68.1058 41.7946 67.7866C42.1143 67.4673 42.5476 67.288 42.9994 67.288Z" fill="#455A64"/>
<path d="M36.481 137.78H161.199V141.428C161.199 142.229 160.881 142.996 160.315 143.562C159.749 144.128 158.981 144.446 158.181 144.446H39.4994C38.6988 144.446 37.9311 144.128 37.365 143.562C36.799 142.996 36.481 142.229 36.481 141.428V137.78Z" fill="#455A64"/>
<path d="M152.997 70.3086H44.3833V134.595H152.997V70.3086Z" fill="#F5F5F5"/>
<path d="M87.5034 137.78L89.0522 140.242H110.83L112.267 137.78H87.5034Z" fill="#263238"/>
<path d="M156.429 137.756H41.312V138.124H156.429V137.756Z" fill="#263238"/>
<path d="M75.1374 67.2879H63.1782V63.0727C63.1782 60.1005 65.5872 57.5859 68.5594 57.5859L75.1374 57.6893V67.2879Z" fill="#E0E0E0"/>
<path d="M68.3022 57.5794C68.3022 57.5794 75.109 56.9612 75.109 65.8382V134.885H128.525V63.328C128.525 62.5567 128.372 61.7931 128.077 61.0808C127.781 60.3684 127.348 59.7214 126.802 59.1766C126.256 58.6319 125.608 58.2001 124.895 57.906C124.182 57.612 123.418 57.4613 122.647 57.4628L68.3022 57.5794Z" fill="white"/>
<path d="M68.3018 57.5794L107.82 57.4518L117.39 57.4254L122.479 57.41C123.37 57.3855 124.256 57.562 125.07 57.9265C125.884 58.291 126.605 58.834 127.18 59.5154C127.769 60.2167 128.187 61.0451 128.401 61.9354C128.458 62.159 128.5 62.3861 128.527 62.6152C128.558 62.8352 128.555 63.075 128.571 63.306C128.571 63.765 128.571 64.227 128.571 64.692C128.571 66.5444 128.571 68.4268 128.571 70.3394C128.571 74.16 128.571 78.09 128.571 82.1292C128.571 98.264 128.571 116.009 128.571 134.621V134.942H128.514H75.0976H75.0448V134.89C75.0448 110.984 75.0602 90.685 75.0668 76.3696C75.0668 72.788 75.0668 69.5804 75.0668 66.7842C75.0668 66.0846 75.0668 65.4114 75.0272 64.7668C74.9887 64.1481 74.9034 63.5333 74.772 62.9276C74.6456 62.3756 74.4704 61.8359 74.2484 61.315C74.0395 60.8497 73.7829 60.4073 73.4828 59.995C72.9689 59.3092 72.3101 58.745 71.5534 58.3428C71.0005 58.0503 70.4074 57.8413 69.7934 57.7224C69.4209 57.6466 69.0425 57.6039 68.6626 57.5948C68.4074 57.5948 68.2754 57.5948 68.2754 57.5948C68.4043 57.5871 68.5336 57.5871 68.6626 57.5948C69.0437 57.6011 69.4236 57.6408 69.7978 57.7136C70.4116 57.831 71.0047 58.0385 71.5578 58.3296C72.3197 58.7305 72.9832 59.2956 73.5004 59.984C73.8032 60.3962 74.0627 60.8385 74.2748 61.304C74.499 61.827 74.6764 62.3688 74.805 62.9232C74.938 63.531 75.0248 64.148 75.0646 64.769C75.113 65.4158 75.1064 66.089 75.1064 66.7886C75.1064 69.5848 75.1064 72.7924 75.1064 76.374C75.1064 90.6982 75.1174 110.998 75.1262 134.894L75.0734 134.843H128.489L128.432 134.901V134.637C128.432 116.018 128.432 98.2794 128.432 82.1446C128.432 78.1098 128.432 74.1798 128.432 70.3548V64.692C128.419 63.7658 128.5 62.8374 128.267 61.9574C128.067 61.0895 127.67 60.279 127.108 59.588C126.543 58.9172 125.834 58.3824 125.035 58.0232C124.235 57.6641 123.364 57.4898 122.488 57.5134H117.388L107.803 57.5288L68.3018 57.5794Z" fill="#263238"/>
<path d="M97.9736 78.5344C97.9736 78.5652 94.7242 78.5916 90.7136 78.5916C86.703 78.5916 83.4536 78.5652 83.4536 78.5344C83.4536 78.5036 86.7008 78.4772 90.7136 78.4772C94.7264 78.4772 97.9736 78.508 97.9736 78.5344Z" fill="#263238"/>
<path d="M101.225 80.2679C101.225 80.3009 97.2496 80.3251 92.3436 80.3251C87.4376 80.3251 83.4644 80.3009 83.4644 80.2679C83.4644 80.2349 87.4398 80.2107 92.3436 80.2107C97.2474 80.2107 101.225 80.2371 101.225 80.2679Z" fill="#263238"/>
<path d="M102.391 87.099C102.391 87.1298 98.2858 87.1561 93.2214 87.1561C88.157 87.1561 84.0518 87.1298 84.0518 87.099C84.0518 87.0682 88.157 87.0417 93.2214 87.0417C98.2858 87.0417 102.391 87.066 102.391 87.099Z" fill="#263238"/>
<path d="M114.37 93.7562C114.37 93.787 107.506 93.8134 99.0405 93.8134C90.5749 93.8134 83.7109 93.787 83.7109 93.7562C83.7109 93.7254 90.5727 93.699 99.0405 93.699C107.508 93.699 114.37 93.7232 114.37 93.7562Z" fill="#263238"/>
<path d="M114.37 95.7405C114.37 95.7735 107.506 95.7977 99.0405 95.7977C90.5749 95.7977 83.7109 95.7735 83.7109 95.7405C83.7109 95.7075 90.5727 95.6833 99.0405 95.6833C107.508 95.6833 114.37 95.7097 114.37 95.7405Z" fill="#263238"/>
<path d="M114.37 97.7271C114.37 97.7601 107.506 97.7843 99.0405 97.7843C90.5749 97.7843 83.7109 97.7601 83.7109 97.7271C83.7109 97.6941 90.5727 97.6699 99.0405 97.6699C107.508 97.6699 114.37 97.6963 114.37 97.7271Z" fill="#263238"/>
<path d="M114.37 99.7137C114.37 99.7445 107.506 99.7709 99.0405 99.7709C90.5749 99.7709 83.7109 99.7445 83.7109 99.7137C83.7109 99.6829 90.5727 99.6565 99.0405 99.6565C107.508 99.6565 114.37 99.6829 114.37 99.7137Z" fill="#263238"/>
<path d="M114.37 101.7C114.37 101.731 107.506 101.758 99.0405 101.758C90.5749 101.758 83.7109 101.731 83.7109 101.7C83.7109 101.67 90.5727 101.643 99.0405 101.643C107.508 101.643 114.37 101.667 114.37 101.7Z" fill="#263238"/>
<path d="M95.3379 103.687C95.3379 103.718 92.7331 103.744 89.5233 103.744C86.3135 103.744 83.7109 103.718 83.7109 103.687C83.7109 103.656 86.3135 103.63 89.5233 103.63C92.7331 103.63 95.3379 103.654 95.3379 103.687Z" fill="#263238"/>
<path d="M88.5464 68.2736C88.5448 68.1033 88.5785 67.9345 88.6452 67.7778C88.712 67.6212 88.8105 67.48 88.9345 67.3633C89.0585 67.2465 89.2053 67.1567 89.3657 67.0994C89.526 67.0422 89.6966 67.0187 89.8664 67.0306C90.06 67.0202 90.2533 67.0544 90.4315 67.1307C90.6096 67.207 90.7678 67.3233 90.8938 67.4706L90.4648 67.86C90.3988 67.7732 90.3136 67.7028 90.2159 67.6544C90.1183 67.6059 90.0107 67.5807 89.9016 67.5806C89.7208 67.5806 89.5473 67.6524 89.4194 67.7803C89.2915 67.9082 89.2196 68.0817 89.2196 68.2626C89.2196 68.4435 89.2915 68.6169 89.4194 68.7448C89.5473 68.8727 89.7208 68.9446 89.9016 68.9446C90.0107 68.9445 90.1183 68.9192 90.2159 68.8708C90.3136 68.8223 90.3988 68.752 90.4648 68.6652L90.8938 69.0524C90.7689 69.2016 90.6112 69.32 90.433 69.3983C90.2548 69.4765 90.0609 69.5125 89.8664 69.5034C89.6977 69.5151 89.5283 69.4921 89.3688 69.4356C89.2093 69.3792 89.0631 69.2905 88.9393 69.1752C88.8155 69.0599 88.7168 68.9203 88.6492 68.7652C88.5816 68.6101 88.5466 68.4428 88.5464 68.2736Z" fill="#263238"/>
<path d="M93.1027 68.9446V69.466H91.1865V67.079H93.0587V67.6004H91.8531V68.003H92.9157V68.509H91.8531V68.949L93.1027 68.9446Z" fill="#263238"/>
<path d="M94.5218 68.828H94.1544V69.4616H93.479V67.079H94.579C95.239 67.079 95.6394 67.4156 95.6394 67.959C95.6452 68.1168 95.6037 68.2728 95.5202 68.4069C95.4367 68.5409 95.315 68.647 95.1708 68.7114L95.6878 69.4616H94.964L94.5218 68.828ZM94.5218 67.607H94.1478V68.3066H94.5218C94.8012 68.3066 94.942 68.1768 94.942 67.959C94.942 67.7412 94.8078 67.6114 94.5284 67.6114L94.5218 67.607Z" fill="#263238"/>
<path d="M96.4753 67.6136H95.7427V67.079H97.8811V67.6136H97.1507V69.466H96.4753V67.6136Z" fill="#263238"/>
<path d="M98.1338 67.079H98.8092V69.466H98.1338V67.079Z" fill="#263238"/>
<path d="M99.9664 67.6004V68.1262H101.02V68.6476H99.9664V69.466H99.291V67.079H101.163V67.6004H99.9664Z" fill="#263238"/>
<path d="M101.48 67.079H102.155V69.466H101.48V67.079Z" fill="#263238"/>
<path d="M102.514 68.2735C102.513 68.1033 102.547 67.9347 102.614 67.7782C102.681 67.6217 102.779 67.4807 102.903 67.364C103.027 67.2473 103.174 67.1575 103.334 67.1001C103.494 67.0427 103.664 67.019 103.834 67.0305C104.027 67.0201 104.22 67.0544 104.398 67.1307C104.576 67.207 104.734 67.3233 104.859 67.4705L104.43 67.8599C104.364 67.773 104.279 67.7026 104.182 67.6541C104.084 67.6056 103.976 67.5805 103.867 67.5805C103.686 67.5805 103.513 67.6524 103.385 67.7803C103.257 67.9082 103.185 68.0817 103.185 68.2625C103.185 68.4434 103.257 68.6169 103.385 68.7448C103.513 68.8727 103.686 68.9445 103.867 68.9445C103.976 68.9446 104.084 68.9194 104.182 68.871C104.279 68.8225 104.364 68.752 104.43 68.6651L104.859 69.0523C104.735 69.2016 104.578 69.3199 104.4 69.3982C104.222 69.4764 104.028 69.5124 103.834 69.5033C103.071 69.5143 102.514 68.9995 102.514 68.2735Z" fill="#263238"/>
<path d="M106.712 69.0018H105.704L105.515 69.466H104.827L105.88 67.079H106.54L107.596 69.466H106.895L106.712 69.0018ZM106.516 68.5046L106.208 67.7412L105.9 68.5046H106.516Z" fill="#263238"/>
<path d="M108.184 67.6136H107.451V67.079H109.59V67.6136H108.859V69.466H108.184V67.6136Z" fill="#263238"/>
<path d="M109.84 67.079H110.516V69.466H109.84V67.079Z" fill="#263238"/>
<path d="M110.874 68.2735C110.874 67.5563 111.437 67.0305 112.194 67.0305C112.951 67.0305 113.514 67.5563 113.514 68.2735C113.514 68.9907 112.951 69.5143 112.194 69.5143C111.437 69.5143 110.874 68.9885 110.874 68.2735ZM112.854 68.2735C112.847 68.1479 112.803 68.0271 112.728 67.9262C112.653 67.8252 112.55 67.7484 112.431 67.7053C112.313 67.6622 112.185 67.6547 112.062 67.6836C111.94 67.7125 111.828 67.7767 111.742 67.8681C111.656 67.9596 111.598 68.0744 111.576 68.1983C111.554 68.3222 111.569 68.4498 111.618 68.5655C111.668 68.6811 111.75 68.7796 111.855 68.8489C111.961 68.9183 112.084 68.9553 112.209 68.9555C112.297 68.9554 112.383 68.9374 112.463 68.9024C112.544 68.8675 112.616 68.8165 112.675 68.7526C112.735 68.6886 112.781 68.6131 112.81 68.5307C112.839 68.4483 112.851 68.3607 112.845 68.2735H112.854Z" fill="#263238"/>
<path d="M116.154 67.079V69.466H115.598L114.544 68.1944V69.466H113.884V67.079H114.438L115.492 68.3506V67.079H116.154Z" fill="#263238"/>
<path d="M118.86 112.071C118.86 112.102 115.816 112.128 112.062 112.128C108.309 112.128 105.262 112.102 105.262 112.071C105.262 112.04 108.307 112.014 112.062 112.014C115.818 112.014 118.86 112.04 118.86 112.071Z" fill="#263238"/>
<path d="M118.86 113.99C118.86 114.02 115.816 114.047 112.062 114.047C108.309 114.047 105.262 114.02 105.262 113.99C105.262 113.959 108.3 113.928 112.065 113.928C115.829 113.928 118.86 113.959 118.86 113.99Z" fill="#263238"/>
<path d="M117.958 122.325C117.955 122.293 117.955 122.261 117.958 122.229C117.958 122.16 117.947 122.068 117.938 121.949C117.938 121.888 117.934 121.819 117.925 121.745C117.925 121.668 117.901 121.586 117.888 121.498C117.861 121.293 117.819 121.09 117.762 120.891C117.624 120.34 117.401 119.814 117.102 119.331C116.404 118.163 115.321 117.276 114.039 116.821C112.757 116.366 111.356 116.372 110.078 116.839C109.817 116.933 109.563 117.044 109.317 117.173C109.068 117.31 108.828 117.464 108.599 117.633C108.367 117.806 108.147 117.994 107.939 118.196C107.734 118.409 107.543 118.636 107.367 118.874C107.004 119.361 106.723 119.904 106.534 120.482C106.132 121.677 106.132 122.971 106.534 124.167C106.723 124.744 107.004 125.288 107.367 125.775C107.543 126.013 107.734 126.239 107.939 126.453C108.147 126.655 108.367 126.843 108.599 127.016C109.048 127.356 109.547 127.624 110.078 127.812C111.058 128.168 112.115 128.257 113.14 128.07C113.957 127.917 114.733 127.593 115.415 127.118C116.098 126.644 116.672 126.03 117.1 125.317C117.399 124.834 117.621 124.308 117.76 123.758C117.817 123.559 117.859 123.356 117.886 123.15C117.899 123.062 117.914 122.981 117.923 122.906C117.932 122.831 117.923 122.761 117.936 122.699C117.936 122.581 117.952 122.479 117.956 122.42C117.953 122.389 117.953 122.357 117.956 122.325C117.959 122.357 117.959 122.389 117.956 122.42V122.702C117.956 122.763 117.956 122.834 117.956 122.908C117.956 122.983 117.936 123.067 117.923 123.157C117.901 123.364 117.863 123.568 117.809 123.769C117.677 124.326 117.46 124.859 117.166 125.35C116.466 126.541 115.371 127.449 114.072 127.917C112.772 128.384 111.35 128.382 110.051 127.911C109.785 127.816 109.526 127.703 109.275 127.572C109.02 127.434 108.776 127.278 108.544 127.104C108.306 126.929 108.08 126.737 107.867 126.532C107.657 126.315 107.463 126.084 107.284 125.841C106.913 125.344 106.626 124.791 106.432 124.202C106.022 122.984 106.022 121.665 106.432 120.447C106.626 119.858 106.914 119.304 107.284 118.808C107.463 118.565 107.658 118.335 107.869 118.119C108.081 117.913 108.307 117.721 108.544 117.545C109.212 117.052 109.975 116.705 110.785 116.526C111.596 116.347 112.434 116.34 113.247 116.506C114.06 116.672 114.829 117.007 115.504 117.489C116.179 117.971 116.745 118.59 117.166 119.305C117.46 119.796 117.677 120.33 117.809 120.887C117.863 121.088 117.901 121.293 117.923 121.5C117.936 121.591 117.949 121.672 117.956 121.747C117.963 121.822 117.956 121.892 117.956 121.956V122.235C117.959 122.265 117.96 122.295 117.958 122.325Z" fill="#FF725E"/>
<path d="M115.745 123.198C116.23 121.163 114.972 119.12 112.936 118.636C110.901 118.152 108.858 119.409 108.374 121.445C107.89 123.48 109.148 125.523 111.183 126.007C113.219 126.491 115.261 125.234 115.745 123.198Z" fill="#FF725E"/>
<path d="M120.488 119.063L120.33 119.151L119.857 119.402L118.038 120.35L115.162 121.848C114.87 122 114.554 122.101 114.227 122.147C114.049 122.169 113.869 122.154 113.698 122.102C113.526 122.049 113.368 121.961 113.233 121.844C113.089 121.719 112.987 121.554 112.94 121.371C112.913 121.275 112.911 121.174 112.933 121.076C112.954 120.979 113 120.889 113.066 120.814C113.203 120.664 113.393 120.572 113.596 120.559C113.702 120.544 113.81 120.565 113.904 120.617C113.998 120.67 114.072 120.751 114.115 120.849V120.865C114.121 121.5 113.895 122.115 113.479 122.596C113.262 122.856 112.994 123.068 112.691 123.219C112.388 123.371 112.057 123.458 111.719 123.476C111.363 123.495 111.006 123.442 110.67 123.321C110.334 123.2 110.026 123.012 109.763 122.77C109.48 122.521 109.283 122.189 109.2 121.822C109.162 121.628 109.188 121.427 109.275 121.25C109.363 121.068 109.515 120.925 109.702 120.849C109.799 120.812 109.903 120.8 110.006 120.814C110.109 120.828 110.206 120.868 110.289 120.931C110.448 121.057 110.564 121.229 110.621 121.423C110.684 121.611 110.715 121.808 110.712 122.006C110.72 122.104 110.72 122.203 110.712 122.301C110.707 122.4 110.694 122.499 110.674 122.596C110.519 123.396 110.084 124.115 109.447 124.622C109.125 124.888 108.752 125.085 108.35 125.198C107.949 125.312 107.528 125.34 107.115 125.282C106.263 125.139 105.499 124.675 104.981 123.984C104.678 123.597 104.469 123.145 104.369 122.664C104.261 122.186 104.299 121.686 104.477 121.23C104.574 121.001 104.738 120.808 104.948 120.675C105.16 120.544 105.414 120.496 105.66 120.541C105.781 120.569 105.894 120.622 105.991 120.698C106.088 120.774 106.168 120.871 106.224 120.981C106.331 121.19 106.409 121.412 106.457 121.641C106.663 122.531 106.607 123.461 106.294 124.319C105.998 125.144 105.427 125.843 104.677 126.299C103.963 126.734 103.125 126.917 102.294 126.82C101.898 126.772 101.515 126.648 101.166 126.455C100.828 126.264 100.529 126.011 100.286 125.709C99.8157 125.141 99.5583 124.427 99.5576 123.689C99.5648 123.342 99.6395 123 99.7776 122.682C99.8369 122.524 99.928 122.38 100.045 122.26C100.163 122.139 100.304 122.044 100.46 121.98C100.618 121.931 100.787 121.926 100.948 121.967C101.099 122.016 101.237 122.1 101.351 122.211C101.563 122.425 101.722 122.686 101.815 122.972C101.91 123.237 101.96 123.516 101.962 123.797C101.962 123.934 101.962 124.066 101.962 124.198C101.962 124.33 101.951 124.457 101.938 124.583C101.855 125.447 101.604 126.286 101.197 127.053C100.941 127.537 100.624 127.985 100.255 128.389C100.13 128.527 100.024 128.624 99.9536 128.69C99.8832 128.756 99.8458 128.787 99.8458 128.787C99.8458 128.787 99.8788 128.749 99.947 128.681C100.015 128.613 100.114 128.514 100.237 128.373C100.597 127.965 100.906 127.515 101.157 127.033C101.553 126.269 101.796 125.435 101.874 124.578C101.887 124.453 101.894 124.325 101.896 124.195C101.898 124.066 101.896 123.934 101.896 123.799C101.892 123.525 101.842 123.254 101.749 122.996C101.661 122.723 101.51 122.473 101.309 122.268C101.203 122.167 101.076 122.092 100.937 122.048C100.792 122.012 100.64 122.016 100.497 122.061C100.352 122.122 100.221 122.212 100.113 122.326C100.004 122.439 99.92 122.574 99.8656 122.721C99.7373 123.03 99.6694 123.36 99.6654 123.694C99.6698 124.41 99.9216 125.102 100.378 125.654C100.616 125.951 100.91 126.199 101.243 126.382C101.576 126.566 101.943 126.681 102.321 126.723C103.128 126.816 103.944 126.636 104.637 126.213C105.367 125.768 105.921 125.085 106.206 124.279C106.511 123.441 106.565 122.533 106.362 121.665C106.318 121.446 106.244 121.233 106.142 121.034C106.094 120.937 106.025 120.852 105.941 120.784C105.856 120.717 105.757 120.669 105.652 120.645C105.434 120.605 105.209 120.649 105.022 120.768C104.831 120.886 104.682 121.063 104.598 121.272C104.428 121.706 104.392 122.181 104.497 122.636C104.593 123.1 104.796 123.536 105.088 123.909C105.589 124.575 106.326 125.024 107.148 125.163C107.546 125.218 107.951 125.188 108.337 125.077C108.724 124.966 109.083 124.776 109.392 124.519C110.009 124.029 110.43 123.334 110.58 122.561C110.615 122.374 110.629 122.183 110.624 121.993C110.627 121.806 110.599 121.62 110.54 121.443C110.488 121.271 110.386 121.118 110.247 121.003C110.179 120.952 110.098 120.919 110.013 120.908C109.928 120.896 109.841 120.906 109.761 120.937C109.6 121.004 109.469 121.128 109.392 121.285C109.315 121.442 109.292 121.619 109.326 121.791C109.406 122.133 109.592 122.441 109.858 122.671C110.109 122.905 110.404 123.086 110.727 123.203C111.049 123.321 111.392 123.372 111.735 123.355C112.059 123.338 112.376 123.254 112.667 123.109C112.957 122.963 113.214 122.76 113.422 122.51C113.825 122.047 114.045 121.454 114.042 120.84V120.856C114.006 120.773 113.943 120.704 113.863 120.662C113.783 120.619 113.692 120.604 113.602 120.62C113.423 120.63 113.254 120.709 113.132 120.84C113.074 120.906 113.035 120.984 113.015 121.068C112.996 121.153 112.998 121.241 113.022 121.324C113.063 121.495 113.157 121.649 113.29 121.764C113.416 121.876 113.564 121.959 113.724 122.008C113.885 122.057 114.054 122.072 114.221 122.05C114.539 122.008 114.848 121.912 115.134 121.764L118.016 120.297L119.848 119.371L120.326 119.131L120.488 119.063Z" fill="#263238"/>
<path d="M100.78 64.791C100.78 64.824 96.1275 64.8504 90.3877 64.8504C84.6479 64.8504 79.9927 64.824 79.9927 64.791C79.9927 64.758 84.6457 64.7338 90.3877 64.7338C96.1297 64.7338 100.78 64.7602 100.78 64.791Z" fill="#E0E0E0"/>
<path d="M104.245 64.791C103.768 64.8702 103.28 64.8702 102.802 64.791C103.28 64.7147 103.767 64.7147 104.245 64.791Z" fill="#E0E0E0"/>
<path d="M124.939 64.791C124.939 64.824 120.693 64.8504 115.459 64.8504C110.225 64.8504 105.979 64.824 105.979 64.791C105.979 64.758 110.221 64.7338 115.459 64.7338C120.697 64.7338 124.939 64.7602 124.939 64.791Z" fill="#E0E0E0"/>
<path d="M100.78 70.5748C100.78 70.6078 96.1275 70.632 90.3877 70.632C84.6479 70.632 79.9927 70.6078 79.9927 70.5748C79.9927 70.5418 84.6457 70.5176 90.3877 70.5176C96.1297 70.5176 100.78 70.544 100.78 70.5748Z" fill="#E0E0E0"/>
<path d="M104.245 70.5748C103.767 70.651 103.28 70.651 102.802 70.5748C103.28 70.4985 103.767 70.4985 104.245 70.5748Z" fill="#E0E0E0"/>
<path d="M124.939 70.5748C124.939 70.6078 120.693 70.632 115.459 70.632C110.225 70.632 105.979 70.6078 105.979 70.5748C105.979 70.5418 110.221 70.5176 115.459 70.5176C120.697 70.5176 124.939 70.544 124.939 70.5748Z" fill="#E0E0E0"/>
<path d="M119.852 93.4679L114.398 106.142C114.372 106.201 114.365 106.267 114.377 106.33C114.388 106.394 114.419 106.452 114.465 106.497C114.511 106.543 114.569 106.574 114.633 106.585C114.696 106.597 114.762 106.589 114.821 106.562L119.025 104.705C119.066 104.687 119.111 104.677 119.157 104.676C119.202 104.676 119.247 104.685 119.289 104.703C119.33 104.722 119.367 104.749 119.398 104.782C119.428 104.816 119.451 104.856 119.465 104.899L120.884 109.156C120.906 109.219 120.946 109.273 121 109.312C121.054 109.35 121.119 109.371 121.185 109.371C121.252 109.371 121.316 109.35 121.37 109.312C121.424 109.273 121.465 109.219 121.487 109.156L126.615 95.4853L119.852 93.4679Z" fill="#FF725E"/>
<path d="M126.96 95.5865L129.572 109.134C129.584 109.197 129.615 109.256 129.661 109.301C129.706 109.346 129.765 109.377 129.828 109.389C129.891 109.401 129.957 109.393 130.016 109.368C130.075 109.342 130.125 109.299 130.159 109.244L132.592 105.348C132.616 105.31 132.647 105.278 132.684 105.252C132.721 105.227 132.763 105.21 132.807 105.202C132.851 105.194 132.896 105.195 132.939 105.206C132.983 105.216 133.023 105.235 133.059 105.262L136.625 107.988C136.678 108.028 136.741 108.05 136.807 108.052C136.873 108.055 136.939 108.036 136.994 108C137.049 107.964 137.092 107.912 137.117 107.851C137.141 107.79 137.146 107.722 137.131 107.658L133.686 93.4679L126.96 95.5865Z" fill="#FF725E"/>
<g opacity="0.3">
<path d="M119.852 93.4679L114.398 106.142C114.372 106.201 114.365 106.267 114.377 106.33C114.388 106.394 114.419 106.452 114.465 106.497C114.511 106.543 114.569 106.574 114.633 106.585C114.696 106.597 114.762 106.589 114.821 106.562L119.025 104.705C119.066 104.687 119.111 104.677 119.157 104.676C119.202 104.676 119.247 104.685 119.289 104.703C119.33 104.722 119.367 104.749 119.398 104.782C119.428 104.816 119.451 104.856 119.465 104.899L120.884 109.156C120.906 109.219 120.946 109.273 121 109.312C121.054 109.35 121.119 109.371 121.185 109.371C121.252 109.371 121.316 109.35 121.37 109.312C121.424 109.273 121.465 109.219 121.487 109.156L126.615 95.4853L119.852 93.4679Z" fill="#FEFEFE"/>
</g>
<g opacity="0.3">
<path d="M126.96 95.5865L129.572 109.134C129.584 109.197 129.615 109.256 129.661 109.301C129.706 109.346 129.765 109.377 129.828 109.389C129.891 109.401 129.957 109.393 130.016 109.368C130.075 109.342 130.125 109.299 130.159 109.244L132.592 105.348C132.616 105.31 132.647 105.278 132.684 105.252C132.721 105.227 132.763 105.21 132.807 105.202C132.851 105.194 132.896 105.195 132.939 105.206C132.983 105.216 133.023 105.235 133.059 105.262L136.625 107.988C136.678 108.028 136.741 108.05 136.807 108.052C136.873 108.055 136.939 108.036 136.994 108C137.049 107.964 137.092 107.912 137.117 107.851C137.141 107.79 137.146 107.722 137.131 107.658L133.686 93.4679L126.96 95.5865Z" fill="#FEFEFE"/>
</g>
<path d="M127.225 71.2612L129.015 69.9456L130.423 71.6638L132.485 70.8366L133.42 72.8518L135.624 72.5614L136.027 74.746L138.233 75.0122L138.082 77.2298L140.152 78.035L139.454 80.1448L141.258 81.4428L140.059 83.3128L141.485 85.0156L139.855 86.5292L140.814 88.5334L138.86 89.5938L139.289 91.774L137.133 92.3152L137.006 94.5328L134.784 94.5218L134.108 96.6382L131.959 96.075L130.778 97.956L128.837 96.8758L127.225 98.4048L125.614 96.8758L123.674 97.956L122.492 96.075L120.343 96.6382L119.668 94.5218L117.446 94.5328L117.318 92.3152L115.162 91.774L115.591 89.5938L113.637 88.5334L114.594 86.5292L112.966 85.0156L114.392 83.3128L113.193 81.4428L114.997 80.1448L114.297 78.035L116.37 77.2298L116.218 75.0122L118.425 74.746L118.827 72.5614L121.032 72.8518L121.967 70.8366L124.028 71.6638L125.434 69.9456L127.225 71.2612Z" fill="#FF725E"/>
<path d="M134.342 91.2923C138.272 87.3617 138.272 80.9889 134.342 77.0583C130.411 73.1276 124.038 73.1276 120.108 77.0583C116.177 80.9889 116.177 87.3617 120.108 91.2923C124.038 95.2229 130.411 95.2229 134.342 91.2923Z" fill="white"/>
<path d="M129.42 81.7904L132.12 82.1864C132.22 82.2009 132.314 82.2431 132.391 82.3083C132.468 82.3735 132.526 82.4591 132.557 82.5552C132.588 82.6514 132.592 82.7544 132.567 82.8525C132.543 82.9506 132.491 83.04 132.419 83.1104L130.463 85.0134C130.4 85.0745 130.353 85.1502 130.325 85.2338C130.298 85.3174 130.292 85.4064 130.307 85.493L130.767 88.188C130.784 88.2875 130.772 88.3897 130.734 88.4832C130.696 88.5766 130.633 88.6575 130.551 88.7168C130.469 88.7761 130.373 88.8113 130.272 88.8186C130.171 88.8258 130.071 88.8047 129.981 88.7578L127.561 87.484C127.484 87.4428 127.397 87.4212 127.309 87.4212C127.222 87.4212 127.135 87.4428 127.058 87.484L124.638 88.7512C124.548 88.7977 124.447 88.8184 124.347 88.8108C124.246 88.8032 124.15 88.7676 124.068 88.7082C123.987 88.6487 123.924 88.5676 123.886 88.4742C123.848 88.3807 123.837 88.2785 123.854 88.1792L124.319 85.4908C124.333 85.4043 124.327 85.3156 124.3 85.2321C124.274 85.1485 124.227 85.0727 124.165 85.0112L122.211 83.1038C122.138 83.0332 122.087 82.9437 122.063 82.8455C122.038 82.7472 122.042 82.6441 122.074 82.5478C122.105 82.4516 122.163 82.3661 122.24 82.301C122.318 82.2359 122.412 82.1939 122.512 82.1798L125.214 81.7904C125.301 81.7784 125.383 81.7452 125.454 81.6938C125.525 81.6424 125.582 81.5743 125.621 81.4956L126.833 79.0492C126.878 78.9587 126.947 78.8826 127.033 78.8294C127.118 78.7761 127.217 78.7479 127.318 78.7479C127.419 78.7479 127.518 78.7761 127.604 78.8294C127.689 78.8826 127.759 78.9587 127.803 79.0492L129.007 81.5C129.047 81.5785 129.105 81.646 129.177 81.6967C129.249 81.7473 129.333 81.7795 129.42 81.7904Z" fill="#FF725E"/>
<path d="M166.327 92.1699C166.327 92.1699 163.705 102.912 151.963 100.451C151.963 100.451 155.367 89.5717 166.327 92.1699Z" fill="#263238"/>
<path d="M160.66 108.439C160.66 108.439 155.27 116.475 146.36 110.918C146.36 110.918 152.432 103.005 160.66 108.439Z" fill="#263238"/>
<path d="M152.067 120.7C152.067 120.7 144.204 127.385 136.667 119.098C136.68 119.098 145.201 112.736 152.067 120.7Z" fill="#263238"/>
<path d="M143.74 94.7065C143.74 94.7065 152.461 98.8975 148.228 108.503C148.228 108.503 139.54 103.619 143.74 94.7065Z" fill="#263238"/>
<path d="M141.848 106.287C141.848 106.287 146.197 112.159 139.714 117.204C139.714 117.204 135.642 110.87 141.848 106.287Z" fill="#263238"/>
<path d="M162.02 79.6079C162.02 79.6079 163.021 88.3155 153.616 89.7103C153.62 89.7103 153.156 80.6859 162.02 79.6079Z" fill="#263238"/>
<path d="M148.532 70.808C148.532 70.808 156.137 73.9848 152.835 82.908C152.835 82.8904 145.212 79.0844 148.532 70.808Z" fill="#263238"/>
<path d="M143.94 83.5195C143.94 83.5195 154.012 84.6679 153.125 95.6305C153.125 95.6305 142.84 93.7869 143.94 83.5195Z" fill="#263238"/>
<path d="M129.607 121.784C129.607 121.784 129.649 121.769 129.735 121.745L130.111 121.646C130.443 121.558 130.934 121.441 131.554 121.239C133.307 120.696 135.002 119.981 136.614 119.105C139.007 117.797 141.216 116.178 143.183 114.289C144.346 113.178 145.431 111.987 146.428 110.725L147.185 109.708L147.566 109.196C147.689 109.02 147.801 108.837 147.922 108.657L148.633 107.557L149.293 106.408C149.4 106.215 149.513 106.023 149.618 105.832C149.724 105.641 149.814 105.436 149.911 105.24C150.104 104.846 150.3 104.459 150.487 104.068C150.674 103.676 150.822 103.276 150.989 102.884C151.07 102.688 151.158 102.495 151.233 102.299L151.453 101.705L151.873 100.534C151.99 100.141 152.093 99.749 152.219 99.364C152.276 99.1704 152.333 98.979 152.388 98.7876C152.443 98.5962 152.483 98.4026 152.531 98.2112L152.797 97.076C153.372 94.4099 153.624 91.6843 153.547 88.958C153.487 87.121 153.283 85.2916 152.936 83.4866C152.797 82.8486 152.676 82.358 152.604 82.0236C152.566 81.8586 152.538 81.7332 152.518 81.643C152.498 81.5528 152.494 81.5132 152.494 81.5132C152.494 81.5132 152.507 81.555 152.529 81.6408L152.626 82.0192C152.707 82.3514 152.846 82.842 152.98 83.4778C153.897 87.9743 153.87 92.6125 152.901 97.098C152.813 97.472 152.724 97.8518 152.634 98.2376C152.588 98.429 152.551 98.6248 152.494 98.8162C152.436 99.0076 152.381 99.2012 152.324 99.3948L151.979 100.567L151.559 101.742C151.488 101.94 151.418 102.138 151.339 102.338C151.259 102.539 151.176 102.73 151.092 102.928L150.591 104.116C150.404 104.508 150.206 104.897 150.014 105.291L149.719 105.885C149.612 106.078 149.499 106.27 149.392 106.463L148.732 107.616L148.017 108.716C147.896 108.897 147.783 109.079 147.658 109.255L147.275 109.772L146.516 110.791C145.518 112.058 144.433 113.253 143.267 114.368C141.291 116.259 139.072 117.877 136.667 119.179C135.044 120.051 133.337 120.757 131.572 121.285C130.949 121.481 130.454 121.591 130.12 121.67L129.741 121.76L129.607 121.784Z" fill="#263238"/>
<path d="M140.904 111.022C140.916 111.103 140.916 111.186 140.904 111.268C140.891 111.424 140.867 111.653 140.834 111.928C140.766 112.489 140.649 113.261 140.484 114.108C140.319 114.955 140.134 115.717 139.987 116.26C139.912 116.533 139.851 116.753 139.802 116.905C139.783 116.985 139.754 117.062 139.716 117.136C139.722 117.054 139.736 116.973 139.758 116.894C139.8 116.715 139.851 116.498 139.908 116.234C140.035 115.686 140.207 114.925 140.372 114.08C140.537 113.235 140.665 112.467 140.753 111.911C140.794 111.651 140.832 111.431 140.86 111.251C140.867 111.173 140.882 111.096 140.904 111.022Z" fill="#455A64"/>
<path d="M143.047 119.743C142.964 119.746 142.881 119.739 142.801 119.721L142.141 119.622C141.577 119.538 140.796 119.428 139.941 119.327C139.085 119.226 138.293 119.153 137.725 119.107L137.052 119.047C136.969 119.044 136.886 119.033 136.806 119.012C136.888 119.001 136.972 119.001 137.054 119.012C137.215 119.012 137.446 119.012 137.73 119.034C138.302 119.063 139.087 119.122 139.954 119.223C140.821 119.325 141.599 119.443 142.154 119.553C142.435 119.606 142.66 119.652 142.814 119.688C142.894 119.696 142.972 119.715 143.047 119.743Z" fill="#455A64"/>
<path d="M153.646 109.088C153.552 109.121 153.455 109.145 153.356 109.158L152.56 109.314C151.886 109.449 150.96 109.642 149.944 109.886C148.927 110.131 148.014 110.386 147.354 110.575L146.573 110.795C146.48 110.828 146.383 110.851 146.285 110.865C146.372 110.817 146.464 110.778 146.56 110.751C146.741 110.685 147 110.597 147.332 110.491C147.992 110.282 148.897 110.016 149.915 109.77C150.934 109.523 151.867 109.341 152.555 109.229C152.894 109.171 153.169 109.132 153.36 109.108C153.455 109.091 153.551 109.085 153.646 109.088Z" fill="#455A64"/>
<path d="M145.949 100.849C146.017 100.932 146.076 101.021 146.127 101.115C146.239 101.291 146.387 101.555 146.556 101.878C147.438 103.6 147.978 105.477 148.144 107.405C148.175 107.772 148.188 108.065 148.188 108.285C148.199 108.392 148.199 108.499 148.188 108.606C148.166 108.501 148.155 108.394 148.153 108.287C148.142 108.082 148.116 107.785 148.074 107.418C147.866 105.508 147.332 103.648 146.494 101.918C146.334 101.586 146.2 101.322 146.101 101.139C146.041 101.048 145.99 100.95 145.949 100.849Z" fill="#455A64"/>
<path d="M157.63 95.8395C157.559 95.9013 157.482 95.9558 157.399 96.0023L156.753 96.4225C156.211 96.7833 155.477 97.3025 154.707 97.9229C153.937 98.5433 153.277 99.1593 152.812 99.6147L152.267 100.16C152.205 100.231 152.135 100.295 152.06 100.352C152.111 100.273 152.169 100.199 152.234 100.132C152.353 99.9931 152.531 99.7973 152.755 99.5619C153.345 98.9483 153.972 98.3723 154.634 97.8371C155.295 97.3016 155.987 96.8071 156.709 96.3565C156.988 96.1849 157.215 96.0529 157.369 95.9649C157.451 95.9126 157.538 95.8705 157.63 95.8395Z" fill="#455A64"/>
<path d="M146.633 87.8865C146.663 87.9045 146.691 87.9259 146.717 87.9503L146.937 88.1483C147.128 88.3221 147.401 88.5883 147.729 88.9029C148.389 89.5497 149.269 90.4715 150.184 91.5429C151.099 92.6143 151.869 93.6329 152.404 94.3853C152.67 94.7615 152.881 95.0695 153.022 95.2851L153.182 95.5359C153.218 95.5953 153.235 95.6261 153.231 95.6283C153.204 95.6052 153.181 95.5785 153.163 95.5491L152.984 95.3115L152.338 94.4315C151.788 93.6923 151.018 92.6847 150.096 91.6155C149.174 90.5463 148.314 89.6157 147.676 88.9557L146.906 88.1879L146.699 87.9679C146.653 87.9173 146.631 87.8909 146.633 87.8865Z" fill="#455A64"/>
<path d="M158.764 82.4371C158.698 82.5341 158.625 82.6254 158.544 82.7099L157.932 83.4315C157.42 84.0431 156.731 84.9033 156.023 85.8933C155.314 86.8833 154.725 87.8139 154.311 88.4981L153.84 89.3077C153.787 89.4106 153.724 89.5086 153.653 89.6003C153.694 89.4918 153.744 89.3867 153.801 89.2857C153.902 89.0877 154.058 88.8039 154.256 88.4563C154.652 87.7611 155.235 86.8217 155.946 85.8273C156.656 84.8329 157.358 83.9771 157.886 83.3787C158.15 83.0773 158.37 82.8397 158.526 82.6791C158.599 82.5919 158.678 82.511 158.764 82.4371Z" fill="#455A64"/>
<path d="M149.66 74.1696C149.72 74.2729 149.773 74.3802 149.819 74.4908C149.913 74.6976 150.039 75.0012 150.206 75.3708C150.525 76.1232 150.947 77.1748 151.381 78.3474C151.814 79.52 152.177 80.5914 152.426 81.3724C152.551 81.7618 152.646 82.0786 152.712 82.2986C152.75 82.4112 152.779 82.5267 152.8 82.644C152.745 82.5375 152.701 82.4263 152.668 82.3118L152.349 81.3966C152.082 80.6244 151.706 79.5574 151.273 78.387C150.839 77.2166 150.43 76.1628 150.131 75.4016C149.986 75.0342 149.867 74.7416 149.777 74.4974C149.727 74.3923 149.688 74.2825 149.66 74.1696Z" fill="#455A64"/>
<path d="M34.6001 89.7785C34.6001 89.7785 37.0795 99.9293 48.1741 97.6039C48.1675 97.6039 44.9511 87.3233 34.6001 89.7785Z" fill="#263238"/>
<path d="M39.9551 105.152C39.9551 105.152 45.0481 112.747 53.4631 107.495C53.4631 107.495 47.7255 100.017 39.9551 105.152Z" fill="#263238"/>
<path d="M48.0684 116.737C48.0684 116.737 55.5 123.058 62.617 115.226C62.617 115.226 54.5584 109.211 48.0684 116.737Z" fill="#263238"/>
<path d="M55.9399 92.1765C55.9399 92.1765 47.6987 96.1365 51.6983 105.212C51.6961 105.212 59.9153 100.598 55.9399 92.1765Z" fill="#263238"/>
<path d="M57.7263 103.119C57.7263 103.119 53.6167 108.668 59.7415 113.435C59.7415 113.435 63.5915 107.451 57.7263 103.119Z" fill="#263238"/>
<path d="M38.6659 77.9073C38.6659 77.9073 37.7199 86.1353 46.6079 87.4531C46.6079 87.4531 47.0391 78.9259 38.6659 77.9073Z" fill="#263238"/>
<path d="M51.4125 69.5803C51.4125 69.5803 44.2229 72.5833 47.3447 81.0203C47.3447 81.0093 54.5475 77.4079 51.4125 69.5803Z" fill="#263238"/>
<path d="M55.7511 81.6033C55.7511 81.6033 46.2317 82.6901 47.0699 93.0433C47.0699 93.0477 56.7917 91.3075 55.7511 81.6033Z" fill="#263238"/>
<path d="M71.3819 118.466L71.2521 118.442L70.8759 118.359C70.5459 118.282 70.0575 118.178 69.4393 117.996C67.6878 117.508 65.9822 116.868 64.3419 116.084C63.2061 115.547 62.104 114.942 61.0419 114.271C59.8193 113.507 58.6526 112.657 57.5505 111.728C56.3288 110.704 55.188 109.588 54.1383 108.388L53.3375 107.422C53.0779 107.09 52.8315 106.745 52.5741 106.404C52.4465 106.232 52.3189 106.058 52.1891 105.887L51.8349 105.348C51.6017 104.983 51.3531 104.622 51.1265 104.248C50.6865 103.482 50.2465 102.739 49.8835 101.96C49.4875 101.201 49.1751 100.42 48.8495 99.6543C46.5536 93.9465 45.977 87.6919 47.1907 81.6605C47.3227 81.0313 47.4569 80.5495 47.5339 80.2195C47.5757 80.0589 47.6065 79.9335 47.6285 79.8455C47.6505 79.7575 47.6659 79.7201 47.6659 79.7201C47.6659 79.7201 47.6659 79.7641 47.6395 79.8499C47.6131 79.9357 47.5933 80.0699 47.5559 80.2239C47.4855 80.5561 47.3579 81.0401 47.2325 81.6693C46.8968 83.452 46.7062 85.259 46.6627 87.0725C46.5994 91.3622 47.3782 95.6226 48.9551 99.6125C49.2785 100.371 49.5909 101.152 49.9869 101.909C50.3455 102.684 50.7943 103.425 51.2233 104.188C51.4433 104.562 51.6963 104.921 51.9295 105.288L52.2837 105.83L52.6665 106.344C52.9217 106.685 53.1681 107.031 53.4255 107.361L54.2241 108.322C56.2192 110.602 58.5325 112.581 61.0925 114.201C63.6881 115.842 66.5026 117.107 69.4525 117.96C70.0663 118.15 70.5525 118.26 70.8825 118.343L71.2543 118.44L71.3819 118.466Z" fill="#263238"/>
<path d="M58.6174 107.592C58.6415 107.663 58.6585 107.737 58.668 107.812C58.6966 107.984 58.7296 108.19 58.7692 108.435C58.8528 108.96 58.976 109.686 59.13 110.485C59.284 111.284 59.4468 112.001 59.57 112.52C59.625 112.76 59.6712 112.96 59.7108 113.136C59.7326 113.207 59.7452 113.281 59.7482 113.356C59.7126 113.286 59.6853 113.212 59.6668 113.136C59.6228 112.995 59.5612 112.786 59.4908 112.529C59.35 112.014 59.1784 111.297 59.02 110.496C58.8616 109.695 58.756 108.956 58.6922 108.435C58.6592 108.171 58.6372 107.955 58.6262 107.805C58.6149 107.735 58.6119 107.663 58.6174 107.592Z" fill="#455A64"/>
<path d="M56.6001 115.833C56.671 115.804 56.7447 115.783 56.8201 115.769C56.9653 115.736 57.1809 115.692 57.4449 115.642C57.9751 115.543 58.7121 115.422 59.5305 115.329C60.3489 115.237 61.0925 115.177 61.6315 115.153C61.9021 115.14 62.1199 115.131 62.2695 115.131C62.3476 115.121 62.4268 115.121 62.5049 115.131C62.4295 115.152 62.352 115.163 62.2739 115.164L61.6381 115.221C61.1013 115.268 60.3599 115.338 59.5437 115.441C58.7275 115.545 58.0037 115.642 57.4581 115.721L56.8267 115.811C56.7524 115.828 56.6763 115.836 56.6001 115.833Z" fill="#455A64"/>
<path d="M46.5767 105.762C46.6712 105.758 46.7657 105.766 46.8583 105.786C47.0387 105.808 47.2983 105.845 47.6173 105.898C48.2597 106.004 49.1397 106.175 50.1033 106.408C51.0669 106.642 51.9271 106.892 52.5453 107.093C52.8533 107.192 53.1019 107.277 53.2735 107.339C53.3635 107.366 53.4505 107.402 53.5331 107.447C53.4391 107.436 53.3468 107.414 53.2581 107.381L52.5211 107.161C51.8985 106.983 51.0361 106.745 50.0747 106.512C49.1133 106.279 48.2399 106.096 47.6041 105.968L46.8517 105.821C46.7584 105.81 46.6663 105.79 46.5767 105.762Z" fill="#455A64"/>
<path d="M53.8524 97.9801C53.8168 98.0749 53.7726 98.1662 53.7204 98.2529C53.628 98.4245 53.5004 98.6753 53.3486 98.9899C52.9553 99.8053 52.6315 100.652 52.3806 101.522C52.1323 102.393 51.9564 103.282 51.8548 104.182C51.8174 104.527 51.791 104.809 51.78 105.003C51.7785 105.104 51.7667 105.205 51.7448 105.304C51.7322 105.203 51.7285 105.102 51.7338 105C51.7338 104.805 51.7448 104.523 51.7734 104.175C51.8527 103.266 52.0192 102.367 52.2706 101.489C52.5224 100.613 52.8591 99.7633 53.276 98.9525C53.4366 98.6423 53.5752 98.3959 53.6808 98.2309C53.7284 98.1411 53.786 98.057 53.8524 97.9801Z" fill="#455A64"/>
<path d="M42.8125 93.2479C42.8962 93.2786 42.9765 93.3177 43.0523 93.3645C43.2041 93.4459 43.4197 93.5713 43.6837 93.7341C44.3658 94.1593 45.0211 94.6258 45.6461 95.1311C46.2703 95.6374 46.8625 96.1818 47.4193 96.7613C47.6393 96.9813 47.7999 97.1683 47.9121 97.3003C47.9743 97.3679 48.0296 97.4417 48.0771 97.5203C48.0042 97.4674 47.9378 97.4061 47.8791 97.3377L47.3599 96.8163C46.9199 96.3763 46.2995 95.8087 45.5713 95.2169C44.8431 94.6251 44.1479 94.1389 43.6375 93.8001L43.0281 93.3997C42.9505 93.3578 42.8781 93.3068 42.8125 93.2479Z" fill="#455A64"/>
<path d="M53.2055 85.7305C53.1267 85.8298 53.0407 85.9232 52.9481 86.0099L52.2243 86.7469C51.6193 87.3695 50.7965 88.2495 49.9341 89.2593C49.0717 90.2691 48.3369 91.2217 47.8155 91.9213L47.2039 92.7507C47.1338 92.8554 47.0558 92.9547 46.9707 93.0477C47.0276 92.935 47.093 92.8269 47.1665 92.7243C47.2985 92.5197 47.4987 92.2271 47.7495 91.8729C48.2555 91.1601 48.9837 90.1987 49.8483 89.1845C50.7129 88.1703 51.5401 87.3079 52.1671 86.6897C52.4795 86.3839 52.7347 86.1397 52.9173 85.9769C53.0073 85.8879 53.1036 85.8055 53.2055 85.7305Z" fill="#455A64"/>
<path d="M41.7412 80.5803C41.8266 80.6467 41.906 80.7203 41.9788 80.8003C42.1262 80.9521 42.333 81.1765 42.5816 81.4603C43.2326 82.2043 43.845 82.9812 44.4164 83.7879C45.0764 84.7273 45.6396 85.6161 46.0136 86.2717C46.2006 86.5995 46.3458 86.8679 46.4536 87.0571C46.5092 87.1522 46.5556 87.2524 46.5922 87.3563C46.5255 87.2688 46.4659 87.1761 46.414 87.0791L45.9542 86.3135C45.5626 85.6689 45.0038 84.7911 44.335 83.8539C43.6662 82.9167 43.015 82.1049 42.531 81.5263C42.311 81.2491 42.1064 81.0203 41.9568 80.8443C41.8758 80.7642 41.8036 80.6757 41.7412 80.5803Z" fill="#455A64"/>
<path d="M50.3479 72.7681C50.3202 72.8773 50.2834 72.984 50.2379 73.0871C50.1521 73.3071 50.0399 73.5953 49.9035 73.9407C49.6219 74.6601 49.2435 75.6567 48.8255 76.7633C48.4075 77.8699 48.0599 78.8775 47.8003 79.6079C47.6771 79.9577 47.5803 80.2481 47.4989 80.4725C47.4674 80.5804 47.4254 80.6851 47.3735 80.7849C47.3915 80.6743 47.4188 80.5653 47.4549 80.4593C47.5143 80.2393 47.6067 79.9511 47.7233 79.5793C47.9587 78.8423 48.2997 77.8193 48.7111 76.7193C49.1225 75.6193 49.5207 74.6205 49.8221 73.9077C49.9739 73.5513 50.0993 73.2653 50.1895 73.0673C50.2328 72.9628 50.2859 72.8626 50.3479 72.7681Z" fill="#455A64"/>
<path d="M71.371 83.128C72.9748 83.337 73.2124 84.9804 73.8064 86.3598C74.4004 87.7392 75.5378 88.9668 76.4134 90.201C76.8754 90.861 77.5134 91.4396 77.6718 92.214C77.8456 93.0236 77.476 93.8618 77.3022 94.6868C77.1284 95.5118 77.2516 96.5216 78.0436 96.8868C77.9546 96.9906 77.8427 97.0724 77.7167 97.1254C77.5907 97.1785 77.454 97.2015 77.3176 97.1926C77.3176 97.5732 76.9502 97.901 76.5498 98.011C76.1463 98.0913 75.7305 98.0868 75.3288 97.9978C75.4366 98.2508 75.2078 98.5566 74.924 98.6578C74.6359 98.7365 74.332 98.7365 74.044 98.6578C73.7581 98.5766 73.4586 98.5549 73.164 98.594C72.504 98.737 72.119 99.474 71.459 99.5664C70.5526 99.6984 69.9014 98.539 69.006 98.7414C68.5858 98.836 68.3064 99.2034 67.961 99.4542C67.6156 99.705 67.0326 99.6412 66.861 99.2804C66.3814 99.8854 65.64 100.473 64.859 100.633C64.9148 100.501 64.9302 100.355 64.9032 100.214C64.8761 100.073 64.8079 99.9436 64.7072 99.8414C64.2789 100.191 63.7645 100.419 63.2178 100.501C63.3821 100.35 63.5116 100.166 63.5975 99.9598C63.6833 99.7539 63.7234 99.5319 63.715 99.309C63.531 99.4534 63.3165 99.5541 63.0877 99.6032C62.859 99.6524 62.6221 99.6488 62.395 99.5928C63.2002 99.133 63.275 98.0638 62.9934 97.2608C62.7118 96.4578 62.1618 95.7384 62.0562 94.8914C61.9396 93.9696 63.022 92.8036 62.8108 91.8994C62.4852 90.5046 62.5094 89.6554 62.5666 88.353C62.604 87.5016 62.9802 86.7448 63.3542 85.9506C63.7921 84.9668 64.5421 84.1549 65.4882 83.6406C66.3396 83.161 67.5672 82.721 68.5418 82.699C70.2798 82.6616 70.986 82.6066 72.361 83.5262" fill="#263238"/>
<path d="M66.016 94.4843C65.4452 93.3762 64.9719 92.2205 64.6014 91.0303C64.2299 89.8345 64.1619 88.5651 64.4034 87.3365C64.4452 87.1539 64.8434 85.9021 65.0326 85.8955C65.1668 85.8955 64.971 87.0329 65.0546 87.1407C65.8444 88.1571 66.1986 89.4617 66.2668 90.7465C66.3221 91.9986 66.238 93.253 66.016 94.4865" fill="#263238"/>
<path d="M73.6152 105.022C71.6946 105.242 67.0746 103.223 66.8172 101.309L65.2596 89.7896C64.7448 86.7096 66.1066 83.8496 69.202 83.4096L69.4902 83.3854C70.8897 83.2729 72.2802 83.6918 73.3847 84.5586C74.4892 85.4254 75.2266 86.6765 75.45 88.0626C75.89 90.7356 76.33 93.6924 76.4246 95.1378C76.627 98.1276 73.6768 98.8316 73.6768 98.8316C73.6768 98.8316 73.7516 99.5224 73.8594 100.396C74.1036 102.358 73.7912 104.51 73.6152 105.016V105.022Z" fill="#FFBE9D"/>
<path d="M73.6766 98.8316C72.2957 98.9388 70.913 98.6479 69.6924 97.9934C69.6924 97.9934 70.81 100.165 73.769 99.6566L73.6766 98.8316Z" fill="#EB996E"/>
<path d="M74.3365 90.663C74.3464 90.7738 74.3126 90.8842 74.2423 90.9705C74.1721 91.0568 74.0709 91.1122 73.9603 91.125C73.9063 91.134 73.851 91.132 73.7978 91.1192C73.7445 91.1063 73.6944 91.0829 73.6505 91.0502C73.6065 91.0176 73.5696 90.9764 73.5419 90.9291C73.5143 90.8819 73.4964 90.8295 73.4895 90.7752C73.4796 90.6643 73.5134 90.554 73.5836 90.4677C73.6539 90.3814 73.7551 90.3259 73.8657 90.3132C73.9197 90.3038 73.9751 90.3056 74.0285 90.3183C74.0818 90.331 74.1321 90.3544 74.1761 90.3871C74.2201 90.4198 74.257 90.4612 74.2846 90.5086C74.3122 90.556 74.3298 90.6085 74.3365 90.663Z" fill="#263238"/>
<path d="M74.9197 89.431C74.8713 89.4904 74.5303 89.277 74.0705 89.3144C73.6107 89.3518 73.2939 89.6092 73.2389 89.5564C73.1839 89.5036 73.2587 89.4288 73.3973 89.3122C73.5844 89.1576 73.8152 89.0653 74.0573 89.0482C74.2959 89.0277 74.5348 89.084 74.7393 89.2088C74.8889 89.3056 74.9439 89.4024 74.9197 89.431Z" fill="#263238"/>
<path d="M70.0203 90.9996C70.0275 91.1101 69.9928 91.2193 69.9231 91.3053C69.8533 91.3914 69.7537 91.448 69.6441 91.4638C69.5901 91.4725 69.535 91.4703 69.4818 91.4573C69.4287 91.4444 69.3787 91.4209 69.3349 91.3883C69.291 91.3557 69.2541 91.3146 69.2263 91.2675C69.1986 91.2204 69.1805 91.1682 69.1733 91.114C69.1661 91.0035 69.2008 90.8943 69.2705 90.8083C69.3403 90.7222 69.4399 90.6656 69.5495 90.6498C69.6034 90.6414 69.6585 90.6438 69.7115 90.6569C69.7645 90.67 69.8144 90.6935 69.8582 90.7261C69.902 90.7586 69.9389 90.7996 69.9667 90.8465C69.9946 90.8935 70.0128 90.9455 70.0203 90.9996Z" fill="#263238"/>
<path d="M70.4274 89.8974C70.379 89.9568 70.0358 89.7456 69.5782 89.783C69.1206 89.8204 68.7994 90.0778 68.7466 90.025C68.6938 89.9722 68.7642 89.8974 68.9028 89.7786C69.0899 89.6243 69.3208 89.5328 69.5628 89.5168C69.8021 89.496 70.0419 89.5523 70.247 89.6774C70.3966 89.7742 70.4604 89.871 70.4274 89.8974Z" fill="#263238"/>
<path d="M72.3589 93.2942C72.5945 93.1982 72.8415 93.1332 73.0937 93.1006C73.2103 93.0786 73.3137 93.0456 73.3313 92.9642C73.3323 92.8423 73.2954 92.7231 73.2257 92.6232L72.8077 91.7586C72.2247 90.5266 71.7913 89.508 71.8419 89.486C71.8925 89.464 72.4051 90.443 72.9881 91.675L73.3929 92.555C73.4778 92.6906 73.512 92.8519 73.4897 93.0104C73.4761 93.053 73.4531 93.092 73.4222 93.1244C73.3913 93.1568 73.3535 93.1818 73.3115 93.1974C73.2474 93.2196 73.181 93.2344 73.1135 93.2414C72.8652 93.2907 72.6117 93.3084 72.3589 93.2942Z" fill="#263238"/>
<path d="M70.2403 88.188C70.1875 88.309 69.7321 88.221 69.1887 88.254C68.6453 88.287 68.1987 88.4058 68.1349 88.2892C68.1063 88.2342 68.1899 88.1198 68.3725 88.0098C68.6168 87.877 68.8879 87.8011 69.1656 87.7878C69.4433 87.7744 69.7204 87.824 69.9763 87.9328C70.1787 88.023 70.2733 88.1264 70.2403 88.188Z" fill="#263238"/>
<path d="M74.7259 88.3661C74.6401 88.4783 74.2573 88.4057 73.8063 88.4431C73.3553 88.4805 72.9835 88.5927 72.8867 88.4915C72.8427 88.4431 72.8867 88.3331 73.0495 88.2187C73.2678 88.0777 73.5183 87.9943 73.7775 87.9763C74.0368 87.9582 74.2965 88.006 74.5323 88.1153C74.6995 88.2077 74.7633 88.3111 74.7259 88.3661Z" fill="#263238"/>
<path d="M65.682 91.9829C65.6292 91.9653 63.581 91.5429 63.8098 93.5779C64.0386 95.6129 66.0362 94.9661 66.034 94.8979C66.0318 94.8297 65.682 91.9829 65.682 91.9829Z" fill="#FFBE9D"/>
<path d="M65.3256 94.2049C65.3256 94.2049 65.2926 94.2335 65.2354 94.2687C65.155 94.3133 65.0607 94.3259 64.9714 94.3039C64.7514 94.2489 64.5314 93.9277 64.4742 93.5603C64.4502 93.3861 64.4652 93.2088 64.5182 93.0411C64.5298 92.9755 64.5573 92.9136 64.5983 92.8611C64.6394 92.8085 64.6927 92.7668 64.7536 92.7397C64.793 92.7245 64.8365 92.7234 64.8766 92.7367C64.9167 92.7499 64.951 92.7767 64.9736 92.8123C65.0088 92.8673 65 92.9091 65.011 92.9113C65.022 92.9135 65.0506 92.8717 65.0242 92.7903C65.0078 92.7408 64.9743 92.6987 64.9296 92.6715C64.8688 92.6352 64.7961 92.6241 64.7272 92.6407C64.6457 92.6673 64.5722 92.7141 64.5137 92.7768C64.4552 92.8396 64.4136 92.9161 64.3928 92.9993C64.3267 93.1854 64.3063 93.3846 64.3334 93.5801C64.3928 93.9893 64.6458 94.3501 64.9494 94.4029C65.006 94.4131 65.0641 94.4103 65.1193 94.3946C65.1746 94.379 65.2256 94.351 65.2684 94.3127C65.3256 94.2555 65.3322 94.2071 65.3256 94.2049Z" fill="#EB996E"/>
<path d="M73.7229 84.8484C74.0309 84.6284 72.9133 83.678 72.0597 83.4096C70.7683 83.0026 68.8587 82.8882 67.7675 83.3458C66.4475 83.8958 65.4113 84.7076 64.8789 86.0276C64.3745 87.3655 64.2355 88.8136 64.4763 90.223C64.5118 90.6585 64.6637 91.0764 64.9163 91.433C65.2551 91.8488 65.8359 92.0666 65.8865 92.6892C65.9007 92.9175 66.0033 93.1314 66.1725 93.2854C66.5949 93.6352 67.0041 93.2084 67.1691 92.8102C67.5189 91.9588 67.4529 90.9996 67.3891 90.0822C67.3739 89.4262 67.2505 88.7773 67.0239 88.1616C66.8831 87.8338 66.6851 87.5324 66.5619 87.198C66.4907 87.0346 66.4558 86.8578 66.4596 86.6797C66.4634 86.5015 66.5058 86.3263 66.5839 86.1662C66.6234 86.1025 66.6691 86.0428 66.7203 85.988C66.9738 85.7055 67.298 85.4954 67.6594 85.3795C68.0209 85.2635 68.4067 85.2457 68.7773 85.328C69.9719 85.5942 72.0047 85.9616 72.4689 85.5106C73.1289 84.8506 73.2675 84.4766 73.2675 84.4766L73.7229 84.8484Z" fill="#263238"/>
<path d="M71.1312 93.6879C71.1048 93.6879 71.1004 93.8089 71.162 93.9805C71.2467 94.2064 71.4007 94.3996 71.602 94.5327C71.7953 94.6614 72.0109 94.7532 72.2378 94.8033C72.4072 94.8429 72.5172 94.8473 72.526 94.8209C72.5348 94.7945 72.4424 94.7351 72.2884 94.6603C72.093 94.5731 71.9047 94.4709 71.7252 94.3545C71.316 94.0927 71.195 93.6703 71.1312 93.6879Z" fill="#263238"/>
<path d="M65.748 92.2491C65.7656 92.2843 65.781 92.3217 65.7986 92.3635C65.7986 92.3679 65.7788 92.3217 65.748 92.2491Z" fill="#FF725E"/>
<path d="M65.0502 91.928C65.0502 91.928 65.3912 91.488 65.7476 92.2404C65.323 91.2416 62.5004 84.019 70.24 83.0664C70.24 83.0664 67.4438 82.5736 65.7586 83.964C65.7586 83.9728 62.331 86.021 65.0502 91.928Z" fill="#455A64"/>
<path d="M79.8498 128.4L61.8604 128.644C61.8604 128.644 56.829 126.538 55.4474 126.481C54.0658 126.424 51.3202 126.6 50.0508 128.644C48.7308 130.756 48.557 134.48 52.5984 137.186C56.5364 139.826 74.539 142.26 77.0184 142.026L81.5548 135.928C81.5548 135.928 81.6032 130.923 81.5548 130.683C81.5064 130.443 80.7452 128.301 80.7452 128.301L79.8498 128.4Z" fill="#263238"/>
<path d="M69.0807 136.848L59.7593 140.308L64.0075 151.929C65.0921 151.453 65.1229 144.629 65.1229 144.629L71.1861 142.649L69.0807 136.848Z" fill="#FF725E"/>
<g opacity="0.6">
<path d="M64.3133 140.852C64.2386 140.752 64.1299 140.684 64.0081 140.66C63.8863 140.636 63.76 140.658 63.6533 140.722C63.5496 140.793 63.4776 140.901 63.4526 141.025C63.4275 141.148 63.4514 141.276 63.5191 141.382C63.5986 141.487 63.7145 141.559 63.8441 141.584C63.9738 141.609 64.1081 141.585 64.2209 141.516C64.3193 141.431 64.3808 141.311 64.3927 141.181C64.4046 141.052 64.3659 140.922 64.2847 140.821" fill="white"/>
</g>
<path d="M59.7593 140.308L60.7009 139.961L64.4409 151.253C64.4409 151.253 64.4057 151.854 64.0185 151.929L59.7593 140.308Z" fill="#263238"/>
<path d="M65.2506 144.796C65.1934 144.814 65.0658 144.539 64.7798 144.328C64.4938 144.116 64.2034 144.053 64.2056 143.993C64.2078 143.934 64.5686 143.896 64.9074 144.16C65.2462 144.424 65.3078 144.787 65.2506 144.796Z" fill="#263238"/>
<path d="M65.1935 146.198C65.1429 146.231 64.9559 146.022 64.6457 145.916C64.3355 145.81 64.0627 145.848 64.0429 145.791C64.0231 145.733 64.3333 145.571 64.7161 145.718C65.0989 145.865 65.2463 146.178 65.1935 146.198Z" fill="#263238"/>
<path d="M63.9879 147.423C63.9571 147.377 64.2079 147.203 64.5753 147.225C64.9427 147.247 65.1605 147.478 65.1209 147.52C65.0813 147.562 64.8569 147.458 64.5577 147.436C64.2585 147.414 64.0143 147.478 63.9879 147.423Z" fill="#263238"/>
<path d="M66.5841 144.191C66.5225 144.191 66.5071 143.899 66.3641 143.586C66.2211 143.274 66.0318 143.06 66.0692 143.012C66.1066 142.964 66.3971 143.131 66.5555 143.503C66.7139 143.874 66.6391 144.204 66.5841 144.191Z" fill="#263238"/>
<path d="M67.8618 143.408C67.8376 143.408 67.721 143.206 67.6418 142.825C67.6031 142.601 67.5913 142.374 67.6066 142.147C67.6159 142.013 67.6343 141.879 67.6616 141.747C67.6746 141.67 67.6991 141.596 67.7342 141.527C67.7607 141.475 67.8039 141.433 67.857 141.408C67.91 141.384 67.9698 141.377 68.0268 141.391C68.0766 141.404 68.1224 141.43 68.1606 141.464C68.1988 141.499 68.2284 141.543 68.2468 141.591C68.2736 141.661 68.2906 141.735 68.2974 141.811C68.3399 142.175 68.2892 142.545 68.15 142.884C67.9982 143.245 67.82 143.415 67.8024 143.399C67.7848 143.384 67.9036 143.179 68.0092 142.834C68.0702 142.631 68.1049 142.421 68.1126 142.209C68.1156 142.085 68.109 141.96 68.0928 141.837C68.0796 141.703 68.0422 141.597 67.9762 141.586C67.952 141.586 67.9432 141.586 67.9146 141.622C67.8902 141.675 67.8725 141.731 67.8618 141.789C67.8343 141.911 67.8138 142.034 67.8002 142.158C67.7808 142.372 67.7808 142.587 67.8002 142.801C67.8343 143.002 67.8549 143.204 67.8618 143.408Z" fill="#263238"/>
<path d="M67.752 143.366C67.7366 143.351 67.8994 143.164 68.258 143.008C68.4679 142.92 68.691 142.868 68.918 142.854C69.054 142.847 69.1902 142.854 69.325 142.873C69.4132 142.876 69.4991 142.902 69.5743 142.949C69.6495 142.995 69.7114 143.06 69.754 143.137C69.7727 143.189 69.7758 143.245 69.7629 143.299C69.75 143.352 69.7216 143.401 69.6814 143.439C69.6249 143.494 69.5604 143.541 69.49 143.577C69.3674 143.644 69.2354 143.693 69.0984 143.72C68.8686 143.769 68.6304 143.759 68.4054 143.692C68.0226 143.575 67.8686 143.364 67.8862 143.351C68.0665 143.429 68.2517 143.495 68.4406 143.549C68.6448 143.587 68.8549 143.581 69.0566 143.531C69.173 143.503 69.2848 143.458 69.3888 143.399C69.5054 143.335 69.5868 143.252 69.5582 143.21C69.5296 143.168 69.4086 143.089 69.292 143.078C69.1706 143.057 69.0477 143.047 68.9246 143.047C68.7133 143.051 68.5036 143.085 68.302 143.148C67.9632 143.256 67.7718 143.395 67.752 143.366Z" fill="#263238"/>
<path d="M76.7698 135.411L85.7898 139.591L80.6418 150.84C79.5968 150.283 80.1028 143.476 80.1028 143.476L74.2134 141.032L76.7698 135.411Z" fill="#FF725E"/>
<g opacity="0.6">
<path d="M81.2074 139.778C81.2896 139.688 81.4016 139.63 81.5229 139.616C81.6442 139.602 81.7666 139.632 81.8674 139.701C81.9627 139.78 82.0242 139.892 82.0394 140.015C82.0545 140.138 82.0221 140.261 81.9488 140.361C81.8614 140.459 81.7406 140.522 81.6098 140.537C81.4789 140.551 81.3473 140.517 81.2404 140.44C81.1498 140.346 81.0991 140.221 81.0991 140.09C81.0991 139.96 81.1498 139.834 81.2404 139.741" fill="white"/>
</g>
<path d="M85.7898 139.595L84.8791 139.173L80.2744 150.138C80.2744 150.138 80.2635 150.741 80.6419 150.844L85.7898 139.595Z" fill="#263238"/>
<path d="M79.9621 143.628C80.0193 143.65 80.1689 143.386 80.4703 143.188C80.7717 142.99 81.0665 142.968 81.0687 142.9C81.0709 142.832 80.7145 142.777 80.3559 143.012C79.9973 143.247 79.9071 143.628 79.9621 143.628Z" fill="#263238"/>
<path d="M79.9201 145.038C79.9663 145.076 80.1687 144.88 80.4877 144.801C80.8067 144.721 81.0751 144.779 81.0971 144.724C81.1191 144.669 80.8265 144.49 80.4371 144.598C80.0477 144.706 79.8585 145.014 79.9201 145.038Z" fill="#263238"/>
<path d="M81.0202 146.356C81.0554 146.31 80.8156 146.11 80.4504 146.112C80.0852 146.114 79.8476 146.319 79.8828 146.363C79.918 146.407 80.1512 146.321 80.4526 146.323C80.754 146.325 80.985 146.407 81.0202 146.356Z" fill="#263238"/>
<path d="M78.6818 142.931C78.7434 142.931 78.783 142.642 78.9458 142.343C79.1086 142.044 79.3176 141.844 79.2846 141.793C79.2516 141.743 78.948 141.888 78.761 142.233C78.574 142.579 78.6268 142.937 78.6818 142.931Z" fill="#263238"/>
<path d="M77.4694 142.051C77.4936 142.062 77.6256 141.861 77.7246 141.487C77.7821 141.267 77.8124 141.041 77.8148 140.814C77.8152 140.68 77.8071 140.545 77.7906 140.412C77.7846 140.332 77.7661 140.254 77.7356 140.181C77.7129 140.127 77.6729 140.082 77.6219 140.053C77.5709 140.025 77.5119 140.014 77.454 140.022C77.4034 140.032 77.3557 140.054 77.3149 140.086C77.274 140.117 77.2411 140.158 77.2186 140.205C77.1862 140.274 77.164 140.349 77.1526 140.425C77.1261 140.558 77.1121 140.694 77.1108 140.83C77.1103 141.059 77.1452 141.286 77.2142 141.505C77.26 141.712 77.3664 141.9 77.52 142.046C77.5508 142.029 77.4364 141.826 77.3594 141.465C77.3145 141.258 77.296 141.046 77.3044 140.834C77.3112 140.71 77.3274 140.586 77.3528 140.464C77.377 140.332 77.4232 140.229 77.4892 140.222C77.5156 140.222 77.5244 140.222 77.5464 140.264C77.5675 140.318 77.5809 140.375 77.586 140.434C77.605 140.558 77.6167 140.684 77.6212 140.81C77.6268 141.024 77.6128 141.238 77.5794 141.45C77.5301 141.648 77.4933 141.848 77.4694 142.051Z" fill="#263238"/>
<path d="M77.5817 142.015C77.5993 142 77.4519 141.795 77.1065 141.617C76.8998 141.512 76.6766 141.442 76.4465 141.413C76.3116 141.395 76.1752 141.39 76.0395 141.399C75.9536 141.396 75.8683 141.415 75.7915 141.453C75.7146 141.492 75.6486 141.549 75.5995 141.619C75.5777 141.67 75.5707 141.726 75.5792 141.78C75.5878 141.835 75.6116 141.886 75.6479 141.927C75.7 141.987 75.7609 142.038 75.8283 142.079C75.9452 142.157 76.0737 142.215 76.2089 142.253C76.4334 142.319 76.6708 142.328 76.8997 142.279C77.2935 142.194 77.4629 141.993 77.4453 141.98C77.2587 142.043 77.0684 142.093 76.8755 142.132C76.6701 142.156 76.462 142.134 76.2661 142.068C76.1521 142.031 76.044 141.977 75.9449 141.91C75.8327 141.837 75.7579 141.747 75.7909 141.71C75.8239 141.672 75.9493 141.6 76.0637 141.595C76.1866 141.584 76.3103 141.584 76.4333 141.595C76.6439 141.614 76.8506 141.664 77.0471 141.743C77.3815 141.89 77.5597 142.042 77.5817 142.015Z" fill="#263238"/>
<path d="M80.7452 128.303C80.7452 128.303 88.5134 125.401 91.3734 125.777C92.9728 125.997 95.472 127.207 95.6634 129.258C95.8548 131.308 95.3532 134.047 92.5834 135.382C89.8136 136.718 78.785 141.668 76.1648 142.422C73.5446 143.177 67.0062 144.97 67.0062 144.97L64.5312 137.908C64.5312 137.908 78.0766 133.218 78.7916 132.692C79.5066 132.166 81.3172 131.453 81.3172 131.453L80.7452 128.303Z" fill="#263238"/>
<path d="M53.7402 129.266L53.7952 129.251L53.9514 129.205C54.0878 129.163 54.2902 129.104 54.5564 129.04C54.8764 128.961 55.2013 128.905 55.5288 128.87C55.9635 128.831 56.4009 128.831 56.8356 128.87C57.3632 128.914 57.8845 129.014 58.391 129.167C58.6728 129.251 58.9472 129.358 59.2116 129.486L60.0564 129.9C61.2202 130.454 62.516 131.024 63.8998 131.57C66.6674 132.67 69.325 133.207 71.2192 133.636C72.1696 133.856 72.9396 134.018 73.4676 134.146L74.0792 134.289L74.2376 134.326H74.2926L74.2398 134.309L74.0814 134.265C73.945 134.227 73.7404 134.17 73.4764 134.104C72.9484 133.97 72.1828 133.787 71.2324 133.57C69.3404 133.13 66.6894 132.588 63.9306 131.484C62.549 130.938 61.2532 130.373 60.0894 129.821L59.2402 129.423C58.9714 129.294 58.6926 129.187 58.4064 129.104C57.8955 128.951 57.3696 128.854 56.8378 128.813C56.3988 128.773 55.9569 128.773 55.5178 128.813C55.1883 128.852 54.8619 128.913 54.541 128.998C54.277 129.066 54.0746 129.13 53.9404 129.176L53.7864 129.233C53.7698 129.243 53.7543 129.254 53.7402 129.266Z" fill="#455A64"/>
<path d="M54.147 128.241C54.147 128.254 54.3846 128.213 54.7652 128.171C55.2598 128.118 55.7578 128.105 56.2546 128.129C56.7525 128.155 57.2475 128.221 57.7352 128.325C58.1092 128.404 58.338 128.47 58.3402 128.457C58.2914 128.43 58.2397 128.41 58.1862 128.395C58.0418 128.345 57.895 128.302 57.7462 128.268C56.7682 128.023 55.7521 127.971 54.7542 128.114C54.565 128.14 54.411 128.169 54.3142 128.195C54.2569 128.204 54.2008 128.219 54.147 128.241Z" fill="#455A64"/>
<path d="M84.0146 130.358C84.0146 130.371 84.2347 130.204 84.6109 129.973C85.5827 129.371 86.6731 128.986 87.8075 128.844C88.2475 128.791 88.5159 128.785 88.5137 128.769C88.45 128.763 88.3859 128.763 88.3223 128.769C88.1482 128.768 87.9741 128.776 87.8009 128.793C86.6499 128.904 85.5435 129.295 84.5779 129.931C84.3953 130.054 84.2501 130.151 84.1555 130.239C84.1043 130.273 84.057 130.313 84.0146 130.358Z" fill="#455A64"/>
<path d="M80.116 140.911L80.0544 140.935L79.8784 141.01C79.7222 141.072 79.4956 141.179 79.192 141.296C78.587 141.536 77.6916 141.866 76.552 142.242C74.2574 142.992 70.9574 143.947 67.0106 144.941L67.0568 144.965C66.3198 142.924 65.5168 140.669 64.6544 138.299L64.6302 138.352L67.6002 137.131L84.0584 130.357C84.7294 129.649 85.3454 129.024 85.924 128.518C86.4131 128.086 86.9354 127.692 87.486 127.341C87.8326 127.123 88.1902 126.924 88.5574 126.743L88.8456 126.609L88.9424 126.56L88.8434 126.602L88.5508 126.73C88.1801 126.904 87.8195 127.1 87.4706 127.315C86.9154 127.663 86.3887 128.054 85.8954 128.485C85.3124 128.989 84.692 129.612 84.0188 130.318C80.0082 131.963 74.1188 134.379 67.5518 137.065L64.5774 138.289L64.54 138.304L64.5532 138.341C65.4112 140.711 66.2252 142.961 66.9622 145.005L66.9732 145.036H67.0084C70.9552 144.033 74.2508 143.067 76.5432 142.306C77.6894 141.921 78.5826 141.586 79.1832 141.338C79.4846 141.219 79.7112 141.107 79.8652 141.041L80.039 140.959L80.116 140.911Z" fill="#455A64"/>
<path d="M60.9125 103.544C60.9125 103.544 58.6773 104.833 58.2241 106.347C57.9469 107.266 55.8613 119.025 55.5313 121.344C55.2013 123.663 55.8965 125.381 56.8865 126.151C57.8765 126.921 60.8729 127.944 60.8729 127.944L65.0903 129.31L66.2981 126.23L62.2853 120.464L62.6725 116.579L60.9125 103.544Z" fill="#FF725E"/>
<path d="M65.3099 101.513L66.7047 100.484C66.7047 100.484 68.5219 102.343 70.6097 102.123C72.6975 101.903 73.9339 100.306 73.9339 100.306L80.1599 101.575C80.5779 101.659 81.3391 101.923 82.0673 102.963C82.8813 104.125 86.7335 109.273 86.7335 109.273H89.4307C89.7956 109.273 90.1534 109.373 90.4659 109.561C90.7783 109.749 91.0335 110.019 91.2039 110.342C91.6637 111.222 92.2159 112.392 92.1631 112.879C92.0707 113.699 92.2291 115.959 91.1291 116.658C90.7793 116.878 89.5275 117.551 88.5595 117.507C87.1273 117.439 85.4641 116.693 84.5071 116.025C83.6953 115.457 81.8099 113.497 81.0839 112.725V112.736L80.6175 129.068L64.3001 128.611L60.9121 103.544C60.9121 103.544 65.1449 101.513 65.3099 101.513Z" fill="#FF725E"/>
<path d="M81.1411 105.889C81.1191 105.889 81.0773 107.913 81.0465 110.41C81.0157 112.907 81.0113 114.931 81.0355 114.931C81.0597 114.931 81.1015 112.909 81.1301 110.41C81.1587 107.911 81.1653 105.889 81.1411 105.889Z" fill="#263238"/>
<path d="M58.9365 119.091C58.9365 119.091 59.0751 119.113 59.3215 119.16C59.6692 119.229 60.0079 119.338 60.3313 119.483C60.8114 119.698 61.2635 119.971 61.6777 120.295C62.1864 120.695 62.661 121.136 63.0967 121.615C63.5631 122.119 63.9899 122.618 64.3903 123.06C64.7408 123.457 65.1117 123.835 65.5013 124.193C65.7648 124.432 66.0441 124.652 66.3373 124.853C66.4407 124.928 66.5265 124.976 66.5815 125.012C66.6091 125.031 66.6386 125.047 66.6695 125.06C66.6463 125.036 66.6196 125.015 66.5903 124.998C66.5375 124.957 66.4561 124.904 66.3571 124.827C66.072 124.614 65.7995 124.385 65.5409 124.14C65.2131 123.835 64.8435 123.445 64.4409 123.001C64.0383 122.556 63.6203 122.055 63.1517 121.549C62.7123 121.068 62.2324 120.627 61.7173 120.229C61.2967 119.904 60.8369 119.634 60.3489 119.424C60.0201 119.282 59.675 119.182 59.3215 119.124C59.2254 119.108 59.1285 119.097 59.0311 119.091C58.9997 119.088 58.968 119.088 58.9365 119.091Z" fill="#263238"/>
<path d="M58.5669 117.985C58.5669 118 58.8133 118.035 59.2027 118.143C60.2222 118.424 61.1471 118.974 61.8801 119.736C62.1617 120.026 62.3201 120.229 62.3201 120.22C62.2954 120.166 62.2636 120.116 62.2255 120.07C62.1326 119.938 62.0312 119.813 61.9219 119.694C61.2033 118.899 60.2619 118.339 59.2203 118.086C59.0641 118.046 58.9053 118.016 58.7451 117.998C58.6863 117.987 58.6266 117.983 58.5669 117.985Z" fill="#263238"/>
<g opacity="0.3">
<path d="M88.9402 115.118C88.0756 115.354 87.0372 114.111 86.2518 113.332C85.8448 112.927 85.4202 112.496 85.2706 111.941C85.1626 111.475 85.2097 110.986 85.4048 110.549C85.5508 110.155 85.7436 109.779 85.979 109.431C85.9086 110.102 85.7414 111.132 85.968 111.974C86.1572 112.676 86.6016 113.237 87.068 113.767C87.5344 114.298 88.168 114.918 88.9336 115.118" fill="#FEFEFE"/>
</g>
<path d="M85.253 114.408C85.2706 114.408 85.1694 114.122 85.088 113.653C85.0425 113.379 85.016 113.102 85.0088 112.824C85.0054 112.483 85.0289 112.144 85.0792 111.807C85.1346 111.472 85.217 111.141 85.3256 110.819C85.4181 110.557 85.5291 110.301 85.6578 110.054C85.8778 109.634 86.0604 109.394 86.0472 109.394C85.9963 109.442 85.9512 109.496 85.913 109.554C85.8624 109.618 85.8161 109.685 85.7744 109.755C85.7132 109.844 85.6567 109.937 85.605 110.032C85.4679 110.277 85.3503 110.533 85.253 110.797C85.1383 111.123 85.0522 111.458 84.9956 111.798C84.9451 112.14 84.9238 112.485 84.9318 112.83C84.9424 113.112 84.9755 113.392 85.0308 113.668C85.0506 113.787 85.0814 113.888 85.1056 113.985C85.1251 114.064 85.1486 114.142 85.176 114.218C85.1968 114.283 85.2226 114.347 85.253 114.408Z" fill="#263238"/>
<path d="M73.2544 100.948C73.2544 100.97 73.4348 101.082 73.635 101.26C73.8352 101.438 73.9804 101.608 73.9804 101.592C73.9102 101.438 73.8086 101.299 73.6822 101.185C73.5557 101.072 73.4071 100.986 73.2456 100.932L73.2544 100.948Z" fill="#263238"/>
<path d="M71.5604 101.925C71.5428 101.942 71.7056 102.118 71.8376 102.378C71.9696 102.638 72.0202 102.873 72.0466 102.871C72.0561 102.685 72.0094 102.5 71.9124 102.341C71.841 102.169 71.718 102.024 71.5604 101.925Z" fill="#263238"/>
<path d="M68.6475 102.948C68.7242 102.792 68.7868 102.629 68.8345 102.462C68.9071 102.303 68.9624 102.137 68.9995 101.967C68.7936 102.255 68.6718 102.594 68.6475 102.948Z" fill="#263238"/>
<path d="M66.7754 102.063C66.7996 102.063 66.8634 101.784 67.0482 101.483C67.233 101.181 67.453 100.992 67.4354 100.972C67.2397 101.079 67.0804 101.243 66.9778 101.441C66.8513 101.624 66.781 101.841 66.7754 102.063Z" fill="#263238"/>
<path d="M61.4006 107.352C61.3786 107.352 61.6536 109.587 62.0188 112.335C62.384 115.083 62.6942 117.309 62.7184 117.307C62.7426 117.305 62.4654 115.072 62.1002 112.324C61.735 109.576 61.4248 107.35 61.4006 107.352Z" fill="#263238"/>
<path d="M85.8602 110.965C85.852 111.041 85.852 111.119 85.8602 111.196C85.8653 111.286 85.8763 111.375 85.8932 111.464C85.9042 111.517 85.913 111.572 85.9218 111.631C85.9306 111.691 85.9526 111.75 85.9702 111.814C86.0485 112.117 86.1561 112.412 86.2914 112.694C86.4595 113.037 86.6599 113.363 86.8898 113.668C87.1253 113.97 87.3931 114.245 87.6884 114.489C87.9314 114.686 88.201 114.848 88.4892 114.971C88.5508 114.997 88.608 115.024 88.6652 115.043L88.828 115.09L88.971 115.129C89.015 115.129 89.0568 115.14 89.0942 115.145C89.1669 115.157 89.2404 115.163 89.3142 115.164C89.036 115.11 88.7641 115.027 88.5024 114.918C88.2247 114.788 87.9645 114.624 87.728 114.43C87.4395 114.187 87.1777 113.914 86.947 113.616C86.7205 113.316 86.521 112.996 86.3508 112.661C86.216 112.384 86.1041 112.096 86.0164 111.801C85.8866 111.288 85.8822 110.962 85.8602 110.965Z" fill="#263238"/>
<g opacity="0.3">
<path d="M61.9263 129.634C61.2333 129.299 61.0771 128.402 61.0067 127.636C60.7999 125.392 60.5923 123.149 60.3841 120.906C60.2873 119.85 60.2411 118.647 60.9847 117.892C61.6645 117.204 62.7447 117.162 63.7105 117.164C69.6835 117.182 74.9591 117.358 80.9321 117.384L80.6285 127.834L61.9263 129.634Z" fill="#FEFEFE"/>
</g>
<path d="M83.5061 118.988L82.8703 131.108C82.8579 131.333 82.7598 131.544 82.5961 131.699C82.4323 131.854 82.2155 131.94 81.9903 131.939L62.6875 131.975C62.4615 131.975 62.2441 131.888 62.0803 131.732C61.9165 131.577 61.8188 131.364 61.8075 131.139L61.0705 119.223C61.0463 118.731 61.3983 118.071 61.8999 118.062H82.6173C82.7376 118.06 82.8569 118.084 82.9678 118.13C83.0788 118.177 83.179 118.246 83.2623 118.332C83.3456 118.419 83.4102 118.522 83.4521 118.635C83.4941 118.748 83.5124 118.868 83.5061 118.988Z" fill="#E0E0E0"/>
<path d="M83.506 118.988C83.5069 118.973 83.5069 118.959 83.506 118.944C83.5098 118.899 83.5098 118.853 83.506 118.808C83.4831 118.654 83.4199 118.509 83.323 118.388C83.226 118.266 83.0986 118.173 82.9538 118.117C82.8047 118.062 82.6458 118.04 82.4874 118.051H81.3148L73.8348 118.038L62.7402 118.027H61.9526C61.8125 118.02 61.6737 118.056 61.5544 118.13C61.4376 118.205 61.3373 118.303 61.2596 118.418C61.1021 118.648 61.0177 118.92 61.0176 119.199C61.033 119.47 61.0506 119.743 61.066 120.015C61.132 121.115 61.2024 122.215 61.2706 123.353C61.4114 125.621 61.5566 127.973 61.7106 130.373L61.7392 130.813C61.7524 130.965 61.7502 131.11 61.7766 131.268C61.8076 131.422 61.8772 131.565 61.9788 131.684C62.0804 131.804 62.2107 131.895 62.3574 131.95C62.5029 132.001 62.6569 132.022 62.8106 132.012H64.1306H67.5956L74.1472 131.997L80.0762 131.983H81.4446H81.779C81.8929 131.985 82.0067 131.98 82.12 131.968C82.3435 131.937 82.5478 131.826 82.6943 131.654C82.8407 131.482 82.919 131.263 82.9142 131.037C82.9252 130.817 82.9362 130.619 82.9472 130.413C82.9692 129.999 82.989 129.596 83.0088 129.203C83.1694 126.05 83.2992 123.498 83.3872 121.723C83.4312 120.843 83.4642 120.158 83.4862 119.692C83.4972 119.461 83.506 119.285 83.5104 119.164C83.5148 119.043 83.5104 118.984 83.5104 118.984L83.4972 119.164C83.4972 119.285 83.4796 119.461 83.4664 119.692C83.44 120.158 83.4004 120.84 83.352 121.723C83.2552 123.483 83.1166 126.037 82.945 129.189C82.9252 129.583 82.9032 129.988 82.8812 130.399C82.8709 130.606 82.8599 130.815 82.8482 131.026C82.8507 131.235 82.7789 131.438 82.6458 131.598C82.5084 131.759 82.3165 131.864 82.1068 131.893C81.9984 131.901 81.8896 131.901 81.7812 131.893H80.074H74.145H67.5934H64.1284H62.8084C62.6653 131.903 62.5217 131.884 62.386 131.838C62.2522 131.788 62.1335 131.704 62.0408 131.595C61.9481 131.486 61.8844 131.356 61.8558 131.216C61.8316 131.079 61.8316 130.921 61.8206 130.776L61.792 130.336C61.6424 127.931 61.4972 125.584 61.352 123.315C61.2816 122.182 61.2112 121.067 61.132 119.978C61.1166 119.705 61.099 119.435 61.0836 119.164C61.0818 118.903 61.1584 118.647 61.3036 118.429C61.3675 118.319 61.4594 118.229 61.57 118.166C61.6805 118.103 61.8057 118.071 61.9328 118.073H62.7204H73.8128L81.2928 118.06H82.4654C82.6211 118.047 82.7779 118.067 82.9252 118.119C83.0465 118.167 83.155 118.242 83.242 118.339C83.3643 118.466 83.4455 118.627 83.4752 118.801C83.4888 118.863 83.499 118.925 83.506 118.988Z" fill="#263238"/>
<path d="M70.999 124.904C70.999 125.129 71.0657 125.349 71.1907 125.536C71.3157 125.723 71.4933 125.868 71.7012 125.955C71.909 126.041 72.1377 126.063 72.3583 126.019C72.579 125.975 72.7816 125.867 72.9407 125.708C73.0998 125.549 73.2081 125.346 73.252 125.126C73.2959 124.905 73.2733 124.676 73.1872 124.468C73.1012 124.261 72.9554 124.083 72.7683 123.958C72.5813 123.833 72.3614 123.766 72.1364 123.766C71.8349 123.767 71.546 123.887 71.3328 124.1C71.1196 124.313 70.9996 124.602 70.999 124.904Z" fill="white"/>
<path d="M70.9991 124.904C71.0101 124.904 70.9991 124.803 71.0519 124.631C71.1189 124.388 71.2653 124.174 71.4677 124.024C71.6311 123.901 71.8255 123.827 72.0289 123.808C72.2324 123.79 72.4369 123.828 72.6197 123.92C72.8024 124.011 72.956 124.152 73.0634 124.325C73.1708 124.499 73.2277 124.699 73.2277 124.904C73.2278 125.065 73.1924 125.224 73.124 125.37C73.0557 125.516 72.956 125.646 72.8322 125.749C72.7084 125.852 72.5633 125.927 72.4074 125.968C72.2514 126.009 72.0883 126.015 71.9297 125.986C71.7606 125.956 71.6008 125.887 71.4633 125.784C71.2609 125.633 71.1145 125.42 71.0475 125.177C71.0013 125.005 71.0057 124.904 70.9947 124.904C70.9913 124.928 70.9913 124.952 70.9947 124.976C70.9952 125.047 71.0033 125.117 71.0189 125.185C71.0769 125.442 71.2224 125.669 71.4303 125.83C71.5741 125.941 71.7423 126.017 71.9209 126.05C72.1267 126.09 72.3395 126.074 72.5369 126.004C72.757 125.926 72.9482 125.784 73.0847 125.595C73.2252 125.405 73.3051 125.177 73.314 124.942C73.3229 124.706 73.2603 124.473 73.1345 124.273C73.0087 124.074 72.8254 123.917 72.6089 123.823C72.3923 123.73 72.1525 123.704 71.9209 123.749C71.7422 123.782 71.5741 123.857 71.4303 123.969C71.2222 124.13 71.0767 124.359 71.0189 124.616C71.0032 124.684 70.9951 124.754 70.9947 124.825C70.9922 124.851 70.9936 124.878 70.9991 124.904Z" fill="#263238"/>
<path d="M82.857 120.334C82.8328 120.334 82.7382 122.369 82.637 124.882C82.5358 127.394 82.4852 129.434 82.5094 129.434C82.5336 129.434 82.626 127.399 82.7294 124.886C82.8328 122.374 82.879 120.334 82.857 120.334Z" fill="#263238"/>
<path d="M88.6585 104.523C88.7707 104.426 88.2779 102.523 88.2779 102.523C88.2779 102.523 89.5869 100.387 89.6221 99.6984C89.6573 99.0098 89.1051 97.5952 89.1051 97.5952L85.3475 96.6294C85.3475 96.6294 84.1419 98.8712 83.8999 99.6632C83.6579 100.455 84.3201 103.148 84.3201 103.148L84.9559 104.527C84.9559 104.527 86.8699 106.039 88.6585 104.523Z" fill="#FFBE9D"/>
<path d="M89.6134 100.11C89.7603 99.8391 89.8925 99.5607 90.0094 99.2759C90.247 98.7105 90.5396 98.1583 90.0094 97.8415C89.927 97.7872 89.8339 97.7512 89.7363 97.736C89.6388 97.7208 89.5391 97.7268 89.444 97.7535C89.444 97.7535 89.5254 97.2783 89.2416 97.0935C89.1594 97.0416 89.066 97.0102 88.9692 97.0018C88.8724 96.9933 88.7749 97.0082 88.685 97.0451C88.685 97.0451 88.773 96.3851 88.366 96.0925C88.2125 95.9915 88.0338 95.9351 87.8501 95.9297C87.6664 95.9242 87.4847 95.9699 87.3254 96.0617C87.3254 96.0617 87.6488 93.1313 87.6774 92.9817C87.7786 92.4119 87.5696 91.9081 87.002 92.0489C86.793 92.0995 86.6786 92.3195 86.4344 93.2743C86.1902 94.2291 85.7986 95.8571 85.7986 95.8571C85.7986 95.8571 85.1386 97.0033 84.8284 97.6171C84.5182 98.2309 83.9 99.6543 83.8494 100.037C83.7152 101.007 84.2894 102.292 84.2894 102.292L88.2824 102.512C88.2824 102.512 89.4616 100.387 89.6134 100.11Z" fill="#FFBE9D"/>
<path d="M89.3646 97.8789C89.2513 98.0178 89.1484 98.1649 89.0566 98.3189L88.7398 98.8007C88.6738 98.8951 88.6164 98.9953 88.5682 99.0999C88.512 99.2184 88.4958 99.352 88.522 99.4805C88.5335 99.5479 88.5628 99.611 88.6069 99.6632C88.651 99.7154 88.7083 99.7549 88.7728 99.7775C88.8937 99.8075 89.0214 99.7918 89.1314 99.7335C89.2248 99.6864 89.3139 99.6312 89.3976 99.5685C89.4768 99.5113 89.5494 99.4585 89.6176 99.4057C89.7474 99.3045 89.8486 99.2187 89.9146 99.1571C89.9806 99.0955 90.018 99.0581 90.0136 99.0537C90.0092 99.0493 89.8486 99.1703 89.5736 99.3595C89.4229 99.4734 89.2632 99.5749 89.0962 99.6631C89.0031 99.7102 88.8963 99.7227 88.7948 99.6983C88.744 99.6803 88.699 99.649 88.6645 99.6075C88.6301 99.5661 88.6074 99.5161 88.599 99.4629C88.5777 99.3515 88.5916 99.2361 88.6386 99.1329C88.6845 99.0316 88.7389 98.9345 88.8014 98.8425L89.1006 98.3519C89.2018 98.202 89.2902 98.0438 89.3646 97.8789Z" fill="#EB996E"/>
<path d="M86.0803 98.2288C86.1163 98.0187 86.102 97.8031 86.0385 97.5996C86.0027 97.3904 85.9175 97.1928 85.7899 97.0232C85.7679 97.0342 85.8801 97.2894 85.9571 97.6194C86.0341 97.9494 86.0649 98.2288 86.0803 98.2288Z" fill="#EB996E"/>
<path d="M84.5073 99.0845C84.8753 98.7273 85.3393 98.4849 85.8427 98.3871C86.3444 98.291 86.8577 98.2718 87.3651 98.3299C87.7699 98.3651 88.2451 98.4707 88.4189 98.8337C88.5927 99.1967 88.3815 99.6917 88.0207 99.9051C87.6418 100.094 87.2133 100.159 86.7953 100.092C86.381 100.024 85.9598 100.007 85.5413 100.042" fill="#FFBE9D"/>
<path d="M85.541 100.042C85.541 100.042 85.6532 100.042 85.8556 100.042C86.1421 100.054 86.4277 100.081 86.7114 100.123C86.9106 100.148 87.1115 100.156 87.312 100.147C87.5461 100.14 87.7758 100.082 87.9852 99.9778C88.2205 99.856 88.3994 99.6478 88.4846 99.397C88.5307 99.2633 88.5406 99.1199 88.5132 98.9812C88.4797 98.8389 88.4028 98.7105 88.2932 98.6138C88.0722 98.4408 87.8052 98.3368 87.5254 98.3146C87.2734 98.2856 87.0201 98.2702 86.7664 98.2684C86.3354 98.2603 85.9061 98.3258 85.497 98.462C85.2211 98.5548 84.9629 98.6939 84.7336 98.8734C84.6729 98.9222 84.6149 98.9744 84.5598 99.0296C84.5224 99.0692 84.5048 99.0912 84.507 99.0934C84.5092 99.0956 84.5906 99.0164 84.7534 98.8976C84.9859 98.732 85.2427 98.6036 85.5146 98.517C85.9201 98.3934 86.3427 98.3355 86.7664 98.3454C87.0164 98.3497 87.2661 98.3666 87.5144 98.396C87.777 98.417 88.0277 98.5141 88.236 98.6754C88.3331 98.7613 88.4014 98.875 88.4318 99.001C88.4562 99.125 88.447 99.2534 88.4054 99.3728C88.3274 99.6038 88.1636 99.7959 87.9478 99.9096C87.749 100.011 87.5307 100.069 87.3076 100.079C87.111 100.089 86.9139 100.083 86.718 100.064C86.4321 100.026 86.144 100.007 85.8556 100.009C85.7775 100.011 85.6997 100.019 85.6224 100.031C85.5674 100.031 85.541 100.037 85.541 100.042Z" fill="#EB996E"/>
<path d="M89.336 97.9252C88.9158 98.5632 88.544 99.265 88.1898 99.9426C88.1056 100.149 87.9673 100.329 87.7894 100.464C87.6376 100.556 87.2614 100.387 87.0942 100.33L88.247 97.7052" fill="#FFBE9D"/>
<path d="M88.2471 97.7052C88.2077 97.7674 88.1739 97.8329 88.1459 97.901L87.8907 98.451C87.6707 98.9174 87.3825 99.573 87.0569 100.312L87.0371 100.354L87.0811 100.369C87.2127 100.422 87.3471 100.468 87.4837 100.506C87.5414 100.52 87.6003 100.529 87.6597 100.532C87.6916 100.534 87.7236 100.53 87.7543 100.521C87.7856 100.514 87.8149 100.499 87.8401 100.479C87.9331 100.412 88.0123 100.328 88.0733 100.231C88.1921 100.044 88.2757 99.8568 88.3703 99.6852C88.5507 99.3354 88.7157 99.0252 88.8609 98.7634C89.0061 98.5016 89.1249 98.2948 89.2107 98.1518C89.2577 98.0816 89.2996 98.008 89.3361 97.9318C89.2777 97.9999 89.2261 98.0736 89.1821 98.1518C89.0897 98.2904 88.9621 98.4928 88.8103 98.7502C88.6585 99.0076 88.4869 99.3178 88.3021 99.6654C88.2053 99.837 88.1173 100.028 88.0051 100.202C87.9469 100.289 87.8722 100.364 87.7851 100.422C87.7406 100.445 87.6915 100.459 87.6414 100.461C87.5912 100.463 87.5412 100.454 87.4947 100.435C87.3605 100.398 87.2283 100.353 87.0987 100.301L87.1229 100.358C87.4485 99.6148 87.7323 98.957 87.9325 98.484L88.1635 97.923C88.1979 97.8531 88.2259 97.7802 88.2471 97.7052Z" fill="#EB996E"/>
<path d="M88.5595 96.9242C88.1884 97.8541 87.8174 98.7839 87.4463 99.7138C87.3781 99.916 87.277 100.106 87.1471 100.275C87.0802 100.358 86.9943 100.423 86.8966 100.466C86.7989 100.508 86.6924 100.527 86.5861 100.519C86.4439 100.482 86.3182 100.398 86.2289 100.281C86.1397 100.165 86.0919 100.021 86.0933 99.8744C86.1021 99.5807 86.1726 99.2921 86.3001 99.0274C86.6341 98.1799 86.9011 97.3075 87.0987 96.4182" fill="#FFBE9D"/>
<path d="M87.0986 96.4182C87.0853 96.4447 87.0757 96.4728 87.07 96.5018L87.004 96.7482C86.9468 96.9682 86.8632 97.2718 86.7466 97.6502C86.63 98.0286 86.476 98.4752 86.2846 98.9702C86.1674 99.2233 86.0888 99.4925 86.0514 99.7688C86.0409 99.9205 86.0705 100.072 86.1372 100.209C86.2027 100.357 86.3223 100.474 86.4716 100.537C86.5475 100.564 86.6284 100.575 86.7088 100.568C86.7893 100.562 86.8674 100.538 86.938 100.499C87.0724 100.426 87.1853 100.319 87.2658 100.189C87.3996 99.9469 87.5122 99.6937 87.6024 99.4322C87.7938 98.946 87.9654 98.5082 88.1106 98.1342L88.4472 97.2542C88.4824 97.1574 88.511 97.0782 88.533 97.0144C88.5451 96.987 88.554 96.9582 88.5594 96.9286C88.5415 96.9527 88.5274 96.9794 88.5176 97.0078C88.4912 97.0716 88.456 97.1486 88.4164 97.2432L88.06 98.1056C87.9104 98.4774 87.7322 98.913 87.5364 99.397C87.4455 99.6529 87.3337 99.9009 87.202 100.138C87.1286 100.255 87.0263 100.352 86.905 100.418C86.845 100.452 86.7784 100.473 86.7097 100.479C86.641 100.485 86.5718 100.476 86.5068 100.453C86.3779 100.397 86.2744 100.295 86.2164 100.167C86.1553 100.042 86.1287 99.9031 86.1394 99.7644C86.1723 99.4965 86.2466 99.2353 86.3594 98.99C86.5486 98.4994 86.6938 98.0484 86.7994 97.67C86.905 97.2916 86.9864 96.9748 87.0348 96.7592C87.0568 96.6492 87.0744 96.5656 87.0854 96.5084C87.0939 96.4791 87.0983 96.4487 87.0986 96.4182Z" fill="#EB996E"/>
<path d="M91.1184 111.343C91.0172 110.973 88.4784 103.465 88.4784 103.465L84.2808 102.963L85.9968 109.431C85.9968 109.431 85.7306 111.075 85.9968 112.047C86.263 113.019 88.4168 115.666 89.5168 115.03C90.6168 114.394 91.2174 111.713 91.1184 111.343Z" fill="#FFBE9D"/>
<path d="M85.9878 102.299C86.069 102.309 86.1515 102.298 86.2276 102.268C86.4162 102.209 86.5896 102.11 86.7352 101.976C86.8809 101.843 86.9952 101.679 87.0702 101.496C87.1061 101.423 87.1235 101.342 87.1208 101.26C87.0159 101.506 86.8667 101.729 86.6808 101.92C86.4756 102.089 86.2405 102.217 85.9878 102.299Z" fill="#EB996E"/>
</svg>
