<svg width="459" height="342" viewBox="0 0 459 342" fill="none" xmlns="http://www.w3.org/2000/svg">
<path d="M383.655 262.849V287.518H414.803H449.161V262.849H383.655Z" fill="#F5F5F5"/>
<path d="M380.91 255.955V262.849H451.448V255.955H414.803H380.91Z" fill="#E0E0E0"/>
<path d="M416.176 287.518H449.161V262.849H451.448V255.955H414.803V262.209L416.176 287.518Z" fill="#E0E0E0"/>
<path d="M406.098 266.827H392.818V270.543H406.098V266.827Z" fill="#E0E0E0"/>
<path d="M408.167 275.184H391.111V283.028H408.167V275.184Z" fill="#FEFEFE"/>
<path d="M459 340.533L457.634 2.72529H451.988V69.229H437.383L437.11 2.70157H431.463V69.229H381.279L381.006 2.70157H375.359V69.229H360.809L360.543 2.70157H354.896V340.533H361.915L361.731 295.204H375.387V340.533H382.413L382.228 295.204H431.491V340.533H438.517L438.332 295.204H451.988V340.533H459ZM368.19 250.436L363.144 225.395H373.502L368.19 250.436ZM375.373 226.929V286.079L369.228 255.741L375.373 226.929ZM375.373 140.959L369.228 110.621L375.373 81.8086V140.959ZM374.281 146.391H361.656L368.108 115.879L374.281 146.391ZM368.19 105.276L362.407 76.5981H374.253L368.19 105.276ZM367.07 110.565L361.11 138.642L360.871 79.8161L367.07 110.565ZM361.472 227.933L367.07 255.686L361.69 281.035L361.472 227.933ZM368.108 261.039L373.509 287.819H362.441L368.108 261.039ZM361.629 218.018L361.581 217.789L361.403 217.836L361.144 153.792H375.346V218.042L361.629 218.018ZM381.607 153.768H431.45V218.018H381.887L381.607 153.768ZM444.341 115.879L450.486 146.359H437.875L444.341 115.879ZM437.663 137.021L437.438 81.603L443.276 110.573L437.663 137.021ZM452.001 142.88L445.495 110.589L452.001 79.9189V142.88ZM452.001 146.249V146.359H451.605L452.001 146.249ZM452.001 228.653V284.198L446.259 255.733L452.001 228.653ZM445.174 250.404L440.121 225.364H450.486L445.174 250.404ZM444.402 105.284L438.619 76.606H450.486L444.402 105.284ZM451.981 153.736V217.987H438.633L438.585 217.757L437.991 217.915L437.752 153.768L451.981 153.736ZM444.047 255.733L438.264 282.996L438.032 225.878L444.047 255.733ZM445.119 261.047L450.513 287.827H439.425L445.119 261.047ZM431.463 76.6455V146.399H381.62L381.334 76.6455H431.463ZM383.068 287.819H382.167L381.914 225.395H431.463V287.819H383.068Z" fill="#E0E0E0"/>
<path d="M427.087 96.3255H417.76V146.676H427.087V96.3255Z" fill="#E0E0E0"/>
<path d="M424.465 134.602C424.465 135.026 424.356 135.44 424.153 135.792C423.95 136.145 423.661 136.419 423.323 136.581C422.984 136.744 422.612 136.786 422.254 136.703C421.895 136.621 421.565 136.417 421.306 136.117C421.047 135.817 420.871 135.435 420.8 135.02C420.728 134.604 420.765 134.173 420.905 133.782C421.045 133.39 421.282 133.056 421.587 132.82C421.891 132.585 422.249 132.459 422.615 132.459C422.858 132.458 423.099 132.513 423.324 132.62C423.549 132.727 423.753 132.885 423.925 133.084C424.097 133.284 424.233 133.52 424.326 133.781C424.419 134.041 424.466 134.32 424.465 134.602Z" fill="#FAFAFA"/>
<path d="M423.96 109.664H421.106V130.245H423.96V109.664Z" fill="#FAFAFA"/>
<path d="M417.61 96.3255H408.283V146.676H417.61V96.3255Z" fill="#EBEBEB"/>
<path d="M414.988 134.602C414.992 135.028 414.886 135.446 414.684 135.803C414.481 136.159 414.192 136.437 413.852 136.602C413.512 136.766 413.138 136.81 412.777 136.727C412.415 136.643 412.084 136.437 411.824 136.135C411.565 135.832 411.389 135.446 411.32 135.028C411.251 134.609 411.291 134.175 411.436 133.783C411.581 133.391 411.823 133.058 412.132 132.826C412.442 132.594 412.804 132.475 413.172 132.483C413.653 132.493 414.112 132.72 414.451 133.116C414.79 133.511 414.983 134.044 414.988 134.602Z" fill="#FAFAFA"/>
<path d="M414.482 109.664H411.628V130.245H414.482V109.664Z" fill="#FAFAFA"/>
<path d="M408.59 96.3255H399.263V146.676H408.59V96.3255Z" fill="#F5F5F5"/>
<path d="M405.962 134.602C405.962 135.026 405.853 135.44 405.65 135.792C405.446 136.145 405.158 136.419 404.819 136.581C404.481 136.744 404.109 136.786 403.75 136.703C403.391 136.621 403.062 136.417 402.803 136.117C402.544 135.817 402.368 135.435 402.297 135.02C402.225 134.604 402.262 134.173 402.402 133.782C402.542 133.39 402.779 133.056 403.083 132.82C403.388 132.585 403.745 132.459 404.111 132.459C404.355 132.458 404.596 132.513 404.82 132.62C405.045 132.727 405.25 132.885 405.422 133.084C405.594 133.284 405.73 133.52 405.823 133.781C405.915 134.041 405.963 134.32 405.962 134.602Z" fill="#E0E0E0"/>
<path d="M405.463 109.664H402.609V130.245H405.463V109.664Z" fill="#E0E0E0"/>
<path d="M387.724 145.916L398.936 101.615L395.071 99.654L383.573 144.311L387.724 145.916Z" fill="#F5F5F5"/>
<path d="M371.113 218.018V210.396H417.617L417.76 218.018H371.113Z" fill="#F5F5F5"/>
<path d="M417.637 211.637C417.637 211.637 376.397 211.985 373.727 212.721C373.154 212.871 372.567 215.804 373.727 216.073C374.888 216.342 417.637 216.745 417.637 216.745V211.637Z" fill="#FEFEFE"/>
<path d="M376.52 210.088V202.466H413.349L413.472 210.088H376.52Z" fill="#EBEBEB"/>
<path d="M413.37 203.714C413.37 203.714 380.699 204.062 378.589 204.79C378.131 204.948 377.667 207.881 378.589 208.15C379.51 208.419 413.37 208.822 413.37 208.822V203.714Z" fill="#FAFAFA"/>
<path d="M376.349 202.56V194.938H413.185L413.301 202.56H376.349Z" fill="#E0E0E0"/>
<path d="M413.206 196.18C413.206 196.18 380.535 196.528 378.425 197.263C377.968 197.413 377.503 200.347 378.425 200.616C379.347 200.884 413.206 201.288 413.206 201.288V196.18Z" fill="#FAFAFA"/>
<path d="M431.279 19.8752H421.946V70.2254H431.279V19.8752Z" fill="#F5F5F5"/>
<path d="M428.65 58.1594C428.65 58.5832 428.542 58.9975 428.339 59.3498C428.135 59.7022 427.846 59.9768 427.508 60.139C427.17 60.3012 426.798 60.3436 426.439 60.2609C426.08 60.1783 425.75 59.9742 425.492 59.6745C425.233 59.3749 425.057 58.9931 424.985 58.5774C424.914 58.1618 424.951 57.7309 425.091 57.3394C425.231 56.9479 425.468 56.6132 425.772 56.3778C426.076 56.1423 426.434 56.0167 426.8 56.0167C427.043 56.0156 427.284 56.0703 427.509 56.1776C427.734 56.2849 427.938 56.4427 428.11 56.6419C428.282 56.8411 428.419 57.0777 428.511 57.3382C428.604 57.5986 428.651 57.8777 428.65 58.1594Z" fill="#E0E0E0"/>
<path d="M428.152 33.2136H425.298V53.7949H428.152V33.2136Z" fill="#E0E0E0"/>
<path d="M421.802 19.8752H412.475V70.2254H421.802V19.8752Z" fill="#EBEBEB"/>
<path d="M419.173 58.1594C419.173 58.5832 419.065 58.9975 418.862 59.3498C418.658 59.7022 418.369 59.9768 418.031 60.139C417.693 60.3012 417.321 60.3436 416.962 60.2609C416.603 60.1783 416.273 59.9742 416.015 59.6745C415.756 59.3749 415.58 58.9931 415.508 58.5774C415.437 58.1618 415.473 57.7309 415.614 57.3394C415.754 56.9479 415.991 56.6132 416.295 56.3778C416.599 56.1423 416.957 56.0167 417.323 56.0167C417.566 56.0156 417.807 56.0703 418.032 56.1776C418.257 56.2849 418.461 56.4427 418.633 56.6419C418.805 56.8411 418.942 57.0777 419.034 57.3382C419.127 57.5986 419.174 57.8777 419.173 58.1594Z" fill="#FAFAFA"/>
<path d="M418.675 33.2136H415.821V53.7949H418.675V33.2136Z" fill="#FAFAFA"/>
<path d="M412.775 19.8752H403.449V70.2254H412.775V19.8752Z" fill="#E0E0E0"/>
<path d="M410.147 58.1594C410.147 58.5832 410.039 58.9975 409.835 59.3498C409.632 59.7022 409.343 59.9768 409.005 60.139C408.667 60.3012 408.295 60.3436 407.936 60.2609C407.577 60.1783 407.247 59.9742 406.988 59.6745C406.73 59.3749 406.553 58.9931 406.482 58.5774C406.411 58.1618 406.447 57.7309 406.587 57.3394C406.727 56.9479 406.965 56.6132 407.269 56.3778C407.573 56.1423 407.931 56.0167 408.297 56.0167C408.54 56.0156 408.781 56.0703 409.006 56.1776C409.231 56.2849 409.435 56.4427 409.607 56.6419C409.779 56.8411 409.916 57.0777 410.008 57.3382C410.101 57.5986 410.148 57.8777 410.147 58.1594Z" fill="#FAFAFA"/>
<path d="M409.648 33.2136H406.794V53.7949H409.648V33.2136Z" fill="#FAFAFA"/>
<path d="M275.714 307.38V325.938H273.038V327.946H275.714V340.367H325.714V329.069H322.013V326.602H325.714V322.917H327.36V321.233H325.407V307.38H275.714Z" fill="#F5F5F5"/>
<path d="M312.434 307.436V340.162H325.714V328.863H322.014V326.602L325.714 326.681V322.988H327.394L327.367 321.083L325.407 321.028V307.38L312.434 307.436Z" fill="#E0E0E0"/>
<path d="M313.383 327.684C313.383 327.795 304.336 327.89 293.173 327.89C282.009 327.89 272.969 327.795 272.969 327.684C272.969 327.574 282.009 327.479 293.173 327.479C304.336 327.479 313.383 327.566 313.383 327.684Z" fill="#E0E0E0"/>
<path d="M313.383 325.795C313.383 325.913 304.336 326 293.173 326C282.009 326 272.969 325.913 272.969 325.795C272.969 325.677 282.009 325.59 293.173 325.59C304.336 325.59 313.383 325.685 313.383 325.795Z" fill="#E0E0E0"/>
<path d="M315.978 320.727C315.978 320.837 306.931 320.932 295.774 320.932C284.618 320.932 275.564 320.837 275.564 320.727C275.564 320.616 284.611 320.521 295.774 320.521C306.938 320.521 315.978 320.608 315.978 320.727Z" fill="#E0E0E0"/>
<path d="M316.217 334.547C316.217 334.658 307.17 334.752 296.007 334.752C284.843 334.752 275.796 334.658 275.796 334.547C275.796 334.437 284.843 334.342 296.007 334.342C307.17 334.342 316.217 334.437 316.217 334.547Z" fill="#E0E0E0"/>
<path d="M139.076 333.315C138.025 332.271 135.662 328.966 137.486 325.115C138.168 323.7 139.534 323.004 140.831 322.388C142.146 321.873 143.384 321.129 144.504 320.182C146.491 318.221 147.044 314.971 148.362 312.354C149.878 309.349 152.705 307.104 155.695 307.262C159.109 307.444 161.977 310.678 163.267 314.378C164.558 318.078 164.633 322.166 164.633 326.151C164.633 328.357 164.565 330.848 163.165 332.334C161.881 333.702 159.942 333.726 158.194 333.663L139.486 332.998" fill="#F5F5F5"/>
<path d="M24.3897 60.0886H0.0690918V115.91H24.3897V60.0886Z" fill="#EBEBEB"/>
<path d="M51.5917 60.0886H25.3184V115.91H51.5917V60.0886Z" fill="#EBEBEB"/>
<path d="M51.5917 119.809H25.3184V173.741H51.5917V119.809Z" fill="#EBEBEB"/>
<path d="M54.9646 59.1241H82.6377V9.60407H83.5731V59.1241H106.091V8.50504H54.9646V59.1241Z" fill="#EBEBEB"/>
<path d="M106.091 60.0886H83.5732V115.91H106.091V60.0886Z" fill="#EBEBEB"/>
<path d="M106.091 119.809H83.5732V173.741H106.091V119.809Z" fill="#EBEBEB"/>
<path d="M24.3897 119.809H0.0690918V173.741H24.3897V119.809Z" fill="#EBEBEB"/>
<path d="M82.6377 119.809H54.9646V173.741H82.6377V119.809Z" fill="#EBEBEB"/>
<path d="M24.3897 174.713H0.0690918V223.316H24.3897V174.713Z" fill="#EBEBEB"/>
<path d="M106.091 174.713H83.5732V223.316H106.091V174.713Z" fill="#EBEBEB"/>
<path d="M24.3138 59.619V10.099H25.2492V59.619H51.5294V9H0V59.619H24.3138Z" fill="#EBEBEB"/>
<path d="M82.6377 174.713H54.9646V223.316H82.6377V174.713Z" fill="#EBEBEB"/>
<path d="M51.5917 174.713H25.3184V223.316H51.5917V174.713Z" fill="#EBEBEB"/>
<path d="M82.6377 60.0886H54.9646V115.91H82.6377V60.0886Z" fill="#EBEBEB"/>
<path d="M39.2947 284.031C41.9866 282.564 45.0145 282.137 47.9318 282.813C49.4954 283.114 51.1272 283.66 52.1992 285.019C53.2712 286.379 53.4624 288.775 52.2402 289.945C51.4524 290.569 50.4993 290.849 49.55 290.736C47.2695 290.736 44.7706 290.246 42.9134 291.835C41.8756 292.736 41.1791 294.207 39.9365 294.697C39.3138 294.863 38.6616 294.789 38.0779 294.488C37.4943 294.188 37.0108 293.675 36.7001 293.029C36.1103 291.704 35.9808 290.168 36.3382 288.736C36.485 287.741 36.8282 286.799 37.341 285.983C37.8538 285.167 38.5224 284.499 39.2947 284.031Z" fill="#EBEBEB"/>
<path d="M33.2797 270.582C34.891 273.239 38.0113 272.353 39.4247 270.732C40.838 269.111 41.473 266.779 42.0397 264.525C43.3097 259.402 44.5933 254.033 43.6443 248.822C43.4189 247.242 42.8211 245.765 41.9168 244.553C41.4566 243.957 40.8699 243.51 40.2147 243.258C39.5596 243.005 38.8589 242.956 38.182 243.114C36.6116 243.596 35.6352 245.383 34.9251 247.067C32.8452 252.08 31.7537 257.565 31.7297 263.126C31.7297 265.711 31.9892 268.431 33.2455 270.566" fill="#EBEBEB"/>
<path d="M28.8758 274.393C30.6169 272.021 30.9241 268.503 30.1731 265.498C29.2914 262.517 27.7182 259.875 25.6258 257.86C23.2459 255.422 20.4794 253.542 17.4802 252.325C16.3179 251.779 15.0665 251.533 13.8137 251.606C13.1888 251.646 12.582 251.864 12.0464 252.239C11.5107 252.613 11.0626 253.135 10.7412 253.757C9.88768 255.654 10.707 257.947 11.5946 259.821C13.1617 263.124 14.9516 266.278 16.9476 269.254C18.5453 271.626 20.3615 273.998 22.8264 275.089C25.2912 276.18 27.8107 276.046 29.108 274.085" fill="#EBEBEB"/>
<path d="M33.1702 310.637C33.2607 310.245 33.3111 309.841 33.3204 309.435C33.3955 308.558 33.4843 307.451 33.5935 306.138C33.737 304.516 33.9512 302.904 34.2353 301.307C34.6058 299.362 35.1127 297.456 35.7511 295.607C36.3749 293.76 37.2208 292.024 38.2637 290.451C39.1125 289.168 40.2 288.122 41.4455 287.391C42.2879 286.908 43.1913 286.582 44.122 286.427C44.4721 286.409 44.8198 286.351 45.1598 286.253C44.8082 286.207 44.4532 286.207 44.1015 286.253C43.1346 286.34 42.1889 286.627 41.3089 287.099C40.0022 287.816 38.8552 288.871 37.9565 290.183C36.8678 291.778 35.991 293.553 35.3551 295.448C34.7038 297.324 34.1988 299.264 33.8462 301.244C33.5779 302.859 33.3932 304.49 33.2931 306.13C33.2043 307.53 33.1702 308.661 33.1497 309.443C33.1227 309.841 33.1296 310.241 33.1702 310.637Z" fill="#E0E0E0"/>
<path d="M33.3682 308.107C33.3885 307.921 33.3885 307.732 33.3682 307.546V305.965C33.3682 304.573 33.3682 302.557 33.4296 300.074C33.532 295.109 33.9007 289.795 34.6177 282.229C35.3004 275.113 36.2017 266.897 37.1576 261.537C37.3624 260.319 37.5673 259.22 37.7584 258.255C37.9496 257.291 38.1067 256.468 38.2569 255.796C38.4071 255.124 38.4958 254.65 38.5778 254.215C38.628 254.036 38.6578 253.85 38.6665 253.662C38.59 253.826 38.5326 254.002 38.4958 254.183C38.3934 254.587 38.2569 255.101 38.093 255.717C37.9291 256.334 37.738 257.212 37.5263 258.168C37.3146 259.125 37.0825 260.224 36.8435 261.442C35.6768 267.785 34.8039 274.196 34.2285 280.647C33.5457 288.198 33.1906 295.077 33.1633 300.058C33.1633 302.541 33.1633 304.557 33.2384 305.949C33.2384 306.597 33.2999 307.127 33.3272 307.53C33.3204 307.724 33.3342 307.918 33.3682 308.107Z" fill="#E0E0E0"/>
<path d="M33.3956 294.848C33.4372 294.29 33.4372 293.729 33.3956 293.171C33.341 292.096 33.2113 290.546 32.9518 288.641C32.6347 286.415 32.2107 284.21 31.6818 282.039C31.0574 279.368 30.2586 276.757 29.2921 274.227C27.6417 269.553 25.2702 265.266 22.2936 261.576C21.7775 260.947 21.2279 260.355 20.6481 259.805C20.3955 259.552 20.1702 259.307 19.9653 259.117L19.3235 258.603C18.9391 258.267 18.5328 257.965 18.1082 257.702C19.509 258.979 20.8407 260.355 22.0956 261.821C24.9703 265.536 27.2791 269.79 28.9234 274.401C29.8708 276.916 30.6715 279.502 31.32 282.142C31.9413 284.569 32.3578 286.799 32.6855 288.68C33.0132 290.562 33.1566 292.096 33.2591 293.164C33.2699 293.728 33.3155 294.291 33.3956 294.848Z" fill="#E0E0E0"/>
<path d="M22.3276 318.236L23.4747 336.446H43.6714L44.8184 318.236H22.3276Z" fill="#E0E0E0"/>
<path d="M47.2356 311.065H20.3818V318.244H47.2356V311.065Z" fill="#E0E0E0"/>
<path d="M20.3818 335.75V337.735H21.6381H46.785V335.75H20.3818Z" fill="#EBEBEB"/>
<path d="M22.874 341.236L21.6382 337.734H45.8223L44.3816 341.236H22.874Z" fill="#E0E0E0"/>
<path d="M44.4701 324.189C44.447 324.249 44.4172 324.305 44.3814 324.355L44.0741 324.822L42.8997 326.561L42.8451 326.64L42.7973 326.561L39.9091 321.928H40.073L37.2258 326.593L37.1371 326.743L37.0415 326.601L33.6276 321.952H33.8256L33.6412 322.221C32.5897 323.739 31.5929 325.209 30.6233 326.601L30.5209 326.751L30.4253 326.593L27.5781 321.928H27.742L24.2393 326.553L24.1779 326.633L24.1301 326.538C23.6658 325.644 23.2971 324.956 23.0308 324.403L22.7577 323.826C22.7222 323.764 22.6925 323.697 22.6689 323.628C22.6689 323.628 22.7167 323.683 22.785 323.81L23.0991 324.355L24.253 326.451H24.1438C25.0382 325.225 26.1921 323.636 27.5577 321.762L27.6464 321.643L27.7215 321.778L30.596 326.419H30.4048L33.4159 322.031L33.6003 321.762L33.6958 321.62L33.7914 321.762L37.1575 326.419H36.9732C38.011 324.743 38.9737 323.177 39.8477 321.778L39.9296 321.643L40.0116 321.778L42.8383 326.459H42.7359L43.9649 324.759L44.2926 324.324C44.4018 324.229 44.4701 324.181 44.4701 324.189Z" fill="#F5F5F5"/>
<path d="M45.0986 318.118C45.0986 318.196 40.0392 318.267 33.7986 318.267C27.5579 318.267 22.4985 318.196 22.4985 318.118C22.4985 318.039 27.5579 317.975 33.7986 317.975C40.0392 317.975 45.0986 318.039 45.0986 318.118Z" fill="#F5F5F5"/>
<path d="M46.1226 337.932C46.1226 338.011 40.6194 338.082 33.8325 338.082C27.0457 338.082 21.5425 338.011 21.5425 337.932C21.5425 337.853 27.0047 337.79 33.8325 337.79C40.6603 337.79 46.1226 337.853 46.1226 337.932Z" fill="#F5F5F5"/>
<path d="M381.081 273.421C381.02 273.508 380.515 273.152 379.955 272.63C379.395 272.108 378.985 271.61 379.047 271.523C379.108 271.436 379.613 271.784 380.173 272.314C380.733 272.844 381.163 273.334 381.081 273.421Z" fill="#1D1D1B"/>
<path d="M396.464 246.838C396.553 244.355 396.615 241.81 395.939 239.445C395.263 237.081 393.692 234.923 391.589 234.417C389.186 233.84 386.728 235.595 385.39 237.967C384.051 240.339 383.58 243.217 383.184 246.016C380.446 265.326 379.437 284.912 380.173 304.463L389.992 306.044C394.3 285.652 395.679 267.823 396.464 246.838Z" fill="#455A64"/>
<path d="M390.224 234.329C390.219 234.392 390.205 234.453 390.183 234.511C390.135 234.645 390.087 234.819 390.019 235.025C389.862 235.507 389.643 236.163 389.336 236.986C389.199 237.413 389.015 237.879 388.872 238.409C388.728 238.939 388.564 239.516 388.394 240.133C388.223 240.749 388.039 241.406 387.848 242.109C387.656 242.813 387.513 243.572 387.335 244.363C386.518 248.068 385.887 251.824 385.444 255.614C384.912 259.892 384.563 264.628 384.29 269.601C383.785 279.564 383.71 288.577 383.485 295.14C383.382 298.413 383.287 301.054 383.177 302.881C383.123 303.766 383.082 304.462 383.054 304.984C383.054 305.205 383.054 305.379 383.013 305.529C383.021 305.592 383.021 305.656 383.013 305.719C383.007 305.656 383.007 305.592 383.013 305.529V304.976C383.013 304.462 383.013 303.758 383.068 302.873C383.136 301.046 383.191 298.397 383.266 295.132C383.423 288.593 383.464 279.556 383.949 269.577C384.229 264.588 384.584 259.844 385.137 255.559C385.596 251.76 386.255 247.997 387.11 244.292C387.301 243.501 387.479 242.71 387.643 242.03C387.807 241.35 388.039 240.678 388.223 240.061C388.407 239.445 388.571 238.875 388.728 238.346C388.885 237.816 389.077 237.357 389.227 236.93C389.527 236.14 389.766 235.468 389.91 234.993L390.108 234.495C390.196 234.376 390.217 234.321 390.224 234.329Z" fill="#1D1D1B"/>
<path d="M391.132 234.337C391.649 235.041 392.056 235.843 392.333 236.709C393.085 239.057 393.39 241.565 393.228 244.063C392.968 250.388 392.484 259.006 391.862 268.573C391.241 278.141 390.497 286.759 389.916 293.021C389.63 296.144 389.377 298.675 389.193 300.414C389.097 301.26 389.022 301.924 388.967 302.422C388.967 302.628 388.92 302.802 388.899 302.944C388.908 303.002 388.908 303.061 388.899 303.118C388.89 303.058 388.89 302.996 388.899 302.936C388.899 302.794 388.899 302.62 388.899 302.414C388.94 301.916 388.988 301.244 389.056 300.398C389.206 298.611 389.411 296.089 389.671 292.997C390.183 286.743 390.865 278.101 391.514 268.542C392.163 258.983 392.688 250.356 393.009 244.07C393.189 241.605 392.926 239.123 392.238 236.78C391.937 235.927 391.567 235.109 391.132 234.337Z" fill="#1D1D1B"/>
<path d="M397.939 263.734C396.672 263.488 395.454 262.982 394.341 262.241C395.609 262.477 396.829 262.983 397.939 263.734Z" fill="#1D1D1B"/>
<path d="M399.127 252.175C398.591 252.662 397.992 253.046 397.352 253.314C396.758 253.7 396.111 253.968 395.44 254.104C396.563 253.225 397.811 252.58 399.127 252.199V252.175Z" fill="#1D1D1B"/>
<path d="M398.513 242.71C398.037 242.879 397.533 242.909 397.045 242.797C396.552 242.822 396.061 242.714 395.611 242.481C396.58 242.288 397.575 242.366 398.513 242.71Z" fill="#1D1D1B"/>
<path d="M388.38 236.654C388.298 236.717 387.868 236.093 387.417 235.271C386.967 234.448 386.673 233.729 386.735 233.689C386.796 233.65 387.247 234.251 387.697 235.081C388.021 235.542 388.254 236.079 388.38 236.654Z" fill="#1D1D1B"/>
<path d="M385.034 242.386C384.597 242.566 384.129 242.625 383.669 242.559C383.204 242.604 382.736 242.523 382.303 242.322C382.303 242.204 382.931 242.133 383.669 242.149C384.134 242.104 384.601 242.185 385.034 242.386Z" fill="#1D1D1B"/>
<path d="M382.631 253.811C382.59 253.922 381.948 253.708 381.163 253.345C380.377 252.981 379.797 252.61 379.797 252.507C380.311 252.533 380.812 252.692 381.265 252.973C382.064 253.337 382.665 253.708 382.631 253.811Z" fill="#1D1D1B"/>
<path d="M382.372 263.434C382.372 263.545 381.832 263.774 381.122 263.947C380.412 264.121 379.818 264.168 379.804 264.058C379.791 263.947 380.344 263.718 381.054 263.553C381.764 263.387 382.351 263.324 382.372 263.434Z" fill="#1D1D1B"/>
<path d="M381.238 279.177C381.238 279.287 380.665 279.5 379.914 279.658C379.163 279.816 378.548 279.848 378.548 279.737C378.548 279.627 379.122 279.414 379.873 279.256C380.624 279.098 381.225 279.066 381.238 279.177Z" fill="#1D1D1B"/>
<path d="M380.487 287.866C380.535 287.961 380.037 288.372 379.381 288.775C378.726 289.178 378.159 289.415 378.111 289.32C378.063 289.225 378.562 288.815 379.217 288.412C379.873 288.009 380.446 287.764 380.487 287.866Z" fill="#1D1D1B"/>
<path d="M386.618 297.734C386.529 297.789 386.099 297.101 385.649 296.192C385.319 295.673 385.087 295.081 384.966 294.452C385.048 294.397 385.478 295.085 385.929 296.034C386.257 296.539 386.492 297.118 386.618 297.734Z" fill="#1D1D1B"/>
<path d="M388.387 281.335C388.448 281.422 387.97 282.126 387.308 282.838C386.646 283.549 386.059 284.134 385.99 284.055C385.922 283.976 386.407 283.304 387.062 282.553C387.718 281.802 388.319 281.256 388.387 281.335Z" fill="#1D1D1B"/>
<path d="M387.991 272.74C387.923 272.819 387.479 272.392 386.994 271.792C386.509 271.191 386.188 270.645 386.257 270.574C386.325 270.503 386.776 270.922 387.254 271.515C387.731 272.108 388.066 272.661 387.991 272.74Z" fill="#1D1D1B"/>
<path d="M389.206 261.75C389.281 261.829 388.878 262.486 388.312 263.213C387.745 263.941 387.226 264.478 387.158 264.407C387.09 264.336 387.486 263.672 388.052 262.944C388.619 262.217 389.138 261.679 389.206 261.75Z" fill="#1D1D1B"/>
<path d="M389.889 253.78C389.821 253.86 389.268 253.354 388.646 252.642C388.025 251.93 387.574 251.298 387.643 251.219C387.711 251.14 388.271 251.646 388.892 252.357C389.513 253.069 389.957 253.701 389.889 253.78Z" fill="#1D1D1B"/>
<path d="M391.234 243.003C391.126 243.577 390.912 244.117 390.606 244.585C390.183 245.415 389.766 246.048 389.684 245.992C389.602 245.937 389.875 245.202 390.306 244.411C390.736 243.62 391.152 242.948 391.234 243.003Z" fill="#1D1D1B"/>
<path d="M393.767 233.017C393.684 233.586 393.492 234.126 393.207 234.598C392.818 235.437 392.429 236.069 392.347 236.022C392.425 235.44 392.614 234.887 392.9 234.401C393.296 233.594 393.678 232.962 393.767 233.017Z" fill="#1D1D1B"/>
<path d="M396.635 237.548C396.676 237.651 396.28 237.967 395.754 238.259C395.228 238.552 394.771 238.71 394.73 238.607C394.689 238.504 395.078 238.188 395.604 237.896C396.129 237.603 396.594 237.453 396.635 237.548Z" fill="#1D1D1B"/>
<path d="M396.703 273.421C396.035 273.428 395.376 273.243 394.784 272.883C394.148 272.642 393.575 272.218 393.118 271.65C393.742 271.868 394.346 272.157 394.921 272.512C395.54 272.746 396.136 273.05 396.703 273.421Z" fill="#1D1D1B"/>
<path d="M395.529 281.019C395.529 281.129 394.955 281.35 394.211 281.516C393.467 281.682 392.845 281.729 392.845 281.619C392.845 281.508 393.412 281.287 394.163 281.121C394.605 280.96 395.073 280.925 395.529 281.019Z" fill="#1D1D1B"/>
<path d="M394.088 294.049C393.484 293.699 392.969 293.174 392.593 292.523C392.132 291.954 391.809 291.252 391.657 290.491C392.102 291.045 392.506 291.64 392.866 292.27C393.319 292.819 393.728 293.415 394.088 294.049Z" fill="#1D1D1B"/>
<path d="M378.309 300.003C378.248 299.916 378.644 299.402 379.197 298.857C379.75 298.311 380.255 297.932 380.316 298.011C380.378 298.09 379.982 298.612 379.429 299.165C378.876 299.719 378.35 300.106 378.309 300.003Z" fill="#1D1D1B"/>
<path d="M373.769 271.57C373.134 269.261 371.932 266.565 369.836 266.534C369.215 266.574 368.614 266.806 368.096 267.207C367.579 267.607 367.163 268.161 366.893 268.811C366.321 270.102 366.046 271.543 366.094 272.993C366.353 283.284 367.87 293.479 370.601 303.276H378.262C378.175 292.504 376.66 281.81 373.769 271.57Z" fill="#455A64"/>
<path d="M359.915 257.03C358.843 252.065 355.647 249.385 351.933 249.124C348.519 249.811 347.236 253.678 346.833 257.631C346.43 261.585 347.515 265.538 348.533 269.325C351.897 281.502 355.26 293.683 358.624 305.87L368.183 304.661C365.138 288.349 363.404 273.223 359.915 257.03Z" fill="#455A64"/>
<path d="M369.836 266.534C369.591 266.932 369.374 267.353 369.187 267.791C368.793 269.056 368.672 270.413 368.832 271.744C368.975 273.428 369.146 275.46 369.392 277.69C369.638 279.92 369.986 282.363 370.416 284.909C371.283 290.009 372.26 294.587 372.881 297.923C373.195 299.592 373.434 300.944 373.564 301.877C373.632 302.304 373.687 302.667 373.728 302.96C373.74 303.086 373.74 303.213 373.728 303.34C373.679 303.225 373.644 303.102 373.625 302.976L373.4 301.908L372.587 297.955C371.905 294.642 370.894 290.048 370.027 284.956C369.59 282.402 369.255 279.951 369.023 277.706C368.9 276.583 368.818 275.516 368.736 274.543C368.654 273.571 368.573 272.622 368.532 271.76C368.397 270.398 368.564 269.018 369.016 267.751C369.21 267.281 369.49 266.866 369.836 266.534Z" fill="#1D1D1B"/>
<path d="M352.063 248.822C351.641 249.383 351.257 249.98 350.916 250.609C350.036 252.372 349.538 254.355 349.461 256.389C349.416 259.421 349.815 262.439 350.643 265.316C351.482 268.597 352.397 272.203 353.374 275.99L358.242 295.362C358.843 297.829 359.334 299.829 359.683 301.268L360.058 302.849C360.11 303.035 360.146 303.225 360.167 303.419C360.09 303.245 360.03 303.062 359.99 302.873L359.553 301.292C359.177 299.868 358.652 297.876 358.003 295.433L353.026 276.037C352.07 272.242 351.162 268.637 350.329 265.348C349.511 262.44 349.134 259.39 349.216 256.334C349.311 254.263 349.856 252.253 350.8 250.491C351.139 249.859 351.566 249.295 352.063 248.822Z" fill="#1D1D1B"/>
<path d="M366.06 303.49C365.977 303.32 365.907 303.143 365.849 302.96C365.719 302.604 365.521 302.09 365.302 301.378C364.852 300.019 364.264 298.018 363.664 295.512C363.063 293.005 362.462 289.977 361.888 286.601C361.315 283.225 360.728 279.485 360.093 275.618C359.458 271.752 358.686 268.052 357.833 264.77C357.091 261.858 356.162 259.014 355.054 256.263C354.302 254.408 353.442 252.614 352.48 250.894C352.152 250.277 351.858 249.834 351.681 249.51C351.58 249.352 351.488 249.185 351.408 249.012C351.532 249.147 351.642 249.298 351.735 249.463C351.933 249.771 352.248 250.198 352.596 250.807C353.605 252.501 354.499 254.283 355.272 256.136C356.422 258.884 357.381 261.735 358.14 264.66C359.073 268.255 359.844 271.905 360.448 275.595C361.076 279.493 361.67 283.201 362.216 286.585C362.762 289.969 363.343 292.982 363.916 295.488C364.49 297.994 365.029 300.003 365.446 301.378C365.644 302.066 365.821 302.588 365.924 302.96C365.984 303.131 366.029 303.308 366.06 303.49Z" fill="#1D1D1B"/>
<path d="M348.697 267.506C348.697 267.617 348.205 267.853 347.543 268.035C346.881 268.216 346.321 268.287 346.3 268.177C346.28 268.066 346.799 267.83 347.461 267.648C348.123 267.467 348.676 267.396 348.697 267.506Z" fill="#1D1D1B"/>
<path d="M347.686 259.97C346.622 260.186 345.538 260.234 344.463 260.112C344.965 259.843 345.516 259.724 346.068 259.765C346.614 259.671 347.171 259.742 347.686 259.97Z" fill="#1D1D1B"/>
<path d="M348.765 253.084C348.704 253.171 348.185 252.784 347.604 252.215C347.024 251.645 346.614 251.124 346.676 251.037C346.737 250.95 347.256 251.337 347.837 251.906C348.417 252.476 348.827 252.997 348.765 253.084Z" fill="#1D1D1B"/>
<path d="M351.674 246.712C351.769 246.712 351.742 247.274 351.728 247.922C351.715 248.57 351.728 249.108 351.612 249.132C351.496 249.155 351.36 248.61 351.38 247.914C351.4 247.218 351.578 246.688 351.674 246.712Z" fill="#1D1D1B"/>
<path d="M357.621 249.716C357.696 249.779 357.464 250.325 357.095 250.934C356.726 251.542 356.371 251.977 356.289 251.914C356.207 251.851 356.439 251.305 356.808 250.696C357.177 250.088 357.539 249.653 357.621 249.716Z" fill="#1D1D1B"/>
<path d="M361.472 257.472C361.513 257.583 361.021 257.907 360.373 258.215C359.724 258.523 359.171 258.681 359.137 258.578C359.103 258.476 359.594 258.144 360.243 257.836C360.891 257.528 361.438 257.409 361.472 257.472Z" fill="#1D1D1B"/>
<path d="M363.813 265.459C362.891 266.195 361.759 266.492 360.652 266.289C361.694 265.954 362.749 265.677 363.813 265.459Z" fill="#1D1D1B"/>
<path d="M353.087 263.189C352.991 263.189 353.087 262.604 353.23 261.963C353.374 261.323 353.626 260.817 353.715 260.849C353.804 260.88 353.715 261.434 353.565 262.082C353.415 262.73 353.162 263.228 353.087 263.189Z" fill="#1D1D1B"/>
<path d="M354.569 273.223C354.601 272.639 354.748 272.071 354.999 271.563C355.326 270.693 355.682 270.021 355.757 270.068C355.722 270.653 355.572 271.221 355.32 271.729C354.992 272.591 354.657 273.263 354.569 273.223Z" fill="#1D1D1B"/>
<path d="M350.868 275.958C350.827 276.069 350.226 275.879 349.503 275.611C348.779 275.342 348.178 275.105 348.199 274.994C348.219 274.884 348.881 274.955 349.605 275.223C350.329 275.492 350.902 275.863 350.868 275.958Z" fill="#1D1D1B"/>
<path d="M352.998 284.134C353.06 284.229 352.65 284.679 352.09 285.138C351.53 285.596 351.032 285.929 350.97 285.81C350.909 285.691 351.325 285.272 351.885 284.806C352.445 284.339 352.944 284.047 352.998 284.134Z" fill="#1D1D1B"/>
<path d="M354.712 292.286C354.712 292.397 354.227 292.626 353.586 292.807C352.944 292.989 352.397 293.052 352.37 292.941C352.343 292.831 352.855 292.602 353.504 292.42C354.152 292.239 354.692 292.2 354.712 292.286Z" fill="#1D1D1B"/>
<path d="M364.012 272.266C364.059 272.361 363.629 272.764 363.001 273.056C362.373 273.349 361.82 273.364 361.799 273.254C361.779 273.143 362.277 272.938 362.871 272.677C363.465 272.416 363.957 272.171 364.012 272.266Z" fill="#1D1D1B"/>
<path d="M365.33 284.948C365.289 285.05 364.777 284.869 364.183 284.545C363.589 284.221 363.138 283.873 363.179 283.755C363.22 283.636 363.739 283.826 364.333 284.15C364.927 284.474 365.377 284.845 365.33 284.948Z" fill="#1D1D1B"/>
<path d="M367.678 294.017C367.147 293.992 366.628 293.833 366.156 293.551C365.35 293.187 364.729 292.8 364.79 292.697C365.319 292.728 365.836 292.89 366.306 293.172C366.81 293.337 367.278 293.625 367.678 294.017Z" fill="#1D1D1B"/>
<path d="M355.088 301.125C355.04 301.023 355.668 300.54 356.392 299.876C356.804 299.423 357.263 299.03 357.757 298.706C357.833 298.777 357.375 299.497 356.617 300.192C356.192 300.662 355.663 300.985 355.088 301.125Z" fill="#1D1D1B"/>
<path d="M361.281 296.516C361.185 296.516 361.048 295.915 360.809 295.211C360.57 294.507 360.325 293.938 360.4 293.875C360.475 293.812 360.884 294.294 361.137 295.061C361.39 295.828 361.376 296.508 361.281 296.516Z" fill="#1D1D1B"/>
<path d="M359.642 285.604C359.587 285.691 359.184 285.469 358.747 285.106C358.31 284.742 358.003 284.379 358.064 284.316C358.126 284.253 358.522 284.45 358.959 284.814C359.396 285.177 359.696 285.509 359.642 285.604Z" fill="#1D1D1B"/>
<path d="M374.082 268.478C374.137 268.565 373.748 269.016 373.208 269.475C372.669 269.933 372.191 270.265 372.13 270.147C372.068 270.028 372.464 269.609 373.004 269.151C373.543 268.692 374.021 268.415 374.082 268.478Z" fill="#1D1D1B"/>
<path d="M376.254 275.389C376.254 275.499 375.653 275.649 374.888 275.555C374.124 275.46 373.564 275.168 373.591 275.065C373.618 274.963 374.206 275.065 374.957 275.152C375.708 275.239 376.247 275.279 376.254 275.389Z" fill="#1D1D1B"/>
<path d="M366.9 276.939C366.9 277.041 366.36 277.278 365.63 277.333C364.899 277.389 364.312 277.247 364.319 277.136C364.326 277.026 364.906 276.986 365.603 276.931C366.299 276.876 366.879 276.828 366.9 276.939Z" fill="#1D1D1B"/>
<path d="M367.705 270.423C367.705 270.534 367.125 270.55 366.504 270.218C365.882 269.886 365.514 269.372 365.582 269.293C365.65 269.214 366.08 269.546 366.647 269.847C367.214 270.147 367.719 270.305 367.705 270.423Z" fill="#1D1D1B"/>
<path d="M377.059 282.79C377.005 282.885 376.424 282.569 375.755 282.079C375.086 281.588 374.581 281.114 374.635 281.019C374.69 280.924 375.27 281.248 375.939 281.731C376.609 282.213 377.114 282.711 377.059 282.79Z" fill="#1D1D1B"/>
<path d="M399.885 302.122H349.981V312.369H399.885V302.122Z" fill="#57A40A"/>
<path d="M353.701 310.337L359.771 340.944H389.52L396.157 310.337H353.701Z" fill="#57A40A"/>
<path d="M399.857 312.377C399.857 312.487 388.598 312.582 374.717 312.582C360.836 312.582 349.571 312.487 349.571 312.377C349.571 312.266 360.83 312.171 374.717 312.171C388.605 312.171 399.857 312.266 399.857 312.377Z" fill="#1D1D1B"/>
<path d="M372.102 277.176C372.021 277.24 371.679 276.773 371.338 276.149C370.996 275.524 370.792 274.963 370.873 274.907C370.955 274.852 371.297 275.303 371.638 275.935C371.98 276.568 372.205 277.105 372.102 277.176Z" fill="#1D1D1B"/>
<path d="M372.123 285.399C372.027 285.399 372.123 284.672 372.382 283.818C372.642 282.964 372.881 282.355 372.976 282.387C373.003 282.931 372.914 283.474 372.717 283.968C372.478 284.798 372.205 285.439 372.123 285.399Z" fill="#1D1D1B"/>
<path d="M374.554 294.057C374.183 293.604 373.899 293.065 373.721 292.476C373.444 291.954 373.269 291.368 373.208 290.76C373.297 290.713 373.666 291.4 374.042 292.302C374.323 292.836 374.497 293.435 374.554 294.057Z" fill="#1D1D1B"/>
<path d="M369.283 301.015C369.214 300.944 369.508 300.407 369.965 299.821C370.423 299.236 370.819 298.817 370.894 298.888C370.969 298.96 370.669 299.497 370.211 300.082C369.754 300.667 369.358 301.087 369.283 301.015Z" fill="#1D1D1B"/>
<path d="M368.177 288.38C368.177 288.49 367.685 288.482 367.105 288.38C366.524 288.277 366.08 288.08 366.094 287.969C366.108 287.859 366.592 287.867 367.166 287.969C367.74 288.072 368.197 288.245 368.177 288.38Z" fill="#1D1D1B"/>
<path d="M329.791 222.62H337.622C337.622 222.62 320.443 82.5678 321.406 43.0499L320.191 222.62H329.791Z" fill="#E0E0E0"/>
<path d="M293.043 0.914462C293.043 0.914462 322.314 -1.14129 321.529 36.3525C319.262 144.912 330.289 226.573 330.289 226.573H220.628V4.79667L293.043 0.914462Z" fill="#EBEBEB"/>
<path d="M217.896 284.933L293.978 284.878C298.372 284.876 302.585 282.853 305.692 279.255C308.798 275.656 310.543 270.776 310.543 265.688L310.502 44.8052C310.503 42.2808 310.073 39.7811 309.238 37.4494C308.403 35.1176 307.179 32.9996 305.636 31.2169C304.092 29.4341 302.26 28.0216 300.245 27.0604C298.229 26.0992 296.069 25.6082 293.89 25.6155L217.807 25.6708C215.631 25.6698 213.476 26.1655 211.466 27.1296C209.455 28.0937 207.629 29.5073 206.09 31.2895C204.552 33.0717 203.332 35.1877 202.5 37.5163C201.669 39.8449 201.241 42.3406 201.243 44.8605L201.277 265.743C201.277 268.268 201.708 270.768 202.543 273.1C203.379 275.432 204.604 277.55 206.148 279.332C207.692 281.115 209.524 282.527 211.54 283.488C213.556 284.449 215.716 284.94 217.896 284.933Z" fill="#455A64"/>
<path d="M217.897 33.4827H232.651H275.728H293.829C296.907 33.4827 299.859 34.8988 302.036 37.4196C304.213 39.9404 305.436 43.3593 305.436 46.9242L305.47 262.517C305.47 266.082 304.247 269.501 302.07 272.022C299.894 274.543 296.941 275.959 293.863 275.959L217.931 276.014C214.852 276.014 211.9 274.598 209.723 272.077C207.546 269.557 206.323 266.138 206.323 262.573L206.289 46.9242C206.289 43.3593 207.512 39.9404 209.689 37.4196C211.866 34.8988 214.818 33.4827 217.897 33.4827Z" fill="#EBEBEB"/>
<path d="M227.455 0.890465L300.267 1.68114C289.588 1.10395 287.308 6.02195 285.553 9.1372C282.214 15.1068 282.549 21.9224 286.366 27.5046C288.587 30.5442 291.635 32.6186 295.01 33.3872H215.227C210.584 28.1134 209.614 22.4917 210.304 17.4314C211.615 7.8405 219.009 0.890465 227.455 0.890465Z" fill="#EBEBEB"/>
<path d="M308.358 5.31874C308.194 5.23055 308.038 5.12185 307.894 4.99456C307.471 4.66269 307.031 4.36165 306.576 4.09319C304.882 3.12226 303.066 2.46589 301.196 2.14813C298.441 1.60956 295.617 1.78508 292.927 2.66207C289.658 3.87944 286.924 6.51836 285.301 10.0233C283.6 13.4744 283.035 17.5211 283.71 21.4169C284.051 23.0904 284.672 24.6701 285.54 26.0661C286.299 27.2958 287.202 28.3975 288.223 29.3394C289.682 30.7231 291.321 31.833 293.077 32.6287C294.32 33.1821 295.051 33.364 295.037 33.4193C294.859 33.3953 294.683 33.353 294.511 33.2928C294 33.1549 293.496 32.9833 293.002 32.7789C291.205 32.0365 289.527 30.9515 288.038 29.5687C287.001 28.6179 286.082 27.5057 285.307 26.2637C284.407 24.8445 283.759 23.2318 283.402 21.5197C282.685 17.5316 283.253 13.3772 285 9.8414C286.666 6.24518 289.478 3.5443 292.838 2.31417C295.576 1.44054 298.449 1.29191 301.243 1.8793C303.136 2.21337 304.966 2.91366 306.658 3.95087C307.113 4.23959 307.549 4.56732 307.962 4.93131C308.102 5.04932 308.234 5.1788 308.358 5.31874Z" fill="#1D1D1B"/>
<path d="M311.438 7.30341C312.012 7.66932 312.552 8.10393 313.049 8.60011C314.484 9.99495 315.766 11.5882 316.866 13.3442C317.679 14.6047 318.399 15.9431 319.016 17.345C319.764 19.0109 320.317 20.7843 320.662 22.6188C321.051 24.6113 320.894 26.7856 320.962 29.047C321.031 31.3083 321.078 33.7278 321.14 36.25C321.29 41.3024 321.488 46.8292 321.72 52.7672C321.72 55.7481 321.72 58.808 321.679 61.9786C321.638 65.1492 321.679 68.3989 321.679 71.7434C321.679 85.0979 321.925 99.7887 322.423 115.231C323.386 146.067 325.353 173.891 327.08 193.998C327.968 204.055 328.753 212.183 329.32 217.789C329.606 220.588 329.832 222.762 330.002 224.249C330.071 224.987 330.125 225.548 330.166 225.933C330.166 226.312 330.207 226.51 330.207 226.51C330.207 226.51 330.207 226.32 330.125 225.941C330.043 225.561 330.016 224.992 329.927 224.265C329.763 222.77 329.518 220.604 329.203 217.813C328.589 212.199 327.77 204.079 326.848 194.029C325.059 173.922 323.052 146.083 322.068 115.246C321.57 99.8361 321.386 85.1454 321.386 71.7592C321.386 68.4147 321.386 65.1571 321.386 61.9944C321.386 58.8317 321.454 55.756 321.447 52.7988C321.222 46.8609 321.044 41.3261 320.908 36.2737C320.846 33.7515 320.792 31.3478 320.757 29.0707C320.723 26.7935 320.86 24.635 320.484 22.682C320.155 20.8628 319.618 19.1025 318.887 17.4478C318.281 16.051 317.575 14.7154 316.777 13.4549C315.691 11.6906 314.431 10.0798 313.022 8.65546C312.805 8.43442 312.577 8.22848 312.339 8.03873C312.181 7.88919 312.017 7.74932 311.847 7.61968C311.567 7.42201 311.438 7.30341 311.438 7.30341Z" fill="#1D1D1B"/>
<path d="M305.429 167.961C305.429 167.961 304.473 255.038 298.465 267.744L192.524 266.163L194.682 255.702L305.463 97.994L305.429 167.961Z" fill="#E0E0E0"/>
<path d="M305.429 46.8688C305.429 46.8688 303.531 239.857 292.838 256.738H189.602C189.602 256.738 213.356 111.926 206.289 46.9241L305.429 46.8688Z" fill="#F5F5F5"/>
<path d="M306.323 46.8688C306.323 46.8688 304.425 239.857 293.733 256.738H189.602C189.602 256.738 206.159 114.116 206.159 50.0236" fill="#FAFAFA"/>
<path d="M206.159 50.0234V51.0434C206.159 51.7234 206.159 52.7355 206.159 54.0559C206.159 55.3763 206.159 57.0288 206.098 58.9739C206.037 60.9189 206.064 63.1724 205.955 65.7104C205.661 75.8706 204.965 90.6404 203.729 109.103C201.182 146.019 196.484 197.658 189.8 256.769L189.629 256.54H293.733L293.596 256.619C294.433 255.033 295.067 253.315 295.481 251.519C295.918 249.724 296.307 247.922 296.621 246.103C297.304 242.474 297.775 238.837 298.219 235.231C299.093 228.012 299.728 220.888 300.267 213.883C301.353 199.912 302.09 186.51 302.705 173.812C303.899 148.407 304.582 125.825 305.081 107.007C305.579 88.1893 305.852 73.1586 306.037 62.8166C306.119 57.6535 306.187 53.6605 306.235 50.9564C306.235 49.6044 306.276 48.5844 306.282 47.8886C306.289 47.1928 306.282 46.8449 306.282 46.8449C306.282 46.8449 306.282 47.1928 306.282 47.8886C306.282 48.5844 306.282 49.6044 306.282 50.9564C306.248 53.6605 306.2 57.6535 306.146 62.8166C305.996 73.1586 305.75 88.2051 305.292 107.015C304.835 125.825 304.173 148.423 302.991 173.827C302.391 186.533 301.66 199.92 300.581 213.915C300.028 220.904 299.4 228.028 298.533 235.263C298.089 238.876 297.597 242.521 296.942 246.158C296.621 247.985 296.259 249.803 295.788 251.606C295.369 253.449 294.718 255.21 293.856 256.832L293.808 256.919H189.404V256.69C196.102 197.611 200.847 145.996 203.449 109.055C204.719 90.6009 205.449 75.8469 205.784 65.6867C205.9 63.1486 205.921 60.8952 205.955 58.9502C205.989 57.0051 206.016 55.3605 206.043 54.0322C206.071 52.7038 206.084 51.6601 206.098 51.0197C206.112 50.3792 206.159 50.0234 206.159 50.0234Z" fill="#1D1D1B"/>
<path d="M305.45 46.6236C305.45 46.6236 305.217 33.1821 293.842 33.1821C282.467 33.1821 215.254 33.1821 215.254 33.1821C215.254 33.1821 206.289 36.0602 206.289 47.5803L276.5 53.8267L305.45 46.6236Z" fill="#FAFAFA"/>
<path d="M227.455 0.890969H227.264C227.141 0.890969 226.95 0.890969 226.704 0.890969C225.982 0.899882 225.26 0.971241 224.547 1.10445C221.862 1.58876 219.323 2.83863 217.159 4.74156C213.893 7.7309 211.551 11.8638 210.481 16.5226C209.9 19.3525 210.007 22.3134 210.789 25.0777C211.19 26.5632 211.764 27.9784 212.496 29.2841C213.232 30.6611 214.12 31.921 215.138 33.0319L215.029 32.9845H235.096L277.169 33.1426L289.923 33.2375L293.385 33.2849H294.286H294.593C294.593 33.2849 294.491 33.2849 294.286 33.2849H293.385H289.923H277.169H235.096L215.029 33.2296H214.96L214.92 33.1821C213.872 32.0431 212.955 30.7545 212.188 29.3474C211.454 28.0067 210.873 26.5607 210.461 25.0461C209.674 22.2166 209.577 19.1904 210.181 16.3012C211.279 11.5914 213.677 7.42647 217.009 4.4411C218.253 3.3405 219.634 2.46598 221.106 1.84769C222.207 1.36857 223.352 1.03954 224.519 0.86725C225.238 0.7443 225.965 0.694034 226.691 0.717021C226.949 0.751246 227.205 0.809414 227.455 0.890969Z" fill="#1D1D1B"/>
<path d="M305.463 124.577C305.463 124.577 305.463 124.814 305.463 125.264C305.463 125.715 305.463 126.403 305.463 127.289V135.045C305.463 141.782 305.408 151.539 305.299 163.589C305.19 175.638 305.019 189.989 304.562 205.913C304.33 213.875 304.002 222.241 303.306 230.875C302.609 239.509 301.646 248.428 300.308 257.497C299.782 261.047 299.222 264.542 298.608 267.815L298.574 267.973H298.465C268.777 267.894 242.292 267.333 223.229 266.953L200.731 266.432L194.641 266.266L193.064 266.21H194.648L200.731 266.305L223.263 266.7C242.326 267.001 268.811 267.491 298.492 267.586L298.321 267.744C298.936 264.494 299.496 260.992 300.021 257.465C301.353 248.412 302.315 239.501 303.019 230.875C303.722 222.249 304.057 213.899 304.296 205.937C304.774 190.021 304.944 175.67 305.108 163.62C305.272 151.57 305.32 141.837 305.388 135.085C305.388 131.724 305.436 129.107 305.449 127.328C305.449 126.443 305.449 125.747 305.449 125.304C305.449 124.861 305.463 124.577 305.463 124.577Z" fill="#1D1D1B"/>
<path d="M298.546 55.3444C295.303 55.618 292.046 55.618 288.803 55.3444C292.046 55.0707 295.303 55.0707 298.546 55.3444Z" fill="#1D1D1B"/>
<path d="M298.546 52.3951C295.303 52.6687 292.046 52.6687 288.803 52.3951C292.046 52.1215 295.303 52.1215 298.546 52.3951Z" fill="#1D1D1B"/>
<path d="M298.546 49.4616C295.303 49.7352 292.046 49.7352 288.803 49.4616C292.046 49.1879 295.303 49.1879 298.546 49.4616Z" fill="#1D1D1B"/>
<path d="M217.534 57.2504H217.746H218.326L220.477 57.1871L220.416 57.2583C220.416 56.7048 220.416 56.1039 220.416 55.4555C220.416 55.1155 220.416 54.7993 220.416 54.4118C220.446 54.2069 220.533 54.0188 220.663 53.8762C220.794 53.7335 220.961 53.644 221.14 53.6212C221.488 53.6212 221.788 53.6212 222.164 53.6212C222.356 53.6652 222.53 53.7855 222.655 53.9615C222.779 54.1375 222.847 54.3582 222.846 54.5858C222.846 55.4318 222.846 56.3094 222.846 57.2187L222.744 57.108H225.475L225.373 57.2266C225.373 55.9616 225.373 54.6569 225.373 53.2733C225.373 52.9412 225.373 52.6091 225.373 52.277C225.36 52.1281 225.32 51.9842 225.254 51.8557C225.187 51.7272 225.098 51.6172 224.99 51.5338L223.802 50.1817L222.676 48.8534L222.116 48.2208C221.925 48.0074 221.774 47.786 221.556 47.7385C221.45 47.7045 221.34 47.6989 221.232 47.7222C221.124 47.7455 221.022 47.797 220.935 47.8729C220.771 48.0311 220.593 48.2604 220.429 48.4501L219.453 49.5887C218.845 50.324 218.204 50.9961 217.739 51.6287C217.602 51.9996 217.555 52.407 217.603 52.8068V53.9137C217.603 54.5937 217.603 55.1867 217.603 55.6927C217.603 56.1988 217.603 56.5308 217.603 56.8392C217.603 57.1476 217.603 57.2424 217.603 57.2504C217.593 57.1241 217.593 56.9971 217.603 56.8708C217.603 56.5704 217.603 56.1988 217.603 55.7481C217.603 55.2974 217.603 54.6332 217.603 53.9453V52.8226C217.603 52.617 217.603 52.4114 217.603 52.1979C217.602 51.9677 217.654 51.7414 217.753 51.5417C218.258 50.8301 218.852 50.1975 219.474 49.4464L220.436 48.2999C220.614 48.0943 220.757 47.9046 220.962 47.6911C221.073 47.5957 221.202 47.5305 221.337 47.5004C221.473 47.4703 221.613 47.476 221.747 47.5171C222.015 47.6162 222.252 47.803 222.43 48.0548L222.983 48.6873L224.137 49.992L225.325 51.344C225.435 51.4594 225.536 51.5864 225.625 51.7235C225.714 51.8819 225.763 52.065 225.769 52.2533C225.769 52.5854 225.769 52.9175 225.769 53.2574C225.769 54.5937 225.769 55.9062 225.769 57.2108V57.3294H225.666H222.935H222.676V57.2187C222.676 56.3015 222.676 55.4239 222.676 54.5779C222.679 54.3918 222.625 54.2105 222.524 54.0658C222.422 53.9212 222.281 53.8225 222.123 53.7872C221.815 53.7872 221.44 53.7872 221.14 53.7872C221 53.808 220.869 53.8784 220.765 53.9889C220.661 54.0993 220.589 54.2443 220.559 54.4039C220.559 54.7202 220.559 55.0839 220.559 55.4081V57.282H220.498H218.313H217.739L217.534 57.2504Z" fill="#1D1D1B"/>
<path d="M247.153 52.0793H245.829V50.9565H249.7V52.0793H248.376V55.9536H247.153V52.0793Z" fill="#57A40A"/>
<path d="M252.834 54.9969H251.004L250.67 55.9615H249.42L251.353 50.9565H252.554L254.466 55.9536H253.196L252.834 54.9969ZM252.472 53.9532L251.919 52.3718L251.366 53.9532H252.472Z" fill="#57A40A"/>
<path d="M254.487 55.5109L254.89 54.4672C255.315 54.779 255.806 54.9487 256.31 54.9574C256.815 54.9574 256.993 54.7913 256.993 54.5462C256.993 53.7556 254.541 54.3327 254.541 52.4826C254.541 51.5891 255.17 50.9012 256.453 50.9012C256.998 50.8873 257.537 51.0371 258.017 51.3361L257.641 52.3798C257.276 52.1422 256.865 52.0119 256.446 52.0003C255.934 52.0003 255.764 52.1979 255.764 52.443C255.764 53.2337 258.208 52.6407 258.208 54.483C258.208 55.3527 257.58 56.0643 256.296 56.0643C255.66 56.0786 255.034 55.8869 254.487 55.5109Z" fill="#57A40A"/>
<path d="M260.447 54.1429L259.99 54.7043V55.9536H258.781V50.9565H259.99V53.036L261.663 50.9565H263.028L261.26 53.1704L263.117 55.9536H261.697L260.447 54.1429Z" fill="#57A40A"/>
<path d="M263.021 55.5108L263.424 54.4672C263.851 54.7804 264.345 54.9501 264.851 54.9574C265.356 54.9574 265.534 54.7913 265.534 54.5462C265.534 53.7555 263.076 54.3327 263.076 52.4826C263.076 51.5891 263.704 50.9012 264.988 50.9012C265.535 50.8874 266.076 51.0372 266.558 51.3361L266.183 52.3798C265.815 52.1421 265.402 52.0119 264.981 52.0002C264.469 52.0002 264.298 52.1979 264.298 52.443C264.298 53.2337 266.749 52.6407 266.749 54.483C266.749 55.3527 266.121 56.0643 264.837 56.0643C264.2 56.0776 263.571 55.886 263.021 55.5108Z" fill="#57A40A"/>
<path d="M304.049 68.367C304.049 68.4775 282.009 68.5721 254.835 68.5721C227.66 68.5721 205.613 68.4775 205.613 68.367C205.613 68.2565 227.646 68.1618 254.835 68.1618C282.023 68.1618 304.049 68.2565 304.049 68.367Z" fill="#E0E0E0"/>
<path d="M304.896 107.743C304.896 107.853 282.863 107.948 255.682 107.948C228.5 107.948 206.467 107.853 206.467 107.743C206.467 107.632 228.493 107.537 255.682 107.537C282.87 107.537 304.896 107.624 304.896 107.743Z" fill="#E0E0E0"/>
<path d="M303.804 145.513C303.804 145.623 280.842 145.718 252.527 145.718C224.212 145.718 201.243 145.623 201.243 145.513C201.243 145.402 224.198 145.308 252.527 145.308C280.855 145.308 303.804 145.394 303.804 145.513Z" fill="#E0E0E0"/>
<path d="M302.425 182.335C302.425 182.453 278.869 182.54 249.851 182.54C220.833 182.54 197.277 182.453 197.277 182.335C197.277 182.216 220.819 182.13 249.851 182.13C278.883 182.13 302.425 182.224 302.425 182.335Z" fill="#E0E0E0"/>
<path d="M299.147 223.758C299.147 223.877 275.502 223.963 246.348 223.963C217.193 223.963 193.548 223.877 193.548 223.758C193.548 223.64 217.186 223.553 246.348 223.553C275.509 223.553 299.147 223.648 299.147 223.758Z" fill="#E0E0E0"/>
<path d="M225.782 95.6059C225.774 95.5192 225.774 95.4317 225.782 95.345C225.782 95.1473 225.782 94.9101 225.782 94.6255C225.782 93.9534 225.782 93.0442 225.742 91.9293C225.742 89.5573 225.701 86.3234 225.666 82.4412L225.823 82.6151H214.441L214.619 82.4096V85.9439C214.619 87.0983 214.619 88.2368 214.619 89.3438C214.619 91.5577 214.619 93.6451 214.619 95.5585L214.462 95.3845L222.655 95.4715L224.984 95.519H225.605H225.837C225.574 95.556 225.31 95.5719 225.045 95.5664L222.751 95.6059L214.455 95.7008H214.305V95.519C214.305 93.6055 214.305 91.5181 214.305 89.3043C214.305 88.1973 214.305 87.0587 214.305 85.9043V82.37L214.482 82.1645H225.864H226.015V82.3463C226.015 86.2997 225.953 89.5889 225.94 91.953C225.94 93.06 225.905 93.9534 225.899 94.6097C225.892 95.2659 225.789 95.6217 225.782 95.6059Z" fill="#1D1D1B"/>
<path d="M291.254 88.1255C291.254 88.236 278.282 88.3307 262.243 88.3307C246.205 88.3307 233.232 88.236 233.232 88.1255C233.232 88.015 246.205 87.9203 262.243 87.9203C278.282 87.9203 291.254 88.0071 291.254 88.1255Z" fill="#1D1D1B"/>
<path d="M263.165 93.3441C263.165 93.4624 256.467 93.5571 248.198 93.5571C239.93 93.5571 233.232 93.4624 233.232 93.3441C233.232 93.2257 239.93 93.1389 248.198 93.1389C256.467 93.1389 263.165 93.2336 263.165 93.3441Z" fill="#1D1D1B"/>
<path d="M226.09 75.4675C226.561 75.6099 225.667 81.3581 223.666 88.1183C223.413 88.9644 223.161 89.7867 222.908 90.5773L222.526 91.7396L222.335 92.301L222.28 92.4433C222.251 92.5332 222.217 92.6204 222.177 92.7043C222.093 92.8679 221.992 93.0192 221.877 93.1549C221.651 93.4027 221.369 93.5731 221.064 93.647C220.76 93.721 220.443 93.6957 220.15 93.574C219.881 93.449 219.646 93.2445 219.467 92.981L219.351 92.7833L219.289 92.6568L219.173 92.4196C218.886 91.8029 218.641 91.2099 218.429 90.6722C217.589 88.5058 217.261 87.0826 217.473 86.9639C217.685 86.8453 218.429 88.0314 219.521 89.9685L220.423 91.5499L220.552 91.7554L220.607 91.8503H220.662C220.696 91.8503 220.744 91.8503 220.737 91.795L220.778 91.6606L220.942 91.0913C221.051 90.7038 221.16 90.3006 221.276 89.9211L221.959 87.47C223.946 80.773 225.598 75.3252 226.09 75.4675Z" fill="#57A40A"/>
<path d="M224.533 135.306C224.528 135.219 224.528 135.132 224.533 135.045C224.533 134.847 224.533 134.61 224.533 134.325C224.533 133.651 224.519 132.749 224.492 131.621C224.492 129.249 224.444 126.023 224.417 122.133L224.567 122.307H213.192L213.37 122.102V125.644C213.37 126.806 213.37 127.945 213.37 129.052C213.37 131.258 213.37 133.345 213.37 135.266L213.219 135.092L221.413 135.179L223.741 135.227H224.362C224.437 135.216 224.513 135.216 224.588 135.227C224.327 135.258 224.065 135.272 223.802 135.266L221.508 135.314L213.213 135.409H213.056V135.227C213.056 133.305 213.056 131.218 213.056 129.012C213.056 127.905 213.056 126.767 213.056 125.604V122.062C212.892 122.244 213.267 121.809 213.233 121.857H224.608H224.724V122.038C224.69 125.992 224.663 129.273 224.642 131.645C224.642 132.752 224.629 133.638 224.601 134.302C224.604 134.638 224.581 134.974 224.533 135.306Z" fill="#1D1D1B"/>
<path d="M290.012 127.818C290.012 127.936 277.039 128.031 261 128.031C244.962 128.031 231.982 127.936 231.982 127.818C231.982 127.699 244.955 127.612 261 127.612C277.046 127.612 290.012 127.739 290.012 127.818Z" fill="#1D1D1B"/>
<path d="M222.772 172.246C222.772 172.246 222.772 172.151 222.772 171.985C222.772 171.819 222.772 171.55 222.772 171.266C222.772 170.594 222.771 169.684 222.731 168.569C222.731 166.197 222.69 162.964 222.655 159.081L222.806 159.255H211.431L211.608 159.05V162.576C211.608 163.738 211.608 164.877 211.608 165.984C211.608 168.198 211.608 170.285 211.608 172.199L211.458 172.025L219.651 172.112L221.979 172.159H222.601H222.826C222.566 172.197 222.303 172.213 222.041 172.207L219.747 172.246L211.451 172.341H211.301V172.159C211.301 170.246 211.301 168.158 211.301 165.944C211.301 164.837 211.301 163.699 211.301 162.537V159.01L211.478 158.805H222.853H223.01V158.986C222.976 162.94 222.949 166.221 222.929 168.593C222.929 169.7 222.929 170.594 222.894 171.25C222.877 171.585 222.835 171.918 222.772 172.246Z" fill="#1D1D1B"/>
<path d="M288.223 164.766C288.223 164.876 275.25 164.971 259.211 164.971C243.173 164.971 230.2 164.876 230.2 164.766C230.2 164.655 243.173 164.561 259.211 164.561C275.25 164.561 288.223 164.648 288.223 164.766Z" fill="#1D1D1B"/>
<path d="M220.02 211.345C220.011 211.258 220.011 211.17 220.02 211.084C220.02 210.886 220.02 210.649 220.02 210.364C220.02 209.692 220.02 208.783 219.979 207.668C219.979 205.296 219.931 202.062 219.897 198.18L220.054 198.354H208.679C208.638 198.401 209.013 197.966 208.849 198.148V205.083C208.849 207.296 208.849 209.384 208.849 211.297L208.692 211.123L216.886 211.21L219.214 211.258H219.842H220.068C219.807 211.296 219.545 211.311 219.282 211.305L216.988 211.345L208.686 211.44H208.535V211.258C208.535 209.344 208.535 207.257 208.535 205.043V201.643C208.535 201.058 208.535 200.473 208.535 199.88V198.109C208.378 198.291 208.754 197.856 208.72 197.903H220.095H220.252V198.085C220.252 202.038 220.197 205.328 220.177 207.692C220.177 208.799 220.177 209.692 220.136 210.348C220.116 210.683 220.078 211.016 220.02 211.345Z" fill="#1D1D1B"/>
<path d="M285.492 203.865C285.492 203.975 272.519 204.07 256.48 204.07C240.442 204.07 227.462 203.975 227.462 203.865C227.462 203.754 240.435 203.66 256.48 203.66C272.526 203.66 285.492 203.746 285.492 203.865Z" fill="#1D1D1B"/>
<path d="M218.381 248.436C218.381 248.436 218.381 248.341 218.381 248.175C218.381 248.009 218.381 247.74 218.381 247.447C218.381 246.783 218.381 245.866 218.34 244.751C218.34 242.379 218.299 239.153 218.265 235.263L218.415 235.445H207.04L207.218 235.239V238.782C207.218 239.944 207.218 241.082 207.218 242.189C207.218 244.395 207.218 246.483 207.218 248.404L207.061 248.222L215.254 248.317L217.583 248.364H218.204H218.429C218.429 248.364 218.17 248.364 217.644 248.404L215.35 248.451L207.054 248.538H206.904V248.364C206.904 246.443 206.904 244.356 206.904 242.15C206.904 241.043 206.904 239.904 206.904 238.742V235.271L207.081 235.065H218.456H218.613V235.271C218.579 239.224 218.552 242.513 218.538 244.878C218.538 245.995 218.525 246.881 218.497 247.534C218.477 247.837 218.438 248.139 218.381 248.436Z" fill="#1D1D1B"/>
<path d="M285.881 240.292C285.881 240.402 272.908 240.497 256.869 240.497C240.831 240.497 227.851 240.402 227.851 240.292C227.851 240.181 240.824 240.086 256.869 240.086C272.915 240.086 285.881 240.181 285.881 240.292Z" fill="#1D1D1B"/>
<path d="M275.346 169.834C275.346 169.953 265.138 170.039 252.541 170.039C239.943 170.039 229.736 169.953 229.736 169.834C229.736 169.716 239.978 169.629 252.541 169.629C265.104 169.629 275.346 169.724 275.346 169.834Z" fill="#1D1D1B"/>
<path d="M246.314 210.237C246.314 210.355 242.183 210.442 237.083 210.442C231.982 210.442 227.851 210.355 227.851 210.237C227.851 210.119 231.982 210.032 237.083 210.032C242.183 210.032 246.314 210.127 246.314 210.237Z" fill="#1D1D1B"/>
<path d="M292.504 1.04069C292.504 1.15117 277.974 1.24586 260.058 1.24586C242.142 1.24586 227.605 1.15117 227.605 1.04069C227.605 0.930213 242.135 0.835518 260.058 0.835518C277.981 0.835518 292.504 0.930213 292.504 1.04069Z" fill="#1D1D1B"/>
<path d="M437.868 340.944C437.868 341.054 343.644 341.149 227.462 341.149C111.28 341.149 17.043 341.054 17.043 340.944C17.043 340.834 111.267 340.739 227.462 340.739C343.658 340.739 437.868 340.834 437.868 340.944Z" fill="#1D1D1B"/>
<path d="M157.727 57.2344L162.015 48.4737C159.36 43.4823 158.412 37.5211 159.36 31.762C160.307 26.0029 163.08 20.8624 167.135 17.3511C171.189 13.8397 176.23 12.2114 181.269 12.7863C186.307 13.3612 190.977 16.0977 194.362 20.4578C197.746 24.818 199.6 30.4864 199.558 36.3489C199.517 42.2113 197.583 47.8438 194.137 52.139C190.691 56.4343 185.983 59.0816 180.937 59.5607C175.892 60.0398 170.874 58.3159 166.87 54.728L157.727 57.2344Z" fill="#FEFEFE"/>
<path d="M157.727 57.2352L166.897 54.8631H167.02L166.945 54.7445L166.829 54.871C169.651 57.4194 173.006 59.0563 176.552 59.6151C177.614 59.7869 178.688 59.8504 179.761 59.8048C180.314 59.8048 180.874 59.7574 181.447 59.7021L183.154 59.4016C185.878 58.7981 188.466 57.5554 190.759 55.75C193.053 53.9445 195.002 51.6146 196.489 48.9037C197.975 46.1927 198.967 43.1581 199.403 39.9867C199.838 36.8153 199.709 33.5742 199.022 30.4629C198.26 26.886 196.768 23.5727 194.673 20.8008C192.55 17.958 189.872 15.7432 186.862 14.341C183.973 13.0188 180.865 12.4649 177.767 12.7202C174.838 12.9522 171.989 13.9295 169.423 15.5824C164.817 18.559 161.374 23.4695 159.803 29.3006C159.174 31.7796 158.877 34.3554 158.922 36.9385C159.03 41.0607 160.078 45.0764 161.961 48.5773V48.4824L157.741 57.2905L162.097 48.5931V48.5456V48.4982C160.26 45.0122 159.245 41.0289 159.154 36.9464C159.123 34.3937 159.427 31.8504 160.056 29.4034C161.602 23.6337 165.005 18.7733 169.56 15.8275C172.082 14.2152 174.879 13.2625 177.753 13.0364C180.802 12.7793 183.861 13.3198 186.704 14.6178C189.665 15.9893 192.3 18.1576 194.393 20.9432C196.452 23.6659 197.919 26.9189 198.674 30.4313C199.404 33.7955 199.487 37.3042 198.919 40.71C198.372 43.8255 197.281 46.7788 195.714 49.3891C194.147 51.9994 192.136 54.2119 189.804 55.891C187.738 57.3805 185.458 58.4277 183.072 58.9826L181.386 59.283C180.826 59.3383 180.266 59.3542 179.72 59.3937C178.661 59.4484 177.601 59.3902 176.552 59.2197C173.037 58.6873 169.706 57.0889 166.897 54.5864L166.392 54.1357L166.781 54.7129L166.829 54.5627L157.727 57.2352Z" fill="#1D1D1B"/>
<path d="M169.116 37.5871L171.95 34.3058L177.412 39.9275L188.138 27.9804L190.767 31.2538L177.009 46.2529L169.116 37.5871Z" fill="#57A40A"/>
<path d="M95.0692 301.919L79.1096 280.279C79.1096 280.279 89.8947 257.299 103.763 239.27C108.526 233.078 114.14 228.048 114.14 225.548C114.14 224.09 112.178 216.324 108.222 188.652C108.222 188.652 104.553 176.686 102.921 169.94C102.175 166.858 103.286 155.52 103.286 155.52L134.015 155.247C136.448 168.648 147.322 222.946 145.374 234.01C143.199 246.36 95.0692 301.919 95.0692 301.919Z" fill="#AD6359"/>
<path opacity="0.05" d="M145.376 234.008C143.9 242.384 121.292 270.636 106.886 287.946L97.083 248.622C99.1992 245.452 101.435 242.295 103.76 239.269C108.524 233.079 114.143 228.045 114.143 225.549C114.143 224.091 112.177 216.327 108.219 188.652C108.219 188.652 104.555 176.686 102.923 169.939C102.176 166.858 103.284 155.518 103.284 155.518L134.013 155.25C136.446 168.646 147.325 222.949 145.376 234.008Z" fill="black"/>
<path d="M95.3059 339.596C93.8753 339.001 61.5792 309.435 60.9728 307.41C60.7306 306.646 84.1663 270.289 84.1663 270.289L104.008 290.316L89.4349 313.272C89.4349 313.272 97.397 330.951 97.8612 333.258C98.3181 335.552 96.733 340.198 95.3059 339.596Z" fill="#AD6359"/>
<path d="M95.3035 339.597C93.877 339.004 61.5823 309.434 60.9709 307.407C60.863 307.076 65.3405 299.849 70.3932 291.857L91.0898 310.675L89.4355 313.275C89.4355 313.275 97.3953 330.949 97.8629 333.26C98.3184 335.549 96.7361 340.197 95.3035 339.597Z" fill="#EBEBEB"/>
<path d="M92.6497 320.245C92.5841 320.141 92.5585 320.073 92.573 320.04C92.573 320.04 92.6034 320.113 92.6497 320.245Z" fill="#DC7B04"/>
<path d="M95.3718 340.319C93.9238 339.704 61.2543 309.508 60.6407 307.45C60.4046 306.671 63.8766 300.379 68.7989 294.384L89.9256 313.925C89.9256 313.925 97.5293 331.552 97.9915 333.892C98.4469 336.225 96.8198 340.935 95.3718 340.319Z" fill="#DC7B04"/>
<path d="M95.9532 338.383C90.5849 333.167 68.5045 312.71 62.8534 308.022C62.8075 307.984 62.7833 308.019 62.8258 308.062C68.0487 313.366 90.2723 333.617 95.8815 338.486C95.9997 338.589 96.0667 338.493 95.9532 338.383Z" fill="#1D1D1B"/>
<path d="M96.8343 330.597C95.578 329.336 93.8132 328.872 92.4838 329.108C91.2062 329.334 89.7846 329.998 88.9108 331.341C88.8857 331.379 88.9452 331.436 88.9771 331.401C91.0116 329.225 94.4732 328.861 96.7793 330.676C96.8258 330.713 96.8772 330.64 96.8343 330.597Z" fill="#1D1D1B"/>
<path d="M91.2021 316.144C89.0345 314.083 85.8717 312.624 83.0695 313.428C82.9608 313.459 83.001 313.636 83.0929 313.657C85.8952 314.314 88.3902 315.179 91.0231 316.489C91.2087 316.582 91.3573 316.292 91.2021 316.144Z" fill="#1D1D1B"/>
<path d="M92.3647 318.468C90.1973 316.407 87.0345 314.948 84.2319 315.751C84.1235 315.782 84.1636 315.96 84.2556 315.981C87.0575 316.637 89.5528 317.503 92.1857 318.813C92.3712 318.905 92.5198 318.615 92.3647 318.468Z" fill="#1D1D1B"/>
<path d="M93.5267 320.79C91.3591 318.729 88.1962 317.271 85.394 318.074C85.2853 318.105 85.3254 318.282 85.4176 318.304C88.2195 318.96 90.7146 319.825 93.3476 321.136C93.5331 321.228 93.6819 320.938 93.5267 320.79Z" fill="#1D1D1B"/>
<path d="M94.689 323.113C92.5216 321.052 89.3586 319.593 86.5562 320.397C86.4478 320.428 86.4877 320.605 86.5798 320.627C89.382 321.283 91.8771 322.148 94.51 323.459C94.6957 323.551 94.8441 323.261 94.689 323.113Z" fill="#1D1D1B"/>
<path d="M68.4271 303.327C65.9623 301.062 62.8986 305.466 65.3677 307.735C67.8328 309.999 70.8964 305.596 68.4271 303.327Z" fill="#FEFEFE"/>
<path d="M98.27 311.604C97.8997 309.52 95.7795 309.262 94.3279 309.729C91.9769 310.485 89.4734 312.276 87.833 314.337C87.7928 314.388 87.8131 314.442 87.8512 314.472C87.7717 314.696 87.8514 315.019 88.1033 315.04C90.5311 315.241 93.1051 315.801 95.5139 315.139C96.9203 314.752 98.6203 313.575 98.27 311.604ZM91.838 314.478C90.6419 314.413 89.4559 314.28 88.258 314.266C89.527 313.371 90.7557 312.418 92.1025 311.671C92.745 311.315 93.4109 310.963 94.091 310.71C95.1489 310.317 98.7723 310.198 97.0744 313.143C96.1384 314.767 93.2638 314.556 91.838 314.478Z" fill="#1D1D1B"/>
<path d="M81.7344 310.238C83.4074 312.339 85.8125 313.534 87.9214 314.933C88.1402 315.078 88.3633 314.861 88.4067 314.624C88.4528 314.624 88.4963 314.592 88.4875 314.524C88.1319 311.76 86.9302 308.663 85.3507 306.521C84.3754 305.199 82.4938 304.046 81.1723 305.534C79.9224 306.941 80.7578 309.011 81.7344 310.238ZM81.4134 307.58C81.4409 304.046 84.3843 306.479 85.0694 307.487C85.5099 308.134 85.8901 308.855 86.2487 309.564C87.0006 311.051 87.5546 312.633 88.1701 314.192C87.1709 313.432 86.1239 312.777 85.1011 312.06C83.8823 311.206 81.3982 309.528 81.4134 307.58Z" fill="#1D1D1B"/>
<path d="M103.283 155.518C103.283 155.518 102.238 168.428 102.238 170.159C102.238 171.889 106.562 187.796 107.307 188.011C108.052 188.226 121.974 189.126 126.546 188.711C131.119 188.295 140.746 186.495 140.987 185.526C141.227 184.557 134.012 155.25 134.012 155.25L103.283 155.518Z" fill="#1D1D1B"/>
<path d="M140.779 184.052C139.911 184.401 138.384 184.843 135.655 185.401C132.427 186.075 128.584 186.675 126.102 186.899C125.204 186.983 123.96 187.016 122.519 187.016C117.308 187.016 109.543 186.575 106.51 186.292C106.416 186.025 106.315 185.734 106.213 185.417C109.398 185.734 121.535 186.483 126.044 186.067C130.582 185.65 138.261 184.193 140.62 183.261C140.678 183.544 140.736 183.81 140.779 184.052Z" fill="#FEFEFE"/>
<path opacity="0.1" d="M134.013 155.25L133.166 187.758C130.756 188.199 128.288 188.557 126.544 188.707C121.977 189.123 108.052 188.224 107.307 188.007C106.561 187.799 102.241 171.887 102.241 170.155C102.241 168.431 103.283 155.517 103.283 155.517L134.013 155.25Z" fill="black"/>
<path d="M102.56 155.487C102.56 155.487 98.4286 165.918 98.1304 173.35C97.8322 180.781 98.9196 188.002 98.9196 188.002C98.9196 188.002 101.871 209.352 105.127 231.374L134.013 230.881C134.013 230.881 130.483 185.522 128.76 178.29C128.76 178.29 131.828 172.544 132.323 170.643C133.809 164.941 133.291 155.247 133.291 155.247L102.56 155.487Z" fill="#AD6359"/>
<path d="M102.56 155.487C102.56 155.487 97.5425 167.511 97.0827 173.484C96.623 179.458 97.6889 189.241 98.0786 189.611C98.4682 189.98 111.625 192.172 113.475 191.364C114.446 190.941 116.057 184.811 116.057 184.811C116.057 184.811 117.69 191.211 118.785 191.364C120.049 191.542 130.646 190.257 131.003 189.611C131.36 188.965 129.595 177.889 129.595 177.889C129.595 177.889 132.885 172.535 133.446 170.966C134.008 169.397 134.015 155.247 134.015 155.247L102.56 155.487Z" fill="#1D1D1B"/>
<path d="M131.009 188.34C127.484 189.223 120.688 190.122 119.856 190.006C118.691 189.848 116.925 184.285 115.948 180.863C115.036 184.185 113.407 189.581 112.409 189.997C112.126 190.122 111.591 190.181 110.896 190.181C107.777 190.181 101.278 189.115 97.7747 188.315C97.7313 188.049 97.6879 187.758 97.6516 187.433C101.618 188.332 110.672 189.856 112.163 189.223C112.756 188.89 114.406 183.844 115.593 179.356L115.933 178.074L116.288 179.356C117.526 183.894 119.284 188.94 119.95 189.181C121.144 189.348 127.795 188.274 130.937 187.524C130.965 187.824 130.994 188.099 131.009 188.34Z" fill="#FEFEFE"/>
<path d="M123.898 259.585C129.654 259.585 134.321 254.217 134.321 247.594C134.321 240.972 129.654 235.603 123.898 235.603C118.142 235.603 113.476 240.972 113.476 247.594C113.476 254.217 118.142 259.585 123.898 259.585Z" fill="#1D1D1B"/>
<path d="M126.989 250.371C122.033 250.371 124.249 239.033 118.398 237.412C119.995 236.261 121.879 235.601 123.895 235.601C125.26 235.601 126.558 235.899 127.751 236.452C127.757 236.446 127.757 236.452 127.762 236.459C127.828 236.509 127.889 236.56 127.955 236.617C133.054 241.054 131.077 250.371 126.989 250.371Z" fill="#37474F"/>
<path d="M121.779 259.339C117.979 258.437 114.929 255.145 113.874 250.886C114.553 249.952 115.437 249.38 116.448 249.38C120.078 249.38 119.862 255.443 121.779 259.339Z" fill="#37474F"/>
<path d="M101.858 208.896C101.858 208.896 100.888 210.516 101.372 213.217C102.453 219.255 104.468 231.373 105.077 234.712C105.865 239.032 109.901 239.14 121.542 239.14C133.184 239.14 134.123 236.44 134.217 233.524C134.29 231.265 134.217 218.34 133.966 212.353C133.894 210.61 131.936 208.896 131.936 208.896H101.858Z" fill="#1D1D1B"/>
<path d="M109.124 216.954C109.426 219.582 106.961 219.818 106.622 217.304C106.425 214.766 108.871 214.317 109.124 216.954ZM109.124 216.954C108.852 215.009 107.107 215.088 107.339 217.204C107.552 219.325 109.266 218.919 109.124 216.954Z" fill="#37474F"/>
<path d="M110.586 230.783C110.888 233.411 108.424 233.647 108.084 231.133C107.887 228.595 110.333 228.146 110.586 230.783ZM110.586 230.783C110.314 228.838 108.569 228.917 108.802 231.032C109.015 233.154 110.728 232.748 110.586 230.783Z" fill="#37474F"/>
<path d="M109.6 245.571C108.674 246.194 106.156 248.924 105.965 251.398C105.213 261.121 110.44 299.95 111.049 302.04C111.658 304.131 113.585 305.822 113.585 305.822H134.152C134.152 305.822 135.821 304.378 135.882 300.08C135.943 295.783 136.947 256.88 136.642 253.195C136.241 248.334 133.843 244.924 133.192 245.571C132.077 246.678 133.531 254.956 131.053 254.956C127.716 254.956 125.596 245.727 122.778 245.727C114.483 245.727 109.6 245.571 109.6 245.571Z" fill="#DC7B04"/>
<path opacity="0.5" d="M109.6 245.571C108.674 246.194 106.156 248.924 105.965 251.398C105.213 261.121 110.44 299.95 111.049 302.04C111.658 304.131 113.585 305.822 113.585 305.822H134.152C134.152 305.822 135.821 304.378 135.882 300.08C135.943 295.783 136.947 256.88 136.642 253.195C136.241 248.334 133.843 244.924 133.192 245.571C132.077 246.678 133.531 254.956 131.053 254.956C127.716 254.956 125.596 245.727 122.778 245.727C114.483 245.727 109.6 245.571 109.6 245.571Z" fill="#FEFEFE"/>
<path d="M117.8 307.638C117.711 307.592 115.617 306.473 114.837 303.157C114.424 301.402 112.275 281.776 111.054 267.276L112.495 267.115C113.685 281.241 115.843 301.057 116.234 302.723C116.837 305.286 118.379 306.111 118.394 306.119L117.8 307.638Z" fill="#DC7B04"/>
<path d="M132.076 276.902C129.944 276.902 128.419 274.054 127.074 271.541C126.236 269.976 125.194 268.03 124.527 268.03H106.703V266.364H124.527C126.002 266.364 127.069 268.358 128.306 270.668C129.453 272.809 130.752 275.237 132.076 275.237C132.849 275.237 133.413 271.973 133.683 270.403C134.103 267.971 134.38 266.364 135.488 266.364H136.575V268.03H135.693C135.491 268.479 135.269 269.764 135.103 270.728C134.604 273.622 134.038 276.902 132.076 276.902Z" fill="#DC7B04"/>
<path d="M117.86 283.086C118.158 285.665 115.738 285.893 115.404 283.429C115.212 280.941 117.613 280.498 117.86 283.086ZM117.86 283.086C117.594 281.19 115.894 281.262 116.122 283.329C116.329 285.401 117.997 285.001 117.86 283.086Z" fill="#DC7B04"/>
<path d="M119.291 296.615C119.589 299.194 117.168 299.422 116.835 296.958C116.643 294.47 119.044 294.027 119.291 296.615ZM119.291 296.615C119.024 294.719 117.325 294.792 117.552 296.858C117.76 298.93 119.428 298.53 119.291 296.615Z" fill="#DC7B04"/>
<path opacity="0.2" d="M134.375 292.828C133.342 298.758 126.171 298.198 124.254 293.432C122.332 288.671 116.2 258.17 120.415 251.42C121.31 249.99 123.293 248.815 125.525 248.262C127.199 250.995 128.867 254.954 131.055 254.954C132.574 254.954 132.613 251.846 132.673 249.183C133.441 249.73 134.082 250.461 134.524 251.42C137.109 257.007 135.408 286.898 134.375 292.828Z" fill="#FEFEFE"/>
<path d="M132.702 305.823H114.527V310.473H132.702V305.823Z" fill="#1D1D1B"/>
<path d="M128.069 305.823H123.778V310.473H128.069V305.823Z" fill="#37474F"/>
<path d="M131.043 305.823H129.354V310.473H131.043V305.823Z" fill="#37474F"/>
<path d="M126.935 328.226H120.295L119.157 310.473H128.073L126.935 328.226Z" fill="#1D1D1B"/>
<path d="M125.924 328.227H123.614L122.477 310.473H127.061L125.924 328.227Z" fill="#37474F"/>
<path d="M157.58 340.266C156.148 340.845 114.874 341.362 113.298 340.231C113.034 340.052 112.153 331.218 111.224 321.178H138.274L138.586 324.109C138.586 324.109 154.464 332.039 156.088 333.494C157.7 334.942 159.019 339.693 157.58 340.266Z" fill="#EBEBEB"/>
<path d="M146.011 327.184C145.903 327.151 145.846 327.116 145.839 327.081C145.839 327.081 145.902 327.115 146.011 327.184Z" fill="#DC7B04"/>
<path d="M158.031 340.778C156.57 341.352 114.664 341.656 113.06 340.505C112.449 340.073 111.02 332.644 111.549 324.419L139.326 324.261C139.326 324.261 154.894 332.411 156.536 333.89C158.17 335.369 159.492 340.204 158.031 340.778Z" fill="#DC7B04"/>
<path d="M157.419 338.854C150.393 338.707 122.044 338.875 115.089 339.342C115.033 339.346 115.033 339.39 115.09 339.393C122.051 339.713 150.398 339.282 157.42 338.987C157.568 338.98 157.567 338.857 157.419 338.854Z" fill="#1D1D1B"/>
<path d="M153.832 332.176C152.165 332.11 150.542 333.032 149.64 334.179C148.773 335.283 148.035 336.83 148.094 338.506C148.096 338.554 148.173 338.555 148.179 338.505C148.563 335.34 151.048 332.543 153.832 332.277C153.889 332.272 153.889 332.178 153.832 332.176Z" fill="#1D1D1B"/>
<path d="M141.534 325.056C138.722 325.031 135.468 326.197 133.736 328.855C133.669 328.958 133.797 329.066 133.88 329.016C136.414 327.49 138.824 326.349 141.584 325.454C141.779 325.391 141.735 325.058 141.534 325.056Z" fill="#1D1D1B"/>
<path d="M143.709 326.014C140.898 325.989 137.644 327.155 135.911 329.813C135.844 329.916 135.973 330.024 136.056 329.974C138.589 328.448 140.999 327.307 143.76 326.412C143.955 326.348 143.911 326.015 143.709 326.014Z" fill="#1D1D1B"/>
<path d="M145.886 326.971C143.074 326.946 139.82 328.112 138.087 330.77C138.02 330.873 138.149 330.981 138.232 330.931C140.765 329.405 143.175 328.265 145.936 327.369C146.131 327.306 146.087 326.973 145.886 326.971Z" fill="#1D1D1B"/>
<path d="M148.062 327.929C145.25 327.904 141.996 329.07 140.264 331.728C140.196 331.831 140.325 331.939 140.408 331.889C142.941 330.363 145.351 329.222 148.112 328.327C148.307 328.264 148.263 327.931 148.062 327.929Z" fill="#1D1D1B"/>
<path d="M116.837 331.654C113.683 331.688 113.722 337.328 116.882 337.295C120.037 337.261 119.997 331.621 116.837 331.654Z" fill="#FEFEFE"/>
<path d="M144.525 316.402C143.095 315.054 141.309 316.394 140.439 317.81C139.03 320.104 138.071 323.311 137.93 326.101C137.926 326.169 137.972 326.197 138.018 326.192C138.079 326.424 138.318 326.617 138.525 326.45C140.518 324.842 142.822 323.408 144.327 321.145C145.206 319.823 145.878 317.676 144.525 316.402ZM141.113 323.302C140.15 324.12 139.157 324.878 138.22 325.737C138.714 324.122 139.144 322.49 139.778 320.933C140.081 320.19 140.405 319.433 140.794 318.743C141.399 317.67 144.143 314.946 144.442 318.464C144.607 320.403 142.262 322.327 141.113 323.302Z" fill="#1D1D1B"/>
<path d="M130.95 327.351C133.401 327.765 135.922 326.945 138.325 326.499C138.574 326.452 138.628 326.122 138.532 325.907C138.567 325.873 138.584 325.817 138.54 325.771C136.747 323.885 134.116 322.355 131.716 321.842C130.234 321.525 128.142 321.997 127.934 324.11C127.736 326.109 129.52 327.108 130.95 327.351ZM129.243 325.522C127.325 322.761 130.943 322.511 132.028 322.795C132.724 322.977 133.415 323.26 134.082 323.55C135.481 324.157 136.778 324.981 138.111 325.743C136.919 325.879 135.748 326.132 134.561 326.319C133.147 326.541 130.3 327.044 129.243 325.522Z" fill="#1D1D1B"/>
<path d="M126.041 124.957C130.162 121.909 147.733 93.3979 149.323 88.9187C149.961 87.1212 137.921 78.6921 137.159 80.5742C136.331 82.6212 125.617 111.582 122.242 120.259C120.327 125.183 122.809 127.346 126.041 124.957Z" fill="#AD6359"/>
<path opacity="0.1" d="M134.864 113.298C131.063 119.036 127.596 123.806 126.042 124.958C122.81 127.345 120.328 125.183 122.241 120.261C124.567 114.283 130.375 98.6795 134.034 88.8784L134.864 113.298Z" fill="black"/>
<path d="M145.903 92.1474C144.13 92.1389 136.759 81.613 136.759 81.613C137.497 79.2447 138.965 77.1735 139.291 76.6777C140.463 74.9007 141.169 72.3215 141.957 68.3003C142.624 64.9242 143.279 59.8231 144.87 60.1682C147.192 60.6634 147.038 67.2279 146.75 70.99C148.376 70.1432 149.844 69.5899 150.803 69.6284C153.985 69.7563 159.597 83.7422 157.127 86.1514C150.636 92.4823 147.751 92.1562 145.903 92.1474Z" fill="#AD6359"/>
<path d="M146.528 71.8271C145.873 73.675 148.14 73.5051 148.14 73.5051C148.14 73.5051 144.927 74.6545 144.892 76.8601C144.864 78.9858 147.597 78.6696 147.793 78.65C147.623 78.7126 144.695 79.8574 144.858 82.0778C145.03 84.3853 147.726 83.526 147.9 83.4696C147.756 83.5864 145.875 85.1684 146.333 86.8227C147.12 89.6652 152.026 85.7729 154.073 86.3087C154.073 86.3087 155.084 87.8375 155.095 87.9591C155.095 87.9591 158.188 85.5973 158.897 83.7152C159.493 82.1373 157.823 81.4166 157.823 81.4166C157.823 81.4166 159.46 80.452 159.379 78.6993C159.336 77.7996 158.046 77.0792 158.046 77.0792C158.046 77.0792 159.329 76.244 159.173 74.6899C159.052 73.4493 157.777 72.9197 157.777 72.9197C157.777 72.9197 158.686 71.4601 158.204 70.239C157.237 67.7737 147.933 67.8718 146.528 71.8271Z" fill="#AD6359"/>
<path d="M157.587 72.7998C157.618 72.8023 157.627 72.7532 157.596 72.7448C154.529 71.9184 150.94 72.091 148.017 73.4984C147.921 73.5446 147.945 73.7438 148.059 73.7161C151.312 72.9277 154.255 72.5264 157.587 72.7998Z" fill="#1D1D1B"/>
<path d="M158.093 77.057C158.129 77.0604 158.134 76.9912 158.096 76.9813C154.932 76.1491 150.893 76.4717 147.691 78.5513C147.581 78.6229 147.545 78.8134 147.676 78.7424C149.897 77.5452 155.094 76.793 158.093 77.057Z" fill="#1D1D1B"/>
<path d="M147.72 83.7033C150.858 81.8457 154.198 81.3322 157.694 81.3722C157.739 81.3728 157.735 81.2987 157.697 81.2864C155.992 80.7306 153.761 80.9723 152.039 81.3294C150.39 81.6716 148.961 82.3613 147.664 83.5769C147.613 83.6242 147.653 83.743 147.72 83.7033Z" fill="#1D1D1B"/>
<path d="M148.09 73.4691C147.975 73.5249 148.172 73.657 148.059 73.7167C147.581 73.9681 144.822 75.7642 145.062 77.0359C145.256 78.0544 146.581 78.4603 147.143 78.3867L148.555 78.2017L147.284 78.9409C146.729 79.2635 146.183 79.694 145.752 80.2042C145.321 80.7118 145.009 81.3496 145.057 81.9908C145.095 82.6619 145.445 83.1883 146.01 83.3174C146.564 83.4714 147.23 83.3641 147.807 83.1633L149.42 82.6021L148.062 83.7343C147.694 84.0412 147.334 84.4227 147.044 84.8326C146.757 85.2442 146.525 85.7153 146.495 86.1883C146.463 86.6519 146.652 87.1407 146.991 87.3546C147.345 87.5856 147.838 87.5948 148.305 87.5509C149.258 87.4478 150.205 87.1076 151.157 86.8244C151.634 86.6782 152.112 86.5304 152.597 86.4093C153.078 86.2993 153.586 86.1773 154.073 86.3083C153.58 86.2366 153.101 86.4175 152.631 86.5616C152.16 86.7232 151.696 86.911 151.231 87.0987C150.3 87.4743 149.359 87.8401 148.351 88.0158C147.85 88.0824 147.304 88.1345 146.769 87.8381C146.218 87.5271 145.938 86.8071 145.979 86.1498C146.018 85.4789 146.305 84.9191 146.621 84.4467C146.948 83.9722 147.313 83.5707 147.738 83.2043L147.992 83.7751C147.312 84.0186 146.619 84.1612 145.871 83.9814C145.504 83.8909 145.125 83.6532 144.877 83.2802C144.625 82.9069 144.512 82.4715 144.487 82.0326C144.439 81.1201 144.878 80.3277 145.367 79.7701C145.871 79.1974 146.441 78.7647 147.071 78.4108L147.213 78.965C146.496 79.0306 144.972 78.7626 144.498 77.2264C144.14 75.1179 147.466 73.682 148.09 73.4691Z" fill="#1D1D1B"/>
<path d="M148.14 73.505C147.766 73.4381 147.408 73.333 147.118 73.1637C146.826 72.9964 146.653 72.7131 146.637 72.4047C146.616 72.095 146.763 71.7324 146.94 71.391C147.127 71.0519 147.34 70.7065 147.571 70.3597C147.221 70.5374 146.902 70.7932 146.638 71.1271C146.38 71.4575 146.137 71.887 146.153 72.4421C146.179 72.7158 146.267 72.9707 146.42 73.1743C146.578 73.372 146.777 73.5027 146.978 73.5673C147.38 73.7047 147.781 73.651 148.14 73.505Z" fill="#1D1D1B"/>
<path d="M127.7 102.154L136.059 114.867C136.059 114.867 130.161 122.419 125.616 125.788C122.147 128.359 120.635 126.312 121.176 123.225C122.98 112.931 127.7 102.154 127.7 102.154Z" fill="#455A64"/>
<path d="M133.972 115.986C132.564 114.133 128.872 108.98 126.853 105.271C126.841 105.249 126.909 105.186 126.924 105.206C129.009 108 132.811 113.906 134.074 115.892C134.097 115.929 133.999 116.02 133.972 115.986Z" fill="#1D1D1B"/>
<path opacity="0.1" d="M132.814 118.756C130.735 121.126 127.991 124.027 125.617 125.789C122.147 128.359 120.636 126.312 121.176 123.224C121.711 120.18 122.499 117.092 123.345 114.256L132.814 118.756Z" fill="black"/>
<path d="M115.538 86.869C115.538 86.869 112.913 83.6503 110.482 84.8607C108.051 86.0712 108.141 88.9716 106.698 89.8338C105.255 90.6958 101.884 91.4409 100.743 93.7328C99.6024 96.0246 101.152 99.204 100.699 100.507C100.247 101.809 97.8329 102.911 97.9862 105.665C98.1643 108.864 100.325 109.98 100.679 111.53C101.266 114.111 100.251 116.779 102.356 119.248C104.622 121.905 107.127 120.856 109.072 121.251C110.939 121.63 112.22 124.868 115.848 123.708C119.476 122.548 119.702 119.706 121.536 118.003C123.369 116.3 126.807 116.671 128.566 114.143C130.325 111.615 128.941 109.503 129.203 108.007C129.465 106.512 131.247 105.768 131.317 103.291C131.387 100.814 129.044 99.5163 128.659 98.7045C128.001 97.3162 128.693 96.154 127.771 94.1712C126.848 92.1883 124.1 91.6192 123.457 91.1547C121.91 90.039 122.088 86.3798 119.898 85.6658C117.116 84.7589 115.538 86.869 115.538 86.869Z" fill="#1D1D1B"/>
<path d="M100.318 95.8893C100.924 98.7867 100.984 99.8872 99.0122 102.002C97.7674 103.529 97.1039 105.688 97.9925 107.617C98.5569 109.121 100.058 109.937 100.626 111.542C100.776 112.054 100.692 112.769 100.692 113.3C100.66 114.39 100.693 115.471 100.928 116.51C101.149 117.568 101.645 118.517 102.357 119.248C100.626 118.037 100.165 115.473 100.137 113.304C100.128 113.026 100.105 112.354 100.089 112.09C100.026 111.493 99.652 111.077 99.2486 110.61C96.5666 108.121 95.9429 104.451 98.6062 101.565C99.2607 100.8 100.082 100.211 100.319 99.1287C100.537 98.1239 100.343 96.9802 100.318 95.8893Z" fill="#1D1D1B"/>
<path d="M126.887 115.627C128.993 114.211 130.319 112.93 129.659 109.904C129.581 109.239 129.376 108.516 129.619 107.813C130.042 106.848 130.763 106.087 131.117 105.168C131.439 104.459 131.474 103.761 131.353 102.936C131.214 101.329 129.954 100.239 128.921 99.0712C129.544 99.5204 130.148 99.992 130.723 100.55C131.913 101.707 132.4 103.84 131.74 105.497C131.359 106.517 130.706 107.257 130.275 108.142C130.224 108.257 130.212 108.385 130.214 108.581C130.793 112.529 130.335 114.221 126.887 115.627Z" fill="#1D1D1B"/>
<path d="M134.85 156.745C134.85 156.745 135.115 144.814 133.586 138.779C133.586 138.779 135.993 131.979 134.796 129.57C133.501 126.965 127.174 117.998 123.108 114.673C119.77 111.943 115.517 113.408 113.623 117.165C110.313 123.733 110.056 131.909 106.9 145.095C106.9 145.095 102.752 152.551 101.157 156.707L134.85 156.745Z" fill="#455A64"/>
<path d="M128.922 137.292C127.587 137.529 126.248 137.835 124.951 138.364C124.305 138.627 123.673 138.932 123.041 139.26C122.726 139.423 122.41 139.569 122.091 139.714C121.764 139.862 121.412 140.002 121.068 140.027C121.038 140.029 121.039 140.098 121.07 140.098C121.405 140.104 121.726 140.108 122.059 140.047C122.375 139.989 122.689 139.881 122.997 139.76C123.654 139.502 124.301 139.199 124.956 138.932C126.276 138.392 127.596 137.853 128.941 137.456C129.003 137.438 128.985 137.281 128.922 137.292Z" fill="#1D1D1B"/>
<path d="M132.264 138.979C131.162 138.839 130.038 138.775 128.932 138.822C128.376 138.846 127.825 138.917 127.272 139.01C127.008 139.054 126.745 139.105 126.482 139.162C126.193 139.223 125.909 139.343 125.62 139.399C125.59 139.404 125.591 139.475 125.622 139.47C125.896 139.43 126.176 139.457 126.452 139.44C126.728 139.424 127.005 139.404 127.282 139.387C127.836 139.354 128.39 139.329 128.944 139.288C130.053 139.205 131.157 139.14 132.268 139.114C132.328 139.112 132.322 138.986 132.264 138.979Z" fill="#1D1D1B"/>
<path d="M116.742 115.122C116.838 115.906 122.262 122.508 125.878 122.109C127.397 121.941 124.17 115.161 124.17 115.161L126.059 108.363L118.924 102.057C118.924 102.057 116.705 114.789 116.742 115.122Z" fill="#AD6359"/>
<path d="M126.058 108.362L124.225 114.961C123.355 114.706 119.526 113.207 118.095 106.847C118.542 104.255 118.924 102.058 118.924 102.058L126.058 108.362Z" fill="#1D1D1B"/>
<path d="M116.742 115.122C116.958 116.357 128.074 128.518 129.023 128.391C129.971 128.264 125.882 117.568 124.17 115.161L116.742 115.122Z" fill="#AD6359"/>
<path d="M128.468 92.1573C135.431 100.671 131.786 106.43 130.188 108.156C128.738 109.722 123.628 114.844 115.938 107.204C108.247 99.5635 109.486 93.1475 112.638 89.3633C115.789 85.5789 121.505 83.6437 128.468 92.1573Z" fill="#AD6359"/>
<path d="M117.633 108.596C118.541 105.901 116.974 103.839 116.974 103.839C118.186 100.596 117.778 97.5551 117.739 97.244C117.835 97.4757 118.529 99.1446 118.859 100.008C122.744 93.822 120.767 88.0623 120.767 88.0623C123.754 88.145 124.99 88.9355 125.676 89.2543C125.676 89.2543 122.954 85.8813 119.617 85.2793C115.533 84.5408 113.473 87.7834 113.473 87.7834C113.473 87.7834 108.762 90.5429 108.86 97.2291C108.971 104.434 117.633 108.596 117.633 108.596Z" fill="#1D1D1B"/>
<path d="M121.706 95.178C121.356 96.4887 120.791 97.7339 120.129 98.8542C120.123 98.8637 120.112 98.8534 120.117 98.844C121.09 96.9535 121.621 94.843 121.59 92.636C121.578 91.7033 121.467 90.7811 121.255 89.8807C121.032 88.9394 120.705 87.8875 120.169 87.121C120.129 87.0627 120.207 86.9901 120.248 87.0483C120.814 87.8587 121.329 88.6132 121.644 89.6008C121.943 90.5383 122.096 91.5499 122.082 92.5492C122.07 93.4423 121.934 94.3239 121.706 95.178Z" fill="#1D1D1B"/>
<path d="M117.626 105.19C117.626 105.19 113.921 103.907 113.281 105.648C112.642 107.388 116.8 110.35 118.516 109.713C120.231 109.076 119.75 107.237 119.75 107.237L117.626 105.19Z" fill="#AD6359"/>
<path d="M114.491 106.463C114.468 106.48 114.488 106.518 114.512 106.51C115.739 106.099 116.909 106.646 117.958 107.362C117.41 107.218 116.884 107.343 116.683 108.14C116.673 108.182 116.726 108.205 116.748 108.175C117.064 107.735 117.391 107.561 117.889 107.678C118.242 107.761 118.582 107.962 118.91 108.131C119.019 108.187 119.134 107.999 119.026 107.918L119.002 107.9C118.089 106.515 115.858 105.444 114.491 106.463Z" fill="#1D1D1B"/>
<path d="M125.331 92.2842C125.134 92.4441 124.929 92.5539 124.72 92.6888C124.483 92.841 124.309 92.9903 124.027 92.9645C123.876 92.9509 123.734 92.7538 123.732 92.5839C123.727 92.1881 123.976 91.9189 124.254 91.7225C124.555 91.5089 124.835 91.4334 125.185 91.4866C125.525 91.5382 125.591 92.0733 125.331 92.2842Z" fill="#1D1D1B"/>
<path d="M120.358 97.7187C120.518 97.5108 120.636 97.2884 120.776 97.0642C120.933 96.8111 121.081 96.6281 121.091 96.3033C121.095 96.1291 120.941 95.9446 120.794 95.9234C120.453 95.8737 120.192 96.1285 119.992 96.4242C119.774 96.7454 119.678 97.0568 119.685 97.4631C119.692 97.857 120.147 97.9927 120.358 97.7187Z" fill="#1D1D1B"/>
<path d="M126.887 103.722C127.117 103.762 127.383 103.86 127.601 103.711C127.809 103.568 127.976 103.275 128.106 103.046C128.119 103.024 128.151 103.031 128.151 103.059C128.16 103.43 127.949 103.841 127.654 104.004C127.366 104.164 127.081 104.014 126.851 103.796C126.819 103.766 126.853 103.716 126.887 103.722Z" fill="#1D1D1B"/>
<path d="M127.567 99.2143C127.567 99.2143 128.332 100.04 128.64 100.479C128.669 100.52 128.59 100.625 128.467 100.754C128.462 100.762 128.461 100.768 128.452 100.768C127.864 101.515 126.998 101.878 126.146 101.626C126.089 101.607 126.106 101.517 126.16 101.512C126.96 101.47 127.592 101.063 128.197 100.52C128.139 100.373 126.847 99.1555 126.904 99.094C127.098 98.8798 127.623 98.6614 127.928 98.5149C126.378 96.7414 124.595 95.2684 123.075 93.4758C123.022 93.4108 123.093 93.3098 123.154 93.3549C125.119 94.7469 126.941 96.7426 128.582 98.5268C128.788 98.747 127.772 99.1471 127.567 99.2143Z" fill="#1D1D1B"/>
<path d="M128.182 100.882C128.182 100.882 128.236 101.704 127.931 102.324C127.819 102.554 127.664 102.755 127.438 102.882C126.975 103.144 126.665 102.755 126.478 102.345C126.323 102.009 126.254 101.655 126.254 101.655C126.254 101.655 127.251 101.699 128.182 100.882Z" fill="#1D1D1B"/>
<path d="M127.931 102.324C127.819 102.554 127.663 102.755 127.437 102.881C126.974 103.143 126.665 102.755 126.478 102.345C126.918 101.99 127.556 101.907 127.931 102.324Z" fill="#FF9BBC"/>
<path d="M127.456 94.8304C127.543 94.8518 127.627 94.8589 127.705 94.8463C127.839 94.8339 127.959 94.7621 128.044 94.6299C128.294 94.2445 128.098 93.7573 127.804 93.4045C127.783 93.3784 127.759 93.377 127.763 93.4106C127.804 93.7252 127.831 94.0695 127.64 94.2434C127.511 94.3621 127.318 94.3575 127.14 94.3676C127.263 94.5107 127.368 94.6668 127.456 94.8304Z" fill="#1D1D1B"/>
<path d="M127.519 94.5652C127.374 94.4427 127.194 94.3516 126.985 94.3282C126.776 94.3047 126.555 94.4151 126.403 94.58C126.245 94.7506 126.175 95.0393 126.21 95.2698C126.245 95.5004 126.326 95.6994 126.433 95.8673C126.5 95.9744 126.576 96.0704 126.655 96.1635C126.826 96.3579 127.022 96.5156 127.246 96.6C127.116 96.4662 127.002 96.318 126.905 96.1611C126.81 96.0127 126.731 95.8638 126.66 95.7091C126.517 95.3861 126.466 95.0386 126.647 94.8564C126.823 94.6467 127.099 94.6631 127.383 94.83C127.662 94.9915 127.929 95.2228 128.197 95.4652C128.037 95.1174 127.814 94.8043 127.519 94.5652Z" fill="#1D1D1B"/>
<path d="M122.466 99.8663C122.472 99.9677 122.466 100.065 122.444 100.152C122.414 100.303 122.335 100.428 122.209 100.506C121.842 100.737 121.451 100.444 121.189 100.059C121.169 100.032 121.172 100.004 121.2 100.012C121.465 100.104 121.757 100.184 121.934 99.9914C122.055 99.8621 122.078 99.6411 122.113 99.4406C122.218 99.6006 122.338 99.7426 122.466 99.8663Z" fill="#1D1D1B"/>
<path d="M122.227 99.8999C122.143 99.7173 122.09 99.4986 122.1 99.2576C122.109 99.0165 122.236 98.7805 122.399 98.6304C122.569 98.4755 122.827 98.4363 123.02 98.5093C123.214 98.5821 123.373 98.7024 123.503 98.8479C123.585 98.9397 123.657 99.0405 123.726 99.1438C123.869 99.3655 123.976 99.6114 124.017 99.8787C123.92 99.711 123.809 99.5604 123.688 99.4275C123.574 99.2988 123.457 99.1867 123.334 99.0847C123.077 98.8756 122.785 98.7675 122.602 98.9479C122.397 99.1184 122.372 99.4355 122.475 99.7822C122.574 100.123 122.735 100.461 122.905 100.8C122.629 100.568 122.391 100.269 122.227 99.8999Z" fill="#1D1D1B"/>
<path d="M115.134 124.773C112.496 124.075 76.2385 99.9752 75.399 97.1019C74.7585 94.9095 85.8485 79.329 87.362 81.0851C88.2821 82.1529 114.736 114.147 117.745 117.746C121.618 122.377 119.593 125.952 115.134 124.773Z" fill="#AD6359"/>
<path d="M85.1076 100.41C81.4747 101.781 68.2948 102.892 65.6573 102.444C63.0198 101.997 55.5111 100.077 55.6038 97.7179C55.6966 95.3589 57.934 95.7191 57.934 95.7191C57.934 95.7191 54.5668 94.2541 55.1561 91.9663C55.6266 90.1405 58.7989 90.4556 58.7989 90.4556C58.7989 90.4556 55.1819 88.6272 56.0192 86.4439C56.7822 84.4542 60.1275 85.7877 60.1275 85.7877C60.1275 85.7877 57.2358 83.905 58.2915 82.1516C59.5613 80.0421 64.5674 83.2977 67.5114 83.5405C68.18 83.5956 83.9873 80.9704 83.9873 80.9704L85.1076 100.41Z" fill="#AD6359"/>
<path d="M60.0878 85.5888C64.0544 87.5886 65.7451 88.2823 69.9027 88.0385C69.984 88.0335 70.0085 88.1714 69.9241 88.1854C65.8716 88.8504 63.8129 88.1926 59.978 85.788C59.7932 85.672 59.9034 85.4958 60.0878 85.5888Z" fill="#1D1D1B"/>
<path d="M58.8297 90.4227C62.8463 92.5141 64.9519 92.754 69.3229 92.8671C69.3849 92.8687 69.3889 92.9892 69.3263 92.9938C65.0304 93.2955 62.5147 93.2513 58.74 90.555C58.5692 90.4331 58.646 90.327 58.8297 90.4227Z" fill="#1D1D1B"/>
<path d="M58.1518 95.7244C62.1677 97.4264 64.4943 97.9343 68.7499 97.4175C68.8501 97.405 68.8752 97.5726 68.7754 97.596C64.4809 98.6087 61.5734 97.9996 58.12 95.8705C57.8843 95.7253 57.8992 95.6175 58.1518 95.7244Z" fill="#1D1D1B"/>
<path d="M88.5767 82.5406C88.5767 82.5406 85.1344 76.5066 77.968 78.0181C75.6233 78.5127 69.4643 74.0888 67.8137 75.483C65.96 77.0486 70.5571 81.8139 74.6337 83.2026C74.6337 83.2026 74.6789 91.2357 78.541 92.7836C79.3767 93.1185 83.9273 92.7803 84.658 91.9703L88.5767 82.5406Z" fill="#AD6359"/>
<path d="M75.0046 83.5136C74.9264 86.6413 75.8684 90.6216 78.1225 92.3562C78.1882 92.4071 78.1348 92.5218 78.0625 92.4812C75.4255 90.9984 74.297 86.4049 74.5149 83.6147C74.5567 83.0783 75.0249 82.7042 75.0046 83.5136Z" fill="#1D1D1B"/>
<path d="M105.282 99.9841L100.368 118.111C100.368 118.111 109.626 123.84 115.902 125.508C120.69 126.781 121.668 123.785 119.979 120.576C114.35 109.874 105.282 99.9841 105.282 99.9841Z" fill="#455A64"/>
<path d="M102.972 118.28C103.867 115.536 106.109 108.012 107.011 102.903C107.017 102.873 106.918 102.835 106.908 102.864C105.601 106.984 103.51 115.402 102.824 118.225C102.811 118.278 102.955 118.332 102.972 118.28Z" fill="#1D1D1B"/>
<path d="M106.044 121.305C108.928 122.308 111.807 123.773 114.603 125.048C111.615 124.293 108.784 122.853 106.044 121.305Z" fill="#1D1D1B"/>
<path d="M112.619 124.288C113.189 124.656 113.702 125.047 114.231 125.488C113.599 125.306 113.028 124.869 112.619 124.288Z" fill="#1D1D1B"/>
</svg>
