<svg width="251" height="250" viewBox="0 0 251 250" fill="none" xmlns="http://www.w3.org/2000/svg">
<g clip-path="url(#clip0_96_295)">
<path d="M250.5 191.2H0.5V191.325H250.5V191.2Z" fill="#7503A6"/>
<path d="M225.45 195.96H180V196.085H225.45V195.96Z" fill="#7503A6"/>
<path d="M166.11 194.605H153.665V194.73H166.11V194.605Z" fill="#7503A6"/>
<path d="M194.555 200.605H175.26V200.73H194.555V200.605Z" fill="#7503A6"/>
<path d="M38.05 199.765H26.73V199.89H38.05V199.765Z" fill="#7503A6"/>
<path d="M55.945 199.765H42.5V199.89H55.945V199.765Z" fill="#7503A6"/>
<path d="M113.075 197.655H89.655V197.78H113.075V197.655Z" fill="#7503A6"/>
<path d="M119 168.9H22.455C21.6987 168.899 20.9738 168.597 20.4394 168.062C19.9051 167.527 19.605 166.801 19.605 166.045V30.33C19.6116 29.578 19.9146 28.859 20.4482 28.3291C20.9818 27.7992 21.703 27.5013 22.455 27.5H119C119.757 27.5 120.483 27.8008 121.019 28.3362C121.554 28.8716 121.855 29.5978 121.855 30.355V166.045C121.855 166.802 121.554 167.528 121.019 168.064C120.483 168.599 119.757 168.9 119 168.9ZM22.455 27.6C21.7318 27.6013 21.0387 27.8895 20.5278 28.4014C20.0169 28.9132 19.73 29.6068 19.73 30.33V166.045C19.73 166.768 20.0169 167.462 20.5278 167.974C21.0387 168.485 21.7318 168.774 22.455 168.775H119C119.724 168.774 120.417 168.486 120.929 167.974C121.441 167.462 121.729 166.769 121.73 166.045V30.33C121.729 29.6064 121.441 28.9127 120.929 28.4011C120.417 27.8894 119.724 27.6013 119 27.6H22.455Z" fill="#7503A6"/>
<path d="M227.155 168.9H130.605C129.848 168.899 129.123 168.597 128.588 168.062C128.053 167.527 127.751 166.802 127.75 166.045V30.33C127.758 29.5776 128.062 28.8585 128.596 28.3288C129.131 27.7991 129.853 27.5013 130.605 27.5H227.155C227.906 27.5026 228.626 27.8011 229.159 28.3309C229.691 28.8606 229.993 29.5789 230 30.33V166.045C230 166.8 229.701 167.525 229.167 168.06C228.634 168.595 227.91 168.897 227.155 168.9ZM130.605 27.6C129.881 27.6013 129.188 27.8894 128.676 28.4011C128.164 28.9127 127.876 29.6064 127.875 30.33V166.045C127.876 166.769 128.164 167.462 128.676 167.974C129.188 168.486 129.881 168.774 130.605 168.775H227.155C227.879 168.774 228.572 168.486 229.084 167.974C229.596 167.462 229.884 166.769 229.885 166.045V30.33C229.884 29.6064 229.596 28.9127 229.084 28.4011C228.572 27.8894 227.879 27.6013 227.155 27.6H130.605Z" fill="#D91424"/>
<path d="M26.725 191.195H86.505L86.505 58.9901H26.725L26.725 191.195Z" fill="#FEFEFE"/>
<path d="M26.73 191.195H83.675L83.675 58.9901H26.73L26.73 191.195Z" fill="#1D1D1B"/>
<path d="M80.675 188.2L80.675 61.995H29.73L29.73 188.2H80.675Z" fill="#FEFEFE"/>
<path d="M46.19 121.5H35.805C35.4513 121.499 35.1125 121.358 34.8624 121.108C34.6124 120.858 34.4713 120.519 34.47 120.165C34.4713 119.811 34.6124 119.473 34.8624 119.223C35.1125 118.972 35.4513 118.831 35.805 118.83H46.19C46.5436 118.831 46.8824 118.972 47.1325 119.223C47.3826 119.473 47.5237 119.811 47.525 120.165C47.5237 120.519 47.3826 120.858 47.1325 121.108C46.8824 121.358 46.5436 121.499 46.19 121.5Z" fill="#57A40A"/>
<path d="M30.51 188.2L30.51 61.995H29.73L29.73 188.2H30.51Z" fill="#FEFEFE"/>
<path d="M114.515 188.69H123.415V150.09H114.515V188.69Z" fill="#FEFEFE"/>
<path d="M77.8151 191.14H121.705V188.695H77.8151V191.14Z" fill="#FEFEFE"/>
<path d="M114.515 150.095H76.105V188.695H114.515V150.095Z" fill="#1D1D1B"/>
<path d="M111.01 154.845H79.6V167.505H111.01V154.845Z" fill="#FEFEFE"/>
<path d="M111.01 171.28H79.6V183.94H111.01V171.28Z" fill="#FEFEFE"/>
<path d="M91.78 155.91H98.835C99.064 155.909 99.2833 155.817 99.4452 155.655C99.6072 155.493 99.6987 155.274 99.7 155.045C99.7 154.815 99.6091 154.595 99.447 154.432C99.2849 154.269 99.0649 154.176 98.835 154.175H91.78C91.5502 154.176 91.3302 154.269 91.1681 154.432C91.006 154.595 90.915 154.815 90.915 155.045C90.9164 155.274 91.0079 155.493 91.1698 155.655C91.3318 155.817 91.551 155.909 91.78 155.91Z" fill="#1D1D1B"/>
<path d="M91.78 172.35H98.835C99.0615 172.349 99.2785 172.259 99.44 172.101C99.6016 171.942 99.6948 171.726 99.7 171.5C99.6987 171.271 99.6072 171.052 99.4452 170.89C99.2833 170.728 99.064 170.636 98.835 170.635H91.78C91.551 170.636 91.3318 170.728 91.1698 170.89C91.0079 171.052 90.9164 171.271 90.915 171.5C90.9202 171.726 91.0135 171.942 91.175 172.101C91.3365 172.259 91.5536 172.349 91.78 172.35Z" fill="#1D1D1B"/>
<path d="M98.235 149.335C98.0603 149.334 97.8932 149.264 97.7697 149.14C97.6462 149.017 97.5763 148.85 97.575 148.675V128.62C97.575 128.445 97.6445 128.277 97.7683 128.153C97.892 128.029 98.0599 127.96 98.235 127.96C98.4096 127.961 98.5767 128.031 98.7002 128.155C98.8237 128.278 98.8936 128.445 98.895 128.62V148.675C98.8936 148.85 98.8237 149.017 98.7002 149.14C98.5767 149.264 98.4096 149.334 98.235 149.335Z" fill="#1D1D1B"/>
<path d="M104.41 148.555H92.0601V150.11H104.41V148.555Z" fill="#FEFEFE"/>
<path d="M101.655 137.335C101.568 137.335 101.485 137.301 101.423 137.24C101.362 137.179 101.326 137.097 101.325 137.01V127C101.326 126.913 101.361 126.83 101.423 126.768C101.485 126.706 101.568 126.671 101.655 126.67C101.742 126.671 101.825 126.706 101.887 126.768C101.948 126.83 101.984 126.913 101.985 127V137C101.986 137.044 101.978 137.087 101.961 137.128C101.945 137.168 101.921 137.205 101.89 137.237C101.859 137.268 101.823 137.292 101.782 137.309C101.742 137.326 101.699 137.335 101.655 137.335Z" fill="#FEFEFE"/>
<path d="M88.63 130.45C88.63 130.45 88.875 121 98.235 121C107.595 121 107.835 130.44 107.835 130.44L88.63 130.45Z" fill="#FEFEFE"/>
<path d="M169.655 143.8C169.92 143.8 170.19 143.8 170.46 143.825C173.226 144.025 175.826 145.217 177.782 147.182C179.738 149.148 180.918 151.754 181.105 154.52C181.184 155.777 181.059 157.038 180.735 158.255C179.482 163.136 178.876 168.161 178.935 173.2V187.87C178.936 188.124 178.886 188.376 178.789 188.611C178.692 188.845 178.549 189.059 178.369 189.238C178.19 189.417 177.976 189.559 177.741 189.656C177.506 189.752 177.254 189.801 177 189.8H130.435V143.8H169.655Z" fill="#FEFEFE"/>
<path d="M118.96 155.275C118.965 153.644 119.318 152.033 119.995 150.549C120.672 149.065 121.657 147.742 122.886 146.669C124.115 145.597 125.558 144.798 127.12 144.328C128.682 143.857 130.326 143.725 131.943 143.94C133.559 144.155 135.112 144.712 136.496 145.575C137.88 146.438 139.065 147.586 139.97 148.942C140.876 150.299 141.481 151.833 141.747 153.443C142.012 155.052 141.932 156.699 141.51 158.275C140.261 163.157 139.657 168.181 139.715 173.22V187.89C139.715 188.143 139.665 188.394 139.568 188.628C139.471 188.862 139.329 189.074 139.149 189.253C138.97 189.432 138.757 189.573 138.523 189.67C138.289 189.766 138.038 189.816 137.785 189.815H123.08C122.827 189.815 122.577 189.765 122.343 189.668C122.11 189.572 121.898 189.43 121.719 189.251C121.54 189.072 121.398 188.86 121.301 188.627C121.205 188.393 121.155 188.143 121.155 187.89V172.34C121.197 167.614 120.599 162.905 119.375 158.34C119.099 157.342 118.96 156.311 118.96 155.275Z" fill="#1D1D1B"/>
<path d="M146.245 189.8H188.05V161.87H146.245V189.8Z" fill="#FEFEFE"/>
<path d="M222.6 168.19H166.645V125.355C166.645 123.053 167.559 120.845 169.187 119.217C170.815 117.589 173.023 116.675 175.325 116.675H213.92C216.222 116.675 218.43 117.589 220.058 119.217C221.685 120.845 222.6 123.053 222.6 125.355V168.19Z" fill="#D91424"/>
<path d="M211.665 168.19H155.71V124.935C155.71 122.743 156.581 120.641 158.131 119.091C159.681 117.541 161.783 116.67 163.975 116.67H203.38C205.572 116.67 207.674 117.541 209.224 119.091C210.774 120.641 211.645 122.743 211.645 124.935V168.19H211.665Z" fill="#1D1D1B"/>
<path d="M185.32 170.695H146.785C146.122 170.695 145.486 170.432 145.017 169.963C144.548 169.494 144.285 168.858 144.285 168.195V161.86C144.285 161.197 144.548 160.561 145.017 160.092C145.486 159.623 146.122 159.36 146.785 159.36H185.32C185.52 159.36 185.712 159.44 185.854 159.581C185.995 159.723 186.075 159.915 186.075 160.115V169.945C186.074 170.144 185.993 170.335 185.852 170.476C185.711 170.616 185.519 170.695 185.32 170.695Z" fill="#DC7B04"/>
<path d="M226.725 143.8C226.99 143.8 227.255 143.8 227.53 143.825C230.295 144.026 232.894 145.219 234.849 147.184C236.804 149.149 237.983 151.754 238.17 154.52C238.254 155.777 238.129 157.039 237.8 158.255C236.546 163.138 235.941 168.164 236 173.205V187.875C236 188.128 235.95 188.379 235.853 188.613C235.756 188.847 235.614 189.059 235.434 189.238C235.255 189.417 235.042 189.559 234.808 189.655C234.574 189.751 234.323 189.801 234.07 189.8H187.5V143.8H226.725Z" fill="#FEFEFE"/>
<path d="M176.03 155.275C176.01 152.285 177.158 149.404 179.231 147.249C181.303 145.093 184.136 143.831 187.125 143.734C190.114 143.636 193.022 144.709 195.231 146.725C197.44 148.741 198.775 151.54 198.95 154.525C199.029 155.782 198.904 157.043 198.58 158.26C197.327 163.141 196.721 168.166 196.78 173.205V187.875C196.78 188.385 196.577 188.875 196.216 189.236C195.855 189.597 195.366 189.8 194.855 189.8H180.145C179.892 189.8 179.642 189.75 179.408 189.653C179.175 189.557 178.963 189.415 178.784 189.236C178.605 189.057 178.463 188.845 178.367 188.612C178.27 188.378 178.22 188.128 178.22 187.875V172.34C178.262 167.615 177.665 162.905 176.445 158.34C176.169 157.342 176.03 156.311 176.03 155.275Z" fill="#1D1D1B"/>
<path d="M131.25 191.2H225.905C226.089 191.2 226.27 191.164 226.44 191.093C226.61 191.023 226.764 190.92 226.893 190.79C227.023 190.66 227.125 190.505 227.195 190.335C227.265 190.166 227.301 189.984 227.3 189.8H129.855C129.854 189.984 129.89 190.166 129.96 190.335C130.03 190.505 130.132 190.66 130.262 190.79C130.391 190.92 130.545 191.023 130.715 191.093C130.885 191.164 131.066 191.2 131.25 191.2Z" fill="#DC7B04"/>
<path d="M187.31 83.9351H217.755V50.7301L187.31 50.7301V83.9351Z" fill="#DC7B04"/>
<path d="M185.495 83.9351H216.73V50.7301L185.495 50.7301V83.9351Z" fill="#1D1D1B"/>
<path d="M214.11 81.32V53.345H188.105V81.32H214.11Z" fill="#57A40A"/>
<path d="M201.11 60.26L208.22 72.58H194L201.11 60.26Z" fill="#1D1D1B"/>
<path d="M144.6 103.32H175.045V70.1151H144.6V103.32Z" fill="#DC7B04"/>
<path d="M142.785 103.32H174.02V70.1151H142.785V103.32Z" fill="#1D1D1B"/>
<path d="M171.4 100.705V72.73H145.395V100.705H171.4Z" fill="#57A40A"/>
<path d="M155.22 91.705L152.135 86.36C151.814 85.8021 151.646 85.1696 151.646 84.526C151.647 83.8823 151.817 83.2502 152.139 82.693C152.461 82.1358 152.924 81.6731 153.482 81.3514C154.039 81.0297 154.671 80.8602 155.315 80.86H161.5C162.144 80.8608 162.775 81.0306 163.333 81.3523C163.89 81.6741 164.353 82.1365 164.675 82.6933C164.998 83.2502 165.169 83.8819 165.17 84.5254C165.172 85.1688 165.005 85.8015 164.685 86.36L161.6 91.705C161.279 92.2671 160.814 92.7343 160.254 93.0592C159.694 93.3842 159.058 93.5553 158.41 93.5553C157.762 93.5553 157.126 93.3842 156.566 93.0592C156.006 92.7343 155.542 92.2671 155.22 91.705Z" fill="#1D1D1B"/>
<path d="M125.5 213.78C179.041 213.78 222.445 211.246 222.445 208.12C222.445 204.994 179.041 202.46 125.5 202.46C71.9587 202.46 28.5549 204.994 28.5549 208.12C28.5549 211.246 71.9587 213.78 125.5 213.78Z" fill="#F5F5F5"/>
<path d="M158.75 49.65H43.49L51.075 206.62H166.335L158.75 49.65Z" fill="#B0BEC5"/>
<path opacity="0.2" d="M158.75 49.65H43.49L51.075 206.62H166.335L158.75 49.65Z" fill="black"/>
<path d="M159.815 49.65H44.5549L52.1449 206.62H167.405L159.815 49.65Z" fill="#B0BEC5"/>
<path opacity="0.2" d="M153.73 54.9299H49.825L57.0849 199.525L147.435 199.405L162.45 186.095L153.73 54.9299Z" fill="black"/>
<path d="M154.525 54.925C155.633 98.2282 159.13 141.437 165 184.355C156.767 190.022 148.575 195.688 140.425 201.355H62.715C55.3802 152.86 51.0751 103.955 49.825 54.925H154.525Z" fill="white"/>
<path d="M165 184.355C156.767 190.022 148.575 195.688 140.425 201.355C142.205 193.855 144.06 186.355 145.99 178.855L165 184.355Z" fill="#EBEBEB"/>
<path d="M78 68.155C78.1967 73.4483 78.4267 78.745 78.69 84.045H62.805C62.5383 78.745 62.3083 73.4483 62.115 68.155H78ZM79.62 66.48H60.38C60.6033 72.89 60.8817 79.3033 61.215 85.72H80.46C80.1267 79.3066 79.8483 72.8933 79.625 66.48H79.62Z" fill="#7503A6"/>
<path d="M142.55 74.12H88.1396C88.0896 72.925 88.0446 71.725 87.9996 70.53H142.405C142.45 71.725 142.5 72.925 142.55 74.12Z" fill="#37474F"/>
<path d="M131.745 89.59H89.165C89.11 88.39 89.05 87.195 89 86H131.575C131.632 87.1967 131.688 88.3933 131.745 89.59Z" fill="#37474F"/>
<path d="M79.56 99.275C79.8933 104.575 80.265 109.875 80.675 115.175H64.785C64.375 109.875 64.0033 104.575 63.67 99.275H79.56ZM81.13 97.6H61.89C62.2833 104.017 62.7317 110.433 63.235 116.85H82.5C82 110.437 81.55 104.02 81.15 97.6H81.13Z" fill="#7503A6"/>
<path d="M110.24 105.595H90.24C90.16 104.395 90.075 103.2 90 102H110C110.075 103.2 110.155 104.395 110.24 105.595Z" fill="#37474F"/>
<path d="M129.135 105.245H114.43C114.35 104.045 114.265 102.85 114.19 101.65H128.895C128.97 102.85 129.05 104.045 129.135 105.245Z" fill="#37474F"/>
<path d="M138.365 112.8H90.75C90.66 111.6 90.575 110.405 90.485 109.205H138.1C138.19 110.405 138.275 111.6 138.365 112.8Z" fill="#37474F"/>
<path d="M81.945 130.41C82.4216 135.71 82.935 141.01 83.485 146.31H67.595C67.045 141.01 66.5316 135.71 66.055 130.41H81.945ZM83.475 128.735H64.23C64.7966 135.155 65.4166 141.573 66.09 147.99H85.335C84.6683 141.57 84.0483 135.152 83.475 128.735Z" fill="#7503A6"/>
<path d="M147.55 140.345H93.135L93.495 143.935H147.91L147.55 140.345Z" fill="#37474F"/>
<path d="M135 132.79H92.4199C92.5299 133.985 92.6399 135.185 92.7549 136.38H135.33C135.22 135.185 135.105 134 135 132.79Z" fill="#37474F"/>
<path d="M85.1599 161.545C85.7799 166.845 86.4349 172.143 87.1249 177.44H71.2349C70.5449 172.147 69.8899 166.848 69.2699 161.545H85.1599ZM86.6599 159.87H67.3999C68.1332 166.29 68.9249 172.705 69.7749 179.115H88.9999C88.1566 172.705 87.3649 166.29 86.6249 159.87H86.6599Z" fill="#7503A6"/>
<path d="M150.545 167.5H96.13C95.985 166.3 95.84 165.105 95.7 163.905H150.11C150.255 165.12 150.395 166.315 150.545 167.5Z" fill="#37474F"/>
<path d="M121.845 175.065H97.075C96.92 173.87 96.77 172.67 96.62 171.475H121.39C121.54 172.67 121.69 173.87 121.845 175.065Z" fill="#37474F"/>
<path d="M136.635 175.065H125.94C125.785 173.87 125.635 172.67 125.485 171.475H136.18C136.33 172.67 136.5 173.87 136.635 175.065Z" fill="#37474F"/>
<path d="M71 81.7749L70.295 80.6549C68.755 78.2049 65.615 76.0199 64.53 75.3799L65.34 73.9449C67.4687 75.2376 69.3707 76.871 70.97 78.7799C73.39 75.4849 76.97 72.0799 81.87 68.4199L82.905 69.7699C77.675 73.6849 74.015 77.2699 71.705 80.7199L71 81.7749Z" fill="#57A40A"/>
<path d="M72.9 112.905L72.165 111.785C70.565 109.335 67.365 107.145 66.265 106.505L67.03 105.07C69.1993 106.363 71.1459 107.997 72.795 109.91C75.125 106.61 78.61 103.205 83.415 99.54C83.77 99.99 84.13 100.44 84.485 100.895C79.36 104.815 75.795 108.395 73.58 111.85C73.35 112.2 73.125 112.555 72.9 112.905Z" fill="#57A40A"/>
<path d="M75.66 144.12L74.895 143C73.225 140.55 69.965 138.36 68.85 137.725C69.09 137.225 69.35 136.765 69.58 136.29C71.783 137.585 73.7703 139.217 75.47 141.125C77.715 137.825 81.11 134.425 85.81 130.755L86.92 132.11C81.92 136.03 78.42 139.61 76.305 143.065L75.66 144.12Z" fill="#57A40A"/>
<path d="M126.065 192.73C123.115 192.73 121.415 191.64 119.915 190.68C118.415 189.72 117.125 188.89 114.635 188.89C112.145 188.89 111.035 189.76 109.86 190.68C108.685 191.6 107.245 192.73 104.295 192.73C101.345 192.73 99.645 191.64 98.15 190.68C96.655 189.72 95.365 188.89 92.87 188.89C90.375 188.89 89.27 189.76 88.095 190.68C86.92 191.6 85.48 192.73 82.535 192.73C79.59 192.73 77.885 191.64 76.385 190.68C74.885 189.72 73.6 188.89 71.105 188.89C71.04 188.39 70.97 187.93 70.905 187.45C73.855 187.45 75.55 188.54 77.05 189.5C78.55 190.46 79.835 191.29 82.325 191.29C84.815 191.29 85.925 190.42 87.1 189.5C88.275 188.58 89.72 187.45 92.67 187.45C95.62 187.45 97.31 188.54 98.81 189.5C100.31 190.46 101.6 191.29 104.09 191.29C106.58 191.29 107.69 190.42 108.865 189.5C110.04 188.58 111.485 187.45 114.435 187.45C117.385 187.45 119.08 188.54 120.58 189.5C122.08 190.46 123.365 191.29 125.86 191.29C125.925 191.77 126 192.25 126.065 192.73Z" fill="#EBEBEB"/>
<path d="M130.295 53.5349C128.605 49.0349 124.7 46.0799 120.5 46.0799H111.94C111.303 46.0744 110.681 45.8819 110.152 45.5264C109.624 45.1709 109.211 44.6679 108.965 44.0799C108.36 42.6428 107.348 41.4139 106.054 40.5442C104.76 39.6746 103.239 39.2021 101.68 39.1849C100.172 39.1696 98.6978 39.6362 97.473 40.5166C96.2481 41.397 95.3363 42.6453 94.8701 44.0799C94.6801 44.6669 94.3073 45.1777 93.8062 45.5376C93.3051 45.8974 92.702 46.0875 92.0851 46.0799H83.5301C79.3251 46.0799 75.7051 49.0499 74.4551 53.5349L73.9551 55.3199H130.955L130.295 53.5349Z" fill="#263238"/>
<path d="M130.6 57.08H74.5C74.0269 57.0745 73.5734 56.8898 73.231 56.5632C72.8887 56.2366 72.6828 55.7923 72.655 55.32C72.6427 55.093 72.677 54.866 72.7558 54.6528C72.8346 54.4396 72.9562 54.2448 73.1131 54.0804C73.27 53.916 73.459 53.7854 73.6683 53.6968C73.8775 53.6081 74.1028 53.5633 74.33 53.565H130.43C130.902 53.5704 131.355 53.7544 131.697 54.0799C132.04 54.4055 132.246 54.8485 132.275 55.32C132.288 55.5473 132.254 55.775 132.176 55.9887C132.097 56.2025 131.976 56.3979 131.819 56.5629C131.662 56.7278 131.473 56.8588 131.263 56.9478C131.053 57.0367 130.828 57.0817 130.6 57.08Z" fill="#B0BEC5"/>
<path opacity="0.2" d="M130.6 57.08H74.5C74.0269 57.0745 73.5734 56.8898 73.231 56.5632C72.8887 56.2366 72.6828 55.7923 72.655 55.32C72.6427 55.093 72.677 54.866 72.7558 54.6528C72.8346 54.4396 72.9562 54.2448 73.1131 54.0804C73.27 53.916 73.459 53.7854 73.6683 53.6968C73.8775 53.6081 74.1028 53.5633 74.33 53.565H130.43C130.902 53.5704 131.355 53.7544 131.697 54.0799C132.04 54.4055 132.246 54.8485 132.275 55.32C132.288 55.5473 132.254 55.775 132.176 55.9887C132.097 56.2025 131.976 56.3979 131.819 56.5629C131.662 56.7278 131.473 56.8588 131.263 56.9478C131.053 57.0367 130.828 57.0817 130.6 57.08Z" fill="black"/>
<path d="M180.96 205.115H177.295L176.93 196.63H180.595L180.96 205.115Z" fill="#FFC3BD"/>
<path d="M202.955 205.115H199.29L197.45 196.63H201.11L202.955 205.115Z" fill="#FFC3BD"/>
<path d="M199.03 204.69H203.145C203.218 204.69 203.288 204.714 203.344 204.76C203.401 204.805 203.44 204.869 203.455 204.94L204.18 208.2C204.196 208.279 204.195 208.361 204.176 208.439C204.156 208.518 204.12 208.591 204.068 208.653C204.017 208.716 203.952 208.766 203.879 208.8C203.806 208.834 203.726 208.851 203.645 208.85C202.21 208.825 201.51 208.74 199.7 208.74C198.585 208.74 196.29 208.855 194.755 208.855C193.22 208.855 193.015 207.355 193.645 207.2C196.47 206.58 197.53 205.73 198.435 204.915C198.599 204.77 198.811 204.69 199.03 204.69Z" fill="#263238"/>
<path d="M177.32 204.69H181.32C181.393 204.69 181.463 204.714 181.52 204.76C181.576 204.805 181.615 204.869 181.63 204.94L182.355 208.2C182.373 208.276 182.373 208.356 182.357 208.432C182.34 208.509 182.307 208.581 182.259 208.643C182.211 208.706 182.15 208.756 182.08 208.792C182.01 208.828 181.933 208.848 181.855 208.85C180.41 208.825 178.325 208.74 176.51 208.74C174.39 208.74 172.56 208.855 170.07 208.855C168.57 208.855 168.15 207.355 168.78 207.2C171.645 206.57 173.985 206.505 176.46 204.975C176.716 204.805 177.013 204.706 177.32 204.69Z" fill="#263238"/>
<path d="M184.5 71.46C184 74.14 183.71 77.46 185.585 79.25C185.585 79.25 184.51 81.97 179.53 81.97C174.98 81.97 177.26 79.25 177.26 79.25C180.26 78.535 180.09 74.84 179.57 72.75L184.5 71.46Z" fill="#FFC3BD"/>
<path d="M175.83 79.625C175.93 78.96 177.1 78.185 178.43 77.895C179.76 77.605 184.87 76.96 186.43 77.605C187.99 78.25 186.16 80.16 186.16 80.16L175.83 79.625Z" fill="#B0BEC5"/>
<path opacity="0.4" d="M175.83 79.625C175.93 78.96 177.1 78.185 178.43 77.895C179.76 77.605 184.87 76.96 186.43 77.605C187.99 78.25 186.16 80.16 186.16 80.16L175.83 79.625Z" fill="white"/>
<path opacity="0.2" d="M176.93 196.635L177.12 201.005H180.785L180.595 196.635H176.93Z" fill="black"/>
<path opacity="0.2" d="M201.115 196.635H197.45L198.4 201.005H202.065L201.115 196.635Z" fill="black"/>
<path d="M193.175 82.55L188.76 85.5C188.76 85.5 195.1 96.775 194.57 98.58C193.845 101.04 192.835 106.415 191.46 109.145C191.64 109.735 192.555 111.08 193.065 111.31C196.565 108.65 200.1 100.31 199.97 97.975C199.665 92.68 193.175 82.55 193.175 82.55Z" fill="#FFC3BD"/>
<path d="M191.46 109.155L187.96 108.885L189.795 112.74C189.795 112.74 192.85 112.875 193.36 110.54L191.46 109.155Z" fill="#B55B52"/>
<path d="M208.76 127.955L208.465 128.51L206.485 132.255L136.195 95.09L138.465 90.79L208.76 127.955Z" fill="#DC7B04"/>
<path d="M213.305 119.37L211.855 122.11L211.035 123.66L140.74 86.4949L143.01 82.1949L213.305 119.37Z" fill="#DC7B04"/>
<path d="M140.763 86.4824L138.488 90.7771L208.754 127.997L211.029 123.702L140.763 86.4824Z" fill="#B0BEC5"/>
<path opacity="0.2" d="M140.763 86.4824L138.488 90.7771L208.754 127.997L211.029 123.702L140.763 86.4824Z" fill="#1D1D1B"/>
<path d="M133.165 82.765L131.12 86.635L136.195 95.09L143.01 82.2L133.165 82.765Z" fill="#B0BEC5"/>
<path opacity="0.8" d="M133.165 82.765L131.12 86.635L136.195 95.09L143.01 82.2L133.165 82.765Z" fill="white"/>
<path d="M128.945 83.0099L131.12 86.6349L133.165 82.7649L128.945 83.0099Z" fill="#B0BEC5"/>
<path d="M185.145 110.64L186.975 114.05L189.81 112.74L187.975 108.885L185.145 110.64Z" fill="#B55B52"/>
<path d="M192.125 80.08C195.59 80.58 199.56 92.58 199.56 92.58L192.28 96.69C192.28 96.69 189.075 91 187.5 86.75C185.84 82.305 188.41 79.54 192.125 80.08Z" fill="#263238"/>
<path opacity="0.2" d="M190.11 84.1949C188.535 82.7549 189.5 88.9199 190.25 92.8649C190.635 93.6349 191 94.3349 191.31 94.9199C193.065 91.8199 192.28 86.1799 190.11 84.1949Z" fill="black"/>
<path d="M171.605 80.27C171.605 80.27 167.28 91.33 171.385 111.93H191C191.135 108.93 189.245 94.25 192.145 80.08C189.979 79.6617 187.787 79.3844 185.585 79.25C182.812 79.0899 180.033 79.0899 177.26 79.25C175.351 79.4408 173.46 79.7819 171.605 80.27Z" fill="#263238"/>
<path d="M174.62 85.41L169.68 83.455C169.68 83.455 163.99 95.07 162.18 95.655C159.745 96.455 154.745 98.655 151.715 99.085C151.335 99.585 150.745 101.085 150.84 101.635C155.015 103 163.9 101.19 165.74 99.76C169.96 96.5 174.62 85.41 174.62 85.41Z" fill="#FFC3BD"/>
<path opacity="0.2" d="M175.175 84.0899C174.36 82.2099 172.8 81.4249 171.175 81.6999C170.545 84.0049 169.48 89.0699 169.675 96.6999L170.84 97.2599C170.84 97.2599 176.57 87.3049 175.175 84.0899Z" fill="black"/>
<path d="M175.955 82.775C177.185 86.055 170.955 95.705 170.955 95.705L163.625 91.705C164.726 88.7035 166.146 85.8288 167.86 83.13C170.435 79.285 174.6 79.18 175.955 82.775Z" fill="#263238"/>
<path d="M151.895 99.075L147.535 100L149.745 104.035C150.964 103.429 152.071 102.621 153.02 101.645L151.895 99.075Z" fill="#FFC3BD"/>
<path d="M145.475 100.915L147.215 103.325L149.745 104.055L147.535 100.02L145.475 100.915Z" fill="#FFC3BD"/>
<path d="M176.19 67.605C176.19 67.9 176.005 68.105 175.81 68.105C175.615 68.105 175.475 67.845 175.495 67.55C175.515 67.255 175.68 67.05 175.875 67.05C176.07 67.05 176.21 67.31 176.19 67.605Z" fill="#263238"/>
<path d="M176.45 67.63C176.046 68.511 175.523 69.332 174.895 70.07C175.088 70.2262 175.313 70.338 175.554 70.3977C175.795 70.4573 176.046 70.4632 176.29 70.415L176.45 67.63Z" fill="#ED847E"/>
<path d="M175.815 66.585C175.789 66.5794 175.763 66.5692 175.74 66.555C175.721 66.5428 175.704 66.5269 175.691 66.5081C175.678 66.4893 175.669 66.4681 175.664 66.4456C175.659 66.4232 175.659 66.4001 175.664 66.3777C175.668 66.3552 175.677 66.3339 175.69 66.315C175.835 66.0809 176.033 65.8844 176.269 65.7419C176.504 65.5993 176.77 65.5147 177.045 65.495C177.091 65.4974 177.134 65.5166 177.166 65.5489C177.198 65.5812 177.218 65.6244 177.22 65.67C177.22 65.7164 177.202 65.7609 177.169 65.7937C177.136 65.8266 177.091 65.845 177.045 65.845C176.832 65.8649 176.626 65.9345 176.445 66.0482C176.263 66.162 176.111 66.3167 176 66.5C175.982 66.5317 175.954 66.5569 175.921 66.5722C175.888 66.5874 175.851 66.5919 175.815 66.585Z" fill="#263238"/>
<path d="M186.13 67.35C185.7 70.96 185.63 73.09 183.695 74.85C180.78 77.49 176.405 75.575 175.745 71.905C175.155 68.605 175.96 63.26 179.59 62.02C180.389 61.7436 181.245 61.6759 182.077 61.8234C182.909 61.9708 183.69 62.3285 184.345 62.8625C185 63.3964 185.508 64.089 185.821 64.8743C186.133 65.6597 186.24 66.5119 186.13 67.35Z" fill="#FFC3BD"/>
<path d="M178.855 68.055C177.59 68.305 175.57 65.495 177.22 63.11C176.385 62.695 173.66 64.335 172.635 62.805C171.61 61.275 174.455 60.46 173.91 59.165C175.84 59.56 172.66 61.97 174.495 61.735C176.33 61.5 178.445 58.11 180.495 59.5C184.12 61.935 189.06 57.875 187.045 62.96C189.515 62.46 191.205 65.38 188.85 67.405C184.155 71.43 187.045 71.96 184.07 72.165C182.58 72.275 179.115 70.5 178.855 68.055Z" fill="#263238"/>
<path d="M180.73 68.9999C180.557 69.3608 180.313 69.6835 180.014 69.9488C179.714 70.2141 179.364 70.4168 178.985 70.5449C177.985 70.8899 177.41 69.9949 177.645 69.0099C177.855 68.1199 178.645 66.8699 179.68 66.9599C179.907 66.9821 180.125 67.0609 180.314 67.1891C180.503 67.3173 180.657 67.4908 180.761 67.6938C180.865 67.8967 180.917 68.1226 180.912 68.3508C180.907 68.579 180.844 68.8022 180.73 68.9999Z" fill="#FFC3BD"/>
<path d="M178.335 111.93C178.335 111.93 182.495 139.93 184.775 150.43C187.275 161.93 196.69 200.175 196.69 200.175H203.4C203.4 200.175 197.195 162.845 195.765 151.47C194.22 139.13 190.98 111.945 190.98 111.945L178.335 111.93Z" fill="#B0BEC5"/>
<path opacity="0.2" d="M178.335 111.93C178.335 111.93 182.495 139.93 184.775 150.43C187.275 161.93 196.69 200.175 196.69 200.175H203.4C203.4 200.175 197.195 162.845 195.765 151.47C194.22 139.13 190.98 111.945 190.98 111.945L178.335 111.93Z" fill="white"/>
<path opacity="0.2" d="M183.275 121.72C182.965 121.28 182.685 121.13 182.425 121.22H182.37C182.311 121.246 182.255 121.28 182.205 121.32C182.152 121.363 182.103 121.412 182.06 121.465L181.98 121.565L181.875 121.73C181.788 121.876 181.713 122.028 181.65 122.185C181.61 122.28 181.57 122.38 181.535 122.48C181.5 122.58 181.445 122.735 181.405 122.875C181.365 123.015 181.29 123.255 181.235 123.46C181.235 123.515 181.21 123.565 181.195 123.62C181.18 123.675 181.14 123.85 181.115 123.965C181.09 124.08 181.07 124.165 181.05 124.265C181.005 124.46 180.965 124.665 180.925 124.875C180.885 125.085 180.84 125.33 180.8 125.565C180.8 125.645 180.775 125.725 180.76 125.81C180.71 126.11 180.665 126.415 180.62 126.73C181.73 133.7 183.05 141.69 184.12 147.265C184.17 147.085 184.225 146.895 184.27 146.69C184.488 145.76 184.655 144.819 184.77 143.87C185.715 136.685 185.28 124.585 183.275 121.72Z" fill="black"/>
<path d="M171.385 111.93C171.385 111.93 170.885 139.32 171.28 150.495C171.695 162.115 175.755 200.16 175.755 200.16H181.96C181.96 200.16 182.185 162.79 182.46 151.38C182.76 138.94 184.26 111.93 184.26 111.93H171.385Z" fill="#B0BEC5"/>
<path opacity="0.2" d="M171.385 111.93C171.385 111.93 170.885 139.32 171.28 150.495C171.695 162.115 175.755 200.16 175.755 200.16H181.96C181.96 200.16 182.185 162.79 182.46 151.38C182.76 138.94 184.26 111.93 184.26 111.93H171.385Z" fill="white"/>
<path d="M182.37 198.26C182.395 198.26 182.37 200.285 182.37 200.285H175.215L174.915 198.01L182.37 198.26Z" fill="#263238"/>
<path d="M203.4 198.41C203.43 198.41 203.735 200.285 203.735 200.285H196.36L195.71 198.135L203.4 198.41Z" fill="#263238"/>
<path d="M197.82 205.33C197.571 205.35 197.322 205.285 197.115 205.145C197.048 205.09 196.996 205.019 196.964 204.939C196.933 204.858 196.923 204.771 196.935 204.685C196.936 204.635 196.949 204.586 196.975 204.543C197 204.5 197.037 204.465 197.08 204.44C197.485 204.235 198.67 204.94 198.805 205.04C198.819 205.05 198.829 205.064 198.836 205.08C198.842 205.096 198.843 205.113 198.84 205.13C198.838 205.147 198.83 205.163 198.818 205.175C198.807 205.187 198.792 205.196 198.775 205.2C198.462 205.278 198.142 205.322 197.82 205.33ZM197.275 204.575C197.237 204.567 197.198 204.567 197.16 204.575C197.143 204.585 197.128 204.6 197.119 204.617C197.109 204.635 197.104 204.655 197.105 204.675C197.097 204.733 197.104 204.793 197.125 204.848C197.146 204.903 197.181 204.952 197.225 204.99C197.633 205.18 198.099 205.205 198.525 205.06C198.144 204.819 197.719 204.655 197.275 204.575Z" fill="#B0BEC5"/>
<path d="M198.755 205.205C198.742 205.209 198.728 205.209 198.715 205.205C198.335 205 197.605 204.205 197.68 203.79C197.693 203.726 197.727 203.669 197.777 203.628C197.827 203.587 197.89 203.565 197.955 203.565C198.021 203.555 198.088 203.56 198.152 203.579C198.216 203.598 198.275 203.631 198.325 203.675C198.75 204.02 198.825 205.08 198.825 205.125C198.825 205.14 198.821 205.156 198.814 205.169C198.807 205.183 198.797 205.195 198.785 205.205C198.775 205.207 198.765 205.207 198.755 205.205ZM198.015 203.705H198C197.885 203.705 197.875 203.77 197.87 203.795C197.825 204.035 198.29 204.64 198.67 204.925C198.644 204.508 198.492 204.109 198.235 203.78C198.203 203.752 198.165 203.732 198.125 203.721C198.084 203.71 198.041 203.708 198 203.715L198.015 203.705Z" fill="#B0BEC5"/>
<path d="M175.795 205.33C175.481 205.359 175.167 205.28 174.905 205.105C174.847 205.052 174.803 204.987 174.775 204.914C174.747 204.841 174.737 204.763 174.745 204.685C174.745 204.637 174.758 204.591 174.783 204.55C174.808 204.51 174.843 204.477 174.885 204.455C175.33 204.205 176.805 204.955 176.97 205.04C176.987 205.048 177 205.061 177.008 205.077C177.017 205.093 177.019 205.112 177.015 205.13C177.013 205.148 177.005 205.164 176.992 205.177C176.979 205.19 176.963 205.198 176.945 205.2C176.567 205.281 176.182 205.324 175.795 205.33ZM175.13 204.575C175.075 204.573 175.02 204.583 174.97 204.605C174.953 204.615 174.94 204.628 174.93 204.645C174.92 204.662 174.915 204.681 174.915 204.7C174.908 204.751 174.914 204.803 174.932 204.851C174.951 204.899 174.981 204.942 175.02 204.975C175.245 205.175 175.85 205.21 176.66 205.075C176.182 204.824 175.664 204.655 175.13 204.575Z" fill="#B0BEC5"/>
<path d="M176.93 205.205H176.895C176.45 205.005 175.575 204.205 175.645 203.8C175.645 203.705 175.73 203.58 175.965 203.56C176.054 203.547 176.145 203.553 176.231 203.578C176.317 203.603 176.397 203.646 176.465 203.705C176.93 204.09 177.025 205.075 177.03 205.12C177.032 205.135 177.03 205.149 177.024 205.163C177.018 205.176 177.008 205.187 176.995 205.195C176.975 205.206 176.952 205.21 176.93 205.205ZM176.035 203.705H176C175.845 203.705 175.835 203.78 175.83 203.805C175.79 204.05 176.385 204.675 176.83 204.945C176.787 204.525 176.612 204.129 176.33 203.815C176.245 203.751 176.142 203.716 176.035 203.715V203.705Z" fill="#B0BEC5"/>
</g>
<defs>
<clipPath id="clip0_96_295">
<rect width="250" height="250" fill="white" transform="translate(0.5)"/>
</clipPath>
</defs>
</svg>
