<svg width="2324" height="1830" viewBox="0 0 2324 1830" fill="none" xmlns="http://www.w3.org/2000/svg">
<path fill-rule="evenodd" clip-rule="evenodd" d="M2219.99 668.671L2221.06 667.655C2214.49 657.77 2205.31 629.064 2199.68 615.783C2192.07 597.869 2184.46 581.876 2175.27 563.278C2158.41 529.184 2134.51 489.096 2106.06 471.325C2072.55 450.393 2066.07 482.563 2013.16 515.873C1963.17 547.35 1948.79 541.434 1919.18 508.048C1906.91 494.212 1895.4 474.492 1894.2 457.896C1890.6 407.955 1919.45 407.558 1961.59 386.929C1971.88 381.895 2010.21 371.565 2014.84 367.631C2024.57 359.367 2017.1 332.707 2010.48 319.137C2002.41 302.61 1986.67 281.851 1975.54 267.531L1904.94 154.733L1899.77 159.948C1865.4 190.002 1751.88 281.911 1712.92 280.057C1678.45 278.417 1668.11 167.446 1629.84 152.841C1610.35 145.404 1575.99 160.488 1567.16 161.739L1535.39 182.942C1535.17 183.315 1530.16 187.278 1529.8 187.098C1529.7 187.046 1505.42 205.715 1504.38 226.084C1501.83 276.267 1591.75 331.964 1575.93 366.365C1567.05 385.672 1467.89 441.433 1435.56 455.278C1419.73 462.055 1400.65 474.513 1386.32 481.277C1404.97 516.321 1423.73 553.031 1440.7 588.888C1457.6 624.607 1478.44 664.714 1513.35 665.523C1550.1 666.375 1554.7 629.715 1608.88 599.745C1628.15 589.091 1645.26 585.404 1659.05 594.758C1689.76 615.603 1713.47 649.637 1709.9 688.363C1707.85 710.531 1706.42 714.003 1679.27 729.831C1661.46 740.21 1642.34 749.896 1623.96 758.22C1603.19 767.62 1584.03 769.401 1580.24 791.262C1572.02 838.782 1633 901.013 1664.48 937.079C1673.74 947.692 1694.65 975.093 1703.72 981.095C1704.17 975.226 1716.88 968.211 1727.16 960.298C1753.03 940.394 1833.29 878.134 1853.28 865.282C1912.51 827.208 1920.3 869.912 1933.53 903.507C1941.42 923.541 1941.94 935.19 1955.44 956.591C1996.77 1022.12 2082.61 950.885 2092.69 927.218C2105.41 897.347 2067.08 844.493 2049.35 824.564C2037.93 811.728 2019.77 797.251 2023.99 779.12C2036.54 725.254 2151.36 686.705 2206.73 670.879C2211.72 669.454 2215.09 667.6 2219.99 668.673L2219.99 668.671Z" fill="#7503A6"/>
<path fill-rule="evenodd" clip-rule="evenodd" d="M1335.17 1069.66C1335.58 1082.29 1348.3 1147.38 1351.38 1175.85C1355.16 1210.8 1361.93 1260.29 1343.22 1284.31C1310.3 1326.57 1226.8 1263.11 1183.71 1306.63C1166.45 1324.07 1170.64 1337.81 1164.65 1353.57C1164.55 1353.85 1164.21 1354.92 1164.13 1354.7C1164.05 1354.48 1163.8 1355.46 1163.59 1355.83V1385.52C1166.92 1394.47 1170.66 1421.4 1184.27 1434.05C1241.28 1467.03 1306.34 1406.77 1339.51 1445.9C1358.36 1468.13 1349.17 1518.31 1347.47 1551.42C1344.64 1606.24 1344.75 1623.64 1339.51 1662.08C1395.62 1670.4 1519.29 1683.49 1564.55 1653.19C1590.81 1635.61 1562.27 1611.4 1567.91 1546.47C1569.67 1526.25 1574.79 1509.62 1587.02 1501.28C1603.85 1489.79 1663.83 1480.7 1691.04 1502.75C1696.28 1506.99 1701.51 1512.12 1705.83 1519.25C1711.96 1529.38 1710.72 1533.12 1709.4 1546.03C1706.82 1571.45 1702.03 1603.46 1694.38 1628.06C1690.47 1640.61 1689.69 1643.05 1698.91 1649.87C1725.07 1669.2 1776.85 1661.85 1812.16 1659.78C1828.5 1658.82 1927.17 1654.84 1933.65 1651.74L1929.66 1650.52L1921.1 1529.08C1919.32 1511.03 1917.07 1485.08 1918.93 1466.8C1920.47 1451.78 1928.01 1425.22 1940.22 1423.37C1946.02 1422.5 1982.7 1434.07 1993.71 1435.26C2038.8 1440.13 2062.62 1455.1 2085.27 1410.85C2092.79 1396.15 2093.47 1373.33 2090.51 1355.09C2083.38 1311.08 2074.63 1298.44 2017.56 1298.6C1957.17 1298.77 1935.37 1322.6 1918.66 1287.08C1904.47 1256.93 1905.43 1210.26 1909.1 1172.42C1911.11 1151.78 1913.07 1134.18 1916.03 1114.96C1918.22 1100.72 1925.42 1071.52 1925.1 1059.65C1916.96 1060.18 1903.43 1057.41 1893.85 1056.6L1806.11 1043.61C1769.32 1035.67 1721.32 1037.37 1703.36 1066.12C1691.99 1084.31 1697.02 1102.47 1701.73 1121.21C1708.13 1146.62 1720.92 1215.29 1692.47 1231.11C1665.92 1245.86 1613.95 1246.4 1583.44 1225.83C1578.03 1222.19 1567.9 1213.66 1565.24 1209.81C1558.33 1199.79 1567.04 1129.44 1568.87 1117.9C1572.79 1093.18 1579.73 1083.98 1563.2 1065.73C1550.77 1052 1534.91 1050.33 1515.31 1046.39C1477.79 1038.85 1427.89 1053.64 1394.61 1057.14C1368.5 1059.88 1346.98 1068.67 1335.17 1069.66Z" fill="#D91424"/>
<path fill-rule="evenodd" clip-rule="evenodd" d="M743.488 477.585C745.033 496.681 749.786 514.426 750.668 532.416C751.571 550.84 754.738 570.453 755.581 590.595C761.84 740.256 741.777 710.904 697.481 705.509C632.017 697.537 589.318 682.085 579.002 762.542C576.498 782.063 578.093 802.595 585.142 817.671C608.745 868.155 707.522 829.258 741.669 845.989C749.904 850.024 758.128 877.693 760.572 889.521C768.288 926.877 768.702 969.288 763.972 1007.63C761.596 1026.89 756.506 1041.03 753.963 1059.4C757.426 1062.9 761.135 1063.12 765.949 1064.56C819.403 1080.52 933.184 1108.75 971.066 1069.74C983.817 1056.62 976.363 1034.71 973.589 1017.77C969.283 991.47 964.981 926.332 990.711 907.761C1011.1 893.048 1117.89 878.197 1118.16 955.676C1118.25 980.978 1112.7 991.126 1108.9 1012.29C1102.51 1047.79 1087.01 1088.12 1155.02 1087.27C1177.98 1086.98 1275.61 1076.78 1307 1073.63C1319.48 1072.38 1333.47 1073.17 1336.86 1068.44L1321.67 960.481C1318.86 928.316 1316.12 875.334 1330.16 849.156C1338 834.542 1349.92 839.452 1378.72 841.776C1396.72 843.229 1420.93 847.131 1438.21 846.137C1496.27 842.796 1497.74 798.189 1503.76 785.904V753.248C1495.76 737.134 1502.39 725.136 1485.92 708.254C1451.1 672.566 1375.98 719.303 1330.39 690.898C1322.02 685.679 1318.91 684.334 1318.2 671.365C1316.56 641.165 1316.76 611.851 1318.69 581.649C1322.51 521.858 1327.93 520.519 1335.39 474.131C1295.36 470.261 1252.68 468.965 1213.1 464.05C1172.93 459.063 1127.5 456.215 1108.61 486.023C1096.06 505.817 1103.94 517.844 1108.58 538.634C1114.71 566.092 1124.76 627.268 1091.37 640.154C1074.4 646.701 1055.83 651.144 1035.74 650.45C1009.89 649.556 979.144 634.114 969.208 616.917C962.511 605.325 970.79 539.636 972.603 525.68C975.4 504.158 984.717 490.219 967.95 475.083C945.468 454.788 892.351 454.509 857.494 459.809C819.729 465.553 780.279 470.353 743.489 477.586L743.488 477.585Z" fill="#0357A0"/>
<path fill-rule="evenodd" clip-rule="evenodd" d="M167.154 1069.53C167.566 1082.16 181.294 1147.87 184.374 1176.35C188.156 1211.3 189.394 1260.33 170.683 1284.35C137.76 1326.61 64.7766 1270.68 21.6874 1314.2C4.41945 1331.64 7.04318 1337.84 1.05742 1353.61C0.953134 1353.88 0.620475 1354.95 0.541221 1354.74C0.460925 1354.52 0.202306 1355.5 0 1355.86V1385.56C3.32137 1394.51 2.9032 1415.36 16.5109 1428.01C51.877 1460.9 133.805 1406.81 166.978 1445.93C185.828 1468.17 181.879 1517.2 180.17 1550.31C177.341 1605.14 168.879 1618.05 163.641 1656.5C219.752 1664.82 346.753 1683.53 392.014 1653.22C418.273 1635.64 389.736 1611.44 395.374 1546.5C397.129 1526.29 402.256 1509.66 414.483 1501.32C431.311 1489.83 491.296 1480.73 518.507 1502.78C523.742 1507.03 528.976 1512.16 533.294 1519.29C539.427 1529.42 538.181 1533.16 536.868 1546.07C534.284 1571.48 529.498 1603.5 521.84 1628.1C517.934 1640.65 517.158 1643.09 526.373 1649.9C552.53 1669.24 604.312 1661.89 639.624 1659.82C655.961 1658.86 754.636 1654.88 761.113 1651.77L757.126 1650.55L748.565 1529.11C746.783 1511.07 744.533 1485.12 746.399 1466.83C747.93 1451.82 755.477 1425.25 767.679 1423.41C773.488 1422.53 810.168 1434.11 821.172 1435.3C866.26 1440.17 890.083 1455.14 912.73 1410.89C920.255 1396.19 920.932 1373.37 917.975 1355.13C910.84 1311.12 902.092 1298.47 845.023 1298.64C784.63 1298.81 762.834 1322.64 746.121 1287.12C731.933 1256.96 732.898 1210.3 736.569 1172.46C738.571 1151.81 740.536 1134.22 743.49 1115C745.68 1100.75 752.881 1071.55 752.561 1059.68C744.421 1060.21 730.89 1057.45 721.31 1056.64L633.572 1043.65C596.784 1035.71 548.788 1037.4 530.823 1066.15C519.455 1084.35 524.482 1102.5 529.199 1121.24C535.594 1146.65 548.385 1215.33 519.933 1231.14C493.381 1245.9 441.412 1246.43 410.9 1225.87C405.498 1222.23 395.361 1213.7 392.705 1209.85C385.794 1199.83 394.509 1129.48 396.338 1117.94C400.256 1093.21 407.19 1084.02 390.666 1065.77C378.23 1052.04 362.371 1050.37 342.769 1046.43C305.257 1038.89 255.355 1053.67 222.074 1057.17C195.96 1059.92 178.958 1068.54 167.153 1069.53H167.154Z" fill="#57A40A"/>
<path fill-rule="evenodd" clip-rule="evenodd" d="M753.963 1059.4L752.563 1059.69C752.882 1071.56 745.682 1100.76 743.493 1115C740.538 1134.22 738.574 1151.82 736.571 1172.46C732.901 1210.3 731.935 1256.97 746.124 1287.12C762.836 1322.64 784.633 1298.81 845.025 1298.64C902.094 1298.48 910.842 1311.12 917.978 1355.13C920.934 1373.37 920.257 1396.19 912.732 1410.89C890.085 1455.14 866.262 1440.17 821.174 1435.3C810.17 1434.11 773.49 1422.54 767.682 1423.41C755.48 1425.26 747.933 1451.82 746.401 1466.84C744.534 1485.12 746.786 1511.07 748.567 1529.12L757.128 1650.56L761.115 1651.78C804.664 1644.53 939.089 1635.58 970.047 1657.82C997.435 1677.5 967.449 1776.78 991.303 1809.46C1003.45 1826.1 1021.71 1825.41 1029.58 1829.03H1066.27C1066.64 1828.84 1067.21 1828.15 1067.42 1828.5C1067.48 1828.6 1092.94 1823.26 1104.23 1806.55C1132.04 1765.36 1092.52 1670.27 1123.11 1649.5C1140.27 1637.85 1256.76 1646.53 1290.33 1651.95C1306.77 1654.61 1326.13 1660.42 1341.34 1662.29C1344.03 1622.69 1346.76 1579.83 1351.24 1540.44C1355.71 1501.19 1359.19 1456.14 1331.02 1436.94C1301.37 1416.72 1278.81 1445.35 1219.08 1442.01C1197.84 1440.83 1181.94 1434.87 1175.44 1419.63C1160.97 1385.66 1159 1344.24 1181.77 1313.31C1194.81 1295.6 1197.76 1293.41 1228.11 1294.4C1248.01 1295.05 1268.63 1296.98 1287.95 1299.68C1309.77 1302.73 1326.38 1311.38 1340.68 1294.86C1371.77 1258.94 1353.72 1173.84 1346.43 1126.57C1344.28 1112.66 1341.2 1078.34 1336.86 1068.44C1333.47 1073.17 1319.48 1072.38 1307 1073.63C1275.61 1076.78 1177.98 1086.98 1155.02 1087.27C1087.01 1088.12 1102.51 1047.79 1108.9 1012.29C1112.7 991.126 1118.25 980.977 1118.16 955.675C1117.89 878.195 1011.1 893.047 990.712 907.76C964.981 926.331 969.284 991.469 973.59 1017.77C976.364 1034.71 983.818 1056.61 971.067 1069.74C933.185 1108.75 819.404 1080.52 765.95 1064.56C761.136 1063.12 757.427 1062.9 753.964 1059.39L753.963 1059.4Z" fill="#7503A6"/>
<path fill-rule="evenodd" clip-rule="evenodd" d="M167.156 1069.53C178.961 1068.54 195.963 1059.92 222.077 1057.17C255.358 1053.67 305.26 1038.89 342.772 1046.43C362.373 1050.37 378.232 1052.04 390.669 1065.77C407.194 1084.02 400.259 1093.22 396.341 1117.94C394.512 1129.48 385.797 1199.83 392.708 1209.85C395.364 1213.7 405.501 1222.23 410.903 1225.87C441.415 1246.44 493.385 1245.9 519.936 1231.15C548.387 1215.33 535.597 1146.65 529.202 1121.24C524.484 1102.5 519.458 1084.35 530.826 1066.16C548.792 1037.41 596.787 1035.71 633.575 1043.65L721.312 1056.64C730.894 1057.45 744.424 1060.21 752.564 1059.68L753.964 1059.39C756.506 1041.03 761.596 1026.89 763.973 1007.63C768.703 969.287 768.288 926.876 760.572 889.52C758.129 877.691 749.904 850.022 741.669 845.987C707.522 829.257 608.746 868.154 585.143 817.67C578.094 802.594 576.5 782.062 579.002 762.54C589.319 682.084 632.017 697.535 697.482 705.508C741.778 710.902 761.84 740.254 755.581 590.594C754.739 570.452 751.572 550.838 750.669 532.415C749.788 514.424 745.034 496.68 743.489 477.584C692.34 486.938 571.598 510.577 535.05 474.282C490.72 430.26 554.147 347.197 489.444 311.233C481.959 307.072 472.658 306.021 466.596 302.913H441.479C435.174 306.092 424.698 307.766 417.614 310.715C410.751 313.572 402.163 317.904 397.416 321.796C352.545 358.596 411.055 433.709 381.371 471.183C359.076 499.328 199.225 490.715 165.635 474.504C155.21 523.726 141.88 661.312 167.934 699.821C186.626 727.45 203.644 700.732 271.068 704.251C317.832 706.692 328.151 722.687 332.488 767.871C336.016 804.636 321.46 844.945 286.219 848.119C257.804 850.678 226.203 850.753 197.816 845.681C167.202 840.21 154.226 815.717 161.574 949.133C163.665 987.097 162.478 1033 167.153 1069.53L167.156 1069.53Z" fill="#DC7B04"/>
<path fill-rule="evenodd" clip-rule="evenodd" d="M454.066 642.139H457.84C478.743 642.139 463.944 668.809 458.057 678.443C454.371 684.475 435.006 711.165 429.332 718.007C427.712 719.961 426.583 721.793 425.088 723.59C422.179 727.086 419.417 731.028 416.542 734.678C414.807 736.882 409.03 743.7 408.473 745.856C407.038 751.416 413.079 757.344 417.852 755.241C421.009 753.849 434.77 738.126 438.65 734.911C439.28 734.389 439.374 734.303 439.852 733.828L447.179 726.421C453.929 719.131 460.056 713.605 466.574 706.563C471.928 700.779 480.2 702.376 472.428 717.307L445.176 777.644C442.593 786.987 454.661 793.107 459.191 784.079C467.96 766.599 480.913 745.381 490.627 727.984C491.968 725.583 496.704 715.634 500.181 719.228C502.968 722.108 500.548 731.811 500.382 735.958C500.143 741.938 498.936 747.915 498.479 753.704C497.574 765.161 494.859 777.434 494.859 789.18C494.859 794.147 497.943 796.029 502.777 795.703C508.806 795.296 510.41 780.394 511.087 775.191C512.034 767.9 514.051 758.091 515.209 750.299L519.825 725.754C520.658 722.457 522.16 716.852 526.098 717.454C532.475 718.427 531.848 732.766 532.937 739.461C533.351 742.004 533.384 743.115 533.565 745.784C533.667 747.292 533.959 747.576 534.115 748.816C534.269 750.029 534.128 751.195 534.341 752.397C535.358 758.144 535.445 773.781 538.693 777.021C541.459 779.779 547.645 778.453 548.329 774.423C552.466 750.072 546.159 712.561 553.078 695.621C555.338 690.088 558.234 685.034 560.441 678.838C564.773 666.68 570.71 653.513 570.574 640.458C570.512 634.491 567.702 625.328 564.299 622.336C563.073 621.259 558.015 619.275 556.295 618.249C546.085 612.154 544.369 610.357 536.097 602.225C533.874 600.04 532.381 597.934 529.061 597.077C521.126 595.029 513.794 595.453 505.817 597.106C504.466 597.385 502.701 598.131 501.296 598.64L480.082 607.564C477.637 608.519 462.163 615.967 459.84 617.553C455.348 620.619 435.336 626.613 428.882 628.82C426.2 629.738 420.983 629.452 417.796 629.867C405.808 631.425 417.473 642.996 431.039 643.101C435.053 643.133 439.131 643.144 443.141 643.062C444.954 643.025 450.06 642.139 454.067 642.139H454.066Z" fill="#FEFEFE"/>
<path fill-rule="evenodd" clip-rule="evenodd" d="M390.757 516.661C390.757 520.265 392.081 529.004 392.418 534.788C392.732 540.18 393.137 547.33 393.907 552.58C394.726 558.164 394.18 565.369 394.889 570.915C395.31 574.2 395.429 576.091 395.485 579.705C395.511 581.351 398.145 596.112 392.838 594.815C391.008 594.367 389.415 592.005 388.458 590.581C382.564 581.794 364.06 541.362 358.235 532.832C354.593 527.497 347.911 531.765 346.981 533.717C345.06 537.757 348.536 544.516 349.889 547.593C357.142 564.085 364.238 579.322 371.302 596.347C372.464 599.146 375.814 606.713 373.388 609.625C370.76 612.778 364.811 608.643 361.983 605.326L353.929 595.654C353.216 594.68 352.742 594.219 352.006 593.406C351.178 592.491 350.82 591.816 350.017 590.883C348.703 589.358 347.209 587.432 345.884 585.966L337.953 576.537C335.691 573.908 331.973 568.385 328.745 567.896C324.766 567.293 319.456 570.525 322.856 576.926C324.961 580.89 327.003 584.481 329.333 588.18L343.196 609.432C347.887 616.349 353.169 623.216 357.045 631.012C362.273 641.53 362.428 647.635 364.317 658.965C365.91 668.514 368.944 678.033 371.77 686.518C375.123 696.581 382.304 707.391 391.704 710.378C393.854 711.061 397.402 710.267 399.765 709.988C402.039 709.719 405.981 709.597 408.036 709.506C417.605 709.08 414.923 713.147 421.501 703.803C424.474 699.58 427.675 695.948 430.865 691.245C434.982 685.175 440.049 679.15 444.677 671.873C445.895 669.958 451.734 658.963 451.967 657.27C448.848 656.91 447.581 657.495 445.346 657.768L432.168 657.927C403.046 657.927 388.631 633.587 404.385 619.851C409.539 615.357 413.609 616.206 419.431 614.871C422.977 614.058 421.248 615.869 427.767 613.423L442.971 608.619C445.346 607.577 448.204 606.54 450.334 605.725C450.607 602.836 450.043 599.418 450.432 596.409C450.83 593.325 450.594 590.174 450.737 586.864C451.011 580.611 451.593 574.03 451.614 567.993C451.629 564.723 452.229 563.395 452.227 560.068L453.821 534.903C454.368 532.038 454.014 529.775 454.423 526.859C454.842 523.871 455.071 522.301 453.345 519.611C451.548 516.811 443.586 514.382 441.031 519.438C439.802 521.869 438.639 530.899 437.961 534.257C436.131 543.324 433.39 555.117 431.97 564.085L429.089 579.214C428.344 582.74 427.658 591.25 424.704 592.558C421.991 593.758 419.837 591.442 418.985 589.868C417.233 586.631 414.773 565.549 413.583 559.384C411.776 550.023 410.295 537.901 408.533 528.57C406.83 519.554 407.173 512.746 400.686 509.655C397.123 507.958 390.755 511.252 390.755 516.659L390.757 516.661Z" fill="#FEFEFE"/>
<path fill-rule="evenodd" clip-rule="evenodd" d="M580.51 659.86C584.142 655.255 584.146 646.172 584.186 638.951C584.227 631.786 581.279 624.638 578.486 619.48L575.491 619.488C574.257 622.576 575.184 621.869 577.74 628.527C579.07 631.994 579.559 635.498 579.554 639.709C579.547 644.365 579.464 647.257 578.893 651.692C578.436 655.234 575.109 659.99 580.511 659.86H580.51Z" fill="#FEFEFE"/>
<path fill-rule="evenodd" clip-rule="evenodd" d="M593.69 640.087C593.69 645.469 593.123 647.281 592.077 652.347C591.04 657.374 588.679 660.746 590.091 662.358C592.925 664.015 593.99 661.033 594.856 658.958C597.767 651.992 598.788 640.75 597.606 633.479C597.262 631.362 595.637 623.729 593.743 622.64C592.461 621.904 591.076 622.615 590.615 623.759C590.271 624.612 592.024 629.351 592.508 631.086C593.31 633.962 593.688 636.801 593.688 640.087H593.69Z" fill="#FEFEFE"/>
<path fill-rule="evenodd" clip-rule="evenodd" d="M346.301 701.036C345.127 702.172 345.022 701.247 346.441 706.121C347.013 708.087 347.711 709.852 348.548 711.649C352.249 719.589 357.495 727.216 364.785 731.992C365.865 732.7 368.407 734.737 369.894 733.742C371.671 732.555 371.143 730.78 368.676 729.255C367.57 728.571 367.559 728.551 366.497 727.655L365.161 726.757C365.09 726.712 364.992 726.656 364.923 726.608C359.572 722.915 354.853 714.975 352.132 708.804C350.028 704.031 349.722 697.727 346.3 701.036H346.301Z" fill="#FEFEFE"/>
<path fill-rule="evenodd" clip-rule="evenodd" d="M385.029 723.782C383.456 722.441 378.846 720.355 375.99 718.15C373.988 716.602 370.367 713.062 368.785 710.647C366.881 707.744 364.692 704.77 363.147 701.58C362.554 700.355 361.603 697.304 361.047 696.502C359.654 694.493 356.78 695.255 357.266 698.563C357.987 703.471 365.55 714.021 368.451 717.018C372.104 720.792 375.905 723.973 380.967 726.39C383.937 727.808 385.124 727.078 385.029 723.783V723.782Z" fill="#FEFEFE"/>
<path fill-rule="evenodd" clip-rule="evenodd" d="M957.88 1526.99C957.88 1516.25 958.477 1508.29 962.687 1498.92C964.924 1493.95 964.504 1494.41 967.436 1489.73C970.739 1484.45 975.211 1478.78 980.078 1474.98L988.101 1469.05C993.278 1466.2 1002 1461.76 1008.18 1461.24C1008.18 1467.96 1007.4 1512.28 1008.9 1515.31C1009.23 1515.99 1010.85 1518.39 1011.32 1518.86C1013.81 1521.37 1017 1522.04 1020.62 1522.02L1081.92 1521.98C1086.21 1521.91 1086.05 1520.61 1085.36 1529.95C1085.14 1532.8 1084.12 1537.61 1083.5 1540.04C1078.32 1560.07 1061.72 1578.21 1041.62 1584.33C1031.32 1587.46 1020.47 1588.48 1009.62 1586.31L999.905 1583.57C982.628 1577.53 969.339 1564.12 962.427 1547.34C960.477 1542.61 957.88 1533.44 957.88 1526.99ZM1024.72 1609.66H1017.84C1006.24 1609.21 994.736 1606.44 984.276 1601.2C975.189 1596.64 963.155 1588.19 957.171 1580.49C956.172 1579.2 955.59 1578.86 954.597 1577.58C948.359 1569.6 947.061 1566.88 942.766 1558.04C933.399 1538.75 933.164 1510.19 942.108 1490.3C946.045 1481.54 947.6 1478.63 953.04 1471.34C954.343 1469.6 955.78 1467.61 957.247 1466.09C974.461 1448.22 985.666 1443.58 1008.18 1438.33C1008.18 1431.36 1008.12 1424.36 1008.16 1417.39C1008.25 1401.89 1030.1 1404 1030.1 1416.42V1442.32H1088.87C1103.25 1442.32 1103.25 1464.73 1088.87 1464.73H1030.1V1499.59H1092.35C1098.24 1499.59 1102.16 1502.68 1103.9 1506.97L1111.42 1527.84C1112.61 1530.83 1118.58 1546.91 1118.75 1548.9C1126.39 1548.9 1134.04 1548.9 1141.68 1548.88C1158.34 1548.83 1155.96 1570.81 1143.65 1570.81H1110.28C1107 1570.81 1104.88 1569.26 1103.17 1567.47C1101.19 1565.42 1100.54 1563.94 1099.82 1560.85C1098.79 1561.61 1095.49 1568.18 1093.82 1570.79C1087.96 1579.94 1079.79 1587.95 1070.94 1594.23C1057.58 1603.72 1041.25 1609.01 1024.72 1609.66Z" fill="#FEFEFE"/>
<path fill-rule="evenodd" clip-rule="evenodd" d="M1017.64 1397.49C1025.6 1397.49 1029.02 1396.8 1035.21 1390.65C1044.94 1380.99 1042.04 1363.65 1029.61 1357.14C1026.87 1355.7 1024.06 1354.91 1021.32 1354.66H1017.59C1004.39 1355.82 993.754 1369.33 999.438 1384.32C1000.1 1386.06 1002.37 1389.42 1003.56 1390.66C1006.57 1393.78 1011.78 1397.49 1017.64 1397.49V1397.49Z" fill="#FEFEFE"/>
<path fill-rule="evenodd" clip-rule="evenodd" d="M228.91 1343.2C232.317 1338.1 231.538 1337.94 233.533 1331.33C252.364 1268.93 346.202 1275.22 356.606 1338.74C363.696 1382.03 334.974 1397.99 318.728 1418.18C310.005 1429.02 304.686 1444.6 296.841 1455.15C281.647 1475.58 268.434 1457.11 255.995 1459.55C250.973 1480.23 285.386 1479.34 299.145 1471.18C312.598 1463.2 315.373 1444.38 326.715 1430.02C344.436 1407.59 381.106 1386.57 370.234 1334.93C363.099 1301.04 332.576 1272.76 291.821 1273.14C250.858 1273.52 217.301 1309.75 217.971 1337.82L228.908 1343.2H228.91Z" fill="#FEFEFE"/>
<path fill-rule="evenodd" clip-rule="evenodd" d="M245.906 1330.55L253.843 1335.85C256.604 1333.46 277.393 1293.51 315.663 1315.68C352.414 1336.96 327.488 1378.59 327.138 1380.89C331.865 1384.92 327.447 1382.46 334.131 1384.91C352.072 1373.01 355.349 1326.25 323.831 1305.55C311.085 1297.17 292.838 1293.53 276.204 1299.69C263.176 1304.52 247.752 1316.42 245.906 1330.55Z" fill="#FEFEFE"/>
<path fill-rule="evenodd" clip-rule="evenodd" d="M340.914 1243.21C375.19 1261.64 399.104 1285.03 407.306 1332.37L418.04 1328.24L415.799 1314.28C405.698 1279.03 380.877 1247.48 346.783 1232.89L340.914 1243.21V1243.21Z" fill="#FEFEFE"/>
<path fill-rule="evenodd" clip-rule="evenodd" d="M1697.44 457.893C1690.04 453.371 1681.95 429.77 1698.08 413.734C1711.08 400.819 1732.39 402.011 1742.38 413.086L1697.44 457.894V457.893ZM1755.7 412.168L1769.99 397.981C1778.23 400.134 1792.71 409.874 1799.39 414.821C1801.6 416.464 1803.78 418.367 1805.78 420.026C1806.89 420.939 1807.48 421.853 1808.52 422.837L1817.17 431.83C1818.5 433.345 1821.74 436.896 1822.48 438.536C1819.63 444.46 1803.04 459.463 1798.57 462.838C1778.44 478.046 1754.38 487.37 1727.68 488.396C1716.99 488.806 1693.76 486.827 1685.1 482.372L1696.5 471.1C1705.99 476.043 1712.31 479.737 1725.7 478.21C1730.78 477.631 1735.91 476.004 1739.97 473.912C1742.08 472.824 1744 471.642 1745.73 470.396C1761.77 458.84 1767.73 436.066 1758.93 418.074C1757.97 416.112 1756.19 413.576 1755.7 412.168H1755.7ZM1689.78 465.369L1676.04 479.095C1671.89 478.004 1664.09 473.628 1660.51 471.586C1652.49 467.019 1646.93 462.524 1640.24 457.044L1623.56 438.537C1624.35 436.851 1627.5 433.377 1628.86 431.832C1634.68 425.229 1640.12 419.715 1647.45 414.232C1656.34 407.581 1666.18 401.593 1678.39 396.915C1690.65 392.218 1703.94 389.237 1718.35 388.677C1729.03 388.262 1752.55 390.287 1760.93 394.695L1749.97 405.533C1744.97 401.989 1744.91 400.816 1737.68 397.579C1721.13 390.174 1701.87 395.182 1690.62 406.303C1678.63 418.155 1675.02 437.141 1681.67 452.84C1683.59 457.374 1687.25 462.926 1689.78 465.369ZM1823.77 344.501C1827.19 340.939 1825.24 337.392 1822.64 336.619C1819.06 335.554 1816.11 339.733 1814.52 341.306C1812.15 343.651 1810.14 345.657 1807.78 348.011L1767.65 387.834C1743.77 380.229 1722.91 377.57 1696.72 382.765C1674.88 387.095 1655.31 397.198 1641.63 407.984C1634.3 413.761 1634.14 414.241 1628.23 420.103C1627.31 421.018 1626.42 421.562 1625.55 422.503L1621.08 427.786C1618.09 431.537 1612.81 436.577 1614.32 440.277C1615.17 442.359 1623.13 451.799 1625.34 454.314C1626.26 455.357 1627.01 455.769 1628.01 456.727C1634.67 463.103 1634.16 463.746 1643.99 470.901C1647.72 473.614 1651.76 476.304 1656.06 478.791L1669.24 485.724C1667.4 488.18 1628.14 526.483 1622.26 532.58C1618.83 536.128 1620.76 539.668 1623.39 540.45C1626.9 541.498 1629.97 537.325 1631.52 535.78L1651.5 515.883C1656.1 511.291 1660.37 507.048 1664.99 502.467L1678.38 489.245C1702.66 496.719 1722.1 499.527 1748.91 494.365C1777.54 488.852 1794.31 477.209 1812.53 462.372L1824.74 449.556C1827.95 445.403 1833.13 440.739 1831.74 436.833C1831.04 434.873 1824.52 427.171 1822.99 425.574C1822.01 424.557 1821.58 423.778 1820.69 422.755L1815.46 417.785C1814.55 416.877 1813.98 415.99 1813.04 415.121C1811.49 413.697 1809.23 411.863 1807.48 410.462C1800.92 405.231 1791.18 398.239 1783.38 394.654C1781.63 393.846 1778.38 392.381 1776.78 391.35L1823.77 344.501H1823.77Z" fill="#FEFEFE"/>
<path d="M186.666 1429.62C189.136 1429.62 191.137 1427.62 191.137 1425.15C191.137 1422.68 189.136 1420.68 186.666 1420.68C184.197 1420.68 182.195 1422.68 182.195 1425.15C182.195 1427.62 184.197 1429.62 186.666 1429.62Z" fill="#FEFEFE"/>
<path d="M212.374 1412.85C215.461 1412.85 217.963 1410.35 217.963 1407.27C217.963 1404.18 215.461 1401.68 212.374 1401.68C209.287 1401.68 206.785 1404.18 206.785 1407.27C206.785 1410.35 209.287 1412.85 212.374 1412.85Z" fill="#FEFEFE"/>
<path d="M267.702 1373.73C270.48 1373.73 272.732 1371.73 272.732 1369.26C272.732 1366.79 270.48 1364.79 267.702 1364.79C264.924 1364.79 262.672 1366.79 262.672 1369.26C262.672 1371.73 264.924 1373.73 267.702 1373.73Z" fill="#FEFEFE"/>
<path d="M293.972 1355.85C297.058 1355.85 299.56 1353.6 299.56 1350.82C299.56 1348.04 297.058 1345.79 293.972 1345.79C290.885 1345.79 288.383 1348.04 288.383 1350.82C288.383 1353.6 290.885 1355.85 293.972 1355.85Z" fill="#FEFEFE"/>
<path d="M251.748 1395.52L238.262 1375.14L230.009 1380.6L243.495 1400.98L251.748 1395.52Z" fill="#FEFEFE"/>
<path fill-rule="evenodd" clip-rule="evenodd" d="M342.035 1270.57C363.893 1281.95 379.141 1296.41 384.371 1325.67L391.217 1323.11L389.789 1314.48C383.348 1292.71 367.519 1273.21 345.78 1264.19L342.037 1270.57H342.035Z" fill="#FEFEFE"/>
<path fill-rule="evenodd" clip-rule="evenodd" d="M949.106 753.184C950.491 752.971 951.908 752.531 953.443 752.285C965.806 750.304 973.03 752.112 978.739 738.302C984.33 724.777 983.056 713.782 975.816 702.249C967.768 689.427 964.589 686.873 952.32 678.024C942.106 670.657 927.079 666.224 913.218 664.441C899.14 662.631 887.996 665.07 877.279 669.322C857.251 677.27 838.14 699.837 830.251 718.586C826.233 728.135 823.69 748.046 833.425 754.429C832.576 756.782 829.101 763.564 829.554 765.626C829.809 766.783 833.793 771.976 834.752 773.419C836.482 776.022 837.939 778.973 839.596 781.623C845.45 790.984 853.233 797.43 865.75 795.782C873.638 794.744 875.498 789.335 878.505 780.829L888.555 780.125C890.357 772.608 886.547 768.863 886.504 764.225C893.697 765.73 898.533 768.766 905.519 770.831C913.445 773.174 917.749 773.071 925.361 773.438C931.694 773.743 937.85 773.493 941.697 770.268C946.488 766.251 947.168 759.857 949.105 753.184L949.106 753.184Z" fill="#FEFEFE"/>
<path fill-rule="evenodd" clip-rule="evenodd" d="M813.143 715.778C816.303 701.856 821.849 690.163 829.065 680.075C833.866 673.362 840.377 666.858 846.702 662.248C866.933 647.504 892.28 641.152 923.955 648.327C952.925 654.89 970.284 668.752 984.134 685.937C996.19 700.896 1010.04 728.631 1005.62 748C1004.74 751.866 1003.72 753.661 1002.55 757.108C999.564 765.904 998.487 773.732 1001.47 782.283C1003.06 786.825 1006.02 791.015 1008.12 794.796C1009.81 797.826 1009.9 797.555 1011.25 801.177C1011.95 803.06 1012.66 806.166 1012.57 808.506C1012.5 810.598 1011.84 810.83 1010.31 811.26C1009.17 811.581 1007.93 811.901 1006.69 812.136C994.009 814.544 993.464 812.338 993.256 826.661C993.176 832.175 993.727 832.478 991.253 834.042C987.022 836.716 987.712 837.651 988.68 839.697C990.375 843.281 990.2 843.145 988.199 847.067C983.604 856.074 985.345 862.328 981.591 871.72C980.884 873.488 980.109 873.825 978.41 874.199C969.877 876.077 952.642 868.323 941.179 875.001C937.334 877.24 932.305 882.57 931.913 889.383C931.837 890.694 932.038 892.803 932.506 893.747C933.308 895.365 935.135 894.439 936.222 893.956C940.289 892.149 938.614 890.158 940.958 886.487C942.607 883.905 945.027 882.17 947.118 881.254C958.607 876.221 972.77 886.965 984.014 880.206C986.393 878.775 987.852 876.59 988.699 872.914C989.358 870.543 990.871 860.85 991.549 857.523C992.404 853.32 993.981 850.991 995.984 847.895C1000.23 841.332 996.606 840.51 997.797 838.993C998.795 837.722 999.989 837.176 1000.53 835.272C1001.11 833.236 999.969 825.312 1000.68 820.47C1007.01 819.97 1013.75 819.518 1017.77 816.189C1022.99 811.855 1020.22 803.079 1018.3 798.736C1015.93 793.392 1013.41 788.691 1011.05 783.512C1009.03 779.097 1006.31 772.418 1007.8 765.872C1009.07 760.315 1011.23 756.129 1012.42 750.884C1017.02 730.695 1006.62 705.423 996.503 688.869C995.088 686.554 993.228 684.163 991.537 681.828C990.665 680.624 989.662 679.435 988.727 678.342C987.726 677.17 986.906 676.189 985.882 675.046C960.996 647.245 920.58 633.244 883.525 639.157C869.15 641.45 857.496 645.871 845.652 653.367C844.285 654.233 843.047 655.16 841.95 655.846C840.757 656.593 839.501 657.578 838.37 658.513C837.205 659.476 836.218 660.236 835.041 661.296C825.707 669.703 817.982 679.672 812.574 691.64C804.688 709.092 801.013 729.631 802.444 748.389C805.205 784.588 829.128 798.992 820.672 836.011C819.246 842.251 817.654 847.207 815.375 853.004C814.403 855.476 811.241 861.934 811.992 864.505C812.272 865.463 813.579 866.472 814.728 866.389C815.91 866.304 818.949 863.551 819.868 862.452C821.337 860.694 822.319 858.143 823.293 855.798C830.097 839.427 832.467 823.025 828.732 805.874C824.31 785.573 812.392 773.336 810.369 750.833C809.411 740.168 810.507 727.391 813.143 715.779L813.143 715.778Z" fill="#FEFEFE"/>
<g filter="url(#filter0_d_95_6608)">
<path d="M1339.48 1384.91L1364.59 1328.57H1377.46L1402.65 1384.91H1388.97L1368.37 1335.17H1373.52L1352.84 1384.91H1339.48ZM1352.03 1372.84L1355.49 1362.94H1384.46L1388.01 1372.84H1352.03Z" fill="#FEFEFE"/>
<path d="M1428.14 1385.55C1423.48 1385.55 1419.32 1384.62 1415.67 1382.74C1412.02 1380.81 1409.15 1378.15 1407.06 1374.77C1405.02 1371.39 1404 1367.55 1404 1363.26C1404 1358.92 1405.02 1355.08 1407.06 1351.75C1409.15 1348.37 1412.02 1345.74 1415.67 1343.87C1419.32 1341.93 1423.48 1340.97 1428.14 1340.97C1432.7 1340.97 1436.67 1341.93 1440.05 1343.87C1443.43 1345.74 1445.93 1348.45 1447.54 1351.99L1437.8 1357.23C1436.67 1355.19 1435.25 1353.68 1433.54 1352.72C1431.87 1351.75 1430.05 1351.27 1428.06 1351.27C1425.92 1351.27 1423.99 1351.75 1422.27 1352.72C1420.55 1353.68 1419.18 1355.05 1418.16 1356.82C1417.2 1358.59 1416.72 1360.74 1416.72 1363.26C1416.72 1365.78 1417.2 1367.93 1418.16 1369.7C1419.18 1371.47 1420.55 1372.84 1422.27 1373.8C1423.99 1374.77 1425.92 1375.25 1428.06 1375.25C1430.05 1375.25 1431.87 1374.8 1433.54 1373.88C1435.25 1372.92 1436.67 1371.39 1437.8 1369.3L1447.54 1374.61C1445.93 1378.1 1443.43 1380.81 1440.05 1382.74C1436.67 1384.62 1432.7 1385.55 1428.14 1385.55Z" fill="#FEFEFE"/>
<path d="M1475.14 1385.55C1470.47 1385.55 1466.32 1384.62 1462.67 1382.74C1459.02 1380.81 1456.15 1378.15 1454.06 1374.77C1452.02 1371.39 1451 1367.55 1451 1363.26C1451 1358.92 1452.02 1355.08 1454.06 1351.75C1456.15 1348.37 1459.02 1345.74 1462.67 1343.87C1466.32 1341.93 1470.47 1340.97 1475.14 1340.97C1479.7 1340.97 1483.67 1341.93 1487.05 1343.87C1490.43 1345.74 1492.93 1348.45 1494.54 1351.99L1484.8 1357.23C1483.67 1355.19 1482.25 1353.68 1480.53 1352.72C1478.87 1351.75 1477.05 1351.27 1475.06 1351.27C1472.92 1351.27 1470.98 1351.75 1469.27 1352.72C1467.55 1353.68 1466.18 1355.05 1465.16 1356.82C1464.2 1358.59 1463.71 1360.74 1463.71 1363.26C1463.71 1365.78 1464.2 1367.93 1465.16 1369.7C1466.18 1371.47 1467.55 1372.84 1469.27 1373.8C1470.98 1374.77 1472.92 1375.25 1475.06 1375.25C1477.05 1375.25 1478.87 1374.8 1480.53 1373.88C1482.25 1372.92 1483.67 1371.39 1484.8 1369.3L1494.54 1374.61C1492.93 1378.1 1490.43 1380.81 1487.05 1382.74C1483.67 1384.62 1479.7 1385.55 1475.14 1385.55Z" fill="#FEFEFE"/>
<path d="M1522.7 1385.55C1517.77 1385.55 1513.42 1384.59 1509.67 1382.66C1505.96 1380.73 1503.09 1378.1 1501.06 1374.77C1499.02 1371.39 1498 1367.55 1498 1363.26C1498 1358.92 1498.99 1355.08 1500.97 1351.75C1503.01 1348.37 1505.78 1345.74 1509.26 1343.87C1512.75 1341.93 1516.69 1340.97 1521.09 1340.97C1525.33 1340.97 1529.14 1341.88 1532.52 1343.7C1535.96 1345.48 1538.67 1348.05 1540.65 1351.43C1542.64 1354.76 1543.63 1358.75 1543.63 1363.42C1543.63 1363.91 1543.6 1364.47 1543.55 1365.11C1543.49 1365.7 1543.44 1366.27 1543.39 1366.8H1508.22V1359.48H1536.79L1531.96 1361.65C1531.96 1359.4 1531.5 1357.44 1530.59 1355.78C1529.68 1354.11 1528.42 1352.83 1526.81 1351.91C1525.2 1350.95 1523.32 1350.47 1521.17 1350.47C1519.03 1350.47 1517.12 1350.95 1515.46 1351.91C1513.85 1352.83 1512.59 1354.14 1511.68 1355.86C1510.77 1357.52 1510.31 1359.51 1510.31 1361.81V1363.74C1510.31 1366.1 1510.82 1368.2 1511.84 1370.02C1512.91 1371.79 1514.39 1373.16 1516.27 1374.13C1518.2 1375.04 1520.45 1375.49 1523.03 1375.49C1525.33 1375.49 1527.35 1375.15 1529.06 1374.45C1530.83 1373.75 1532.44 1372.7 1533.89 1371.31L1540.57 1378.55C1538.59 1380.81 1536.09 1382.55 1533.09 1383.78C1530.08 1384.96 1526.62 1385.55 1522.7 1385.55Z" fill="#FEFEFE"/>
<path d="M1566.55 1385.55C1562.85 1385.55 1559.28 1385.12 1555.85 1384.27C1552.47 1383.35 1549.79 1382.23 1547.8 1380.89L1551.99 1371.87C1553.97 1373.11 1556.31 1374.13 1558.99 1374.93C1561.73 1375.68 1564.41 1376.06 1567.04 1376.06C1569.93 1376.06 1571.97 1375.71 1573.15 1375.01C1574.39 1374.31 1575 1373.35 1575 1372.11C1575 1371.09 1574.52 1370.34 1573.56 1369.86C1572.64 1369.32 1571.41 1368.92 1569.85 1368.65C1568.3 1368.39 1566.58 1368.12 1564.7 1367.85C1562.88 1367.58 1561.03 1367.23 1559.15 1366.8C1557.27 1366.32 1555.56 1365.62 1554 1364.71C1552.44 1363.8 1551.18 1362.56 1550.22 1361.01C1549.3 1359.45 1548.85 1357.44 1548.85 1354.97C1548.85 1352.24 1549.63 1349.82 1551.18 1347.73C1552.79 1345.64 1555.1 1344 1558.1 1342.82C1561.11 1341.59 1564.7 1340.97 1568.89 1340.97C1571.84 1340.97 1574.84 1341.29 1577.9 1341.93C1580.96 1342.58 1583.51 1343.52 1585.55 1344.75L1581.36 1353.68C1579.27 1352.45 1577.15 1351.62 1575 1351.19C1572.91 1350.71 1570.87 1350.47 1568.89 1350.47C1566.1 1350.47 1564.06 1350.84 1562.77 1351.59C1561.48 1352.34 1560.84 1353.31 1560.84 1354.49C1560.84 1355.56 1561.3 1356.37 1562.21 1356.9C1563.17 1357.44 1564.43 1357.87 1565.99 1358.19C1567.55 1358.51 1569.24 1358.81 1571.06 1359.08C1572.94 1359.29 1574.82 1359.64 1576.69 1360.12C1578.57 1360.61 1580.26 1361.3 1581.76 1362.22C1583.32 1363.07 1584.58 1364.28 1585.55 1365.84C1586.51 1367.34 1587 1369.32 1587 1371.79C1587 1374.47 1586.19 1376.86 1584.58 1378.95C1582.97 1380.99 1580.64 1382.6 1577.58 1383.78C1574.57 1384.96 1570.9 1385.55 1566.55 1385.55Z" fill="#FEFEFE"/>
<path d="M1609.31 1385.55C1605.61 1385.55 1602.04 1385.12 1598.6 1384.27C1595.22 1383.35 1592.54 1382.23 1590.56 1380.89L1594.74 1371.87C1596.73 1373.11 1599.06 1374.13 1601.74 1374.93C1604.48 1375.68 1607.16 1376.06 1609.79 1376.06C1612.69 1376.06 1614.73 1375.71 1615.91 1375.01C1617.14 1374.31 1617.76 1373.35 1617.76 1372.11C1617.76 1371.09 1617.28 1370.34 1616.31 1369.86C1615.4 1369.32 1614.16 1368.92 1612.61 1368.65C1611.05 1368.39 1609.34 1368.12 1607.46 1367.85C1605.63 1367.58 1603.78 1367.23 1601.9 1366.8C1600.03 1366.32 1598.31 1365.62 1596.75 1364.71C1595.2 1363.8 1593.94 1362.56 1592.97 1361.01C1592.06 1359.45 1591.6 1357.44 1591.6 1354.97C1591.6 1352.24 1592.38 1349.82 1593.94 1347.73C1595.55 1345.64 1597.85 1344 1600.86 1342.82C1603.86 1341.59 1607.46 1340.97 1611.64 1340.97C1614.59 1340.97 1617.6 1341.29 1620.66 1341.93C1623.71 1342.58 1626.26 1343.52 1628.3 1344.75L1624.12 1353.68C1622.02 1352.45 1619.9 1351.62 1617.76 1351.19C1615.67 1350.71 1613.63 1350.47 1611.64 1350.47C1608.85 1350.47 1606.81 1350.84 1605.53 1351.59C1604.24 1352.34 1603.59 1353.31 1603.59 1354.49C1603.59 1355.56 1604.05 1356.37 1604.96 1356.9C1605.93 1357.44 1607.19 1357.87 1608.74 1358.19C1610.3 1358.51 1611.99 1358.81 1613.82 1359.08C1615.69 1359.29 1617.57 1359.64 1619.45 1360.12C1621.33 1360.61 1623.02 1361.3 1624.52 1362.22C1626.07 1363.07 1627.34 1364.28 1628.3 1365.84C1629.27 1367.34 1629.75 1369.32 1629.75 1371.79C1629.75 1374.47 1628.95 1376.86 1627.34 1378.95C1625.73 1380.99 1623.39 1382.6 1620.33 1383.78C1617.33 1384.96 1613.65 1385.55 1609.31 1385.55Z" fill="#FEFEFE"/>
<path d="M1665.34 1385.88C1661 1385.88 1656.95 1385.18 1653.19 1383.78C1649.49 1382.33 1646.27 1380.3 1643.53 1377.67C1640.8 1375.04 1638.65 1371.95 1637.09 1368.41C1635.59 1364.87 1634.84 1360.98 1634.84 1356.74C1634.84 1352.5 1635.59 1348.61 1637.09 1345.07C1638.65 1341.53 1640.8 1338.45 1643.53 1335.82C1646.32 1333.19 1649.57 1331.18 1653.27 1329.78C1656.97 1328.33 1661.02 1327.61 1665.42 1327.61C1670.3 1327.61 1674.7 1328.47 1678.62 1330.18C1682.59 1331.85 1685.92 1334.32 1688.6 1337.59L1680.23 1345.31C1678.3 1343.11 1676.15 1341.48 1673.79 1340.41C1671.43 1339.28 1668.86 1338.72 1666.07 1338.72C1663.44 1338.72 1661.02 1339.14 1658.82 1340C1656.62 1340.86 1654.72 1342.1 1653.11 1343.7C1651.5 1345.31 1650.24 1347.22 1649.33 1349.42C1648.47 1351.62 1648.04 1354.06 1648.04 1356.74C1648.04 1359.43 1648.47 1361.87 1649.33 1364.07C1650.24 1366.27 1651.5 1368.17 1653.11 1369.78C1654.72 1371.39 1656.62 1372.62 1658.82 1373.48C1661.02 1374.34 1663.44 1374.77 1666.07 1374.77C1668.86 1374.77 1671.43 1374.23 1673.79 1373.16C1676.15 1372.03 1678.3 1370.34 1680.23 1368.09L1688.6 1375.82C1685.92 1379.09 1682.59 1381.58 1678.62 1383.3C1674.7 1385.02 1670.28 1385.88 1665.34 1385.88Z" fill="#FEFEFE"/>
<path d="M1716.51 1385.55C1711.58 1385.55 1707.23 1384.59 1703.48 1382.66C1699.77 1380.73 1696.9 1378.1 1694.87 1374.77C1692.83 1371.39 1691.81 1367.55 1691.81 1363.26C1691.81 1358.92 1692.8 1355.08 1694.78 1351.75C1696.82 1348.37 1699.59 1345.74 1703.07 1343.87C1706.56 1341.93 1710.5 1340.97 1714.9 1340.97C1719.14 1340.97 1722.95 1341.88 1726.33 1343.7C1729.77 1345.48 1732.48 1348.05 1734.46 1351.43C1736.45 1354.76 1737.44 1358.75 1737.44 1363.42C1737.44 1363.91 1737.41 1364.47 1737.36 1365.11C1737.3 1365.7 1737.25 1366.27 1737.2 1366.8H1702.03V1359.48H1730.6L1725.77 1361.65C1725.77 1359.4 1725.31 1357.44 1724.4 1355.78C1723.49 1354.11 1722.23 1352.83 1720.62 1351.91C1719.01 1350.95 1717.13 1350.47 1714.98 1350.47C1712.84 1350.47 1710.93 1350.95 1709.27 1351.91C1707.66 1352.83 1706.4 1354.14 1705.49 1355.86C1704.58 1357.52 1704.12 1359.51 1704.12 1361.81V1363.74C1704.12 1366.1 1704.63 1368.2 1705.65 1370.02C1706.72 1371.79 1708.2 1373.16 1710.08 1374.13C1712.01 1375.04 1714.26 1375.49 1716.84 1375.49C1719.14 1375.49 1721.15 1375.15 1722.87 1374.45C1724.64 1373.75 1726.25 1372.7 1727.7 1371.31L1734.38 1378.55C1732.4 1380.81 1729.9 1382.55 1726.9 1383.78C1723.89 1384.96 1720.43 1385.55 1716.51 1385.55Z" fill="#FEFEFE"/>
<path d="M1745.8 1384.91V1341.61H1757.79V1353.85L1756.1 1350.3C1757.39 1347.25 1759.45 1344.94 1762.3 1343.38C1765.14 1341.77 1768.6 1340.97 1772.68 1340.97V1352.56C1772.14 1352.5 1771.66 1352.48 1771.23 1352.48C1770.8 1352.42 1770.34 1352.4 1769.86 1352.4C1766.43 1352.4 1763.64 1353.39 1761.49 1355.37C1759.4 1357.31 1758.35 1360.34 1758.35 1364.47V1384.91H1745.8Z" fill="#FEFEFE"/>
<path d="M1799.34 1385.55C1794.24 1385.55 1790.27 1384.27 1787.43 1381.69C1784.59 1379.06 1783.16 1375.17 1783.16 1370.02V1332.04H1795.72V1369.86C1795.72 1371.68 1796.2 1373.11 1797.17 1374.13C1798.13 1375.09 1799.45 1375.57 1801.11 1375.57C1803.1 1375.57 1804.79 1375.04 1806.18 1373.97L1809.56 1382.82C1808.27 1383.73 1806.72 1384.43 1804.89 1384.91C1803.12 1385.34 1801.27 1385.55 1799.34 1385.55ZM1776.48 1352.24V1342.58H1806.5V1352.24H1776.48Z" fill="#FEFEFE"/>
<path d="M1816.61 1384.91V1341.61H1829.16V1384.91H1816.61ZM1822.89 1335.58C1820.58 1335.58 1818.7 1334.91 1817.25 1333.56C1815.8 1332.22 1815.08 1330.56 1815.08 1328.57C1815.08 1326.59 1815.8 1324.93 1817.25 1323.59C1818.7 1322.24 1820.58 1321.57 1822.89 1321.57C1825.19 1321.57 1827.07 1322.22 1828.52 1323.5C1829.97 1324.74 1830.69 1326.35 1830.69 1328.33C1830.69 1330.43 1829.97 1332.17 1828.52 1333.56C1827.13 1334.91 1825.25 1335.58 1822.89 1335.58Z" fill="#FEFEFE"/>
<path d="M1842.34 1384.91V1340.65C1842.34 1335.76 1843.79 1331.87 1846.69 1328.98C1849.59 1326.03 1853.72 1324.55 1859.08 1324.55C1860.91 1324.55 1862.65 1324.74 1864.32 1325.11C1866.03 1325.49 1867.48 1326.08 1868.66 1326.88L1865.36 1335.98C1864.66 1335.5 1863.89 1335.12 1863.03 1334.85C1862.17 1334.58 1861.26 1334.45 1860.29 1334.45C1858.47 1334.45 1857.05 1334.99 1856.03 1336.06C1855.06 1337.08 1854.58 1338.63 1854.58 1340.73V1344.75L1854.9 1350.14V1384.91H1842.34ZM1835.67 1352.24V1342.58H1865.68V1352.24H1835.67Z" fill="#FEFEFE"/>
<path d="M1878.2 1401.17C1875.94 1401.17 1873.72 1400.82 1871.52 1400.12C1869.32 1399.42 1867.52 1398.46 1866.13 1397.22L1870.71 1388.29C1871.68 1389.15 1872.78 1389.82 1874.01 1390.3C1875.3 1390.79 1876.56 1391.03 1877.79 1391.03C1879.57 1391.03 1880.96 1390.6 1881.98 1389.74C1883.05 1388.93 1884.02 1387.57 1884.88 1385.63L1887.13 1380.32L1888.1 1378.95L1903.63 1341.61H1915.7L1896.14 1387.57C1894.75 1391.05 1893.14 1393.79 1891.32 1395.77C1889.54 1397.76 1887.56 1399.16 1885.36 1399.96C1883.21 1400.76 1880.83 1401.17 1878.2 1401.17ZM1885.6 1386.6L1866.29 1341.61H1879.24L1894.21 1377.83L1885.6 1386.6Z" fill="#FEFEFE"/>
</g>
<defs>
<filter id="filter0_d_95_6608" x="1333.48" y="1321.57" width="588.223" height="91.5938" filterUnits="userSpaceOnUse" color-interpolation-filters="sRGB">
<feFlood flood-opacity="0" result="BackgroundImageFix"/>
<feColorMatrix in="SourceAlpha" type="matrix" values="0 0 0 0 0 0 0 0 0 0 0 0 0 0 0 0 0 0 127 0" result="hardAlpha"/>
<feOffset dy="6"/>
<feGaussianBlur stdDeviation="3"/>
<feComposite in2="hardAlpha" operator="out"/>
<feColorMatrix type="matrix" values="0 0 0 0 0 0 0 0 0 0 0 0 0 0 0 0 0 0 0.25 0"/>
<feBlend mode="normal" in2="BackgroundImageFix" result="effect1_dropShadow_95_6608"/>
<feBlend mode="normal" in="SourceGraphic" in2="effect1_dropShadow_95_6608" result="shape"/>
</filter>
</defs>
</svg>
