<svg width="72" height="57" viewBox="0 0 72 57" fill="none" xmlns="http://www.w3.org/2000/svg">
<path fill-rule="evenodd" clip-rule="evenodd" d="M68.7776 20.7161L68.8109 20.6847C68.6071 20.3784 68.3229 19.4891 68.1483 19.0776C67.9127 18.5226 67.677 18.0271 67.3921 17.451C66.87 16.3947 66.1293 15.1527 65.2479 14.6022C64.2098 13.9537 64.0089 14.9503 62.37 15.9823C60.8212 16.9575 60.3756 16.7742 59.4583 15.7399C59.0782 15.3112 58.7215 14.7003 58.6844 14.1861C58.5729 12.6389 59.4665 12.6266 60.7723 11.9875C61.091 11.8315 62.2784 11.5115 62.4219 11.3896C62.7233 11.1336 62.4919 10.3076 62.2867 9.88721C62.0369 9.37517 61.5492 8.73204 61.2042 8.28839L59.0172 4.79379L58.857 4.95537C57.7921 5.88646 54.2752 8.73392 53.068 8.67648C52.0001 8.62566 51.6799 5.18767 50.4943 4.73518C49.8905 4.50479 48.8259 4.9721 48.5524 5.01084L47.568 5.66774C47.5611 5.67929 47.4061 5.80208 47.3949 5.79651C47.3916 5.7949 46.6394 6.37329 46.6073 7.00433C46.5281 8.55906 49.3141 10.2846 48.824 11.3504C48.549 11.9485 45.4769 13.6761 44.4751 14.105C43.9847 14.315 43.3937 14.7009 42.9496 14.9105C43.5274 15.9962 44.1087 17.1335 44.6343 18.2444C45.158 19.351 45.8037 20.5936 46.8851 20.6186C48.0237 20.645 48.1663 19.5092 49.8449 18.5808C50.4417 18.2507 50.9719 18.1364 51.399 18.4263C52.3507 19.072 53.0852 20.1265 52.9744 21.3262C52.9111 22.013 52.8668 22.1206 52.0256 22.611C51.4739 22.9325 50.8816 23.2326 50.3119 23.4905C49.6685 23.7817 49.0748 23.8369 48.9577 24.5141C48.703 25.9864 50.5922 27.9144 51.5673 29.0317C51.8543 29.3605 52.5021 30.2094 52.7829 30.3954C52.7971 30.2136 53.1907 29.9962 53.5093 29.7511C54.3108 29.1344 56.7972 27.2055 57.4166 26.8074C59.2516 25.6278 59.493 26.9508 59.9028 27.9916C60.1472 28.6123 60.1632 28.9732 60.5815 29.6362C61.8622 31.6664 64.5214 29.4594 64.8337 28.7262C65.228 27.8008 64.0405 26.1633 63.4912 25.5459C63.1374 25.1482 62.5747 24.6997 62.7055 24.138C63.0943 22.4692 66.6514 21.2748 68.3669 20.7846C68.5214 20.7404 68.6258 20.683 68.7776 20.7162L68.7776 20.7161Z" fill="#7503A6"/>
<path fill-rule="evenodd" clip-rule="evenodd" d="M41.3654 33.1394C41.3782 33.5305 41.7721 35.547 41.8676 36.4292C41.9847 37.512 42.1945 39.0453 41.6148 39.7894C40.5948 41.0987 38.0081 39.1326 36.6731 40.4808C36.1382 41.0211 36.268 41.4467 36.0826 41.9351C36.0793 41.9436 36.069 41.9768 36.0666 41.97C36.0641 41.9633 36.0561 41.9937 36.0498 42.005V42.925C36.1527 43.2023 36.2689 44.0366 36.6905 44.4286C38.4566 45.4502 40.4723 43.5834 41.5 44.7955C42.084 45.4842 41.7993 47.039 41.7464 48.0647C41.6587 49.7632 41.6623 50.302 41.5 51.493C43.2384 51.7508 47.0696 52.1564 48.4719 51.2176C49.2854 50.6729 48.4013 49.9231 48.576 47.9112C48.6303 47.285 48.7892 46.7698 49.168 46.5113C49.6893 46.1554 51.5477 45.8736 52.3907 46.5568C52.5529 46.6882 52.7151 46.8472 52.8489 47.0682C53.0389 47.382 53.0003 47.4979 52.9596 47.8978C52.8795 48.6851 52.7313 49.6769 52.494 50.4392C52.373 50.828 52.349 50.9036 52.6344 51.1147C53.4448 51.7138 55.0491 51.486 56.1431 51.4218C56.6492 51.3921 59.7063 51.2688 59.9069 51.1726L59.7834 51.1349L59.5182 47.3725C59.463 46.8134 59.3933 46.0095 59.4511 45.4429C59.4985 44.9777 59.7323 44.1548 60.1104 44.0977C60.2903 44.0705 61.4267 44.4291 61.7676 44.466C63.1645 44.6169 63.9026 45.0806 64.6042 43.7098C64.8373 43.2544 64.8583 42.5472 64.7667 41.9822C64.5456 40.6188 64.2746 40.227 62.5066 40.2321C60.6355 40.2374 59.9603 40.9757 59.4425 39.8752C59.0029 38.941 59.0328 37.4952 59.1465 36.3228C59.2086 35.6834 59.2694 35.1383 59.361 34.5428C59.4288 34.1014 59.6519 33.1967 59.642 32.829C59.3898 32.8455 58.9706 32.7597 58.6738 32.7347L55.9556 32.3322C54.8158 32.0863 53.3289 32.1388 52.7723 33.0295C52.4201 33.5932 52.5759 34.1556 52.722 34.7363C52.9201 35.5235 53.3164 37.6512 52.4349 38.1411C51.6123 38.5983 50.0023 38.6148 49.057 37.9777C48.8896 37.8649 48.5755 37.6005 48.4932 37.4812C48.2791 37.1709 48.5491 34.9913 48.6058 34.6338C48.7272 33.8679 48.942 33.5829 48.4301 33.0176C48.0448 32.5921 47.5535 32.5405 46.9462 32.4184C45.784 32.1848 44.238 32.6428 43.2069 32.7512C42.3979 32.8363 41.7312 33.1084 41.3654 33.1394Z" fill="#D91424"/>
<path d="M41.3139 14.7338C41.2365 15.2067 41.166 15.526 41.102 15.8157C40.9798 16.3693 40.8814 16.8148 40.8045 18.017C40.7445 18.9545 40.7383 19.8647 40.7894 20.8024C40.8004 21.0056 40.8305 21.1288 40.8987 21.2218C40.9588 21.3038 41.0462 21.3579 41.1553 21.4254C41.1668 21.4325 41.1786 21.4398 41.1906 21.4472C41.5544 21.6739 41.9749 21.7492 42.4134 21.7546C42.8163 21.7595 43.2388 21.7052 43.6505 21.6524C43.6863 21.6478 43.722 21.6432 43.7576 21.6386C44.2049 21.5817 44.6359 21.5326 45.0217 21.5656C45.4063 21.5985 45.741 21.7124 45.9995 21.9774C46.2464 22.2305 46.319 22.4446 46.361 22.6581C46.3705 22.7061 46.3784 22.7549 46.3865 22.8047C46.414 22.9731 46.4432 23.1526 46.5382 23.3481V24.3369C46.515 24.3869 46.4944 24.4496 46.4733 24.5189C46.465 24.5464 46.4565 24.575 46.4478 24.6046C46.4324 24.6566 46.4161 24.7119 46.3975 24.7707C46.3394 24.9536 46.2616 25.1605 46.1352 25.3582C45.8845 25.7503 45.4382 26.1135 44.5543 26.1644C44.2909 26.1795 43.9729 26.1574 43.649 26.1254C43.5204 26.1127 43.3903 26.0984 43.2628 26.0843C43.0715 26.0633 42.8857 26.0428 42.7183 26.0293C42.5507 26.0158 42.4019 25.9995 42.2681 25.9848C42.2246 25.98 42.1826 25.9754 42.1421 25.9711C41.9784 25.9538 41.8376 25.9418 41.7164 25.9467C41.5946 25.9517 41.4889 25.9739 41.3966 26.0278C41.3039 26.0819 41.2295 26.1651 41.1657 26.2842C40.9424 26.7005 40.8548 27.3237 40.8325 27.961C40.8101 28.6003 40.8533 29.2622 40.8969 29.7611L40.8968 29.7611L40.8972 29.7637L41.3646 33.086C41.3455 33.1041 41.3144 33.1209 41.2681 33.1352C41.2115 33.1526 41.1392 33.1641 41.0554 33.1726C40.9743 33.1807 40.8848 33.1857 40.791 33.191L40.7823 33.1915C40.6857 33.1969 40.5851 33.2027 40.4872 33.2125C40.3679 33.2245 40.2179 33.2397 40.0453 33.2573C38.8077 33.383 36.4049 33.627 35.7832 33.6348C35.2603 33.6414 34.9047 33.5685 34.667 33.4434C34.4318 33.3196 34.3092 33.1433 34.2533 32.9329C34.1966 32.7196 34.2081 32.4694 34.2478 32.1999C34.272 32.0354 34.3058 31.8682 34.3399 31.6998C34.362 31.5905 34.3842 31.4808 34.404 31.3708C34.441 31.1651 34.484 30.9914 34.5253 30.8246C34.6134 30.4692 34.6937 30.1449 34.6919 29.6077C34.6897 28.9948 34.4763 28.5595 34.1435 28.2619C33.8123 27.9657 33.3676 27.8099 32.9083 27.7451C32.4486 27.6802 31.9702 27.7058 31.5669 27.7763C31.1658 27.8464 30.8314 27.9621 30.664 28.0829C30.4531 28.2351 30.3074 28.4799 30.2081 28.7678C30.1087 29.0562 30.0543 29.3925 30.0293 29.7341C29.9792 30.4173 30.0463 31.1295 30.1135 31.5397C30.1284 31.6307 30.1471 31.7243 30.1661 31.8192C30.2034 32.0053 30.2417 32.1966 30.2542 32.3843C30.273 32.6649 30.2318 32.9187 30.0488 33.107C29.7661 33.3981 29.3381 33.5673 28.8219 33.6467C28.3064 33.726 27.7087 33.7148 27.0934 33.6503C25.8631 33.5214 24.5713 33.1802 23.7442 32.9332C23.707 32.9221 23.6734 32.9135 23.6425 32.9055C23.5482 32.8812 23.4792 32.8634 23.4117 32.8028C23.4487 32.5451 23.5017 32.3139 23.5556 32.0791C23.5585 32.0664 23.5614 32.0537 23.5643 32.041C23.6228 31.7857 23.6812 31.5248 23.7183 31.2236C23.8654 30.0315 23.8527 28.712 23.6123 27.5483C23.574 27.3626 23.4906 27.0541 23.3845 26.7757C23.3315 26.6365 23.2722 26.5033 23.2093 26.3963C23.1478 26.2916 23.0777 26.203 22.9997 26.1648C22.7227 26.0291 22.3214 26.0083 21.8748 26.0239C21.6501 26.0318 21.4112 26.049 21.1676 26.0668L21.1523 26.068C20.9132 26.0854 20.6696 26.1032 20.4285 26.1132C19.9352 26.1337 19.4577 26.1211 19.0594 26.0083C18.6628 25.896 18.3486 25.6855 18.1736 25.3112L18.1283 25.3324L18.1736 25.3112C17.9607 24.8557 17.9108 24.2301 17.9877 23.6308L17.9381 23.6244L17.9877 23.6308C18.0671 23.0113 18.2083 22.5824 18.4029 22.2897C18.5963 21.9989 18.8442 21.8396 19.1452 21.762C19.4485 21.6838 19.8068 21.6881 20.2196 21.7286C20.4607 21.7523 20.7166 21.7878 20.9892 21.8256C21.1849 21.8528 21.3892 21.8811 21.6027 21.9071C21.7719 21.9277 21.9299 21.9598 22.0775 21.9915C22.1001 21.9964 22.1225 22.0012 22.1446 22.006C22.2666 22.0325 22.3821 22.0576 22.489 22.0732C22.7414 22.1101 22.9641 22.0974 23.133 21.9125C23.2965 21.7336 23.3996 21.4025 23.452 20.8378C23.5048 20.2701 23.5072 19.4548 23.4587 18.2952C23.4456 17.9815 23.4143 17.6721 23.3831 17.371C23.3814 17.3551 23.3798 17.3394 23.3781 17.3236C23.3485 17.0386 23.3196 16.7613 23.3065 16.4924C23.2926 16.2105 23.2485 15.9311 23.2023 15.6502C23.1993 15.632 23.1963 15.6137 23.1933 15.5955C23.1522 15.3461 23.1108 15.0952 23.0877 14.8366C23.8752 14.6834 24.7006 14.5656 25.5215 14.4483C25.8741 14.398 26.226 14.3477 26.5736 14.2949C27.1103 14.2132 27.7875 14.1747 28.4162 14.2344C29.0472 14.2944 29.6189 14.4527 29.9546 14.7558C30.0798 14.8688 30.154 14.9774 30.1953 15.0855C30.2366 15.1936 30.2463 15.3047 30.2376 15.4246C30.2289 15.5454 30.2018 15.673 30.1706 15.8152C30.1689 15.8226 30.1673 15.8301 30.1656 15.8376C30.1359 15.9726 30.1036 16.1194 30.0827 16.2797C30.0546 16.4961 29.9763 17.1141 29.931 17.7232C29.9083 18.0277 29.8938 18.331 29.8981 18.5813C29.9003 18.7064 29.9071 18.8192 29.9202 18.9129C29.9332 19.0051 29.9528 19.0842 29.9838 19.1378C30.1446 19.4161 30.4694 19.6745 30.8504 19.8663C31.2324 20.0586 31.6778 20.1875 32.0868 20.2016C32.7178 20.2234 33.2997 20.0838 33.8297 19.8793C34.3777 19.6679 34.5597 19.064 34.5875 18.4316C34.6156 17.7947 34.489 17.103 34.3939 16.6766C34.3647 16.5459 34.3313 16.426 34.3003 16.3143C34.2927 16.2871 34.2853 16.2604 34.2781 16.2341C34.2411 16.0992 34.2102 15.9761 34.1955 15.8549C34.1664 15.616 34.2 15.3811 34.3881 15.0843C34.6694 14.6404 35.1502 14.4357 35.7237 14.3625C36.2974 14.2893 36.9549 14.3492 37.577 14.4264C38.1915 14.5028 38.8299 14.5509 39.4688 14.595C39.5733 14.6022 39.6778 14.6093 39.7822 14.6164C40.2985 14.6514 40.8127 14.6864 41.3139 14.7338Z" fill="#0357A0" stroke="#FEFEFE" stroke-width="0.1"/>
<path fill-rule="evenodd" clip-rule="evenodd" d="M5.17861 33.1353C5.19137 33.5264 5.61667 35.5624 5.7121 36.4445C5.82928 37.5273 5.86763 39.0464 5.28794 39.7906C4.26796 41.0999 2.00685 39.3671 0.6719 40.7153C0.136919 41.2556 0.218205 41.4478 0.0327598 41.9362C0.0295291 41.9447 0.019223 41.9779 0.0167676 41.9712C0.0142799 41.9644 0.00626766 41.9948 0 42.0061V42.9261C0.1029 43.2034 0.0899442 43.8495 0.511525 44.2414C1.6072 45.2602 4.14541 43.5845 5.17315 44.7966C5.75714 45.4853 5.63479 47.0046 5.58187 48.0303C5.49422 49.7288 5.23204 50.1291 5.06976 51.3201C6.80814 51.5778 10.7428 52.1575 12.145 51.2187C12.9586 50.674 12.0744 49.9242 12.2491 47.9123C12.3035 47.2861 12.4623 46.7709 12.8411 46.5124C13.3625 46.1565 15.2209 45.8747 16.0639 46.5579C16.2261 46.6893 16.3882 46.8483 16.522 47.0693C16.712 47.3831 16.6734 47.499 16.6327 47.8989C16.5527 48.6862 16.4044 49.678 16.1671 50.4404C16.0462 50.8291 16.0221 50.9047 16.3076 51.1158C17.118 51.7149 18.7222 51.4871 19.8162 51.4229C20.3224 51.3932 23.3794 51.2699 23.5801 51.1737L23.4566 51.136L23.1913 47.3736C23.1361 46.8145 23.0664 46.0106 23.1242 45.4441C23.1717 44.9788 23.4055 44.1559 23.7835 44.0988C23.9635 44.0716 25.0999 44.4302 25.4408 44.4671C26.8377 44.618 27.5757 45.0817 28.2773 43.7109C28.5105 43.2555 28.5314 42.5483 28.4398 41.9833C28.2188 40.6199 27.9478 40.2281 26.1797 40.2332C24.3087 40.2385 23.6334 40.9768 23.1156 39.8763C22.6761 38.9421 22.706 37.4963 22.8197 36.324C22.8817 35.6845 22.9426 35.1394 23.0341 34.5439C23.102 34.1025 23.325 33.1978 23.3151 32.8302C23.063 32.8466 22.6437 32.7608 22.3469 32.7358L19.6287 32.3333C18.489 32.0874 17.002 32.1399 16.4455 33.0306C16.0933 33.5943 16.249 34.1567 16.3951 34.7374C16.5933 35.5246 16.9895 37.6523 16.1081 38.1422C15.2855 38.5994 13.6754 38.6159 12.7301 37.9788C12.5628 37.866 12.2487 37.6016 12.1664 37.4823C11.9523 37.172 12.2223 34.9924 12.279 34.6349C12.4003 33.869 12.6152 33.584 12.1032 33.0187C11.718 32.5932 11.2266 32.5416 10.6194 32.4196C9.45719 32.1859 7.91118 32.6439 6.88009 32.7524C6.07104 32.8374 5.5443 33.1044 5.17858 33.1353H5.17861Z" fill="#57A40A"/>
<path fill-rule="evenodd" clip-rule="evenodd" d="M23.3588 32.8212L23.3154 32.8303C23.3253 33.1979 23.1022 34.1026 23.0344 34.544C22.9429 35.1394 22.882 35.6845 22.82 36.3241C22.7062 37.4964 22.6763 38.9422 23.1159 39.8764C23.6337 40.9769 24.309 40.2386 26.18 40.2333C27.948 40.2282 28.219 40.62 28.4401 41.9834C28.5317 42.5484 28.5107 43.2555 28.2776 43.711C27.576 45.0818 26.8379 44.6181 25.441 44.4672C25.1001 44.4303 23.9637 44.0717 23.7838 44.0989C23.4058 44.1561 23.172 44.9789 23.1245 45.4442C23.0667 46.0107 23.1364 46.8146 23.1916 47.3737L23.4568 51.1361L23.5804 51.1738C24.9295 50.9494 29.0942 50.6719 30.0533 51.361C30.9018 51.9706 29.9728 55.0465 30.7118 56.059C31.0882 56.5746 31.6539 56.5532 31.8977 56.6654H33.0343C33.0459 56.6593 33.0636 56.6382 33.0699 56.6489C33.0718 56.652 33.8607 56.4867 34.2104 55.9688C35.072 54.6928 33.8477 51.7468 34.7952 51.1034C35.327 50.7422 38.9358 51.0114 39.9761 51.1793C40.4853 51.2615 41.0852 51.4416 41.5563 51.4996C41.6396 50.2727 41.7243 48.945 41.8631 47.7245C42.0014 46.5086 42.1095 45.1127 41.2367 44.5178C40.3179 43.8915 39.619 44.7785 37.7685 44.6751C37.1107 44.6383 36.6179 44.4539 36.4167 43.9816C35.9683 42.9293 35.9072 41.6459 36.6128 40.6876C37.0166 40.1391 37.108 40.0713 38.0482 40.1019C38.6647 40.122 39.3036 40.1819 39.9023 40.2655C40.5784 40.3599 41.0929 40.6281 41.5359 40.1162C42.499 39.0033 41.94 36.3667 41.714 34.9022C41.6475 34.4713 41.5521 33.408 41.4174 33.1014C41.3126 33.248 40.879 33.2235 40.4924 33.2622C39.52 33.3598 36.4954 33.6758 35.784 33.6848C33.6768 33.7112 34.1572 32.4617 34.355 31.3619C34.4729 30.7062 34.6448 30.3917 34.6421 29.6078C34.6337 27.2074 31.3251 27.6676 30.6935 28.1234C29.8963 28.6987 30.0296 30.7168 30.163 31.5316C30.249 32.0564 30.4799 32.7351 30.0849 33.1418C28.9113 34.3502 25.3862 33.4755 23.7301 32.9811C23.581 32.9366 23.4661 32.9299 23.3588 32.8212L23.3588 32.8212Z" fill="#7503A6"/>
<path fill-rule="evenodd" clip-rule="evenodd" d="M5.17924 33.1353C5.54496 33.1044 6.0717 32.8374 6.88075 32.7524C7.91184 32.644 9.45785 32.1859 10.62 32.4196C11.2273 32.5417 11.7186 32.5932 12.1039 33.0187C12.6159 33.584 12.401 33.869 12.2796 34.6349C12.223 34.9925 11.953 37.172 12.1671 37.4823C12.2494 37.6016 12.5634 37.8661 12.7308 37.9788C13.6761 38.6159 15.2862 38.5994 16.1088 38.1422C16.9902 37.6523 16.5939 35.5246 16.3958 34.7374C16.2496 34.1568 16.0939 33.5943 16.4461 33.0306C17.0027 32.14 18.4897 32.0875 19.6294 32.3334L22.3476 32.7359C22.6444 32.7608 23.0636 32.8466 23.3158 32.8302L23.3592 32.8212C23.4379 32.2523 23.5956 31.8143 23.6693 31.2174C23.8158 30.0296 23.803 28.7156 23.5639 27.5583C23.4882 27.1918 23.2334 26.3346 22.9783 26.2096C21.9204 25.6913 18.8602 26.8963 18.1289 25.3323C17.9105 24.8652 17.8611 24.2291 17.9387 23.6243C18.2583 21.1317 19.5811 21.6104 21.6093 21.8574C22.9816 22.0245 23.6032 22.9339 23.4093 18.2972C23.3832 17.6732 23.2851 17.0656 23.2571 16.4948C23.2298 15.9374 23.0825 15.3877 23.0346 14.7961C21.45 15.0859 17.7093 15.8183 16.577 14.6938C15.2036 13.3299 17.1686 10.7566 15.1641 9.64234C14.9322 9.51344 14.644 9.48087 14.4562 9.38459H13.6781C13.4827 9.48307 13.1582 9.53495 12.9387 9.62632C12.7261 9.71481 12.46 9.84901 12.3129 9.96962C10.9228 11.1097 12.7355 13.4368 11.8159 14.5978C11.1251 15.4698 6.17276 15.2029 5.13213 14.7007C4.80915 16.2256 4.39617 20.4882 5.20334 21.6812C5.78245 22.5372 6.30968 21.7094 8.39855 21.8185C9.84735 21.8941 10.167 22.3896 10.3014 23.7895C10.4107 24.9285 9.95975 26.1773 8.86795 26.2757C7.9876 26.3549 7.00859 26.3573 6.12911 26.2001C5.18066 26.0306 4.77866 25.2718 5.00629 29.4052C5.07107 30.5813 5.03431 32.0034 5.17914 33.1353L5.17924 33.1353Z" fill="#DC7B04"/>
<path fill-rule="evenodd" clip-rule="evenodd" d="M14.0673 19.8941H14.1842C14.8318 19.8941 14.3733 20.7204 14.1909 21.0189C14.0767 21.2058 13.4768 22.0326 13.301 22.2446C13.2508 22.3052 13.2158 22.3619 13.1695 22.4176C13.0794 22.5259 12.9938 22.648 12.9047 22.7611C12.851 22.8294 12.672 23.0406 12.6547 23.1074C12.6103 23.2796 12.7974 23.4633 12.9453 23.3981C13.0431 23.3551 13.4694 22.8679 13.5896 22.7683C13.6092 22.7522 13.6121 22.7495 13.6269 22.7348L13.8539 22.5053C14.063 22.2794 14.2528 22.1082 14.4548 21.8901C14.6206 21.7109 14.8769 21.7604 14.6361 22.2229L13.7918 24.0922C13.7118 24.3817 14.0857 24.5713 14.226 24.2916C14.4977 23.75 14.899 23.0927 15.2 22.5537C15.2415 22.4793 15.3882 22.1711 15.496 22.2824C15.5823 22.3717 15.5073 22.6723 15.5022 22.8008C15.4948 22.986 15.4574 23.1712 15.4432 23.3506C15.4152 23.7055 15.3311 24.0857 15.3311 24.4496C15.3311 24.6035 15.4266 24.6618 15.5764 24.6517C15.7632 24.6391 15.8129 24.1774 15.8338 24.0162C15.8632 23.7904 15.9256 23.4864 15.9615 23.245L16.1045 22.4846C16.1303 22.3825 16.1769 22.2088 16.2989 22.2275C16.4965 22.2576 16.477 22.7019 16.5108 22.9093C16.5236 22.9881 16.5246 23.0225 16.5302 23.1052C16.5334 23.1519 16.5424 23.1607 16.5473 23.1991C16.552 23.2367 16.5477 23.2728 16.5543 23.31C16.5858 23.4881 16.5885 23.9725 16.6891 24.0729C16.7748 24.1584 16.9664 24.1173 16.9876 23.9924C17.1158 23.238 16.9204 22.0759 17.1348 21.5511C17.2048 21.3796 17.2945 21.2231 17.3629 21.0311C17.4971 20.6545 17.681 20.2465 17.6768 19.8421C17.6749 19.6572 17.5878 19.3733 17.4824 19.2806C17.4444 19.2472 17.2877 19.1858 17.2344 19.154C16.9181 18.9652 16.865 18.9095 16.6087 18.6576C16.5398 18.5899 16.4935 18.5246 16.3907 18.4981C16.1449 18.4346 15.9177 18.4478 15.6705 18.499C15.6287 18.5076 15.574 18.5307 15.5305 18.5465L14.8733 18.823C14.7975 18.8526 14.3181 19.0833 14.2461 19.1325C14.107 19.2274 13.487 19.4131 13.287 19.4815C13.2039 19.5099 13.0423 19.5011 12.9436 19.5139C12.5722 19.5622 12.9336 19.9207 13.3539 19.924C13.4782 19.9249 13.6045 19.9253 13.7288 19.9227C13.7849 19.9216 13.9432 19.8941 14.0673 19.8941H14.0673Z" fill="#FEFEFE"/>
<path fill-rule="evenodd" clip-rule="evenodd" d="M12.107 16.0067C12.107 16.1183 12.1481 16.3891 12.1585 16.5683C12.1682 16.7353 12.1808 16.9569 12.2046 17.1195C12.23 17.2925 12.2131 17.5157 12.2351 17.6875C12.2481 17.7893 12.2518 17.8479 12.2535 17.9599C12.2543 18.0109 12.3359 18.4682 12.1715 18.428C12.1148 18.4141 12.0654 18.3409 12.0358 18.2968C11.8532 18.0246 11.2799 16.772 11.0995 16.5077C10.9866 16.3424 10.7796 16.4746 10.7508 16.5351C10.6913 16.6603 10.799 16.8697 10.8409 16.965C11.0656 17.4759 11.2854 17.948 11.5043 18.4754C11.5403 18.5621 11.6441 18.7966 11.5689 18.8868C11.4875 18.9845 11.3032 18.8564 11.2156 18.7536L10.9661 18.454C10.944 18.4238 10.9293 18.4095 10.9065 18.3843C10.8808 18.356 10.8697 18.3351 10.8449 18.3062C10.8042 18.2589 10.7579 18.1992 10.7168 18.1538L10.4711 17.8617C10.401 17.7803 10.2858 17.6091 10.1858 17.594C10.0626 17.5753 9.89806 17.6754 10.0034 17.8738C10.0686 17.9966 10.1319 18.1078 10.204 18.2224L10.6335 18.8808C10.7789 19.0951 10.9425 19.3079 11.0626 19.5494C11.2246 19.8753 11.2294 20.0644 11.2879 20.4154C11.3372 20.7112 11.4312 21.0062 11.5188 21.269C11.6227 21.5808 11.8451 21.9157 12.1364 22.0082C12.203 22.0294 12.3129 22.0048 12.3861 21.9962C12.4566 21.9878 12.5787 21.984 12.6424 21.9812C12.9388 21.968 12.8557 22.094 13.0595 21.8045C13.1516 21.6737 13.2508 21.5612 13.3496 21.4155C13.4772 21.2274 13.6341 21.0408 13.7775 20.8153C13.8153 20.756 13.9962 20.4153 14.0034 20.3629C13.9067 20.3518 13.8675 20.3699 13.7983 20.3783L13.39 20.3833C12.4878 20.3833 12.0412 19.6292 12.5293 19.2036C12.6889 19.0644 12.815 19.0907 12.9954 19.0493C13.1052 19.0241 13.0517 19.0803 13.2537 19.0045L13.7247 18.8556C13.7983 18.8234 13.8868 18.7912 13.9528 18.766C13.9613 18.6765 13.9438 18.5706 13.9558 18.4774C13.9682 18.3818 13.9608 18.2842 13.9653 18.1817C13.9738 17.9879 13.9918 17.7841 13.9925 17.597C13.9929 17.4957 14.0115 17.4545 14.0114 17.3515L14.0608 16.5718C14.0778 16.4831 14.0668 16.413 14.0795 16.3226C14.0925 16.2301 14.0996 16.1814 14.0461 16.0981C13.9904 16.0113 13.7437 15.9361 13.6646 16.0927C13.6265 16.168 13.5905 16.4478 13.5695 16.5518C13.5128 16.8327 13.4279 17.1981 13.3838 17.4759L13.2946 17.9447C13.2715 18.0539 13.2503 18.3175 13.1587 18.3581C13.0747 18.3952 13.008 18.3235 12.9816 18.2747C12.9273 18.1744 12.8511 17.5213 12.8142 17.3303C12.7582 17.0403 12.7123 16.6647 12.6577 16.3756C12.605 16.0963 12.6156 15.8854 12.4147 15.7896C12.3043 15.737 12.107 15.8391 12.107 16.0066L12.107 16.0067Z" fill="#FEFEFE"/>
<path fill-rule="evenodd" clip-rule="evenodd" d="M17.9856 20.4432C18.0982 20.3005 18.0983 20.0191 18.0995 19.7954C18.1008 19.5734 18.0095 19.3519 17.9229 19.1921L17.8301 19.1924C17.7919 19.288 17.8206 19.2661 17.8998 19.4724C17.941 19.5798 17.9562 19.6884 17.956 19.8188C17.9558 19.9631 17.9532 20.0527 17.9355 20.1901C17.9214 20.2998 17.8183 20.4472 17.9857 20.4432H17.9856Z" fill="#FEFEFE"/>
<path fill-rule="evenodd" clip-rule="evenodd" d="M18.3939 19.8306C18.3939 19.9973 18.3763 20.0534 18.3439 20.2104C18.3118 20.3661 18.2386 20.4706 18.2824 20.5205C18.3702 20.5719 18.4032 20.4795 18.43 20.4152C18.5202 20.1994 18.5518 19.8511 18.5152 19.6258C18.5046 19.5603 18.4542 19.3238 18.3955 19.29C18.3558 19.2672 18.3129 19.2893 18.2986 19.3247C18.288 19.3511 18.3423 19.4979 18.3573 19.5517C18.3821 19.6408 18.3938 19.7287 18.3938 19.8306H18.3939Z" fill="#FEFEFE"/>
<path fill-rule="evenodd" clip-rule="evenodd" d="M10.7289 21.7188C10.6925 21.754 10.6893 21.7254 10.7332 21.8764C10.7509 21.9373 10.7726 21.992 10.7985 22.0476C10.9132 22.2936 11.0757 22.5299 11.3015 22.6779C11.335 22.6998 11.4138 22.7629 11.4598 22.7321C11.5149 22.6953 11.4985 22.6403 11.4221 22.5931C11.3878 22.5719 11.3875 22.5713 11.3546 22.5435L11.3132 22.5157C11.311 22.5143 11.308 22.5126 11.3058 22.5111C11.14 22.3966 10.9938 22.1507 10.9095 21.9595C10.8444 21.8116 10.8349 21.6163 10.7289 21.7188H10.7289Z" fill="#FEFEFE"/>
<path fill-rule="evenodd" clip-rule="evenodd" d="M11.9285 22.4235C11.8797 22.382 11.7369 22.3174 11.6485 22.249C11.5864 22.2011 11.4742 22.0914 11.4252 22.0166C11.3663 21.9266 11.2984 21.8345 11.2506 21.7357C11.2322 21.6977 11.2027 21.6032 11.1855 21.5784C11.1423 21.5161 11.0533 21.5397 11.0683 21.6422C11.0907 21.7943 11.325 22.1211 11.4149 22.214C11.528 22.3309 11.6458 22.4294 11.8026 22.5043C11.8946 22.5483 11.9314 22.5256 11.9285 22.4236V22.4235Z" fill="#FEFEFE"/>
<path fill-rule="evenodd" clip-rule="evenodd" d="M29.6744 47.3076C29.6744 46.9749 29.6929 46.7284 29.8234 46.4382C29.8927 46.2841 29.8797 46.2984 29.9705 46.1533C30.0728 45.9899 30.2114 45.8142 30.3622 45.6963L30.6107 45.5128C30.7711 45.4246 31.0414 45.2868 31.2329 45.2709C31.2329 45.4789 31.2087 46.8521 31.2551 46.9459C31.2654 46.9669 31.3155 47.0412 31.3302 47.056C31.4072 47.1335 31.5061 47.1545 31.6182 47.1537L33.5174 47.1525C33.6502 47.1504 33.6452 47.1102 33.6238 47.3995C33.6173 47.4877 33.5856 47.6369 33.5662 47.7122C33.4058 48.3327 32.8917 48.8946 32.2688 49.0842C31.9498 49.1813 31.6135 49.2128 31.2774 49.1455L30.9764 49.0608C30.4412 48.8736 30.0295 48.4579 29.8153 47.9382C29.7549 47.7916 29.6744 47.5076 29.6744 47.3076ZM31.7453 49.869H31.532C31.1727 49.8549 30.8163 49.7692 30.4922 49.6067C30.2107 49.4656 29.8379 49.2039 29.6525 48.9652C29.6216 48.9254 29.6035 48.9146 29.5727 48.8752C29.3795 48.6279 29.3393 48.5437 29.2062 48.2696C28.916 47.672 28.9087 46.7872 29.1858 46.1709C29.3078 45.8997 29.356 45.8095 29.5245 45.5838C29.5649 45.5297 29.6094 45.4681 29.6548 45.421C30.1881 44.8673 30.5353 44.7236 31.2329 44.561C31.2329 44.345 31.2309 44.1282 31.2321 43.9123C31.2349 43.4321 31.9118 43.4973 31.9118 43.8821V44.6845H33.7325C34.1781 44.6845 34.1781 45.3789 33.7325 45.3789H31.9118V46.459H33.8406C34.023 46.459 34.1444 46.5545 34.1982 46.6877L34.4314 47.334C34.4682 47.4268 34.6532 47.925 34.6584 47.9865C34.8951 47.9865 35.132 47.9867 35.3687 47.986C35.885 47.9844 35.8113 48.6655 35.4299 48.6655H34.3961C34.2944 48.6655 34.2288 48.6173 34.1756 48.5619C34.1143 48.4983 34.0943 48.4526 34.072 48.3569C34.0401 48.3802 33.9378 48.584 33.8861 48.6647C33.7044 48.9483 33.4513 49.1963 33.1772 49.3909C32.7631 49.6849 32.2573 49.8489 31.7453 49.869Z" fill="#FEFEFE"/>
<path fill-rule="evenodd" clip-rule="evenodd" d="M31.5256 43.2959C31.7719 43.2959 31.8781 43.2743 32.0697 43.0839C32.3711 42.7846 32.2813 42.2474 31.8962 42.0457C31.8113 42.0012 31.7245 41.9765 31.6393 41.9689H31.5238C31.1149 42.0049 30.7854 42.4232 30.9615 42.8879C30.9819 42.9418 31.0524 43.0458 31.0893 43.0841C31.1824 43.181 31.3439 43.2959 31.5256 43.2959V43.2959Z" fill="#FEFEFE"/>
<path fill-rule="evenodd" clip-rule="evenodd" d="M7.0914 41.6137C7.19696 41.4556 7.17283 41.4508 7.23465 41.246C7.81806 39.3126 10.7252 39.5077 11.0476 41.4757C11.2672 42.8167 10.3774 43.3111 9.87408 43.9366C9.60382 44.2725 9.43904 44.7553 9.19599 45.0821C8.72527 45.715 8.31589 45.1428 7.93052 45.2183C7.77495 45.8591 8.8411 45.8315 9.26736 45.5787C9.68415 45.3315 9.77014 44.7486 10.1215 44.3036C10.6705 43.6085 11.8066 42.9573 11.4698 41.3575C11.2487 40.3075 10.3031 39.4314 9.04046 39.4431C7.77137 39.4549 6.73174 40.5776 6.7525 41.447L7.09136 41.6137H7.0914Z" fill="#FEFEFE"/>
<path fill-rule="evenodd" clip-rule="evenodd" d="M7.61865 41.2219L7.86453 41.386C7.95009 41.3122 8.59414 40.0743 9.77978 40.7611C10.9184 41.4206 10.1461 42.7101 10.1353 42.7815C10.2817 42.9063 10.1449 42.8302 10.3519 42.906C10.9078 42.5373 11.0093 41.0888 10.0329 40.4473C9.63795 40.1879 9.07265 40.0749 8.55731 40.2659C8.15368 40.4155 7.67585 40.7842 7.61865 41.2219Z" fill="#FEFEFE"/>
<path fill-rule="evenodd" clip-rule="evenodd" d="M10.5631 38.516C11.625 39.087 12.3659 39.8118 12.62 41.2784L12.9525 41.1502L12.8831 40.7177C12.5702 39.6258 11.8012 38.6484 10.7449 38.1964L10.5631 38.516V38.516Z" fill="#FEFEFE"/>
<path fill-rule="evenodd" clip-rule="evenodd" d="M52.589 14.186C52.3597 14.0459 52.1091 13.3147 52.6089 12.8179C53.0115 12.4178 53.6717 12.4547 53.9814 12.7978L52.589 14.186V14.186ZM54.3939 12.7694L54.8365 12.3299C55.0918 12.3966 55.5404 12.6983 55.7474 12.8516C55.8161 12.9025 55.8836 12.9615 55.9456 13.0128C55.9797 13.0411 55.998 13.0694 56.0304 13.0999L56.2983 13.3786C56.3395 13.4255 56.4401 13.5355 56.4628 13.5863C56.3747 13.7698 55.8606 14.2346 55.7222 14.3392C55.0986 14.8104 54.3529 15.0992 53.5258 15.131C53.1946 15.1437 52.4751 15.0824 52.2066 14.9444L52.5599 14.5952C52.8539 14.7483 53.0497 14.8628 53.4646 14.8154C53.6219 14.7975 53.7809 14.7471 53.9066 14.6823C53.972 14.6486 54.0316 14.612 54.0852 14.5734C54.5819 14.2153 54.7665 13.5098 54.494 12.9524C54.4643 12.8916 54.4092 12.813 54.3938 12.7694H54.3939ZM52.3516 14.4176L51.926 14.8429C51.7974 14.8091 51.5557 14.6735 51.4448 14.6102C51.1965 14.4687 51.0241 14.3295 50.817 14.1597L50.3001 13.5863C50.3245 13.5341 50.4221 13.4265 50.4643 13.3786C50.6448 13.174 50.813 13.0032 51.0401 12.8333C51.3156 12.6273 51.6204 12.4418 51.9988 12.2968C52.3787 12.1513 52.7904 12.059 53.2367 12.0416C53.5675 12.0287 54.2963 12.0915 54.5559 12.2281L54.2165 12.5638C54.0614 12.454 54.0597 12.4177 53.8355 12.3174C53.3229 12.088 52.7262 12.2432 52.3776 12.5877C52.0061 12.9549 51.8943 13.5431 52.1004 14.0294C52.16 14.1699 52.2731 14.3419 52.3516 14.4176ZM56.5029 10.673C56.6088 10.5627 56.5484 10.4528 56.4678 10.4288C56.3568 10.3958 56.2654 10.5253 56.2163 10.574C56.143 10.6466 56.0804 10.7088 56.0073 10.7817L54.764 12.0155C54.0243 11.7799 53.3781 11.6975 52.5666 11.8585C51.8899 11.9926 51.2839 12.3056 50.86 12.6398C50.6329 12.8188 50.6277 12.8336 50.4449 13.0152C50.4163 13.0436 50.3888 13.0604 50.3617 13.0896L50.2233 13.2533C50.1308 13.3695 49.967 13.5256 50.0137 13.6402C50.04 13.7047 50.2867 13.9972 50.3552 14.0751C50.3836 14.1075 50.4071 14.1202 50.4381 14.1499C50.6442 14.3474 50.6285 14.3673 50.9331 14.589C51.0486 14.6731 51.1737 14.7564 51.3071 14.8335L51.7154 15.0482C51.6583 15.1243 50.4421 16.311 50.2597 16.4999C50.1536 16.6098 50.2134 16.7195 50.2948 16.7437C50.4037 16.7762 50.4987 16.6469 50.5466 16.599L51.1658 15.9826C51.3082 15.8403 51.4407 15.7089 51.5835 15.5669L51.9985 15.1573C52.7507 15.3889 53.3529 15.4759 54.1836 15.316C55.0707 15.1452 55.59 14.7844 56.1545 14.3248L56.533 13.9277C56.6324 13.7991 56.7928 13.6546 56.7497 13.5336C56.7281 13.4728 56.5259 13.2342 56.4786 13.1847C56.4484 13.1532 56.435 13.1291 56.4073 13.0974L56.2453 12.9434C56.217 12.9153 56.1996 12.8878 56.1703 12.8609C56.1223 12.8168 56.0524 12.76 55.998 12.7166C55.7949 12.5545 55.4932 12.3379 55.2516 12.2268C55.1972 12.2018 55.0965 12.1564 55.0471 12.1244L56.5028 10.673H56.5029Z" fill="#FEFEFE"/>
<path d="M5.78305 44.2912C5.85955 44.2912 5.92157 44.2292 5.92157 44.1527C5.92157 44.0762 5.85955 44.0142 5.78305 44.0142C5.70655 44.0142 5.64453 44.0762 5.64453 44.1527C5.64453 44.2292 5.70655 44.2912 5.78305 44.2912Z" fill="#FEFEFE"/>
<path d="M6.58025 43.7717C6.67588 43.7717 6.7534 43.6942 6.7534 43.5986C6.7534 43.5029 6.67588 43.4254 6.58025 43.4254C6.48463 43.4254 6.4071 43.5029 6.4071 43.5986C6.4071 43.6942 6.48463 43.7717 6.58025 43.7717Z" fill="#FEFEFE"/>
<path d="M8.29365 42.5597C8.37971 42.5597 8.44948 42.4977 8.44948 42.4212C8.44948 42.3447 8.37971 42.2827 8.29365 42.2827C8.20759 42.2827 8.13782 42.3447 8.13782 42.4212C8.13782 42.4977 8.20759 42.5597 8.29365 42.5597Z" fill="#FEFEFE"/>
<path d="M9.10711 42.0056C9.20274 42.0056 9.28026 41.9359 9.28026 41.8498C9.28026 41.7637 9.20274 41.694 9.10711 41.694C9.01148 41.694 8.93396 41.7637 8.93396 41.8498C8.93396 41.9359 9.01148 42.0056 9.10711 42.0056Z" fill="#FEFEFE"/>
<path d="M7.80063 43.2349L7.38281 42.6033L7.12713 42.7724L7.54495 43.404L7.80063 43.2349Z" fill="#FEFEFE"/>
<path fill-rule="evenodd" clip-rule="evenodd" d="M10.5967 39.3635C11.2739 39.7164 11.7463 40.1643 11.9083 41.0707L12.1204 40.9914L12.0761 40.7242C11.8766 40.0494 11.3862 39.4454 10.7127 39.166L10.5967 39.3635H10.5967Z" fill="#FEFEFE"/>
<path fill-rule="evenodd" clip-rule="evenodd" d="M29.4071 23.3346C29.45 23.328 29.4939 23.3143 29.5415 23.3067C29.9245 23.2453 30.1483 23.3013 30.3252 22.8735C30.4984 22.4545 30.4589 22.1139 30.2346 21.7565C29.9853 21.3593 29.8868 21.2802 29.5067 21.006C29.1902 20.7778 28.7247 20.6404 28.2953 20.5852C27.8591 20.5291 27.5139 20.6047 27.1819 20.7364C26.5613 20.9826 25.9693 21.6818 25.7249 22.2627C25.6004 22.5585 25.5216 23.1754 25.8232 23.3731C25.7969 23.446 25.6892 23.6561 25.7033 23.72C25.7112 23.7559 25.8346 23.9168 25.8643 23.9615C25.9179 24.0421 25.9631 24.1335 26.0144 24.2156C26.1958 24.5056 26.4369 24.7053 26.8247 24.6543C27.069 24.6221 27.1267 24.4546 27.2198 24.191L27.5312 24.1692C27.587 23.9363 27.469 23.8203 27.4676 23.6766C27.6905 23.7233 27.8403 23.8173 28.0567 23.8813C28.3023 23.9539 28.4356 23.9507 28.6715 23.962C28.8677 23.9715 29.0584 23.9638 29.1776 23.8638C29.326 23.7394 29.3471 23.5413 29.4071 23.3346L29.4071 23.3346Z" fill="#FEFEFE"/>
<path fill-rule="evenodd" clip-rule="evenodd" d="M25.194 22.1757C25.2919 21.7443 25.4637 21.3821 25.6872 21.0695C25.836 20.8616 26.0377 20.6601 26.2337 20.5172C26.8605 20.0605 27.6457 19.8637 28.627 20.086C29.5246 20.2893 30.0624 20.7187 30.4915 21.2512C30.865 21.7146 31.2942 22.5739 31.1573 23.1739C31.1299 23.2937 31.0984 23.3493 31.0621 23.4561C30.9695 23.7286 30.9361 23.9711 31.0287 24.2361C31.0779 24.3768 31.1696 24.5066 31.2347 24.6237C31.2868 24.7176 31.2897 24.7092 31.3315 24.8214C31.3532 24.8797 31.3751 24.976 31.3725 25.0485C31.3702 25.1133 31.3498 25.1205 31.3025 25.1338C31.2671 25.1437 31.2287 25.1536 31.1903 25.1609C30.7974 25.2355 30.7805 25.1672 30.7741 25.6109C30.7716 25.7818 30.7887 25.7912 30.712 25.8396C30.5809 25.9224 30.6023 25.9514 30.6323 26.0148C30.6848 26.1258 30.6794 26.1216 30.6174 26.2431C30.475 26.5222 30.529 26.7159 30.4127 27.0069C30.3908 27.0617 30.3668 27.0721 30.3141 27.0837C30.0498 27.1419 29.5158 26.9017 29.1607 27.1085C29.0416 27.1779 28.8857 27.343 28.8736 27.5541C28.8712 27.5947 28.8775 27.6601 28.892 27.6893C28.9168 27.7395 28.9734 27.7108 29.0071 27.6958C29.1331 27.6398 29.0812 27.5781 29.1538 27.4644C29.2049 27.3844 29.2799 27.3307 29.3447 27.3023C29.7006 27.1464 30.1394 27.4792 30.4877 27.2698C30.5614 27.2255 30.6066 27.1578 30.6329 27.0439C30.6533 26.9704 30.7002 26.6701 30.7212 26.5671C30.7477 26.4369 30.7965 26.3647 30.8586 26.2688C30.9901 26.0655 30.8779 26.04 30.9147 25.993C30.9457 25.9536 30.9826 25.9367 30.9994 25.8777C31.0173 25.8146 30.9821 25.5691 31.004 25.4191C31.2002 25.4036 31.4091 25.3896 31.5334 25.2865C31.6953 25.1522 31.6093 24.8803 31.5498 24.7458C31.4767 24.5802 31.3986 24.4346 31.3253 24.2741C31.2629 24.1374 31.1786 23.9304 31.2247 23.7276C31.2638 23.5555 31.3309 23.4258 31.3679 23.2633C31.5103 22.6378 31.1882 21.8549 30.8747 21.342C30.8308 21.2703 30.7732 21.1962 30.7208 21.1238C30.6938 21.0865 30.6627 21.0497 30.6338 21.0158C30.6027 20.9795 30.5773 20.9491 30.5456 20.9137C29.7746 20.0524 28.5225 19.6187 27.3745 19.8018C26.9291 19.8729 26.5681 20.0099 26.2011 20.2421C26.1588 20.2689 26.1204 20.2976 26.0864 20.3189C26.0495 20.342 26.0106 20.3726 25.9755 20.4015C25.9394 20.4314 25.9088 20.4549 25.8724 20.4877C25.5832 20.7482 25.3439 21.057 25.1764 21.4278C24.932 21.9685 24.8182 22.6048 24.8625 23.186C24.948 24.3075 25.6892 24.7537 25.4272 25.9006C25.3831 26.0939 25.3337 26.2475 25.2631 26.4271C25.233 26.5037 25.135 26.7037 25.1583 26.7834C25.167 26.813 25.2075 26.8443 25.2431 26.8417C25.2797 26.8391 25.3739 26.7538 25.4023 26.7198C25.4478 26.6653 25.4783 26.5863 25.5084 26.5136C25.7192 26.0064 25.7927 25.4983 25.6769 24.9669C25.54 24.338 25.1707 23.9589 25.108 23.2617C25.0783 22.9313 25.1123 22.5354 25.194 22.1757L25.194 22.1757Z" fill="#FEFEFE"/>
<g filter="url(#filter0_d_267_7)">
<path d="M41.4984 42.906L42.2763 41.1607H42.6753L43.4557 42.906H43.0318L42.3935 41.3652H42.5531L41.9123 42.906H41.4984ZM41.8874 42.532L41.9946 42.2254H42.8922L43.0019 42.532H41.8874Z" fill="#FEFEFE"/>
<path d="M44.2454 42.926C44.1008 42.926 43.972 42.8969 43.859 42.8387C43.7459 42.7789 43.657 42.6966 43.5922 42.5919C43.529 42.4872 43.4974 42.3683 43.4974 42.2353C43.4974 42.1007 43.529 41.9818 43.5922 41.8788C43.657 41.7741 43.7459 41.6926 43.859 41.6344C43.972 41.5746 44.1008 41.5447 44.2454 41.5447C44.3867 41.5447 44.5097 41.5746 44.6144 41.6344C44.7191 41.6926 44.7964 41.7766 44.8463 41.8863L44.5446 42.0483C44.5097 41.9852 44.4657 41.9386 44.4125 41.9087C44.3609 41.8788 44.3044 41.8638 44.2429 41.8638C44.1764 41.8638 44.1166 41.8788 44.0634 41.9087C44.0102 41.9386 43.9678 41.981 43.9362 42.0359C43.9063 42.0907 43.8914 42.1572 43.8914 42.2353C43.8914 42.3135 43.9063 42.38 43.9362 42.4348C43.9678 42.4897 44.0102 42.532 44.0634 42.562C44.1166 42.5919 44.1764 42.6068 44.2429 42.6068C44.3044 42.6068 44.3609 42.5927 44.4125 42.5645C44.4657 42.5345 44.5097 42.4872 44.5446 42.4223L44.8463 42.5869C44.7964 42.6949 44.7191 42.7789 44.6144 42.8387C44.5097 42.8969 44.3867 42.926 44.2454 42.926Z" fill="#FEFEFE"/>
<path d="M45.7015 42.926C45.5569 42.926 45.428 42.8969 45.315 42.8387C45.202 42.7789 45.1131 42.6966 45.0482 42.5919C44.9851 42.4872 44.9535 42.3683 44.9535 42.2353C44.9535 42.1007 44.9851 41.9818 45.0482 41.8788C45.1131 41.7741 45.202 41.6926 45.315 41.6344C45.428 41.5746 45.5569 41.5447 45.7015 41.5447C45.8428 41.5447 45.9658 41.5746 46.0705 41.6344C46.1752 41.6926 46.2525 41.7766 46.3024 41.8863L46.0007 42.0483C45.9658 41.9852 45.9217 41.9386 45.8685 41.9087C45.817 41.8788 45.7605 41.8638 45.699 41.8638C45.6325 41.8638 45.5727 41.8788 45.5195 41.9087C45.4663 41.9386 45.4239 41.981 45.3923 42.0359C45.3624 42.0907 45.3474 42.1572 45.3474 42.2353C45.3474 42.3135 45.3624 42.38 45.3923 42.4348C45.4239 42.4897 45.4663 42.532 45.5195 42.562C45.5727 42.5919 45.6325 42.6068 45.699 42.6068C45.7605 42.6068 45.817 42.5927 45.8685 42.5645C45.9217 42.5345 45.9658 42.4872 46.0007 42.4223L46.3024 42.5869C46.2525 42.6949 46.1752 42.7789 46.0705 42.8387C45.9658 42.8969 45.8428 42.926 45.7015 42.926Z" fill="#FEFEFE"/>
<path d="M47.175 42.926C47.0221 42.926 46.8874 42.8961 46.7711 42.8362C46.6564 42.7764 46.5675 42.6949 46.5043 42.5919C46.4411 42.4872 46.4095 42.3683 46.4095 42.2353C46.4095 42.1007 46.4403 41.9818 46.5018 41.8788C46.565 41.7741 46.6506 41.6926 46.7586 41.6344C46.8667 41.5746 46.9888 41.5447 47.1251 41.5447C47.2564 41.5447 47.3745 41.5729 47.4792 41.6295C47.5856 41.6843 47.6695 41.7641 47.731 41.8688C47.7925 41.9719 47.8233 42.0957 47.8233 42.2403C47.8233 42.2553 47.8224 42.2727 47.8208 42.2927C47.8191 42.311 47.8174 42.3284 47.8158 42.345H46.7262V42.1182H47.6113L47.4617 42.1855C47.4617 42.1157 47.4476 42.055 47.4193 42.0035C47.3911 41.9519 47.352 41.912 47.3022 41.8838C47.2523 41.8539 47.1941 41.8389 47.1276 41.8389C47.0611 41.8389 47.0021 41.8539 46.9506 41.8838C46.9007 41.912 46.8617 41.9528 46.8334 42.006C46.8052 42.0575 46.791 42.119 46.791 42.1905V42.2503C46.791 42.3234 46.8068 42.3883 46.8384 42.4448C46.8716 42.4996 46.9174 42.542 46.9755 42.5719C47.0354 42.6002 47.1052 42.6143 47.185 42.6143C47.2564 42.6143 47.3188 42.6035 47.372 42.5819C47.4268 42.5603 47.4767 42.5279 47.5216 42.4847L47.7285 42.7091C47.667 42.7789 47.5897 42.8329 47.4966 42.8711C47.4036 42.9077 47.2963 42.926 47.175 42.926Z" fill="#FEFEFE"/>
<path d="M48.5335 42.926C48.4188 42.926 48.3083 42.9127 48.2019 42.8861C48.0972 42.8578 48.0141 42.8229 47.9526 42.7814L48.0822 42.5021C48.1437 42.5404 48.216 42.5719 48.2991 42.5969C48.3839 42.6201 48.467 42.6318 48.5485 42.6318C48.6382 42.6318 48.7014 42.621 48.738 42.5994C48.7762 42.5778 48.7953 42.5478 48.7953 42.5096C48.7953 42.478 48.7803 42.4548 48.7504 42.4398C48.7222 42.4232 48.6839 42.4107 48.6357 42.4024C48.5875 42.3941 48.5343 42.3858 48.4762 42.3775C48.4196 42.3691 48.3623 42.3583 48.3041 42.345C48.2459 42.3301 48.1928 42.3085 48.1446 42.2802C48.0963 42.252 48.0573 42.2137 48.0274 42.1655C47.9991 42.1173 47.985 42.055 47.985 41.9785C47.985 41.8938 48.0091 41.819 48.0573 41.7541C48.1072 41.6893 48.1786 41.6386 48.2717 41.602C48.3648 41.5638 48.4762 41.5447 48.6058 41.5447C48.6972 41.5447 48.7903 41.5547 48.8851 41.5746C48.9798 41.5946 49.0588 41.6236 49.1219 41.6619L48.9923 41.9386C48.9275 41.9004 48.8618 41.8746 48.7953 41.8613C48.7305 41.8464 48.6673 41.8389 48.6058 41.8389C48.5194 41.8389 48.4562 41.8505 48.4163 41.8738C48.3764 41.8971 48.3565 41.927 48.3565 41.9636C48.3565 41.9968 48.3706 42.0217 48.3989 42.0384C48.4288 42.055 48.4679 42.0683 48.5161 42.0783C48.5643 42.0882 48.6166 42.0974 48.6731 42.1057C48.7313 42.1123 48.7895 42.1231 48.8477 42.1381C48.9058 42.1531 48.9582 42.1747 49.0047 42.2029C49.053 42.2295 49.092 42.2669 49.1219 42.3151C49.1519 42.3617 49.1668 42.4232 49.1668 42.4996C49.1668 42.5827 49.1419 42.6567 49.092 42.7215C49.0421 42.7847 48.9698 42.8346 48.8751 42.8711C48.782 42.9077 48.6681 42.926 48.5335 42.926Z" fill="#FEFEFE"/>
<path d="M49.8581 42.926C49.7434 42.926 49.6329 42.9127 49.5265 42.8861C49.4218 42.8578 49.3386 42.8229 49.2771 42.7814L49.4068 42.5021C49.4683 42.5404 49.5406 42.5719 49.6237 42.5969C49.7085 42.6201 49.7916 42.6318 49.873 42.6318C49.9628 42.6318 50.026 42.621 50.0625 42.5994C50.1008 42.5778 50.1199 42.5478 50.1199 42.5096C50.1199 42.478 50.1049 42.4548 50.075 42.4398C50.0468 42.4232 50.0085 42.4107 49.9603 42.4024C49.9121 42.3941 49.8589 42.3858 49.8007 42.3775C49.7442 42.3691 49.6869 42.3583 49.6287 42.345C49.5705 42.3301 49.5173 42.3085 49.4691 42.2802C49.4209 42.252 49.3819 42.2137 49.3519 42.1655C49.3237 42.1173 49.3096 42.055 49.3096 41.9785C49.3096 41.8938 49.3337 41.819 49.3819 41.7541C49.4317 41.6893 49.5032 41.6386 49.5963 41.602C49.6894 41.5638 49.8007 41.5447 49.9304 41.5447C50.0218 41.5447 50.1149 41.5547 50.2096 41.5746C50.3044 41.5946 50.3834 41.6236 50.4465 41.6619L50.3169 41.9386C50.252 41.9004 50.1864 41.8746 50.1199 41.8613C50.0551 41.8464 49.9919 41.8389 49.9304 41.8389C49.844 41.8389 49.7808 41.8505 49.7409 41.8738C49.701 41.8971 49.6811 41.927 49.6811 41.9636C49.6811 41.9968 49.6952 42.0217 49.7234 42.0384C49.7534 42.055 49.7924 42.0683 49.8406 42.0783C49.8888 42.0882 49.9412 42.0974 49.9977 42.1057C50.0559 42.1123 50.1141 42.1231 50.1722 42.1381C50.2304 42.1531 50.2828 42.1747 50.3293 42.2029C50.3775 42.2295 50.4166 42.2669 50.4465 42.3151C50.4764 42.3617 50.4914 42.4232 50.4914 42.4996C50.4914 42.5827 50.4665 42.6567 50.4166 42.7215C50.3667 42.7847 50.2944 42.8346 50.1997 42.8711C50.1066 42.9077 49.9927 42.926 49.8581 42.926Z" fill="#FEFEFE"/>
<path d="M51.5941 42.936C51.4594 42.936 51.3339 42.9144 51.2176 42.8711C51.1029 42.8263 51.0031 42.7631 50.9184 42.6816C50.8336 42.6002 50.7671 42.5046 50.7189 42.3949C50.6724 42.2852 50.6491 42.1647 50.6491 42.0334C50.6491 41.9021 50.6724 41.7816 50.7189 41.6718C50.7671 41.5621 50.8336 41.4666 50.9184 41.3851C51.0048 41.3037 51.1054 41.2413 51.2201 41.1981C51.3348 41.1532 51.4603 41.1308 51.5966 41.1308C51.7478 41.1308 51.8841 41.1574 52.0055 41.2106C52.1285 41.2621 52.2315 41.3386 52.3146 41.44L52.0553 41.6793C51.9955 41.6112 51.929 41.5605 51.8559 41.5272C51.7827 41.4923 51.7029 41.4749 51.6165 41.4749C51.5351 41.4749 51.4603 41.4882 51.3921 41.5148C51.324 41.5414 51.2649 41.5796 51.2151 41.6295C51.1652 41.6793 51.1262 41.7383 51.0979 41.8065C51.0713 41.8746 51.058 41.9503 51.058 42.0334C51.058 42.1165 51.0713 42.1921 51.0979 42.2603C51.1262 42.3284 51.1652 42.3874 51.2151 42.4373C51.2649 42.4872 51.324 42.5254 51.3921 42.552C51.4603 42.5786 51.5351 42.5919 51.6165 42.5919C51.7029 42.5919 51.7827 42.5753 51.8559 42.542C51.929 42.5071 51.9955 42.4548 52.0553 42.3849L52.3146 42.6243C52.2315 42.7257 52.1285 42.803 52.0055 42.8562C51.8841 42.9094 51.747 42.936 51.5941 42.936Z" fill="#FEFEFE"/>
<path d="M53.1794 42.926C53.0265 42.926 52.8919 42.8961 52.7755 42.8362C52.6608 42.7764 52.5719 42.6949 52.5087 42.5919C52.4456 42.4872 52.414 42.3683 52.414 42.2353C52.414 42.1007 52.4447 41.9818 52.5062 41.8788C52.5694 41.7741 52.655 41.6926 52.7631 41.6344C52.8711 41.5746 52.9933 41.5447 53.1296 41.5447C53.2609 41.5447 53.3789 41.5729 53.4836 41.6295C53.59 41.6843 53.6739 41.7641 53.7354 41.8688C53.7969 41.9719 53.8277 42.0957 53.8277 42.2403C53.8277 42.2553 53.8269 42.2727 53.8252 42.2927C53.8235 42.311 53.8219 42.3284 53.8202 42.345H52.7306V42.1182H53.6158L53.4662 42.1855C53.4662 42.1157 53.452 42.055 53.4238 42.0035C53.3955 41.9519 53.3565 41.912 53.3066 41.8838C53.2567 41.8539 53.1986 41.8389 53.1321 41.8389C53.0656 41.8389 53.0066 41.8539 52.955 41.8838C52.9052 41.912 52.8661 41.9528 52.8378 42.006C52.8096 42.0575 52.7955 42.119 52.7955 42.1905V42.2503C52.7955 42.3234 52.8113 42.3883 52.8428 42.4448C52.8761 42.4996 52.9218 42.542 52.98 42.5719C53.0398 42.6002 53.1096 42.6143 53.1894 42.6143C53.2609 42.6143 53.3232 42.6035 53.3764 42.5819C53.4313 42.5603 53.4811 42.5279 53.526 42.4847L53.733 42.7091C53.6715 42.7789 53.5942 42.8329 53.5011 42.8711C53.408 42.9077 53.3008 42.926 53.1794 42.926Z" fill="#FEFEFE"/>
<path d="M54.0867 42.906V41.5646H54.4582V41.9436L54.4058 41.8339C54.4457 41.7392 54.5097 41.6677 54.5978 41.6195C54.6859 41.5696 54.7931 41.5447 54.9194 41.5447V41.9037C54.9028 41.9021 54.8878 41.9012 54.8745 41.9012C54.8612 41.8996 54.8471 41.8987 54.8322 41.8987C54.7258 41.8987 54.6393 41.9295 54.5729 41.991C54.508 42.0508 54.4756 42.1447 54.4756 42.2727V42.906H54.0867Z" fill="#FEFEFE"/>
<path d="M55.7455 42.926C55.5876 42.926 55.4646 42.8861 55.3765 42.8063C55.2884 42.7249 55.2443 42.6044 55.2443 42.4448V41.2679H55.6333V42.4398C55.6333 42.4963 55.6483 42.5404 55.6782 42.5719C55.7081 42.6019 55.7488 42.6168 55.8004 42.6168C55.8619 42.6168 55.9142 42.6002 55.9574 42.567L56.0621 42.8412C56.0223 42.8695 55.9741 42.8911 55.9175 42.906C55.8627 42.9193 55.8053 42.926 55.7455 42.926ZM55.0374 41.8938V41.5946H55.9674V41.8938H55.0374Z" fill="#FEFEFE"/>
<path d="M56.2805 42.906V41.5646H56.6694V42.906H56.2805ZM56.475 41.3776C56.4035 41.3776 56.3453 41.3569 56.3004 41.3153C56.2556 41.2737 56.2331 41.2222 56.2331 41.1607C56.2331 41.0992 56.2556 41.0477 56.3004 41.0061C56.3453 40.9646 56.4035 40.9438 56.475 40.9438C56.5464 40.9438 56.6046 40.9637 56.6495 41.0036C56.6944 41.0419 56.7168 41.0917 56.7168 41.1532C56.7168 41.2181 56.6944 41.2721 56.6495 41.3153C56.6063 41.3569 56.5481 41.3776 56.475 41.3776Z" fill="#FEFEFE"/>
<path d="M57.0778 42.906V41.5347C57.0778 41.3835 57.1227 41.2629 57.2125 41.1732C57.3022 41.0818 57.4302 41.036 57.5964 41.036C57.6529 41.036 57.707 41.0419 57.7585 41.0535C57.8117 41.0651 57.8566 41.0834 57.8931 41.1084L57.7909 41.3901C57.7693 41.3751 57.7452 41.3635 57.7186 41.3552C57.692 41.3469 57.6637 41.3427 57.6338 41.3427C57.5773 41.3427 57.5333 41.3593 57.5017 41.3926C57.4718 41.4242 57.4568 41.4724 57.4568 41.5372V41.6619L57.4668 41.8289V42.906H57.0778ZM56.8709 41.8938V41.5946H57.8009V41.8938H56.8709Z" fill="#FEFEFE"/>
<path d="M58.1885 43.4097C58.1187 43.4097 58.0498 43.3989 57.9816 43.3773C57.9135 43.3557 57.8578 43.3258 57.8145 43.2875L57.9567 43.0108C57.9866 43.0374 58.0207 43.0581 58.0589 43.0731C58.0988 43.0881 58.1378 43.0955 58.1761 43.0955C58.2309 43.0955 58.2742 43.0822 58.3057 43.0556C58.339 43.0307 58.3689 42.9883 58.3955 42.9285L58.4653 42.7639L58.4952 42.7215L58.9764 41.5646H59.3504L58.7446 42.9883C58.7013 43.0964 58.6515 43.1811 58.595 43.2426C58.5401 43.3041 58.4786 43.3474 58.4105 43.3723C58.344 43.3972 58.27 43.4097 58.1885 43.4097ZM58.4179 42.9584L57.8195 41.5646H58.221L58.6847 42.6866L58.4179 42.9584Z" fill="#FEFEFE"/>
</g>
<defs>
<filter id="filter0_d_267_7" x="35.4984" y="40.9438" width="29.8521" height="14.4659" filterUnits="userSpaceOnUse" color-interpolation-filters="sRGB">
<feFlood flood-opacity="0" result="BackgroundImageFix"/>
<feColorMatrix in="SourceAlpha" type="matrix" values="0 0 0 0 0 0 0 0 0 0 0 0 0 0 0 0 0 0 127 0" result="hardAlpha"/>
<feOffset dy="6"/>
<feGaussianBlur stdDeviation="3"/>
<feComposite in2="hardAlpha" operator="out"/>
<feColorMatrix type="matrix" values="0 0 0 0 0 0 0 0 0 0 0 0 0 0 0 0 0 0 0.25 0"/>
<feBlend mode="normal" in2="BackgroundImageFix" result="effect1_dropShadow_267_7"/>
<feBlend mode="normal" in="SourceGraphic" in2="effect1_dropShadow_267_7" result="shape"/>
</filter>
</defs>
</svg>
