<svg width="368" height="370" viewBox="0 0 368 370" fill="none" xmlns="http://www.w3.org/2000/svg">
<rect x="1.5" y="1.5" width="365" height="367" stroke="#0357A0" stroke-width="3"/>
<path fill-rule="evenodd" clip-rule="evenodd" d="M323.676 98.291L323.818 98.1569C322.95 96.8517 321.739 93.0613 320.994 91.3078C319.99 88.9424 318.986 86.8307 317.772 84.375C315.546 79.8733 312.389 74.5801 308.633 72.2337C304.209 69.4698 303.353 73.7175 296.368 78.1157C289.767 82.2719 287.868 81.4907 283.958 77.0825C282.338 75.2556 280.818 72.6518 280.66 70.4605C280.185 63.8663 283.993 63.8139 289.558 61.0901C290.917 60.4253 295.977 59.0614 296.589 58.5419C297.873 57.4507 296.887 53.9306 296.013 52.1388C294.948 49.9565 292.87 47.2155 291.399 45.3247L282.078 30.431L281.395 31.1196C276.857 35.0879 261.868 47.2235 256.723 46.9787C252.172 46.7622 250.807 32.1097 245.754 30.1812C243.181 29.1992 238.644 31.1909 237.478 31.356L233.283 34.1557C233.253 34.2049 232.592 34.7282 232.545 34.7045C232.531 34.6976 229.325 37.1627 229.188 39.8521C228.851 46.4783 240.724 53.8325 238.636 58.3748C237.463 60.924 224.371 68.2867 220.101 70.1148C218.01 71.0096 215.492 72.6545 213.599 73.5477C216.062 78.1749 218.539 83.0221 220.779 87.7565C223.011 92.4729 225.763 97.7686 230.372 97.8754C235.224 97.9878 235.833 93.1473 242.987 89.1901C245.53 87.7833 247.79 87.2965 249.61 88.5317C253.666 91.284 256.796 95.7779 256.324 100.891C256.054 103.818 255.866 104.277 252.28 106.367C249.929 107.737 247.405 109.016 244.977 110.115C242.235 111.356 239.704 111.591 239.205 114.478C238.12 120.752 246.171 128.969 250.327 133.731C251.55 135.133 254.311 138.751 255.508 139.543C255.569 138.768 257.246 137.842 258.604 136.797C262.02 134.169 272.617 125.948 275.257 124.251C283.077 119.224 284.106 124.863 285.853 129.299C286.894 131.944 286.963 133.482 288.745 136.308C294.204 144.96 305.537 135.554 306.868 132.429C308.548 128.485 303.487 121.506 301.146 118.875C299.638 117.18 297.24 115.269 297.798 112.875C299.455 105.762 314.615 100.672 321.926 98.5826C322.585 98.3944 323.029 98.1496 323.676 98.2913L323.676 98.291Z" fill="#7503A6"/>
<path fill-rule="evenodd" clip-rule="evenodd" d="M206.846 151.238C206.901 152.905 208.58 161.499 208.986 165.259C209.486 169.874 210.38 176.409 207.909 179.58C203.562 185.16 192.537 176.781 186.848 182.527C184.568 184.829 185.121 186.643 184.331 188.725C184.317 188.761 184.273 188.902 184.263 188.874C184.252 188.845 184.218 188.975 184.191 189.023V192.944C184.63 194.125 185.125 197.681 186.922 199.352C194.449 203.706 203.04 195.75 207.42 200.916C209.909 203.851 208.695 210.477 208.47 214.849C208.096 222.088 208.111 224.384 207.42 229.46C214.829 230.558 231.157 232.287 237.133 228.286C240.601 225.965 236.833 222.769 237.577 214.195C237.809 211.526 238.486 209.33 240.1 208.228C242.322 206.711 250.242 205.511 253.835 208.422C254.527 208.982 255.218 209.66 255.788 210.602C256.598 211.939 256.433 212.433 256.26 214.138C255.919 217.493 255.287 221.72 254.275 224.969C253.76 226.626 253.657 226.948 254.874 227.847C258.328 230.401 265.165 229.43 269.828 229.156C271.985 229.03 285.014 228.504 285.869 228.094L285.343 227.934L284.212 211.899C283.977 209.516 283.68 206.09 283.926 203.675C284.128 201.692 285.125 198.185 286.736 197.942C287.503 197.826 292.346 199.354 293.799 199.511C299.753 200.155 302.898 202.131 305.888 196.289C306.882 194.347 306.971 191.334 306.581 188.925C305.639 183.115 304.484 181.445 296.948 181.466C288.974 181.489 286.096 184.636 283.889 179.946C282.016 175.964 282.144 169.802 282.628 164.806C282.893 162.08 283.152 159.757 283.542 157.219C283.831 155.338 284.782 151.482 284.74 149.915C283.665 149.985 281.878 149.62 280.613 149.513L269.029 147.798C264.171 146.75 257.834 146.973 255.462 150.77C253.961 153.172 254.624 155.569 255.247 158.044C256.092 161.399 257.78 170.467 254.024 172.555C250.518 174.503 243.656 174.574 239.627 171.859C238.914 171.378 237.575 170.251 237.225 169.742C236.312 168.42 237.463 159.131 237.704 157.607C238.222 154.343 239.137 153.128 236.955 150.719C235.313 148.905 233.219 148.686 230.631 148.165C225.678 147.169 219.089 149.122 214.695 149.584C211.247 149.946 208.405 151.106 206.846 151.238Z" fill="#D91424"/>
<path fill-rule="evenodd" clip-rule="evenodd" d="M128.721 73.0599C128.925 75.5813 129.552 77.9243 129.669 80.2998C129.788 82.7324 130.206 85.3221 130.318 87.9817C131.144 107.743 128.495 103.867 122.646 103.155C114.002 102.102 108.364 100.062 107.002 110.685C106.672 113.263 106.882 115.974 107.813 117.965C110.929 124.631 123.972 119.495 128.481 121.704C129.568 122.236 130.654 125.89 130.977 127.452C131.995 132.384 132.05 137.984 131.426 143.047C131.112 145.59 130.44 147.457 130.104 149.882C130.561 150.345 131.051 150.374 131.687 150.563C138.745 152.671 153.768 156.398 158.77 151.248C160.454 149.515 159.469 146.622 159.103 144.385C158.535 140.913 157.967 132.312 161.364 129.86C164.056 127.917 178.157 125.957 178.193 136.187C178.204 139.528 177.472 140.868 176.969 143.663C176.126 148.349 174.079 153.675 183.06 153.562C186.091 153.524 198.982 152.177 203.126 151.762C204.774 151.596 206.622 151.701 207.069 151.076L205.063 136.821C204.692 132.574 204.331 125.578 206.185 122.122C207.219 120.192 208.794 120.841 212.597 121.147C214.973 121.339 218.17 121.855 220.451 121.723C228.117 121.282 228.312 115.392 229.107 113.77V109.458C228.05 107.331 228.925 105.746 226.751 103.517C222.153 98.805 212.235 104.976 206.215 101.226C205.109 100.537 204.699 100.359 204.606 98.6465C204.388 94.6589 204.415 90.7883 204.67 86.8004C205.175 78.9057 205.89 78.7289 206.875 72.6039C201.59 72.0929 195.954 71.9217 190.728 71.2728C185.425 70.6142 179.425 70.2382 176.931 74.174C175.275 76.7877 176.315 78.3757 176.928 81.1207C177.737 84.7463 179.064 92.8239 174.654 94.5254C172.414 95.3898 169.963 95.9765 167.31 95.8848C163.896 95.7668 159.837 93.7279 158.525 91.4572C157.641 89.9266 158.734 81.253 158.973 79.4103C159.342 76.5686 160.573 74.7281 158.359 72.7296C155.39 70.0498 148.377 70.0129 143.774 70.7128C138.788 71.4712 133.579 72.105 128.721 73.0601L128.721 73.0599Z" fill="#0357A0"/>
<path fill-rule="evenodd" clip-rule="evenodd" d="M52.6217 151.221C52.6761 152.888 54.4887 161.565 54.8954 165.324C55.3948 169.939 55.5583 176.413 53.0876 179.585C48.7405 185.165 39.1038 177.78 33.4144 183.526C31.1343 185.829 31.4808 186.648 30.6904 188.73C30.6766 188.766 30.6327 188.907 30.6222 188.879C30.6116 188.85 30.5775 188.979 30.5508 189.028V192.948C30.9893 194.13 30.9341 196.884 32.7309 198.554C37.4006 202.896 48.2183 195.755 52.5984 200.92C55.0874 203.856 54.5659 210.331 54.3404 214.702C53.9668 221.941 52.8494 223.647 52.1578 228.723C59.5666 229.821 76.3358 232.292 82.3121 228.291C85.7793 225.97 82.0112 222.774 82.7557 214.199C82.9875 211.531 83.6644 209.335 85.2788 208.233C87.5008 206.716 95.4211 205.515 99.0141 208.427C99.7053 208.987 100.396 209.665 100.967 210.606C101.776 211.944 101.612 212.438 101.438 214.142C101.097 217.498 100.465 221.725 99.4542 224.974C98.9385 226.631 98.8361 226.953 100.053 227.852C103.506 230.406 110.344 229.435 115.006 229.161C117.164 229.035 130.192 228.509 131.048 228.099L130.521 227.938L129.391 211.904C129.156 209.52 128.858 206.095 129.105 203.68C129.307 201.697 130.304 198.19 131.915 197.946C132.682 197.83 137.525 199.359 138.978 199.516C144.931 200.159 148.077 202.135 151.067 196.293C152.061 194.352 152.15 191.338 151.76 188.93C150.818 183.12 149.662 181.45 142.127 181.471C134.153 181.494 131.275 184.64 129.068 179.951C127.195 175.969 127.322 169.807 127.807 164.811C128.071 162.085 128.331 159.762 128.721 157.224C129.01 155.343 129.961 151.487 129.918 149.92C128.844 149.99 127.057 149.625 125.792 149.518L114.207 147.803C109.35 146.755 103.012 146.978 100.64 150.775C99.1393 153.177 99.8031 155.574 100.426 158.049C101.27 161.404 102.959 170.472 99.2025 172.56C95.6965 174.508 88.8346 174.579 84.8057 171.863C84.0925 171.383 82.754 170.256 82.4033 169.747C81.4908 168.425 82.6415 159.136 82.883 157.612C83.4003 154.348 84.3159 153.133 82.1341 150.724C80.4921 148.91 78.398 148.691 75.8098 148.17C70.8568 147.174 64.2677 149.127 59.8733 149.589C56.4252 149.951 54.1802 151.089 52.6215 151.221H52.6217Z" fill="#57A40A"/>
<path fill-rule="evenodd" clip-rule="evenodd" d="M130.104 149.882L129.92 149.921C129.962 151.488 129.011 155.343 128.722 157.225C128.332 159.762 128.072 162.085 127.808 164.811C127.323 169.808 127.196 175.969 129.069 179.951C131.276 184.641 134.154 181.495 142.128 181.472C149.664 181.45 150.819 183.12 151.761 188.931C152.151 191.339 152.062 194.353 151.068 196.294C148.078 202.136 144.932 200.16 138.979 199.517C137.526 199.36 132.683 197.831 131.916 197.947C130.305 198.191 129.308 201.698 129.106 203.68C128.859 206.095 129.157 209.521 129.392 211.904L130.522 227.939L131.049 228.1C136.799 227.143 154.548 225.961 158.636 228.898C162.252 231.496 158.293 244.605 161.443 248.92C163.047 251.118 165.458 251.026 166.497 251.505H171.341C171.39 251.479 171.466 251.389 171.493 251.434C171.501 251.447 174.863 250.743 176.353 248.536C180.025 243.098 174.807 230.542 178.846 227.8C181.112 226.26 196.493 227.408 200.926 228.123C203.097 228.474 205.653 229.241 207.661 229.488C208.016 224.26 208.377 218.601 208.969 213.399C209.558 208.217 210.019 202.268 206.299 199.732C202.383 197.063 199.404 200.843 191.518 200.403C188.714 200.246 186.614 199.46 185.756 197.447C183.845 192.962 183.585 187.492 186.592 183.408C188.313 181.07 188.703 180.782 192.71 180.912C195.338 180.998 198.06 181.253 200.612 181.609C203.493 182.012 205.686 183.155 207.574 180.973C211.679 176.23 209.296 164.993 208.333 158.751C208.05 156.915 207.643 152.383 207.069 151.076C206.623 151.701 204.774 151.597 203.127 151.762C198.983 152.177 186.092 153.525 183.06 153.563C174.079 153.675 176.127 148.35 176.97 143.663C177.472 140.868 178.205 139.528 178.193 136.187C178.157 125.957 164.056 127.918 161.365 129.86C157.967 132.312 158.535 140.913 159.104 144.386C159.47 146.622 160.454 149.515 158.771 151.248C153.769 156.399 138.745 152.671 131.687 150.564C131.052 150.374 130.562 150.345 130.105 149.882L130.104 149.882Z" fill="#7503A6"/>
<path fill-rule="evenodd" clip-rule="evenodd" d="M52.6249 151.221C54.1836 151.089 56.4285 149.952 59.8766 149.589C64.2711 149.127 70.8601 147.175 75.8132 148.171C78.4012 148.691 80.4953 148.911 82.1374 150.724C84.3194 153.134 83.4036 154.348 82.8863 157.612C82.6448 159.136 81.4941 168.425 82.4066 169.748C82.7573 170.256 84.0958 171.383 84.8091 171.864C88.8379 174.579 95.7 174.509 99.2058 172.56C102.962 170.472 101.274 161.404 100.429 158.049C99.8063 155.575 99.1426 153.177 100.644 150.775C103.016 146.979 109.353 146.755 114.211 147.803L125.795 149.519C127.06 149.625 128.847 149.991 129.922 149.921L130.107 149.882C130.442 147.458 131.114 145.591 131.428 143.047C132.053 137.985 131.998 132.385 130.979 127.452C130.657 125.89 129.571 122.237 128.483 121.704C123.975 119.495 110.932 124.631 107.816 117.965C106.885 115.975 106.674 113.264 107.005 110.686C108.367 100.063 114.005 102.103 122.649 103.155C128.498 103.868 131.147 107.743 130.32 87.9822C130.209 85.3227 129.791 82.733 129.672 80.3004C129.555 77.9249 128.928 75.5819 128.724 73.0605C121.97 74.2956 106.027 77.4169 101.201 72.6245C95.3481 66.8118 103.723 55.8443 95.1797 51.0956C94.1913 50.5462 92.9632 50.4074 92.1628 49.9971H88.8463C88.0139 50.4168 86.6306 50.6379 85.6952 51.0273C84.7891 51.4044 83.655 51.9764 83.0283 52.4904C77.1035 57.3495 84.8292 67.2673 80.9097 72.2153C77.9659 75.9316 56.8592 74.7943 52.4241 72.6539C51.0476 79.1531 49.2875 97.3199 52.7276 102.405C55.1957 106.053 57.4427 102.525 66.3454 102.99C72.5201 103.312 73.8826 105.424 74.4552 111.39C74.9211 116.244 72.9991 121.567 68.346 121.986C64.594 122.324 60.4215 122.334 56.6732 121.664C52.6309 120.941 50.9176 117.707 51.8878 135.324C52.1639 140.336 52.0072 146.397 52.6245 151.221L52.6249 151.221Z" fill="#DC7B04"/>
<path fill-rule="evenodd" clip-rule="evenodd" d="M90.5094 94.7873H91.0077C93.7678 94.7873 91.8138 98.3088 91.0363 99.5809C90.5497 100.377 87.9928 103.901 87.2436 104.805C87.0296 105.063 86.8806 105.305 86.6832 105.542C86.299 106.004 85.9344 106.524 85.5548 107.006C85.3257 107.297 84.5629 108.197 84.4893 108.482C84.2999 109.216 85.0975 109.999 85.7277 109.721C86.1445 109.537 87.9615 107.461 88.4739 107.037C88.5571 106.968 88.5694 106.957 88.6326 106.894L89.6001 105.916C90.4914 104.953 91.3003 104.224 92.161 103.294C92.8679 102.53 93.9601 102.741 92.9339 104.712L89.3356 112.679C88.9945 113.913 90.588 114.721 91.1862 113.529C92.344 111.221 94.0543 108.419 95.3369 106.122C95.514 105.805 96.1394 104.492 96.5984 104.966C96.9664 105.346 96.6469 106.627 96.625 107.175C96.5933 107.965 96.434 108.754 96.3737 109.518C96.2542 111.031 95.8957 112.652 95.8957 114.202C95.8957 114.858 96.303 115.107 96.9412 115.064C97.7373 115.01 97.9491 113.042 98.0384 112.355C98.1635 111.393 98.4298 110.097 98.5827 109.069L99.1922 105.828C99.3022 105.392 99.5005 104.652 100.021 104.732C100.863 104.86 100.78 106.754 100.924 107.638C100.978 107.973 100.983 108.12 101.006 108.473C101.02 108.672 101.058 108.709 101.079 108.873C101.099 109.033 101.081 109.187 101.109 109.346C101.243 110.104 101.255 112.169 101.684 112.597C102.049 112.961 102.866 112.786 102.956 112.254C103.502 109.039 102.669 104.086 103.583 101.849C103.881 101.118 104.264 100.451 104.555 99.6329C105.127 98.0277 105.911 96.2891 105.893 94.5653C105.885 93.7774 105.514 92.5675 105.064 92.1725C104.903 92.0302 104.235 91.7683 104.008 91.6329C102.66 90.828 102.433 90.5908 101.341 89.5171C101.047 89.2286 100.85 88.9505 100.412 88.8373C99.364 88.5669 98.3959 88.6229 97.3425 88.8411C97.1642 88.878 96.9311 88.9765 96.7456 89.0437L93.9446 90.2221C93.6217 90.3482 91.5786 91.3316 91.2718 91.541C90.6788 91.9458 88.0363 92.7373 87.1841 93.0286C86.83 93.1498 86.1412 93.1121 85.7203 93.1669C84.1375 93.3726 85.6778 94.9004 87.469 94.9144C87.999 94.9185 88.5374 94.92 89.0669 94.9091C89.3062 94.9043 89.9805 94.7873 90.5095 94.7873H90.5094Z" fill="#FEFEFE"/>
<path fill-rule="evenodd" clip-rule="evenodd" d="M82.1481 78.2196C82.1481 78.6954 82.323 79.8493 82.3674 80.6131C82.4089 81.325 82.4624 82.2691 82.5641 82.9623C82.6721 83.6996 82.6001 84.6509 82.6938 85.3832C82.7493 85.817 82.765 86.0667 82.7724 86.5439C82.7758 86.7612 83.1236 88.7102 82.4229 88.539C82.1813 88.4799 81.9709 88.168 81.8446 87.9799C81.0664 86.8197 78.623 81.4811 77.854 80.3548C77.373 79.6503 76.4907 80.2139 76.368 80.4717C76.1143 81.0051 76.5733 81.8975 76.7519 82.3038C77.7096 84.4814 78.6466 86.4933 79.5793 88.7412C79.7327 89.1108 80.1751 90.11 79.8547 90.4945C79.5077 90.9108 78.7223 90.3648 78.3489 89.9269L77.2853 88.6498C77.1913 88.5212 77.1286 88.4603 77.0314 88.3529C76.9221 88.2322 76.8749 88.1429 76.7688 88.0198C76.5954 87.8184 76.398 87.5641 76.2232 87.3705L75.1759 86.1256C74.8772 85.7785 74.3863 85.0491 73.9601 84.9846C73.4348 84.905 72.7336 85.3317 73.1825 86.177C73.4605 86.7003 73.7301 87.1744 74.0377 87.663L75.8682 90.469C76.4875 91.3823 77.1851 92.289 77.6968 93.3184C78.3872 94.7072 78.4075 95.5132 78.657 97.0093C78.8673 98.2701 79.268 99.527 79.6411 100.647C80.0838 101.976 81.032 103.403 82.2731 103.798C82.557 103.888 83.0255 103.783 83.3375 103.746C83.6378 103.711 84.1583 103.695 84.4297 103.683C85.6931 103.626 85.339 104.163 86.2075 102.93C86.6001 102.372 87.0227 101.893 87.4439 101.272C87.9875 100.47 88.6565 99.6746 89.2676 98.7136C89.4285 98.4608 90.1995 97.009 90.2302 96.7855C89.8184 96.738 89.6511 96.8153 89.356 96.8512L87.616 96.8723C83.7708 96.8723 81.8675 93.6584 83.9476 91.8447C84.6281 91.2514 85.1655 91.3634 85.9342 91.1872C86.4024 91.0798 86.1741 91.319 87.0349 90.9959L89.0424 90.3616C89.356 90.224 89.7334 90.0872 90.0146 89.9795C90.0507 89.5981 89.9762 89.1467 90.0276 88.7495C90.0802 88.3422 90.0489 87.9262 90.0679 87.4892C90.104 86.6634 90.1808 85.7946 90.1837 84.9974C90.1856 84.5657 90.2648 84.3903 90.2645 83.951L90.4751 80.6282C90.5473 80.25 90.5005 79.9512 90.5545 79.5661C90.6099 79.1716 90.6402 78.9642 90.4123 78.6091C90.1749 78.2394 89.1236 77.9187 88.7863 78.5862C88.6241 78.9072 88.4704 80.0995 88.3809 80.543C88.1392 81.7401 87.7774 83.2973 87.5898 84.4814L87.2094 86.4791C87.1111 86.9446 87.0205 88.0683 86.6304 88.241C86.2723 88.3995 85.9878 88.0937 85.8753 87.8857C85.644 87.4583 85.3192 84.6747 85.162 83.8607C84.9234 82.6246 84.7279 81.0241 84.4952 79.792C84.2703 78.6015 84.3156 77.7027 83.4592 77.2946C82.9887 77.0704 82.1478 77.5054 82.1478 78.2193L82.1481 78.2196Z" fill="#FEFEFE"/>
<path fill-rule="evenodd" clip-rule="evenodd" d="M107.203 97.1275C107.683 96.5195 107.683 95.3202 107.688 94.3666C107.694 93.4206 107.305 92.4768 106.936 91.7958L106.54 91.7967C106.377 92.2044 106.5 92.1111 106.837 92.9903C107.013 93.4481 107.077 93.9107 107.077 94.4667C107.076 95.0815 107.065 95.4634 106.989 96.049C106.929 96.5167 106.49 97.1446 107.203 97.1275H107.203Z" fill="#FEFEFE"/>
<path fill-rule="evenodd" clip-rule="evenodd" d="M108.943 94.5162C108.943 95.2269 108.868 95.466 108.73 96.135C108.593 96.7988 108.282 97.2439 108.468 97.4568C108.842 97.6756 108.983 97.2819 109.097 97.0079C109.482 96.0881 109.616 94.6037 109.46 93.6437C109.415 93.3642 109.2 92.3563 108.95 92.2125C108.781 92.1153 108.598 92.2092 108.537 92.3602C108.492 92.4729 108.723 93.0986 108.787 93.3277C108.893 93.7074 108.943 94.0822 108.943 94.5162H108.943Z" fill="#FEFEFE"/>
<path fill-rule="evenodd" clip-rule="evenodd" d="M76.2793 102.564C76.1243 102.714 76.1105 102.592 76.2978 103.236C76.3733 103.495 76.4655 103.728 76.576 103.965C77.0647 105.014 77.7574 106.021 78.7199 106.652C78.8626 106.745 79.1983 107.014 79.3946 106.883C79.6292 106.726 79.5594 106.491 79.2338 106.29C79.0877 106.2 79.0862 106.197 78.946 106.079L78.7696 105.96C78.7602 105.954 78.7473 105.947 78.7382 105.941C78.0316 105.453 77.4085 104.405 77.0493 103.59C76.7714 102.96 76.7311 102.127 76.2792 102.564H76.2793Z" fill="#FEFEFE"/>
<path fill-rule="evenodd" clip-rule="evenodd" d="M81.3918 105.568C81.1841 105.391 80.5754 105.116 80.1984 104.824C79.934 104.62 79.4558 104.153 79.2469 103.834C78.9956 103.45 78.7065 103.058 78.5026 102.636C78.4242 102.475 78.2986 102.072 78.2252 101.966C78.0413 101.701 77.6618 101.801 77.726 102.238C77.8213 102.886 78.8198 104.279 79.2029 104.675C79.6852 105.173 80.1871 105.593 80.8555 105.912C81.2476 106.1 81.4044 106.003 81.3918 105.568V105.568Z" fill="#FEFEFE"/>
<path fill-rule="evenodd" clip-rule="evenodd" d="M157.028 211.622C157.028 210.204 157.107 209.154 157.663 207.917C157.958 207.26 157.903 207.321 158.29 206.702C158.726 206.006 159.317 205.257 159.959 204.755L161.019 203.973C161.702 203.597 162.854 203.01 163.67 202.942C163.67 203.828 163.567 209.681 163.765 210.081C163.809 210.17 164.022 210.487 164.085 210.55C164.413 210.88 164.835 210.969 165.313 210.966L173.407 210.961C173.973 210.952 173.952 210.781 173.86 212.014C173.832 212.389 173.697 213.026 173.615 213.346C172.931 215.991 170.74 218.386 168.085 219.194C166.725 219.608 165.292 219.742 163.86 219.455L162.577 219.094C160.296 218.296 158.541 216.525 157.629 214.31C157.371 213.685 157.028 212.474 157.028 211.622ZM165.854 222.539H164.945C163.414 222.479 161.895 222.113 160.514 221.421C159.314 220.819 157.725 219.704 156.935 218.686C156.803 218.517 156.726 218.471 156.595 218.303C155.771 217.249 155.6 216.89 155.033 215.722C153.796 213.175 153.765 209.404 154.946 206.778C155.466 205.622 155.671 205.237 156.389 204.275C156.561 204.045 156.751 203.782 156.945 203.581C159.218 201.222 160.697 200.609 163.67 199.916C163.67 198.996 163.662 198.071 163.667 197.151C163.679 195.105 166.564 195.383 166.564 197.023V200.443H174.324C176.222 200.443 176.222 203.402 174.324 203.402H166.564V208.005H174.784C175.561 208.005 176.079 208.412 176.308 208.98L177.302 211.734C177.459 212.13 178.248 214.253 178.269 214.516C179.279 214.516 180.288 214.516 181.297 214.513C183.497 214.507 183.183 217.409 181.558 217.409H177.151C176.718 217.409 176.439 217.204 176.212 216.968C175.951 216.697 175.866 216.502 175.77 216.094C175.635 216.193 175.199 217.062 174.978 217.406C174.203 218.615 173.125 219.671 171.957 220.501C170.192 221.754 168.036 222.453 165.854 222.539Z" fill="#FEFEFE"/>
<path fill-rule="evenodd" clip-rule="evenodd" d="M164.92 194.525C165.969 194.525 166.422 194.433 167.239 193.621C168.523 192.346 168.141 190.056 166.499 189.196C166.137 189.007 165.767 188.902 165.404 188.869H164.912C163.169 189.023 161.765 190.805 162.515 192.786C162.603 193.016 162.903 193.459 163.06 193.622C163.457 194.035 164.145 194.525 164.92 194.525V194.525Z" fill="#FEFEFE"/>
<path fill-rule="evenodd" clip-rule="evenodd" d="M60.7738 187.355C61.2237 186.681 61.1208 186.66 61.3843 185.787C63.8707 177.548 76.2609 178.379 77.6348 186.767C78.5709 192.482 74.7784 194.589 72.6334 197.255C71.4816 198.686 70.7793 200.744 69.7434 202.137C67.7372 204.834 65.9925 202.395 64.3501 202.718C63.687 205.448 68.2309 205.331 70.0476 204.253C71.8239 203.2 72.1904 200.715 73.688 198.819C76.0278 195.856 80.8697 193.081 79.4342 186.263C78.4921 181.788 74.4619 178.054 69.0805 178.104C63.6718 178.154 59.2409 182.939 59.3294 186.644L60.7736 187.355H60.7738Z" fill="#FEFEFE"/>
<path fill-rule="evenodd" clip-rule="evenodd" d="M63.0195 185.685L64.0675 186.384C64.4321 186.07 67.177 180.794 72.2301 183.721C77.0828 186.532 73.7915 192.028 73.7454 192.332C74.3695 192.864 73.7861 192.539 74.6686 192.863C77.0377 191.291 77.4703 185.117 73.3087 182.384C71.6257 181.278 69.2164 180.797 67.02 181.611C65.2998 182.248 63.2633 183.819 63.0195 185.685Z" fill="#FEFEFE"/>
<path fill-rule="evenodd" clip-rule="evenodd" d="M75.5664 174.153C80.0922 176.587 83.2498 179.676 84.3327 185.926L85.75 185.38L85.4542 183.537C84.1205 178.883 80.8431 174.717 76.3414 172.791L75.5664 174.153V174.153Z" fill="#FEFEFE"/>
<path fill-rule="evenodd" clip-rule="evenodd" d="M254.683 70.4594C253.705 69.8623 252.637 66.7461 254.768 64.6287C256.483 62.9235 259.297 63.0808 260.617 64.5431L254.683 70.4596V70.4594ZM262.375 64.422L264.261 62.5487C265.349 62.833 267.261 64.1191 268.143 64.7723C268.436 64.9891 268.724 65.2405 268.988 65.4595C269.134 65.5801 269.212 65.7007 269.35 65.8307L270.491 67.0181C270.667 67.2182 271.096 67.687 271.193 67.9036C270.817 68.6857 268.626 70.6668 268.036 71.1124C265.378 73.1205 262.2 74.3516 258.675 74.487C257.264 74.5412 254.197 74.2799 253.053 73.6917L254.558 72.2034C255.812 72.856 256.646 73.3437 258.414 73.1421C259.085 73.0656 259.762 72.8508 260.298 72.5746C260.577 72.4309 260.831 72.2749 261.059 72.1103C263.176 70.5845 263.963 67.5775 262.802 65.2018C262.675 64.9426 262.44 64.6079 262.375 64.422H262.375ZM253.671 71.4466L251.857 73.259C251.309 73.1148 250.279 72.5371 249.806 72.2675C248.748 71.6644 248.013 71.0709 247.13 70.3473L244.927 67.9037C245.031 67.6811 245.447 67.2224 245.627 67.0184C246.396 66.1465 247.113 65.4184 248.081 64.6945C249.255 63.8163 250.555 63.0256 252.167 62.4079C253.786 61.7877 255.541 61.3941 257.443 61.3203C258.853 61.2654 261.959 61.5328 263.066 62.1149L261.619 63.5458C260.958 63.0779 260.951 62.9231 259.995 62.4956C257.81 61.5179 255.268 62.1792 253.782 63.6475C252.198 65.2125 251.722 67.7193 252.6 69.7922C252.854 70.3909 253.336 71.1239 253.671 71.4466ZM271.363 55.4872C271.815 55.017 271.557 54.5486 271.214 54.4465C270.741 54.3058 270.351 54.8576 270.142 55.0654C269.829 55.3749 269.563 55.6399 269.251 55.9506L263.952 61.2089C260.8 60.2048 258.046 59.8536 254.587 60.5396C251.703 61.1114 249.12 62.4453 247.314 63.8695C246.346 64.6323 246.324 64.6956 245.544 65.4697C245.423 65.5905 245.305 65.6623 245.19 65.7866L244.6 66.4842C244.206 66.9795 243.508 67.6448 243.707 68.1335C243.819 68.4083 244.87 69.6549 245.162 69.9869C245.284 70.1247 245.384 70.179 245.515 70.3055C246.394 71.1474 246.327 71.2323 247.625 72.177C248.118 72.5352 248.651 72.8905 249.219 73.2189L250.959 74.1343C250.716 74.4585 245.532 79.5161 244.755 80.3211C244.303 80.7896 244.558 81.2569 244.905 81.3602C245.369 81.4986 245.774 80.9476 245.978 80.7437L248.617 78.1164C249.224 77.5101 249.788 76.9499 250.397 76.3449L252.166 74.5991C255.372 75.586 257.938 75.9568 261.479 75.2752C265.259 74.5473 267.473 73.01 269.879 71.0508L271.492 69.3586C271.916 68.8103 272.599 68.1945 272.415 67.6787C272.323 67.4199 271.462 66.4029 271.26 66.1921C271.131 66.0578 271.074 65.955 270.956 65.8198L270.265 65.1636C270.145 65.0438 270.071 64.9266 269.946 64.8118C269.741 64.6238 269.443 64.3817 269.212 64.1967C268.346 63.506 267.06 62.5828 266.031 62.1093C265.799 62.0027 265.369 61.8093 265.159 61.6732L271.363 55.4872H271.363Z" fill="#FEFEFE"/>
<path d="M55.1958 198.767C55.5219 198.767 55.7862 198.502 55.7862 198.176C55.7862 197.85 55.5219 197.586 55.1958 197.586C54.8698 197.586 54.6055 197.85 54.6055 198.176C54.6055 198.502 54.8698 198.767 55.1958 198.767Z" fill="#FEFEFE"/>
<path d="M58.5934 196.552C59.001 196.552 59.3314 196.222 59.3314 195.814C59.3314 195.407 59.001 195.076 58.5934 195.076C58.1859 195.076 57.8555 195.407 57.8555 195.814C57.8555 196.222 58.1859 196.552 58.5934 196.552Z" fill="#FEFEFE"/>
<path d="M65.8985 191.387C66.2653 191.387 66.5627 191.122 66.5627 190.796C66.5627 190.47 66.2653 190.206 65.8985 190.206C65.5317 190.206 65.2344 190.47 65.2344 190.796C65.2344 191.122 65.5317 191.387 65.8985 191.387Z" fill="#FEFEFE"/>
<path d="M69.3669 189.026C69.7744 189.026 70.1048 188.728 70.1048 188.361C70.1048 187.995 69.7744 187.697 69.3669 187.697C68.9593 187.697 68.6289 187.995 68.6289 188.361C68.6289 188.728 68.9593 189.026 69.3669 189.026Z" fill="#FEFEFE"/>
<path d="M63.7924 194.264L62.0117 191.572L60.922 192.293L62.7027 194.985L63.7924 194.264Z" fill="#FEFEFE"/>
<path fill-rule="evenodd" clip-rule="evenodd" d="M75.7148 177.765C78.6009 179.268 80.6142 181.177 81.3049 185.04L82.2088 184.703L82.0202 183.564C81.1698 180.688 79.0798 178.113 76.2093 176.923L75.715 177.765H75.7148Z" fill="#FEFEFE"/>
<path fill-rule="evenodd" clip-rule="evenodd" d="M155.87 109.451C156.053 109.423 156.24 109.365 156.443 109.332C158.075 109.071 159.029 109.31 159.783 107.486C160.521 105.7 160.353 104.249 159.397 102.726C158.334 101.033 157.915 100.696 156.295 99.5271C154.946 98.5543 152.962 97.9689 151.132 97.7336C149.273 97.4945 147.801 97.8166 146.386 98.3781C143.742 99.4274 141.218 102.407 140.177 104.883C139.646 106.144 139.31 108.773 140.596 109.615C140.484 109.926 140.025 110.822 140.085 111.094C140.118 111.247 140.644 111.932 140.771 112.123C140.999 112.467 141.192 112.856 141.411 113.206C142.184 114.442 143.211 115.293 144.864 115.076C145.906 114.939 146.151 114.224 146.548 113.101L147.875 113.008C148.113 112.016 147.61 111.521 147.604 110.909C148.554 111.108 149.193 111.509 150.115 111.781C151.162 112.091 151.73 112.077 152.735 112.125C153.571 112.166 154.384 112.133 154.892 111.707C155.525 111.177 155.614 110.332 155.87 109.451L155.87 109.451Z" fill="#FEFEFE"/>
<path fill-rule="evenodd" clip-rule="evenodd" d="M137.919 104.512C138.336 102.673 139.068 101.129 140.021 99.7973C140.655 98.911 141.515 98.0521 142.35 97.4434C145.021 95.4967 148.368 94.6579 152.55 95.6053C156.375 96.4719 158.667 98.3022 160.496 100.571C162.088 102.547 163.917 106.209 163.334 108.766C163.217 109.277 163.083 109.514 162.928 109.969C162.534 111.13 162.391 112.164 162.786 113.293C162.995 113.892 163.386 114.446 163.664 114.945C163.886 115.345 163.898 115.309 164.076 115.787C164.169 116.036 164.262 116.446 164.251 116.755C164.241 117.031 164.154 117.062 163.953 117.119C163.802 117.161 163.638 117.203 163.475 117.235C161.8 117.553 161.728 117.261 161.701 119.152C161.69 119.881 161.763 119.921 161.436 120.127C160.878 120.48 160.969 120.604 161.096 120.874C161.32 121.347 161.297 121.329 161.033 121.847C160.426 123.036 160.656 123.862 160.16 125.102C160.067 125.335 159.965 125.38 159.74 125.429C158.614 125.677 156.338 124.653 154.824 125.535C154.317 125.831 153.653 126.535 153.601 127.434C153.591 127.607 153.618 127.886 153.679 128.01C153.785 128.224 154.026 128.102 154.17 128.038C154.707 127.799 154.486 127.536 154.795 127.052C155.013 126.711 155.333 126.482 155.609 126.361C157.126 125.696 158.996 127.115 160.48 126.222C160.795 126.034 160.987 125.745 161.099 125.26C161.186 124.947 161.386 123.667 161.475 123.227C161.588 122.673 161.796 122.365 162.061 121.956C162.621 121.09 162.143 120.981 162.3 120.781C162.432 120.613 162.59 120.541 162.661 120.289C162.737 120.021 162.587 118.974 162.681 118.335C163.517 118.269 164.407 118.209 164.937 117.77C165.627 117.197 165.26 116.039 165.007 115.465C164.695 114.76 164.362 114.139 164.05 113.455C163.784 112.872 163.425 111.99 163.621 111.126C163.788 110.392 164.074 109.839 164.232 109.147C164.838 106.481 163.466 103.144 162.129 100.958C161.943 100.653 161.697 100.337 161.474 100.029C161.359 99.8698 161.226 99.7128 161.103 99.5684C160.971 99.4137 160.862 99.2842 160.727 99.1333C157.441 95.4624 152.105 93.6137 147.212 94.3945C145.314 94.6973 143.775 95.281 142.211 96.2708C142.031 96.3851 141.867 96.5075 141.722 96.5981C141.565 96.6967 141.399 96.8268 141.25 96.9503C141.096 97.0774 140.965 97.1778 140.81 97.3177C139.578 98.4278 138.558 99.7441 137.844 101.324C136.802 103.629 136.317 106.341 136.506 108.817C136.871 113.597 140.029 115.499 138.913 120.387C138.725 121.211 138.514 121.865 138.213 122.631C138.085 122.957 137.668 123.81 137.767 124.149C137.804 124.276 137.976 124.409 138.128 124.398C138.284 124.387 138.685 124.023 138.807 123.878C139.001 123.646 139.13 123.309 139.259 123C140.157 120.838 140.47 118.672 139.977 116.408C139.393 113.727 137.82 112.111 137.552 109.14C137.426 107.732 137.571 106.045 137.919 104.512L137.919 104.512Z" fill="#FEFEFE"/>
<g filter="url(#filter0_d_218_1860)">
<path d="M207.414 192.863L210.73 185.424H212.43L215.756 192.863H213.949L211.229 186.296H211.909L209.178 192.863H207.414ZM209.072 191.269L209.529 189.962H213.354L213.822 191.269H209.072Z" fill="#FEFEFE"/>
<path d="M219.122 192.948C218.505 192.948 217.956 192.824 217.475 192.576C216.993 192.321 216.614 191.97 216.338 191.524C216.068 191.078 215.934 190.571 215.934 190.004C215.934 189.431 216.068 188.924 216.338 188.485C216.614 188.039 216.993 187.691 217.475 187.443C217.956 187.188 218.505 187.061 219.122 187.061C219.724 187.061 220.248 187.188 220.694 187.443C221.141 187.691 221.47 188.049 221.683 188.517L220.397 189.207C220.248 188.938 220.06 188.74 219.834 188.612C219.614 188.485 219.373 188.421 219.111 188.421C218.828 188.421 218.573 188.485 218.346 188.612C218.119 188.74 217.939 188.921 217.804 189.154C217.676 189.388 217.613 189.671 217.613 190.004C217.613 190.337 217.676 190.621 217.804 190.855C217.939 191.088 218.119 191.269 218.346 191.396C218.573 191.524 218.828 191.588 219.111 191.588C219.373 191.588 219.614 191.528 219.834 191.407C220.06 191.28 220.248 191.078 220.397 190.801L221.683 191.503C221.47 191.963 221.141 192.321 220.694 192.576C220.248 192.824 219.724 192.948 219.122 192.948Z" fill="#FEFEFE"/>
<path d="M225.327 192.948C224.711 192.948 224.162 192.824 223.68 192.576C223.198 192.321 222.819 191.97 222.543 191.524C222.274 191.078 222.139 190.571 222.139 190.004C222.139 189.431 222.274 188.924 222.543 188.485C222.819 188.039 223.198 187.691 223.68 187.443C224.162 187.188 224.711 187.061 225.327 187.061C225.929 187.061 226.454 187.188 226.9 187.443C227.346 187.691 227.676 188.049 227.888 188.517L226.602 189.207C226.454 188.938 226.266 188.74 226.039 188.612C225.82 188.485 225.579 188.421 225.317 188.421C225.033 188.421 224.778 188.485 224.552 188.612C224.325 188.74 224.144 188.921 224.01 189.154C223.882 189.388 223.818 189.671 223.818 190.004C223.818 190.337 223.882 190.621 224.01 190.855C224.144 191.088 224.325 191.269 224.552 191.396C224.778 191.524 225.033 191.588 225.317 191.588C225.579 191.588 225.82 191.528 226.039 191.407C226.266 191.28 226.454 191.078 226.602 190.801L227.888 191.503C227.676 191.963 227.346 192.321 226.9 192.576C226.454 192.824 225.929 192.948 225.327 192.948Z" fill="#FEFEFE"/>
<path d="M231.607 192.948C230.956 192.948 230.382 192.82 229.886 192.565C229.397 192.31 229.018 191.963 228.749 191.524C228.48 191.078 228.345 190.571 228.345 190.004C228.345 189.431 228.476 188.924 228.738 188.485C229.007 188.039 229.372 187.691 229.833 187.443C230.293 187.188 230.814 187.061 231.395 187.061C231.954 187.061 232.457 187.181 232.904 187.422C233.357 187.656 233.715 187.996 233.977 188.442C234.239 188.882 234.37 189.409 234.37 190.026C234.37 190.089 234.367 190.164 234.36 190.249C234.352 190.327 234.345 190.401 234.338 190.472H229.695V189.505H233.467L232.829 189.792C232.829 189.494 232.769 189.236 232.649 189.016C232.528 188.797 232.362 188.627 232.149 188.506C231.937 188.379 231.689 188.315 231.405 188.315C231.122 188.315 230.871 188.379 230.651 188.506C230.438 188.627 230.272 188.8 230.151 189.027C230.031 189.246 229.971 189.509 229.971 189.813V190.068C229.971 190.38 230.038 190.656 230.173 190.897C230.314 191.131 230.509 191.311 230.757 191.439C231.012 191.559 231.31 191.62 231.65 191.62C231.954 191.62 232.22 191.574 232.447 191.481C232.681 191.389 232.893 191.251 233.084 191.067L233.966 192.023C233.704 192.321 233.375 192.551 232.978 192.714C232.581 192.87 232.124 192.948 231.607 192.948Z" fill="#FEFEFE"/>
<path d="M237.397 192.948C236.908 192.948 236.437 192.891 235.984 192.778C235.538 192.657 235.183 192.509 234.921 192.332L235.474 191.141C235.736 191.304 236.044 191.439 236.398 191.545C236.76 191.644 237.114 191.694 237.461 191.694C237.844 191.694 238.113 191.648 238.269 191.556C238.432 191.464 238.513 191.336 238.513 191.173C238.513 191.039 238.449 190.94 238.322 190.876C238.201 190.805 238.038 190.752 237.833 190.716C237.627 190.681 237.401 190.646 237.153 190.61C236.912 190.575 236.668 190.529 236.42 190.472C236.172 190.408 235.945 190.316 235.739 190.196C235.534 190.075 235.368 189.912 235.24 189.707C235.12 189.501 235.059 189.236 235.059 188.91C235.059 188.549 235.162 188.23 235.368 187.954C235.58 187.677 235.885 187.461 236.281 187.305C236.678 187.142 237.153 187.061 237.705 187.061C238.095 187.061 238.492 187.103 238.896 187.188C239.299 187.273 239.636 187.397 239.905 187.56L239.352 188.74C239.076 188.577 238.796 188.467 238.513 188.41C238.237 188.347 237.967 188.315 237.705 188.315C237.337 188.315 237.068 188.364 236.898 188.464C236.728 188.563 236.643 188.69 236.643 188.846C236.643 188.988 236.703 189.094 236.823 189.165C236.951 189.236 237.117 189.292 237.323 189.335C237.528 189.377 237.751 189.416 237.992 189.452C238.24 189.48 238.488 189.526 238.736 189.59C238.984 189.654 239.207 189.746 239.406 189.866C239.611 189.98 239.778 190.139 239.905 190.344C240.033 190.543 240.096 190.805 240.096 191.131C240.096 191.485 239.99 191.8 239.778 192.077C239.565 192.346 239.257 192.558 238.853 192.714C238.456 192.87 237.971 192.948 237.397 192.948Z" fill="#FEFEFE"/>
<path d="M243.042 192.948C242.554 192.948 242.083 192.891 241.629 192.778C241.183 192.657 240.829 192.509 240.567 192.332L241.119 191.141C241.381 191.304 241.689 191.439 242.044 191.545C242.405 191.644 242.759 191.694 243.106 191.694C243.489 191.694 243.758 191.648 243.914 191.556C244.077 191.464 244.158 191.336 244.158 191.173C244.158 191.039 244.094 190.94 243.967 190.876C243.847 190.805 243.684 190.752 243.478 190.716C243.273 190.681 243.046 190.646 242.798 190.61C242.557 190.575 242.313 190.529 242.065 190.472C241.817 190.408 241.59 190.316 241.385 190.196C241.179 190.075 241.013 189.912 240.885 189.707C240.765 189.501 240.705 189.236 240.705 188.91C240.705 188.549 240.807 188.23 241.013 187.954C241.225 187.677 241.53 187.461 241.927 187.305C242.323 187.142 242.798 187.061 243.351 187.061C243.74 187.061 244.137 187.103 244.541 187.188C244.945 187.273 245.281 187.397 245.55 187.56L244.998 188.74C244.721 188.577 244.442 188.467 244.158 188.41C243.882 188.347 243.613 188.315 243.351 188.315C242.982 188.315 242.713 188.364 242.543 188.464C242.373 188.563 242.288 188.69 242.288 188.846C242.288 188.988 242.348 189.094 242.469 189.165C242.596 189.236 242.763 189.292 242.968 189.335C243.174 189.377 243.397 189.416 243.638 189.452C243.886 189.48 244.133 189.526 244.381 189.59C244.629 189.654 244.853 189.746 245.051 189.866C245.256 189.98 245.423 190.139 245.55 190.344C245.678 190.543 245.742 190.805 245.742 191.131C245.742 191.485 245.635 191.8 245.423 192.077C245.21 192.346 244.902 192.558 244.498 192.714C244.102 192.87 243.616 192.948 243.042 192.948Z" fill="#FEFEFE"/>
<path d="M250.441 192.99C249.867 192.99 249.332 192.898 248.837 192.714C248.348 192.523 247.923 192.254 247.561 191.907C247.2 191.559 246.917 191.152 246.711 190.685C246.513 190.217 246.414 189.703 246.414 189.144C246.414 188.584 246.513 188.07 246.711 187.603C246.917 187.135 247.2 186.728 247.561 186.381C247.93 186.034 248.358 185.768 248.847 185.584C249.336 185.393 249.871 185.297 250.452 185.297C251.096 185.297 251.677 185.41 252.194 185.637C252.719 185.857 253.158 186.182 253.512 186.615L252.407 187.635C252.152 187.344 251.869 187.128 251.557 186.987C251.245 186.838 250.905 186.763 250.537 186.763C250.19 186.763 249.871 186.82 249.58 186.933C249.29 187.047 249.038 187.21 248.826 187.422C248.613 187.635 248.447 187.886 248.326 188.177C248.213 188.467 248.156 188.789 248.156 189.144C248.156 189.498 248.213 189.82 248.326 190.111C248.447 190.401 248.613 190.653 248.826 190.865C249.038 191.078 249.29 191.241 249.58 191.354C249.871 191.467 250.19 191.524 250.537 191.524C250.905 191.524 251.245 191.453 251.557 191.311C251.869 191.163 252.152 190.94 252.407 190.642L253.512 191.662C253.158 192.094 252.719 192.424 252.194 192.65C251.677 192.877 251.093 192.99 250.441 192.99Z" fill="#FEFEFE"/>
<path d="M257.198 192.948C256.546 192.948 255.972 192.82 255.476 192.565C254.988 192.31 254.609 191.963 254.339 191.524C254.07 191.078 253.936 190.571 253.936 190.004C253.936 189.431 254.067 188.924 254.329 188.485C254.598 188.039 254.963 187.691 255.423 187.443C255.884 187.188 256.404 187.061 256.985 187.061C257.545 187.061 258.048 187.181 258.494 187.422C258.948 187.656 259.305 187.996 259.568 188.442C259.83 188.882 259.961 189.409 259.961 190.026C259.961 190.089 259.957 190.164 259.95 190.249C259.943 190.327 259.936 190.401 259.929 190.472H255.285V189.505H259.057L258.42 189.792C258.42 189.494 258.36 189.236 258.239 189.016C258.119 188.797 257.952 188.627 257.74 188.506C257.527 188.379 257.279 188.315 256.996 188.315C256.713 188.315 256.461 188.379 256.241 188.506C256.029 188.627 255.862 188.8 255.742 189.027C255.622 189.246 255.561 189.509 255.561 189.813V190.068C255.561 190.38 255.629 190.656 255.763 190.897C255.905 191.131 256.1 191.311 256.348 191.439C256.603 191.559 256.9 191.62 257.24 191.62C257.545 191.62 257.811 191.574 258.037 191.481C258.271 191.389 258.484 191.251 258.675 191.067L259.557 192.023C259.295 192.321 258.965 192.551 258.569 192.714C258.172 192.87 257.715 192.948 257.198 192.948Z" fill="#FEFEFE"/>
<path d="M261.064 192.863V187.146H262.648V188.761L262.425 188.294C262.595 187.89 262.867 187.585 263.243 187.38C263.618 187.167 264.075 187.061 264.614 187.061V188.591C264.543 188.584 264.479 188.58 264.422 188.58C264.366 188.573 264.305 188.57 264.242 188.57C263.788 188.57 263.42 188.701 263.137 188.963C262.86 189.218 262.722 189.618 262.722 190.164V192.863H261.064Z" fill="#FEFEFE"/>
<path d="M268.134 192.948C267.461 192.948 266.937 192.778 266.562 192.438C266.186 192.091 265.998 191.577 265.998 190.897V185.881H267.656V190.876C267.656 191.117 267.72 191.304 267.847 191.439C267.975 191.566 268.148 191.63 268.368 191.63C268.63 191.63 268.853 191.559 269.037 191.418L269.484 192.587C269.314 192.707 269.108 192.799 268.867 192.863C268.634 192.92 268.389 192.948 268.134 192.948ZM265.116 188.549V187.273H269.08V188.549H265.116Z" fill="#FEFEFE"/>
<path d="M270.414 192.863V187.146H272.072V192.863H270.414ZM271.243 186.349C270.939 186.349 270.691 186.26 270.499 186.083C270.308 185.906 270.212 185.687 270.212 185.424C270.212 185.162 270.308 184.943 270.499 184.766C270.691 184.588 270.939 184.5 271.243 184.5C271.548 184.5 271.796 184.585 271.987 184.755C272.178 184.918 272.274 185.13 272.274 185.393C272.274 185.669 272.178 185.899 271.987 186.083C271.803 186.26 271.555 186.349 271.243 186.349Z" fill="#FEFEFE"/>
<path d="M273.812 192.863V187.018C273.812 186.374 274.004 185.86 274.386 185.478C274.769 185.088 275.314 184.893 276.023 184.893C276.264 184.893 276.494 184.918 276.713 184.968C276.94 185.017 277.131 185.095 277.287 185.201L276.852 186.402C276.76 186.338 276.657 186.289 276.543 186.253C276.43 186.218 276.31 186.2 276.182 186.2C275.941 186.2 275.754 186.271 275.619 186.413C275.491 186.547 275.428 186.753 275.428 187.029V187.56L275.47 188.272V192.863H273.812ZM272.93 188.549V187.273H276.894V188.549H272.93Z" fill="#FEFEFE"/>
<path d="M278.546 195.009C278.249 195.009 277.955 194.963 277.664 194.871C277.374 194.779 277.137 194.652 276.952 194.489L277.558 193.309C277.686 193.423 277.831 193.511 277.994 193.575C278.164 193.639 278.33 193.671 278.493 193.671C278.727 193.671 278.911 193.614 279.046 193.501C279.188 193.394 279.315 193.214 279.428 192.959L279.726 192.257L279.853 192.077L281.904 187.146H283.498L280.916 193.214C280.732 193.674 280.519 194.035 280.278 194.297C280.045 194.56 279.783 194.744 279.492 194.85C279.209 194.956 278.894 195.009 278.546 195.009ZM279.524 193.086L276.974 187.146H278.685L280.661 191.928L279.524 193.086Z" fill="#FEFEFE"/>
</g>
<rect x="10" y="322.15" width="39.3057" height="37.85" fill="#7504A6"/>
<rect x="10" y="294.393" width="90.8399" height="27.7566" fill="#57A30A"/>
<rect x="49.3633" y="322.15" width="25.2333" height="37.85" fill="#DC7B04"/>
<rect x="74.5977" y="322.15" width="56.7749" height="37.85" fill="#D91424"/>
<rect x="194.453" y="322.15" width="80.7466" height="37.85" fill="#7504A6"/>
<rect x="275.203" y="294.393" width="83.2699" height="65.6066" fill="#D91424"/>
<rect x="156.605" y="341.075" width="46.6816" height="37.85" transform="rotate(-90 156.605 341.075)" fill="#57A30A"/>
<rect x="156.605" y="360" width="18.925" height="37.85" transform="rotate(-90 156.605 360)" fill="#DC7B04"/>
<rect x="131.371" y="322.15" width="25.2333" height="37.85" fill="#0357A0"/>
<defs>
<filter id="filter0_d_218_1860" x="201.414" y="184.5" width="88.084" height="22.5095" filterUnits="userSpaceOnUse" color-interpolation-filters="sRGB">
<feFlood flood-opacity="0" result="BackgroundImageFix"/>
<feColorMatrix in="SourceAlpha" type="matrix" values="0 0 0 0 0 0 0 0 0 0 0 0 0 0 0 0 0 0 127 0" result="hardAlpha"/>
<feOffset dy="6"/>
<feGaussianBlur stdDeviation="3"/>
<feComposite in2="hardAlpha" operator="out"/>
<feColorMatrix type="matrix" values="0 0 0 0 0 0 0 0 0 0 0 0 0 0 0 0 0 0 0.25 0"/>
<feBlend mode="normal" in2="BackgroundImageFix" result="effect1_dropShadow_218_1860"/>
<feBlend mode="normal" in="SourceGraphic" in2="effect1_dropShadow_218_1860" result="shape"/>
</filter>
</defs>
</svg>
