<svg width="197" height="197" viewBox="0 0 197 197" fill="none" xmlns="http://www.w3.org/2000/svg">
<path d="M141.434 123.881H169.905V101.92H141.434V123.881Z" fill="#EBEBEB"/>
<path d="M143.467 121.963H146.899V118.086H143.467V121.963Z" fill="#FEFEFE"/>
<path d="M161.221 101.975H157.986V106.66H161.221V101.975Z" fill="#FAFAFA"/>
<path d="M161.221 119.13H157.986V123.814H161.221V119.13Z" fill="#FAFAFA"/>
<path d="M148.537 124.031C148.486 124.031 148.447 119.201 148.447 113.243C148.447 107.286 148.486 102.456 148.537 102.456C148.588 102.456 148.628 107.286 148.628 113.243C148.628 119.201 148.588 124.031 148.537 124.031Z" fill="#E0E0E0"/>
<path d="M129.823 161.698H178.947V123.807H129.823V161.698Z" fill="#EBEBEB"/>
<path d="M133.334 158.392H139.251V151.702H133.334V158.392Z" fill="#FEFEFE"/>
<path d="M163.959 123.905H158.38V131.99H163.959V123.905Z" fill="#FAFAFA"/>
<path d="M163.959 153.498H158.38V161.583H163.959V153.498Z" fill="#FAFAFA"/>
<path d="M142.084 161.958C141.998 161.958 141.927 153.625 141.927 143.345C141.927 133.066 141.998 124.732 142.084 124.732C142.171 124.732 142.238 133.066 142.238 143.345C142.238 153.625 142.171 161.958 142.084 161.958Z" fill="#E0E0E0"/>
<path d="M177.387 44.9987L180.019 50.3295L185.901 51.1845L181.646 55.3373L182.651 61.1961L177.387 58.4302L172.123 61.1961L173.128 55.3373L168.873 51.1845L174.755 50.3295L177.387 44.9987Z" fill="#EBEBEB"/>
<path d="M20.689 113.854L22.3478 117.215L26.0553 117.751L23.3722 120.367L24.0065 124.063L20.689 122.317L17.3716 124.063L18.0059 120.367L15.3228 117.751L19.0303 117.215L20.689 113.854Z" fill="#EBEBEB"/>
<path d="M22.7457 84.576L26.4296 92.0384L34.6642 93.2362L28.7069 99.0437L30.1135 107.247L22.7457 103.374L15.3818 107.247L16.7884 99.0437L10.8271 93.2362L19.0618 92.0384L22.7457 84.576Z" fill="#EBEBEB"/>
<path d="M175.043 69.0761L176.63 72.2951L180.18 72.8112L177.611 75.3131L178.218 78.8473L175.043 77.1807L171.867 78.8473L172.474 75.3131L169.905 72.8112L173.455 72.2951L175.043 69.0761Z" fill="#EBEBEB"/>
<path d="M122.948 16.9696L124.536 20.1846L128.086 20.7008L125.517 23.2066L126.123 26.7408L122.948 25.0702L119.772 26.7408L120.379 23.2066L117.81 20.7008L121.36 20.1846L122.948 16.9696Z" fill="#EBEBEB"/>
<path d="M159.263 51.3815L160.303 53.4855L162.627 53.8243L160.945 55.4634L161.343 57.7761L159.263 56.6848L157.186 57.7761L157.584 55.4634L155.902 53.8243L158.226 53.4855L159.263 51.3815Z" fill="#EBEBEB"/>
<path d="M63.4023 157.643L65.4274 161.741L69.9506 162.399L66.6764 165.59L67.4526 170.098L63.4023 167.97L59.3559 170.098L60.1281 165.59L56.854 162.399L61.3811 161.741L63.4023 157.643Z" fill="#EBEBEB"/>
<path d="M68.7454 153.565L69.5806 155.26L71.4521 155.531L70.0968 156.851L70.4159 158.715L68.7454 157.832L67.0748 158.715L67.3939 156.851L66.0386 155.531L67.9101 155.26L68.7454 153.565Z" fill="#EBEBEB"/>
<path d="M143.467 137.868L145.248 141.474L149.228 142.053L146.347 144.858L147.029 148.822L143.467 146.95L139.909 148.822L140.591 144.858L137.711 142.053L141.69 141.474L143.467 137.868Z" fill="#7503A6"/>
<path d="M151.958 134.673L152.797 136.371L154.669 136.643L153.313 137.967L153.632 139.835L151.958 138.952L150.279 139.835L150.602 137.967L149.243 136.643L151.119 136.371L151.958 134.673Z" fill="#7503A6"/>
<path d="M140.831 40.842L142.234 36.4844C140.897 33.7924 140.491 30.733 141.08 27.7855C141.668 24.838 143.218 22.169 145.486 20.1966C147.754 18.2242 150.612 17.0599 153.612 16.886C156.613 16.712 159.586 17.5384 162.067 19.2356C164.548 20.9328 166.395 23.405 167.32 26.2647C168.245 29.1245 168.195 32.2103 167.179 35.0387C166.162 37.8672 164.235 40.2784 161.701 41.8947C159.167 43.511 156.169 44.241 153.175 43.9704C150.255 43.7714 147.491 42.5752 145.347 40.582L140.831 40.842Z" fill="#FAFAFA"/>
<path d="M140.831 40.842L141.131 40.8184L142.001 40.7554L145.346 40.5268C147.005 42.0604 149.047 43.1168 151.256 43.5843C151.939 43.7359 152.631 43.8347 153.329 43.8798L154.432 43.9231C154.802 43.9231 155.185 43.8798 155.567 43.8601C159.023 43.5464 162.226 41.914 164.511 39.3015C165.798 37.8503 166.754 36.1361 167.312 34.278C167.883 32.2925 167.999 30.2036 167.651 28.1671C167.564 27.6435 167.443 27.1263 167.288 26.6186C167.218 26.3615 167.133 26.1089 167.032 25.8622C166.934 25.61 166.847 25.3578 166.741 25.1096C166.302 24.1076 165.746 23.1607 165.086 22.2886C164.757 21.8539 164.4 21.4406 164.018 21.0514C163.833 20.853 163.635 20.6661 163.427 20.4919C163.226 20.3146 163.033 20.1216 162.82 19.96L162.174 19.4794L161.851 19.243L161.504 19.0381L160.823 18.6441C160.59 18.5141 160.346 18.4156 160.11 18.2974C158.299 17.4404 156.319 17.0005 154.315 17.0101C152.312 17.0196 150.336 17.4783 148.534 18.3525C145.41 19.8526 142.985 22.4983 141.761 25.74C141.694 25.9213 141.631 26.1025 141.568 26.2798C141.497 26.4547 141.44 26.6353 141.398 26.8196C141.308 27.1821 141.221 27.5406 141.135 27.8913C141.015 28.5784 140.933 29.2715 140.89 29.9676C140.802 32.2194 141.276 34.4577 142.269 36.4805L141.213 39.7034L140.934 40.5387C140.871 40.7278 140.835 40.8263 140.835 40.8263C140.835 40.8263 140.859 40.7357 140.918 40.5505L141.17 39.7231L142.183 36.4568V36.4883C141.163 34.4619 140.67 32.2112 140.748 29.944C140.785 29.2401 140.863 28.5389 140.981 27.844C141.068 27.4894 141.158 27.1269 141.245 26.7605C141.287 26.5742 141.342 26.3912 141.41 26.2128C141.477 26.0316 141.54 25.8503 141.607 25.6652C142.265 23.8977 143.283 22.2861 144.596 20.9324C145.909 19.5787 147.489 18.5124 149.236 17.8009C150.983 17.0894 152.858 16.7483 154.743 16.7992C156.628 16.8501 158.483 17.2918 160.188 18.0964C160.429 18.2107 160.677 18.3131 160.913 18.4471L161.607 18.8608L161.953 19.0696L162.284 19.3099L162.938 19.7946C163.155 19.964 163.352 20.157 163.557 20.3343C163.767 20.5122 163.967 20.7016 164.156 20.9017C164.543 21.2989 164.905 21.72 165.239 22.1625C165.913 23.0396 166.48 23.9931 166.93 25.0032C167.036 25.2554 167.123 25.5154 167.221 25.7676C167.326 26.0245 167.414 26.2877 167.485 26.5556C167.641 27.0723 167.762 27.5988 167.848 28.1316C168.204 30.1984 168.085 32.319 167.501 34.3332C166.941 36.2266 165.975 37.9748 164.668 39.4552C162.349 42.0924 159.104 43.7372 155.606 44.0492C155.212 44.0492 154.818 44.1044 154.456 44.1044L153.341 44.0571C152.636 44.0078 151.937 43.9051 151.248 43.7498C149.031 43.2641 146.987 42.1825 145.338 40.6214H145.37L141.993 40.7987L141.135 40.8381C140.926 40.842 140.831 40.842 140.831 40.842Z" fill="#1D1D1B"/>
<path d="M146.69 29.944L148.924 28.0055L152.687 31.8707L161.126 24.8417L162.911 27.0678L152.1 35.8698L146.69 29.944Z" fill="#57A40A"/>
<path d="M117.456 137.699L41.9021 154.539C41.4648 154.639 41.012 154.651 40.5699 154.575C40.1278 154.5 39.705 154.337 39.3259 154.097C38.9469 153.857 38.619 153.545 38.3613 153.178C38.1036 152.81 37.921 152.396 37.8242 151.958L13.3213 41.9334C13.2237 41.4975 13.2131 41.0465 13.29 40.6065C13.3669 40.1664 13.5299 39.7458 13.7697 39.3689C14.0094 38.9919 14.3211 38.6659 14.687 38.4096C15.0529 38.1533 15.4658 37.9717 15.902 37.8752L91.4555 21.0357C91.8916 20.938 92.3428 20.9273 92.7831 21.0042C93.2235 21.0811 93.6443 21.244 94.0216 21.4837C94.3989 21.7234 94.7253 22.0352 94.9819 22.4011C95.2386 22.767 95.4207 23.18 95.5176 23.6164L120.036 133.641C120.134 134.077 120.144 134.528 120.068 134.968C119.991 135.408 119.828 135.828 119.588 136.205C119.348 136.582 119.036 136.908 118.671 137.165C118.305 137.421 117.892 137.603 117.456 137.699Z" fill="#E0E0E0"/>
<path d="M117.455 137.699L117.708 137.628C117.953 137.548 118.189 137.444 118.413 137.317C118.78 137.101 119.105 136.819 119.37 136.486C119.732 136.028 119.97 135.485 120.06 134.91C120.117 134.561 120.117 134.206 120.06 133.858C119.997 133.491 119.898 133.105 119.812 132.703C119.63 131.915 119.418 131.017 119.221 130.063C118.792 128.154 118.3 125.957 117.743 123.472C115.525 113.555 112.318 99.2052 108.354 81.4713C106.384 72.6063 104.209 62.8942 101.881 52.465C100.72 47.2537 99.518 41.8691 98.2756 36.311C97.6583 33.532 97.0305 30.7149 96.3922 27.8597C96.0692 26.4334 95.75 24.9953 95.423 23.5494C95.2454 22.8286 94.8307 22.1885 94.2454 21.7319C93.6602 21.2753 92.9384 21.0287 92.1961 21.0317C91.826 21.0399 91.4582 21.0928 91.1008 21.1893L89.9976 21.4336L87.7794 21.93L83.3036 22.9268L74.1943 24.9599L55.4241 29.156L15.9296 37.9501C15.0947 38.1351 14.3633 38.6346 13.8871 39.3448C13.4109 40.0551 13.2266 40.9214 13.3725 41.764C13.731 43.4385 14.1172 45.1169 14.4836 46.7875C15.2296 50.1234 15.969 53.4395 16.7018 56.736L21.0358 76.2035C23.8805 88.9652 26.6227 101.258 29.2349 112.999C31.8472 124.74 34.3254 135.851 36.65 146.296C36.939 147.609 37.2266 148.902 37.5129 150.173C37.6587 150.811 37.7887 151.458 37.9423 152.084C38.1079 152.701 38.447 153.258 38.9195 153.688C39.3889 154.111 39.9676 154.395 40.59 154.507C40.8987 154.557 41.2127 154.567 41.5238 154.535C41.8311 154.495 42.1424 154.42 42.4497 154.349L46.1178 153.534L60.0379 150.437L102.046 141.103L113.472 138.574L116.443 137.92L117.455 137.699L116.447 137.935L113.476 138.605L102.05 141.162L60.0497 150.551L46.1454 153.66L42.4773 154.479C42.17 154.546 41.8626 154.625 41.5396 154.669C41.2165 154.702 40.8905 154.691 40.5703 154.637C39.9185 154.524 39.3125 154.227 38.8239 153.781C38.3353 153.335 37.9843 152.758 37.8123 152.119C37.6547 151.485 37.5247 150.847 37.3789 150.209C37.0926 148.929 36.8037 147.637 36.5121 146.332C34.1875 135.902 31.7014 124.76 29.0852 113.035C26.4691 101.309 23.7268 89.0006 20.8782 76.239L16.5442 56.7754C15.8114 53.4815 15.072 50.1628 14.326 46.819C13.9556 45.1484 13.5734 43.4779 13.211 41.7876C13.0593 40.905 13.2534 39.9978 13.7531 39.2546C14.2528 38.5113 15.0195 37.9891 15.8941 37.7964L55.3926 28.9905L74.1746 24.822L83.2799 22.7929L87.7558 21.7961L89.9779 21.276L91.0811 21.0317C91.4454 20.9373 91.8198 20.887 92.1961 20.882C92.9652 20.8838 93.7117 21.1415 94.3181 21.6144C94.9245 22.0874 95.3562 22.7488 95.5451 23.4942C95.8682 24.9441 96.1913 26.3783 96.5104 27.8085C97.154 30.6663 97.787 33.4795 98.4095 36.248C99.6414 41.8034 100.84 47.1881 102.007 52.402C104.327 62.8312 106.487 72.5433 108.46 81.4122C112.4 99.1422 115.592 113.504 117.798 123.424C118.346 125.903 118.834 128.109 119.26 130.016C119.469 130.973 119.654 131.852 119.843 132.66C119.93 133.054 120.028 133.448 120.087 133.814C120.146 134.166 120.146 134.526 120.087 134.878C119.998 135.465 119.756 136.017 119.386 136.482C119.117 136.815 118.79 137.096 118.421 137.313C118.194 137.441 117.953 137.542 117.704 137.616L117.455 137.699Z" fill="#1D1D1B"/>
<g opacity="0.3">
<path d="M45.7316 150.642L114.571 134.906L112.396 121.415L108.492 113.854L42.6387 139.72L45.7316 150.642Z" fill="#1D1D1B"/>
</g>
<g opacity="0.3">
<path d="M74.4741 25.0702L77.0785 29.3688L77.5828 31.65L75.8177 32.044L74.4741 25.0702Z" fill="#1D1D1B"/>
</g>
<path d="M17.2417 42.5717L41.126 149.74L115.99 133.058L111.719 113.894L92.1056 25.8858L17.2417 42.5717Z" fill="#FEFEFE"/>
<path d="M17.2417 42.5717L92.1017 25.8228H92.1648V25.8897C98.8076 55.6722 107.093 92.8382 116.061 133.058V133.14H115.982L41.1221 149.818H41.0512V149.744C26.9893 86.4593 17.3836 43.2139 17.2378 42.5756C17.3836 43.2297 27.0523 86.4633 41.1969 149.744L41.1063 149.688L115.966 132.995L115.903 133.093C106.948 92.8815 98.6697 55.7155 92.0387 25.9252L92.1175 25.9764L17.2417 42.5717Z" fill="#1D1D1B"/>
<path d="M38.3224 29.8202L71.3378 22.4645C71.9835 22.3207 72.6598 22.4392 73.218 22.794C73.7763 23.1489 74.1707 23.7109 74.3145 24.3565L76.2218 32.9171L38.33 41.3591L36.4245 32.8063C36.3519 32.4855 36.3435 32.1536 36.3998 31.8296C36.4561 31.5056 36.5758 31.1959 36.7522 30.9184C36.9286 30.6408 37.1582 30.4009 37.4276 30.2125C37.6971 30.024 38.0012 29.8907 38.3224 29.8202Z" fill="#1D1D1B"/>
<path d="M58.734 20.9411L49.0928 23.0884L52.0596 31.1024L59.321 29.483L58.734 20.9411Z" fill="#1D1D1B"/>
<path d="M71.338 22.458C71.338 22.5013 63.9662 24.1837 54.853 26.2167C45.7398 28.2498 38.3365 29.8691 38.3247 29.8258C38.3129 29.7824 45.6965 28.1001 54.8176 26.067C63.9387 24.034 71.3143 22.4265 71.338 22.458Z" fill="#0357A0"/>
<path d="M38.7933 39.4C38.75 39.4 38.3678 37.8634 37.9423 35.9485C37.5168 34.0337 37.2016 32.4695 37.2488 32.4577C37.2961 32.4459 37.6744 33.9943 38.0999 35.9131C38.5254 37.8319 38.8367 39.4 38.7933 39.4Z" fill="#0357A0"/>
<path d="M74.4149 30.5901C74.0984 29.5537 73.8354 28.5016 73.6269 27.4381C73.3662 26.3987 73.1584 25.3467 73.0044 24.2861C73.3203 25.3161 73.5833 26.3616 73.7924 27.4184C74.0538 28.4644 74.2616 29.523 74.4149 30.5901Z" fill="#0357A0"/>
<path d="M72.9138 32.4616C72.9138 32.505 65.3451 34.2307 55.9915 36.315C46.638 38.3992 39.0495 40.058 39.0298 40.0107C39.0101 39.9634 46.5946 38.2416 55.9718 36.1574C65.349 34.0731 72.8902 32.4183 72.9138 32.4616Z" fill="#0357A0"/>
<path d="M52.9734 63.6349C52.9734 63.6822 47.8711 64.8563 41.5474 66.2669C35.2237 67.6774 30.1214 68.7766 30.0939 68.7333C30.0663 68.6899 35.2159 67.5119 41.5199 66.1053C47.8239 64.6987 52.9616 63.5916 52.9734 63.6349Z" fill="#1D1D1B"/>
<path d="M91.0772 59.3443C91.0772 59.3916 77.7325 62.4057 61.2514 66.0777C44.7704 69.7498 31.3941 72.693 31.3862 72.6497C31.3784 72.6063 44.7271 69.5883 61.216 65.9162C77.7049 62.2441 91.0694 59.3009 91.0772 59.3443Z" fill="#1D1D1B"/>
<path d="M91.9005 63.04C91.9005 63.0833 78.5518 66.0974 62.0708 69.7735C45.5898 73.4495 32.2174 76.3887 32.2056 76.3414C32.1938 76.2942 45.5504 73.284 62.0353 69.6119C78.5203 65.9398 91.8887 62.9848 91.9005 63.04Z" fill="#1D1D1B"/>
<path d="M92.7203 66.7121C92.7203 66.7554 79.3756 69.7695 62.8945 73.4416C46.4135 77.1137 33.0372 80.0608 33.0254 80.0135C33.0136 79.9662 46.3702 76.9561 62.8591 73.2801C79.348 69.604 92.7085 66.6687 92.7203 66.7121Z" fill="#1D1D1B"/>
<path d="M93.5396 70.3959C93.5396 70.4393 80.1949 73.4534 63.7138 77.1255C47.2328 80.7975 33.8565 83.7407 33.8486 83.6974C33.8408 83.654 47.1895 80.6399 63.6784 76.9639C80.1673 73.2879 93.5318 70.3487 93.5396 70.3959Z" fill="#1D1D1B"/>
<path d="M94.3634 74.072C94.3634 74.1193 81.0146 77.1334 64.5336 80.8054C48.0526 84.4775 34.6724 87.4246 34.6724 87.3813C34.6724 87.338 48.0171 84.3239 64.5021 80.6478C80.9871 76.9718 94.3515 74.0326 94.3634 74.072Z" fill="#1D1D1B"/>
<path d="M46.2441 100.001C46.228 99.9617 46.2162 99.9208 46.2086 99.879L46.1219 99.5283C46.047 99.2092 45.9407 98.764 45.8106 98.2084C45.5467 97.0698 45.1763 95.4701 44.735 93.5553L44.8217 93.6104L38.3601 95.0604C38.3601 95.0604 38.4783 94.8752 38.4231 94.9619V94.9894V95.0446L38.4468 95.1549L38.498 95.3756L38.5926 95.8129C38.6595 96.1045 38.7226 96.3921 38.7856 96.6797C38.9117 97.2471 39.0378 97.8065 39.156 98.3503C39.3963 99.4338 39.6209 100.458 39.8297 101.4L39.7431 101.345L44.412 100.34L45.7397 100.064L46.0943 99.9972L46.2204 99.9735C46.2204 99.9735 46.1889 99.9735 46.1101 100.009L45.7752 100.092L44.475 100.399L39.7943 101.514H39.7234V101.443L39.0378 98.3975C38.9157 97.8538 38.7896 97.2943 38.6438 96.727C38.5808 96.4394 38.5138 96.1517 38.4507 95.8602C38.4153 95.7183 38.3837 95.5686 38.3522 95.4228L38.301 95.2022L38.2774 95.0919V95.0367V95.0091V94.9894C38.2222 95.0801 38.3522 94.8712 38.3404 94.8909L44.806 93.4607H44.8769V93.5316L45.8934 98.2596C46.0077 98.8112 46.0983 99.2525 46.1652 99.5677C46.1928 99.7096 46.2125 99.8199 46.2322 99.9105C46.2401 99.9401 46.2441 99.9705 46.2441 100.001Z" fill="#1D1D1B"/>
<path d="M94.2728 84.0718L49.1934 94.1152L50.0313 97.8763L95.1107 87.8329L94.2728 84.0718Z" fill="#E0E0E0"/>
<path d="M48.7417 111.214C48.7269 111.173 48.7151 111.131 48.7063 111.088C48.6827 110.998 48.6551 110.879 48.6196 110.738C48.5448 110.418 48.4384 109.977 48.3083 109.422C48.0444 108.279 47.674 106.664 47.2327 104.765L47.3194 104.82L40.8578 106.27C40.8578 106.293 40.976 106.084 40.9209 106.175V106.195V106.222V106.278L40.9445 106.388L40.9957 106.609C41.0272 106.758 41.0588 106.904 41.0942 107.05L41.2833 107.913C41.4094 108.484 41.5355 109.039 41.6537 109.583C41.894 110.667 42.1186 111.691 42.3274 112.633L42.2407 112.578L46.9136 111.577L48.2374 111.301L48.592 111.23C48.6331 111.219 48.6755 111.212 48.7181 111.21L48.6117 111.242L48.2729 111.325L46.9727 111.636L42.2723 112.719H42.2014V112.649L41.5158 109.603C41.3937 109.059 41.2676 108.5 41.1218 107.932C41.0588 107.649 40.9918 107.357 40.9287 107.069C40.8972 106.924 40.8617 106.778 40.8302 106.628L40.779 106.408L40.7554 106.297V106.242V106.195L40.8184 106.092L47.28 104.682H47.3509V104.749C47.7686 106.691 48.1389 108.295 48.3675 109.477C48.4817 110.028 48.5723 110.47 48.6393 110.785C48.6669 110.927 48.6866 111.037 48.7063 111.128C48.7218 111.155 48.7337 111.184 48.7417 111.214Z" fill="#1D1D1B"/>
<path d="M96.7689 95.2852L51.6895 105.329L52.5274 109.09L97.6068 99.0463L96.7689 95.2852Z" fill="#E0E0E0"/>
<path d="M51.24 122.424C51.24 122.424 51.24 122.376 51.2045 122.298C51.169 122.219 51.1533 122.089 51.1178 121.947C51.043 121.628 50.9366 121.187 50.8066 120.631C50.5426 119.492 50.1722 117.873 49.7309 115.974L49.8176 116.029L43.3403 117.479C43.3403 117.503 43.4585 117.294 43.4033 117.384V117.412V117.44V117.495L43.4269 117.605L43.4782 117.826C43.5097 117.975 43.5412 118.121 43.5767 118.267L43.7658 119.13C43.8919 119.701 44.0179 120.257 44.1361 120.8L44.8099 123.85L44.7232 123.799L49.396 122.794L50.7199 122.518L51.0745 122.447C51.1164 122.443 51.1587 122.443 51.2006 122.447L51.0942 122.479L50.7553 122.562L49.4551 122.873L44.7547 123.956H44.6838V123.885C44.475 122.948 44.2425 121.915 43.9982 120.84C43.8761 120.296 43.75 119.741 43.6042 119.169C43.5412 118.886 43.4742 118.598 43.4112 118.306C43.3797 118.161 43.3442 118.015 43.3127 117.869L43.2654 117.648L43.2378 117.538V117.479V117.412C43.1827 117.499 43.3127 117.29 43.3009 117.313L49.7664 115.883H49.8373V115.954L50.8538 120.682C50.9681 121.234 51.0587 121.675 51.1257 121.994C51.1533 122.132 51.1769 122.242 51.1927 122.333C51.2125 122.361 51.2285 122.391 51.24 122.424Z" fill="#1D1D1B"/>
<path d="M99.2699 106.499L54.1904 116.542L55.0284 120.303L100.108 110.26L99.2699 106.499Z" fill="#E0E0E0"/>
<path d="M40.0347 97.6883L40.7123 96.6206L42.7257 97.7396L45.3182 93.8311L46.319 94.5245L42.9778 99.4495L40.0347 97.6883Z" fill="#7503A6"/>
<path d="M42.4497 108.523L43.1274 107.456L45.1407 108.575L47.7293 104.666L48.734 105.36L45.3889 110.281L42.4497 108.523Z" fill="#7503A6"/>
<path d="M44.9277 119.63L45.6054 118.566L47.6148 119.685L50.2073 115.777L51.2081 116.466L47.867 121.391L44.9277 119.63Z" fill="#7503A6"/>
<path d="M65.562 133.566C65.562 133.613 61.7638 134.5 57.0594 135.536C52.3551 136.572 48.5333 137.396 48.5254 137.352C48.5175 137.309 52.3196 136.422 57.024 135.382C61.7283 134.342 65.5501 133.527 65.562 133.566Z" fill="#1D1D1B"/>
<path d="M74.0484 131.541C73.02 131.858 71.9758 132.121 70.9201 132.329C69.8804 132.587 68.8284 132.794 67.7681 132.947C68.7954 132.631 69.8382 132.368 70.8925 132.159C72.6221 131.777 74.0405 131.497 74.0484 131.541Z" fill="#1D1D1B"/>
<path d="M102.156 122.696C102.156 122.739 98.7403 123.543 94.5087 124.484C90.2771 125.426 86.8336 126.155 86.8257 126.111C86.8178 126.068 90.2377 125.268 94.4732 124.323C98.7087 123.377 102.148 122.652 102.156 122.696Z" fill="#1D1D1B"/>
<path d="M98.5001 133.066C98.5001 133.066 98.5355 132.959 98.5749 132.754C98.627 132.451 98.6109 132.14 98.5277 131.844C98.3875 131.376 98.2056 130.921 97.9839 130.485C97.6698 129.906 97.4856 129.266 97.4442 128.609C97.4535 128.205 97.5473 127.807 97.7197 127.442C97.8921 127.076 98.1391 126.75 98.4449 126.486C98.8033 126.188 99.2319 125.988 99.6899 125.903C100.148 125.818 100.62 125.852 101.061 126.001C101.545 126.149 101.977 126.432 102.306 126.817C102.481 127.024 102.585 127.283 102.602 127.554C102.606 127.699 102.564 127.843 102.481 127.962C102.398 128.082 102.279 128.172 102.141 128.219C101.883 128.303 101.62 128.367 101.353 128.412L100.565 128.574C100.037 128.68 99.5008 128.775 98.9492 128.846C97.8809 129 96.7965 129.007 95.7263 128.866C95.2429 128.762 94.7379 128.843 94.3119 129.094C93.9733 129.435 93.6866 129.824 93.4608 130.249C93.3236 130.457 93.1332 130.626 92.9092 130.737C92.6813 130.838 92.424 130.849 92.1882 130.769C91.7829 130.588 91.3973 130.366 91.0377 130.107C90.8709 129.996 90.6808 129.924 90.4822 129.898C90.2963 129.877 90.1092 129.923 89.9542 130.028C89.6817 130.277 89.4562 130.573 89.2884 130.903C89.1091 131.185 88.8643 131.42 88.5749 131.587C88.2854 131.754 87.9597 131.849 87.6257 131.864C87.1203 131.884 86.6266 131.709 86.2467 131.375C86.008 131.169 85.8205 130.91 85.699 130.619C85.6565 130.519 85.6261 130.415 85.6084 130.308C85.6084 130.308 85.6439 130.414 85.7305 130.607C85.8583 130.886 86.0484 131.131 86.2861 131.324C86.6566 131.638 87.1329 131.799 87.6178 131.773C87.9365 131.757 88.2464 131.663 88.5209 131.501C88.7955 131.338 89.0264 131.111 89.1938 130.84C89.3671 130.495 89.6021 130.185 89.8872 129.925C90.0666 129.801 90.2844 129.744 90.5019 129.764C90.7175 129.796 90.9241 129.872 91.1086 129.988C91.4624 130.239 91.8398 130.454 92.2355 130.631C92.4379 130.699 92.6585 130.689 92.8541 130.603C93.0545 130.504 93.2225 130.349 93.3387 130.158C93.5729 129.722 93.8703 129.324 94.2212 128.976C94.4394 128.82 94.695 128.725 94.962 128.7C95.2239 128.672 95.488 128.672 95.75 128.7C96.8085 128.837 97.8807 128.831 98.9374 128.68C99.4811 128.609 100.013 128.511 100.541 128.409L101.329 128.251C101.582 128.204 101.832 128.142 102.078 128.066C102.186 128.032 102.279 127.963 102.345 127.87C102.41 127.778 102.444 127.667 102.44 127.554C102.422 127.318 102.331 127.093 102.18 126.911C101.869 126.541 101.459 126.268 100.998 126.123C100.58 125.981 100.133 125.948 99.6988 126.027C99.2646 126.105 98.8575 126.293 98.5158 126.573C98.2223 126.822 97.9843 127.131 97.8174 127.478C97.6505 127.826 97.5582 128.204 97.5466 128.59C97.5821 129.232 97.754 129.859 98.0509 130.43C98.2689 130.872 98.4444 131.334 98.5749 131.809C98.652 132.113 98.6587 132.431 98.5946 132.739C98.5761 132.851 98.5444 132.961 98.5001 133.066Z" fill="#1D1D1B"/>
<path d="M106.644 128.022C106.578 128.049 106.509 128.07 106.439 128.085L105.84 128.227L103.642 128.736C101.79 129.169 99.2289 129.776 96.4118 130.489C93.5947 131.202 91.0534 131.891 89.2213 132.396L87.0464 132.995L86.4515 133.152C86.3833 133.174 86.3134 133.189 86.2427 133.2C86.3061 133.165 86.3736 133.139 86.4436 133.121L87.0267 132.936C87.535 132.774 88.2718 132.542 89.1859 132.285C91.018 131.75 93.5514 131.044 96.3724 130.315C99.1935 129.587 101.754 129.011 103.618 128.613C104.548 128.412 105.304 128.255 105.828 128.152L106.431 128.038C106.502 128.027 106.573 128.021 106.644 128.022Z" fill="#1D1D1B"/>
<path d="M74.3274 41.5699L43.7271 48.3874L45.008 54.1368L75.6083 47.3192L74.3274 41.5699Z" fill="#E0E0E0"/>
<path d="M103.275 134.87L113.16 187.099L122.195 170.405L139.318 180.456L121.143 129.598L103.275 134.87Z" fill="#57A40A"/>
<g opacity="0.3">
<path d="M106.6 152.435C107.541 152.612 108.511 152.558 109.427 152.277C110.343 151.997 111.176 151.498 111.856 150.823C112.758 149.893 113.357 148.625 114.492 148.002C115.513 147.443 116.769 147.521 117.892 147.833C119.015 148.144 120.071 148.66 121.194 148.952C122.302 149.234 123.455 149.293 124.586 149.125C125.717 148.958 126.803 148.566 127.782 147.975L124.929 140.055L111.691 138.4L105.387 145.985L106.6 152.435Z" fill="#1D1D1B"/>
</g>
<path d="M121.553 168.333C121.498 168.333 120.024 162.919 118.263 156.217C116.502 149.515 115.111 144.062 115.174 144.05C115.237 144.039 116.699 149.456 118.46 156.166C120.221 162.876 121.608 168.317 121.553 168.333Z" fill="#1D1D1B"/>
<path d="M104.721 137.585L94.8354 189.813L85.801 173.124L68.6777 183.171L86.853 132.313L104.721 137.585Z" fill="#57A40A"/>
<g opacity="0.3">
<path d="M81.416 147.525C81.416 147.525 84.2292 149.838 87.5821 148.774C90.9351 147.711 93.0193 147.482 94.8357 148.774C96.652 150.067 101.565 154.271 101.565 154.271L102.704 148.246L96.1043 139.184L89.2172 140.575L84.3159 141.052L82.4916 144.507L81.416 147.525Z" fill="#1D1D1B"/>
</g>
<path d="M162.682 90.4388C162.682 94.1857 157.895 97.4126 157.194 100.955C156.473 104.603 159.648 109.414 158.258 112.775C156.867 116.135 151.166 117.341 149.144 120.379C147.123 123.417 148.187 129.106 145.598 131.698C143.01 134.291 137.324 133.2 134.279 135.244C131.233 137.289 130.091 142.939 126.675 144.358C123.318 145.748 118.507 142.573 114.855 143.294C111.309 143.995 108.086 148.782 104.339 148.782C100.592 148.782 97.3609 143.995 93.8189 143.294C90.1704 142.573 85.3597 145.748 81.9989 144.358C78.638 142.967 77.4363 137.266 74.3986 135.244C71.3609 133.223 65.6715 134.287 63.075 131.698C60.4786 129.11 61.5739 123.424 59.529 120.379C57.4842 117.333 51.8342 116.191 50.4198 112.775C49.0053 109.359 52.2046 104.607 51.4836 100.955C50.7822 97.4086 45.9912 94.1857 45.9912 90.4388C45.9912 86.6918 50.7822 83.461 51.4836 79.919C52.2046 76.2705 49.025 71.4598 50.4198 68.099C51.8145 64.7381 57.5118 63.5325 59.529 60.4987C61.5463 57.4649 60.4865 51.7716 63.075 49.1751C65.6636 46.5787 71.3491 47.674 74.3986 45.6291C77.4482 43.5843 78.5829 37.9343 81.9989 36.5199C85.4148 35.1054 90.1665 38.3047 93.8189 37.5837C97.3649 36.8823 100.592 32.0913 104.339 32.0913C108.086 32.0913 111.312 36.8823 114.855 37.5837C118.503 38.3047 123.314 35.1251 126.675 36.5199C130.091 37.9343 131.241 43.6119 134.279 45.6291C137.316 47.6464 143.006 46.5866 145.598 49.1751C148.191 51.7637 147.099 57.4492 149.144 60.4987C151.189 63.5483 156.839 64.683 158.258 68.099C159.676 71.5149 156.473 76.2666 157.194 79.919C157.895 83.461 162.682 86.68 162.682 90.4388Z" fill="#57A40A"/>
<path d="M90.6866 57.7328C90.6866 57.7328 90.6432 57.6816 90.5802 57.5713C90.5171 57.461 90.4186 57.2837 90.3123 57.0906C90.0798 56.673 89.7607 56.0583 89.3824 55.294C88.622 53.7653 87.637 51.614 86.6875 49.187C85.7379 46.7599 85.009 44.5063 84.5323 42.883C84.2959 42.0595 84.1146 41.3937 84.0004 40.913C83.9492 40.7002 83.9058 40.519 83.8743 40.3771C83.8539 40.3162 83.8433 40.2523 83.8428 40.188C83.8734 40.2455 83.8972 40.3063 83.9137 40.3693L84.0752 40.8933C84.2289 41.3779 84.4298 42.0319 84.6702 42.8239C85.1824 44.4511 85.9349 46.6851 86.8766 49.1279C87.8182 51.5707 88.7875 53.7022 89.5124 55.2467L90.3832 57.0709L90.6156 57.5674C90.6442 57.6203 90.668 57.6756 90.6866 57.7328Z" fill="#1D1D1B"/>
<path d="M95.8796 55.7589C95.8107 55.6213 95.7591 55.4757 95.726 55.3255C95.6432 55.0418 95.5329 54.6281 95.4029 54.1159C95.1429 53.0954 94.8198 51.6692 94.5282 50.0853C94.2367 48.5014 94.0318 47.0554 93.9136 46.0074C93.8505 45.4834 93.8111 45.0578 93.7875 44.7623C93.7694 44.6105 93.7694 44.4571 93.7875 44.3053C93.8328 44.4516 93.8632 44.6021 93.8781 44.7545L94.0672 45.9877C94.2248 47.0318 94.4612 48.4699 94.741 50.0498C95.0207 51.6298 95.332 53.056 95.5526 54.0844C95.659 54.5651 95.7457 54.9748 95.8166 55.3058C95.8526 55.4543 95.8738 55.6061 95.8796 55.7589Z" fill="#1D1D1B"/>
<path d="M105.04 54.8488C104.981 54.8488 104.836 50.4281 104.713 44.9791C104.591 39.53 104.536 35.1054 104.591 35.1015C104.646 35.0975 104.796 39.5182 104.918 44.9751C105.04 50.432 105.096 54.8488 105.04 54.8488Z" fill="#1D1D1B"/>
<path d="M114.26 45.7671C114.315 45.7671 113.677 47.9932 112.837 50.7039C111.998 53.4146 111.261 55.5934 111.222 55.5777C111.183 55.5619 111.805 53.3516 112.644 50.6408C113.484 47.9301 114.201 45.7513 114.26 45.7671Z" fill="#1D1D1B"/>
<path d="M118.019 57.1891C118.026 57.1239 118.044 57.0602 118.07 57L118.247 56.4799C118.405 56.0307 118.641 55.3846 118.956 54.5887C119.575 53.0127 120.457 50.8102 121.466 48.4068C122.475 46.0034 123.412 43.8404 124.102 42.2801C124.441 41.5237 124.72 40.9011 124.933 40.4362L125.166 39.9398C125.225 39.8295 125.256 39.7704 125.264 39.7743C125.25 39.8363 125.23 39.897 125.205 39.9555L125.004 40.4677L124.236 42.3392C123.562 43.9389 122.66 46.098 121.655 48.4896C120.65 50.8812 119.76 53.0403 119.09 54.6439L118.322 56.5114L118.105 57.0157C118.084 57.0769 118.054 57.1351 118.019 57.1891Z" fill="#1D1D1B"/>
<path d="M122.928 59.758C122.988 59.6187 123.063 59.4865 123.152 59.364C123.31 59.1118 123.546 58.7533 123.838 58.316C124.429 57.4452 125.28 56.2553 126.269 54.9867C127.258 53.718 128.207 52.6227 128.909 51.8347C129.259 51.4407 129.551 51.1294 129.756 50.9166C129.854 50.7986 129.967 50.6928 130.091 50.6014C130.014 50.7359 129.922 50.8603 129.815 50.9718C129.602 51.2318 129.334 51.551 129.027 51.9292C128.353 52.7409 127.427 53.8638 126.438 55.1324C125.449 56.4011 124.586 57.5713 123.964 58.4223L123.227 59.427C123.139 59.5475 123.039 59.6584 122.928 59.758Z" fill="#1D1D1B"/>
<path d="M130.106 65.6286C130.067 65.5892 133.187 62.6263 137.068 59.0133C140.949 55.4004 144.133 52.5045 144.16 52.5439C144.188 52.5833 141.083 55.5501 137.198 59.1631C133.313 62.776 130.146 65.6719 130.106 65.6286Z" fill="#1D1D1B"/>
<path d="M142.628 66.8539C142.248 67.0942 141.853 67.31 141.446 67.5001C140.705 67.8941 139.7 68.4418 138.589 69.0761C137.478 69.7104 136.454 70.2384 135.693 70.593C135.299 70.7703 135.008 70.9082 134.787 70.987C134.679 71.0431 134.564 71.083 134.444 71.1052C134.824 70.8649 135.219 70.6491 135.626 70.459C136.367 70.065 137.372 69.5174 138.483 68.883C139.594 68.2487 140.618 67.701 141.379 67.3661C141.773 67.1888 142.064 67.0509 142.285 66.9721C142.392 66.9144 142.508 66.8744 142.628 66.8539Z" fill="#1D1D1B"/>
<path d="M154.207 71.6568C154.227 71.7119 150.516 73.0673 145.933 74.6866C141.351 76.306 137.596 77.5707 137.581 77.5195C137.565 77.4683 141.268 76.109 145.855 74.4896C150.441 72.8703 154.188 71.6056 154.207 71.6568Z" fill="#1D1D1B"/>
<path d="M157.895 92.724C157.895 92.7791 153.857 92.4442 148.889 91.9714C143.92 91.4986 139.893 91.0692 139.901 91.0101C139.909 90.951 143.936 91.2938 148.908 91.7666C153.881 92.2394 157.899 92.6688 157.895 92.724Z" fill="#1D1D1B"/>
<path d="M154.928 111.62C154.905 111.671 151.134 109.938 146.509 107.755C141.883 105.572 138.152 103.756 138.175 103.705C138.199 103.654 141.97 105.383 146.595 107.57C151.221 109.757 154.952 111.569 154.928 111.62Z" fill="#1D1D1B"/>
<path d="M142.525 129.598C142.482 129.634 139.767 126.478 136.454 122.554C133.14 118.629 130.492 115.41 130.544 115.375C130.595 115.34 133.302 118.492 136.615 122.42C139.929 126.348 142.569 129.559 142.525 129.598Z" fill="#1D1D1B"/>
<path d="M132.171 131.99C132.049 131.853 131.939 131.706 131.844 131.549C131.643 131.257 131.359 130.828 131.021 130.296C130.335 129.228 129.417 127.735 128.448 126.06C127.479 124.386 126.651 122.841 126.084 121.726C125.796 121.163 125.564 120.706 125.414 120.387C125.325 120.224 125.251 120.054 125.193 119.878C125.305 120.025 125.402 120.182 125.485 120.347C125.674 120.694 125.918 121.135 126.214 121.659C126.825 122.766 127.676 124.295 128.641 125.97C129.606 127.644 130.504 129.145 131.159 130.229C131.466 130.749 131.726 131.178 131.927 131.517C132.025 131.665 132.107 131.824 132.171 131.99Z" fill="#1D1D1B"/>
<path d="M125.741 141.013C125.741 141.013 125.702 140.961 125.639 140.851L125.383 140.37C125.158 139.949 124.855 139.334 124.492 138.57C123.767 137.037 122.833 134.886 121.947 132.451C121.06 130.016 120.391 127.77 119.977 126.147C119.76 125.327 119.583 124.658 119.496 124.197C119.453 123.984 119.418 123.803 119.386 123.661C119.37 123.599 119.361 123.536 119.358 123.472C119.391 123.528 119.413 123.589 119.425 123.653L119.575 124.177C119.713 124.666 119.894 125.316 120.115 126.108C120.58 127.735 121.269 129.973 122.156 132.412C123.042 134.85 123.948 136.99 124.642 138.538L125.469 140.362C125.556 140.559 125.631 140.725 125.694 140.859C125.716 140.908 125.732 140.96 125.741 141.013Z" fill="#1D1D1B"/>
<path d="M112.715 134.673C112.63 134.22 112.574 133.762 112.546 133.302C112.455 132.455 112.31 131.285 112.097 130.004C111.884 128.724 111.636 127.573 111.447 126.742C111.323 126.297 111.228 125.844 111.163 125.387C111.222 125.496 111.267 125.613 111.297 125.733C111.376 125.962 111.474 126.293 111.589 126.706C111.813 127.53 112.081 128.676 112.298 129.973C112.486 131.071 112.618 132.178 112.692 133.29C112.719 133.716 112.735 134.078 112.735 134.303C112.745 134.427 112.739 134.551 112.715 134.673Z" fill="#1D1D1B"/>
<path d="M104.193 146.016C104.184 145.95 104.184 145.882 104.193 145.815C104.193 145.658 104.193 145.465 104.193 145.236C104.193 144.732 104.193 144.003 104.193 143.105C104.224 141.304 104.307 138.822 104.449 136.084C104.591 133.345 104.768 130.863 104.914 129.07C104.985 128.172 105.052 127.447 105.103 126.947C105.131 126.718 105.15 126.525 105.166 126.372C105.171 126.303 105.184 126.236 105.205 126.171C105.215 126.239 105.215 126.308 105.205 126.375C105.205 126.529 105.205 126.722 105.178 126.955C105.146 127.487 105.107 128.204 105.056 129.078C104.949 130.903 104.808 133.369 104.662 136.092C104.516 138.814 104.414 141.312 104.347 143.109C104.315 143.983 104.287 144.685 104.268 145.236C104.268 145.469 104.244 145.658 104.236 145.815C104.232 145.884 104.217 145.952 104.193 146.016Z" fill="#1D1D1B"/>
<path d="M97.2664 126.171C97.2636 126.51 97.224 126.848 97.1482 127.179C97.0458 127.794 96.8803 128.641 96.6636 129.567C96.4469 130.493 96.2184 131.328 96.0371 131.931C95.9585 132.26 95.8436 132.58 95.6943 132.884C95.7294 132.548 95.7967 132.215 95.8953 131.891L96.4626 129.527C96.6675 128.641 96.8566 127.837 97.0064 127.163C97.061 126.825 97.1481 126.492 97.2664 126.171Z" fill="#1D1D1B"/>
<path d="M84.7414 120.17C84.2252 121.023 83.6498 121.84 83.0196 122.613C82.4414 123.426 81.811 124.202 81.1323 124.933C81.6474 124.079 82.2228 123.263 82.8541 122.491C83.4296 121.675 84.0602 120.9 84.7414 120.17Z" fill="#1D1D1B"/>
<path d="M78.1731 115.741C78.2125 115.777 75.7697 118.649 72.7123 122.152C69.6548 125.655 67.1372 128.456 67.0938 128.428C67.0505 128.401 69.4972 125.521 72.5547 122.018C75.6121 118.515 78.1298 115.702 78.1731 115.741Z" fill="#1D1D1B"/>
<path d="M74.8836 110.852C73.9174 111.784 72.9034 112.665 71.8458 113.492C70.1319 114.902 68.7135 116.013 68.6938 115.97C69.6608 115.04 70.6747 114.16 71.7316 113.334C72.74 112.454 73.7919 111.626 74.8836 110.852Z" fill="#1D1D1B"/>
<path d="M71.038 103.48C71.0616 103.531 67.6575 105.226 63.4298 107.259C59.2022 109.292 55.7626 110.903 55.735 110.852C55.7074 110.801 59.1155 109.11 63.3432 107.073C67.5708 105.036 71.0143 103.429 71.038 103.48Z" fill="#1D1D1B"/>
<path d="M69.4935 99.8041C69.3804 99.8538 69.2612 99.8883 69.1389 99.9066C68.9065 99.9617 68.5716 100.033 68.1579 100.108C67.3265 100.265 66.1682 100.438 64.8837 100.568C63.5993 100.699 62.4291 100.754 61.582 100.765C61.1604 100.765 60.8177 100.765 60.5813 100.765C60.458 100.773 60.3343 100.762 60.2148 100.73C60.6668 100.668 61.122 100.632 61.5781 100.624C62.4212 100.572 63.5835 100.494 64.864 100.364C66.1445 100.234 67.299 100.084 68.1342 99.9696C68.5829 99.8824 69.0371 99.8271 69.4935 99.8041Z" fill="#1D1D1B"/>
<path d="M68.2446 91.3135C68.0151 91.3325 67.7845 91.3325 67.5551 91.3135L65.6796 91.2189C64.1036 91.1401 61.913 91.0692 59.4978 91.081C57.0826 91.0928 54.8919 91.1913 53.312 91.2859L51.4405 91.4001C51.2116 91.4263 50.9811 91.4342 50.751 91.4238C50.9748 91.3701 51.2029 91.3358 51.4326 91.3213C51.8739 91.2701 52.5122 91.2071 53.3002 91.1401C54.8762 91.0101 57.0747 90.8919 59.4938 90.8761C61.913 90.8604 64.1076 90.9589 65.6915 91.0731C66.4795 91.1322 67.1217 91.1874 67.563 91.2347C67.7917 91.2449 68.0195 91.2712 68.2446 91.3135Z" fill="#1D1D1B"/>
<path d="M69.0166 83.859C69.0166 83.9141 66.4517 83.2483 63.3194 82.3736C60.1871 81.4989 57.6616 80.7503 57.6773 80.6952C57.6931 80.64 60.2423 81.3019 63.3746 82.1766C66.5069 83.0513 69.0324 83.8038 69.0166 83.859Z" fill="#1D1D1B"/>
<path d="M70.6677 77.618C70.6043 77.6143 70.5419 77.601 70.4825 77.5786L69.9585 77.421C69.5093 77.2792 68.8592 77.0585 68.0673 76.7709C65.998 76.0111 63.97 75.1431 61.9918 74.1705C60.0143 73.1968 58.0902 72.1184 56.2276 70.9397C55.5144 70.4866 54.9431 70.1084 54.557 69.8365L54.1157 69.5174C54.0172 69.4425 53.966 69.4031 53.9699 69.3952C54.0295 69.4192 54.0863 69.4496 54.1394 69.4859L54.6043 69.7695C54.9983 70.0217 55.5814 70.3802 56.3024 70.8176C57.7484 71.6923 59.7736 72.8467 62.0824 73.9696C64.3912 75.0925 66.5425 76.0066 68.1185 76.6212C68.9065 76.9246 69.5408 77.1649 69.986 77.3304L70.4943 77.5234C70.5546 77.5501 70.6126 77.5817 70.6677 77.618Z" fill="#1D1D1B"/>
<path d="M74.3751 71.314C74.3435 71.3573 72.3499 70.0099 69.9229 68.2999C67.4958 66.5899 65.5534 65.1676 65.5889 65.1203C65.6243 65.073 67.614 66.4245 70.045 68.1344C72.476 69.8444 74.4066 71.2785 74.3751 71.314Z" fill="#1D1D1B"/>
<path d="M66.5383 52.1735C66.5383 52.1735 66.5935 52.205 66.6881 52.2799L67.0821 52.6266L68.5359 53.911L73.3073 58.1702L78.0983 62.4057L79.5482 63.6941L79.9422 64.0526C79.9898 64.0917 80.0322 64.1367 80.0683 64.1866C80.0683 64.1866 80.0131 64.159 79.9146 64.0841L79.5206 63.7571C79.1621 63.4695 78.6538 63.044 78.0274 62.516C76.7745 61.4601 75.0645 59.9826 73.193 58.3238C71.3215 56.6651 69.647 55.1364 68.465 54.0174C67.8661 53.4579 67.3854 53.0048 67.0545 52.6818L66.6802 52.3114C66.5856 52.2247 66.5305 52.1774 66.5383 52.1735Z" fill="#1D1D1B"/>
<path d="M78.8271 52.532C78.8271 52.532 78.9335 52.6187 79.0951 52.8039C79.2566 52.9891 79.4891 53.2609 79.7609 53.5919C80.3086 54.2775 81.0375 55.2467 81.794 56.3499C82.5504 57.4531 83.1848 58.4854 83.6221 59.2458C83.8428 59.6398 84.0161 59.9353 84.1264 60.152C84.1946 60.2598 84.2477 60.3765 84.284 60.4987C83.9953 60.1228 83.732 59.7279 83.496 59.3167C83.0272 58.576 82.3731 57.5634 81.6206 56.4602C80.8681 55.357 80.1589 54.3838 79.6506 53.6786C79.3536 53.3131 79.0786 52.9303 78.8271 52.532Z" fill="#1D1D1B"/>
<g opacity="0.2">
<path d="M63.0791 49.1791L80.222 64.1865L84.4812 60.7784L74.5366 45.5385C74.5366 45.5385 73.7723 46.098 71.7786 46.6654C69.8756 47.213 64.2217 47.3588 63.0791 49.1791Z" fill="#1D1D1B"/>
</g>
<g opacity="0.2">
<path d="M82.1606 36.4844L90.5292 57.4334L95.8797 55.7589L94.0949 37.5876C94.0949 37.5876 93.1769 37.8043 91.132 37.5443C89.1502 37.2921 84.3473 35.4127 82.1606 36.4844Z" fill="#1D1D1B"/>
</g>
<g opacity="0.3">
<path d="M104.477 32.0992L105.04 54.8487L110.052 55.0891L115.126 37.627C114.072 37.4176 113.069 37.0026 112.175 36.4056C110.442 35.2945 106.904 31.914 104.477 32.0992Z" fill="#1D1D1B"/>
</g>
<g opacity="0.2">
<path d="M126.336 36.3977L118.019 57.3704L122.534 59.5334L133.979 45.4046C133.119 44.6783 132.386 43.8142 131.809 42.8475C130.729 41.1021 128.869 37.0951 126.336 36.3977Z" fill="#1D1D1B"/>
</g>
<g opacity="0.2">
<path d="M145.87 49.4825L130.378 65.6365L133.83 70.2896L148.967 60.1875C148.469 59.2694 148.132 58.2725 147.971 57.2403C147.608 55.2703 147.557 51.6928 145.87 49.4825Z" fill="#1D1D1B"/>
</g>
<g opacity="0.2">
<path d="M158.1 67.7089L137.238 76.2942L138.967 81.625L157.119 79.655C157.119 79.655 157.005 79.0955 157.245 77.0507C157.474 75.0688 159.57 70.6403 158.1 67.7089Z" fill="#1D1D1B"/>
</g>
<g opacity="0.2">
<path d="M162.722 90.4388L139.976 91.2268L139.787 96.2424L157.123 101.317C157.238 100.595 157.47 99.8965 157.809 99.2486C159.101 96.8373 162.722 93.4332 162.722 90.4388Z" fill="#1D1D1B"/>
</g>
<g opacity="0.2">
<path d="M158.526 111.943L137.585 103.784L135.469 108.35L149.72 119.63C150.469 118.913 151.298 118.284 152.19 117.755C153.924 116.648 158.045 114.855 158.526 111.943Z" fill="#1D1D1B"/>
</g>
<g opacity="0.2">
<path d="M127.727 111.62L122.542 115.954C122.936 116.348 129.842 128.105 134.101 135.363C134.157 135.315 134.215 135.27 134.275 135.229C137.076 133.353 142.064 134.106 144.877 132.25L127.727 111.62Z" fill="#1D1D1B"/>
<path d="M118.2 119.847L110.461 122.487L114.126 143.495C114.364 143.411 114.607 143.344 114.855 143.294C118.503 142.573 123.314 145.748 126.675 144.358C127.135 144.16 127.562 143.895 127.943 143.57L118.2 119.847Z" fill="#1D1D1B"/>
<path d="M104.071 148.774L105.304 121.328L98.6061 119.63L93.6299 143.27L93.8111 143.302C97.2783 143.976 100.434 148.538 104.071 148.774Z" fill="#1D1D1B"/>
<path d="M87.2467 116.667C87.2467 116.667 78.4053 128.511 73.7798 134.886C73.9938 134.994 74.2017 135.113 74.4023 135.244C77.44 137.278 78.5866 142.939 82.0026 144.358C82.1602 144.421 82.3217 144.472 82.4832 144.519L94.8351 121.139L87.2467 116.667Z" fill="#1D1D1B"/>
<path d="M78.1732 107.133L59.3164 120.091C59.3873 120.186 59.4661 120.276 59.5292 120.375C61.578 123.432 60.4866 129.102 63.0752 131.695C63.3141 131.929 63.5784 132.137 63.8632 132.313C70.5257 124.803 82.4875 111.321 82.9209 110.852L78.1732 107.133Z" fill="#1D1D1B"/>
<path d="M73.851 97.8775L51.5546 101.479C51.9131 105.056 49.0921 109.571 50.4199 112.771C50.4999 112.966 50.5961 113.155 50.7075 113.334C58.5087 109.449 74.8085 101.368 75.4861 101.325L73.851 97.8775Z" fill="#1D1D1B"/>
<path d="M72.6335 85.4586L51.5584 79.3792C51.5387 79.5605 51.5151 79.7417 51.4836 79.919C50.7822 83.465 45.9912 86.6918 45.9912 90.4388C45.9923 90.6883 46.0134 90.9373 46.0542 91.1834H71.7785L72.6335 85.4586Z" fill="#1D1D1B"/>
<path d="M50.5063 67.9374C58.3863 72.1572 73.7799 80.6952 73.7799 80.6952L77.5702 73.4968L59.7693 60.1008C59.6905 60.2387 59.6156 60.3805 59.5289 60.4948C57.5235 63.4852 52.0351 64.6515 50.5063 67.9374Z" fill="#1D1D1B"/>
</g>
<path d="M162.682 90.4388L162.659 90.1866C162.649 89.9395 162.615 89.694 162.556 89.4538C162.327 88.509 161.926 87.6142 161.374 86.814C160.697 85.7265 159.672 84.5091 158.616 82.9685C158.02 82.149 157.562 81.2373 157.261 80.2696C157.005 79.1401 157.005 77.9674 157.261 76.8379C157.482 75.6362 157.84 74.399 158.151 73.087C158.463 71.775 158.754 70.3566 158.463 68.9067C158.298 68.1728 157.962 67.4883 157.482 66.9091C156.967 66.3194 156.379 65.7977 155.732 65.3567C154.424 64.4269 152.919 63.6862 151.481 62.7169C150.737 62.2372 150.061 61.6594 149.472 60.9991C148.893 60.2824 148.473 59.4512 148.238 58.5602C147.734 56.7675 147.62 54.8527 147.238 52.9379C147.071 51.9629 146.742 51.0227 146.264 50.1562C145.746 49.2839 144.96 48.6026 144.023 48.2138C143.055 47.8251 142.042 47.5603 141.008 47.4258C139.964 47.2524 138.893 47.1303 137.821 46.9412C136.723 46.7828 135.658 46.4461 134.669 45.9444C133.688 45.3547 132.857 44.5455 132.242 43.5804C131.588 42.6426 131.024 41.634 130.426 40.6372C129.852 39.6173 129.165 38.6656 128.377 37.8004C127.565 36.9251 126.457 36.3819 125.268 36.2756C124.053 36.2307 122.839 36.3728 121.667 36.6972C120.485 36.9848 119.271 37.3355 118.03 37.5679C116.776 37.8636 115.467 37.8392 114.224 37.497C113.013 37.0218 111.88 36.367 110.864 35.5546C109.812 34.7666 108.787 33.9786 107.664 33.2773C106.541 32.5759 105.269 32.0677 103.945 32.2174H103.697C103.614 32.2174 103.535 32.2529 103.456 32.2686C103.295 32.308 103.129 32.3356 102.972 32.3829C102.654 32.4838 102.344 32.6049 102.042 32.7454C101.432 33.0352 100.847 33.3738 100.292 33.7579C99.1735 34.5459 98.1137 35.4049 96.9632 36.185C96.3904 36.586 95.784 36.9366 95.1508 37.233C94.5018 37.5233 93.8071 37.698 93.098 37.7492C91.6764 37.7583 90.2612 37.5578 88.898 37.1542C87.5255 36.7624 86.1255 36.4739 84.7098 36.2914C84.0028 36.2218 83.2892 36.2697 82.5979 36.4332C81.9094 36.6246 81.2743 36.9725 80.7422 37.4497C79.6548 38.3993 78.8983 39.6758 78.1418 40.9287C77.4276 42.2407 76.5927 43.4833 75.6478 44.6402C75.1476 45.2133 74.5467 45.6901 73.8748 46.0468C73.1889 46.3711 72.4685 46.6169 71.7275 46.7796C70.2461 47.1067 68.7331 47.2446 67.2398 47.5125C65.7466 47.7804 64.2218 48.202 63.1422 49.25C62.6212 49.8051 62.2189 50.4607 61.9602 51.1767C61.6994 51.8988 61.5081 52.6443 61.3889 53.4028C61.1131 54.9236 60.9949 56.4839 60.6009 58.0165C60.4316 58.7944 60.1489 59.5431 59.7617 60.2387C59.3538 60.9278 58.8191 61.5334 58.1857 62.0235C56.9407 63.0243 55.5262 63.765 54.1709 64.5924C53.4918 65.001 52.8403 65.4538 52.2205 65.9477C51.604 66.4404 51.0854 67.0445 50.6918 67.7286C50.3165 68.4253 50.1266 69.2068 50.1402 69.9981C50.1542 70.7934 50.2479 71.5854 50.42 72.3621C50.7509 73.9381 51.2513 75.4865 51.5192 77.0901C51.6781 77.913 51.7099 78.7554 51.6138 79.588C51.5019 80.4185 51.2346 81.2205 50.8258 81.952C50.0023 83.3901 48.9306 84.6549 47.9811 85.9945C47.4935 86.6546 47.0687 87.359 46.7124 88.0984C46.3221 88.8196 46.1176 89.6266 46.1176 90.4467C46.1176 91.2667 46.3221 92.0738 46.7124 92.7949C47.0681 93.5346 47.4929 94.2391 47.9811 94.8989C48.9306 96.2385 50.0023 97.5032 50.8258 98.9413C51.2271 99.6592 51.4941 100.444 51.6138 101.258C51.7139 102.079 51.6873 102.911 51.535 103.724C51.271 105.344 50.7706 106.896 50.4357 108.472C50.2651 109.249 50.1714 110.041 50.156 110.836C50.1405 111.628 50.3291 112.411 50.7037 113.11C51.0942 113.796 51.6116 114.401 52.2284 114.894C52.8482 115.388 53.4997 115.841 54.1787 116.25C55.5341 117.077 56.9367 117.826 58.1975 118.819C58.8298 119.31 59.3644 119.915 59.7735 120.603C60.1636 121.296 60.4465 122.044 60.6127 122.822C60.9831 124.358 61.1092 125.918 61.4007 127.439C61.5231 128.198 61.7157 128.943 61.976 129.665C62.2286 130.381 62.624 131.038 63.1383 131.596C64.2297 132.656 65.7663 133.077 67.2398 133.345C68.7134 133.613 70.2461 133.739 71.7275 134.078C72.4696 134.242 73.1912 134.487 73.8787 134.811C74.5497 135.169 75.1504 135.646 75.6517 136.218C76.5872 137.377 77.4141 138.619 78.1221 139.929C78.8786 141.182 79.6351 142.459 80.7225 143.408C81.2537 143.884 81.8873 144.232 82.5743 144.425C83.2716 144.601 83.9933 144.659 84.7098 144.598C86.1229 144.408 87.5201 144.114 88.8901 143.719C90.2541 143.313 91.6709 143.111 93.0941 143.121C93.8033 143.174 94.4978 143.35 95.1469 143.641C95.7796 143.938 96.3859 144.289 96.9592 144.689C98.1097 145.477 99.1656 146.347 100.289 147.112C100.841 147.499 101.425 147.839 102.034 148.128C102.336 148.268 102.647 148.389 102.964 148.491C103.125 148.534 103.287 148.566 103.448 148.605L103.693 148.656H103.937C105.265 148.806 106.541 148.262 107.66 147.596C108.779 146.931 109.808 146.091 110.856 145.319C111.874 144.507 113.008 143.852 114.22 143.377C115.463 143.036 116.772 143.012 118.026 143.306C119.268 143.542 120.465 143.893 121.663 144.18C122.837 144.501 124.052 144.643 125.268 144.602C126.456 144.492 127.561 143.947 128.373 143.073C129.158 142.205 129.845 141.252 130.422 140.233C131.017 139.24 131.58 138.231 132.234 137.289C132.853 136.326 133.685 135.517 134.665 134.925C135.654 134.423 136.719 134.088 137.817 133.932C138.893 133.739 139.96 133.617 141.005 133.448C142.039 133.307 143.052 133.036 144.019 132.64C144.955 132.25 145.741 131.569 146.26 130.698C146.735 129.83 147.062 128.89 147.23 127.916C147.624 126.001 147.726 124.082 148.234 122.29C148.466 121.399 148.887 120.569 149.468 119.855C150.055 119.193 150.732 118.615 151.477 118.137C152.915 117.168 154.42 116.427 155.724 115.497C156.374 115.057 156.964 114.534 157.478 113.941C157.957 113.363 158.292 112.68 158.455 111.947C158.592 111.24 158.612 110.514 158.514 109.8C158.432 109.115 158.309 108.436 158.144 107.767C157.828 106.455 157.474 105.218 157.253 104.016C156.997 102.886 156.997 101.714 157.253 100.584C157.556 99.6173 158.014 98.7058 158.608 97.8854C159.676 96.3448 160.705 95.1274 161.366 94.0399C161.919 93.24 162.32 92.3452 162.548 91.4001C162.607 91.16 162.642 90.9144 162.651 90.6673L162.675 90.4191C162.675 90.4191 162.675 90.5018 162.675 90.6673C162.667 90.9154 162.635 91.1621 162.58 91.4041C162.356 92.3567 161.955 93.2588 161.398 94.0636C160.724 95.1589 159.704 96.3803 158.64 97.9208C158.049 98.7349 157.597 99.6417 157.304 100.604C157.048 101.722 157.048 102.883 157.304 104C157.525 105.182 157.883 106.431 158.203 107.743C158.374 108.418 158.506 109.102 158.597 109.792C158.695 110.515 158.675 111.25 158.538 111.967C158.373 112.716 158.033 113.416 157.545 114.008C157.026 114.607 156.431 115.137 155.776 115.584C154.46 116.522 152.958 117.266 151.528 118.232C150.798 118.706 150.135 119.277 149.558 119.93C148.989 120.632 148.578 121.449 148.353 122.325C147.852 124.098 147.742 126.013 147.356 127.94C147.189 128.93 146.858 129.885 146.375 130.765C145.842 131.662 145.036 132.363 144.074 132.766C143.097 133.167 142.074 133.443 141.028 133.586C139.98 133.759 138.908 133.881 137.841 134.074C136.757 134.229 135.705 134.56 134.728 135.055C133.775 135.634 132.966 136.422 132.364 137.36C131.718 138.294 131.155 139.299 130.556 140.299C129.976 141.329 129.284 142.291 128.491 143.168C127.653 144.071 126.511 144.633 125.284 144.744C124.051 144.792 122.817 144.65 121.628 144.322C120.426 144.035 119.228 143.688 117.999 143.455C116.771 143.168 115.492 143.191 114.276 143.522C113.082 143.993 111.965 144.64 110.962 145.441C109.918 146.209 108.89 147.037 107.755 147.73C107.459 147.888 107.18 148.073 106.872 148.203C106.719 148.274 106.569 148.349 106.415 148.412L105.939 148.581C105.292 148.803 104.605 148.884 103.925 148.818L103.669 148.798C103.586 148.798 103.504 148.763 103.417 148.747C103.251 148.707 103.082 148.676 102.92 148.629C102.593 148.528 102.273 148.404 101.963 148.258C101.345 147.965 100.752 147.621 100.19 147.23C99.0593 146.442 97.9994 145.583 96.8607 144.807C96.2951 144.414 95.6981 144.069 95.0759 143.775C94.4464 143.495 93.7733 143.325 93.0862 143.274C91.6816 143.268 90.2837 143.468 88.9374 143.869C87.553 144.276 86.1398 144.578 84.7098 144.771C83.9791 144.843 83.2417 144.793 82.527 144.626C81.8112 144.426 81.1506 144.065 80.5964 143.57C79.4775 142.589 78.7131 141.3 77.9566 140.043C77.2556 138.743 76.4352 137.511 75.5059 136.363C75.0218 135.809 74.4395 135.348 73.7881 135.004C73.1167 134.685 72.4107 134.444 71.6842 134.287C70.2185 133.964 68.7095 133.826 67.2044 133.554C66.4461 133.428 65.701 133.233 64.9783 132.971C64.2453 132.702 63.5749 132.287 63.0083 131.75C62.4705 131.175 62.0585 130.495 61.7987 129.752C61.5327 129.018 61.3361 128.261 61.2116 127.491C60.9358 125.958 60.8176 124.398 60.4236 122.885C60.26 122.127 59.9838 121.398 59.6041 120.722C59.2053 120.053 58.684 119.467 58.0675 118.992C56.8461 118.011 55.4356 117.27 54.0763 116.439C53.3905 116.025 52.7325 115.567 52.1063 115.068C51.4689 114.557 50.9342 113.93 50.5303 113.22C50.1412 112.494 49.9458 111.68 49.9629 110.856C49.9723 110.04 50.0674 109.228 50.2466 108.433C50.5815 106.857 51.0819 105.281 51.3419 103.705C51.4907 102.911 51.5159 102.099 51.4168 101.297C51.2974 100.501 51.0302 99.734 50.6288 99.0359C49.8408 97.6175 48.7533 96.3606 47.7959 95.0092C47.297 94.3358 46.8605 93.6184 46.4918 92.8658C46.091 92.1168 45.8813 91.2804 45.8813 90.4309C45.8813 89.5814 46.091 88.745 46.4918 87.996C46.8554 87.2456 47.2881 86.5307 47.7841 85.8605C48.7415 84.5091 49.8093 83.2522 50.613 81.8378C51.014 81.1381 51.2812 80.3698 51.401 79.5723C51.493 78.7703 51.4664 77.9592 51.3222 77.1649C51.0582 75.5889 50.5579 74.0129 50.223 72.4369C50.047 71.6423 49.9532 70.8316 49.9432 70.0178C49.9275 69.1938 50.1243 68.3796 50.5145 67.6538C50.9211 66.9468 51.4555 66.3215 52.0905 65.8098C52.7157 65.3092 53.3739 64.8511 54.0605 64.4387C55.4198 63.6074 56.8185 62.8627 58.0517 61.8856C58.6671 61.4108 59.1871 60.8239 59.5844 60.1559C59.9622 59.478 60.2371 58.7477 60.4 57.9889C60.7664 56.476 60.8925 54.9197 61.188 53.387C61.3111 52.6166 61.5064 51.8594 61.7711 51.1255C62.0087 50.3742 62.4222 49.6905 62.9773 49.1313C63.5324 48.5721 64.213 48.1535 64.9625 47.9104C65.6852 47.6486 66.4304 47.4534 67.1886 47.3273C68.6937 47.0554 70.2027 46.9333 71.6684 46.5984C72.3936 46.4362 73.099 46.1958 73.7724 45.8813C74.4218 45.5349 75.0026 45.0729 75.4862 44.5181C76.4155 43.3701 77.2359 42.1381 77.9369 40.8381C78.6934 39.5813 79.4578 38.2929 80.5807 37.3158C81.1376 36.8133 81.804 36.4477 82.527 36.248C83.242 36.0818 83.9791 36.0326 84.7098 36.1022C86.131 36.2923 87.5361 36.5873 88.9138 36.9848C90.2594 37.3888 91.6576 37.5906 93.0626 37.5837C93.7433 37.5294 94.4096 37.3588 95.0326 37.0794C95.6568 36.7886 96.2541 36.4432 96.8174 36.0471C97.96 35.2591 99.0199 34.3962 100.151 33.6279C100.711 33.2355 101.305 32.8914 101.924 32.5996C102.233 32.4552 102.552 32.3302 102.877 32.2253C103.043 32.178 103.212 32.1504 103.378 32.111L103.626 32.0559H103.882C104.562 31.9916 105.248 32.0722 105.895 32.2923L106.372 32.4617C106.526 32.5247 106.675 32.5996 106.829 32.6705C107.14 32.8045 107.42 32.9857 107.712 33.1433C108.85 33.8367 109.875 34.6641 110.923 35.4324C111.924 36.233 113.04 36.8797 114.232 37.3512C115.448 37.6845 116.728 37.7075 117.956 37.4182C119.185 37.1897 120.383 36.843 121.584 36.5553C122.774 36.2281 124.007 36.0846 125.241 36.1298C126.467 36.2425 127.609 36.8037 128.448 37.7058C129.241 38.5839 129.935 39.5472 130.516 40.5781C131.115 41.5749 131.675 42.5835 132.321 43.5134C132.922 44.4536 133.731 45.2434 134.685 45.8222C135.661 46.3188 136.713 46.6503 137.797 46.8033C138.865 46.9963 139.937 47.1185 140.985 47.2918C142.03 47.4368 143.053 47.7121 144.03 48.1114C144.992 48.514 145.8 49.214 146.335 50.1089C146.817 50.9898 147.148 51.9444 147.316 52.9339C147.71 54.8606 147.813 56.7754 148.309 58.5484C148.537 59.4232 148.948 60.2396 149.515 60.9439C150.091 61.5986 150.754 62.1712 151.485 62.646C152.915 63.6113 154.42 64.356 155.732 65.2937C156.388 65.7403 156.982 66.2701 157.501 66.8697C157.99 67.4605 158.331 68.1585 158.498 68.9067C158.635 69.625 158.655 70.3608 158.557 71.0855C158.467 71.7744 158.335 72.4572 158.163 73.1304C157.848 74.4463 157.486 75.6795 157.265 76.8773C157.009 77.9949 157.009 79.156 157.265 80.2736C157.558 81.2359 158.009 82.1427 158.601 82.9567C159.66 84.5012 160.681 85.7147 161.359 86.814C161.914 87.6194 162.315 88.5213 162.541 89.4735C162.596 89.7154 162.628 89.9622 162.635 90.2103C162.682 90.3521 162.682 90.4388 162.682 90.4388Z" fill="#1D1D1B"/>
<path d="M93.3777 144.598C93.4329 144.598 91.979 150.508 90.1311 157.765C88.2833 165.023 86.7388 170.897 86.6836 170.886C86.6285 170.874 88.0824 164.976 89.9302 157.714C91.7781 150.453 93.3383 144.566 93.3777 144.598Z" fill="#1D1D1B"/>
<path d="M104.339 126.206C124.093 126.206 140.106 110.193 140.106 90.4388C140.106 70.685 124.093 54.6714 104.339 54.6714C84.5854 54.6714 68.5718 70.685 68.5718 90.4388C68.5718 110.193 84.5854 126.206 104.339 126.206Z" fill="#FEFEFE"/>
<path d="M82.3144 78.0435C81.8219 78.536 79.1112 83.4689 78.863 87.5389C78.6147 91.6089 79.2018 114.453 79.2018 114.453L79.3082 115.97C85.7461 123.499 109.15 134.705 130.229 115.931L131.411 101.877L127.932 72.1256L115.836 69.1667L113.003 64.5766L94.1226 68.9973L92.4363 72.9767L82.3144 78.0435Z" fill="#0357A0"/>
<path d="M111.707 52.6148C112.538 49.5219 113.354 46.4093 113.641 43.2218C113.929 40.0344 113.665 36.7405 112.396 33.8013C112.203 33.3561 110.607 30.3814 110.127 30.4562C109.784 30.5074 110.816 33.3048 110.659 33.6082C109.142 36.5514 108.866 40.0068 109.303 43.2888C109.754 46.476 110.561 49.6028 111.707 52.6108" fill="#1D1D1B"/>
<path d="M111.391 40.4008C111.242 32.375 106.443 25.7755 98.4248 26.1498L97.684 26.2286C94.0978 26.6067 90.7853 28.3208 88.4054 31.0299C86.0254 33.7391 84.7525 37.2449 84.8396 40.8499C85.013 47.804 85.2888 55.487 85.7261 59.1828C86.6284 66.8303 94.3941 67.2164 94.3941 67.2164L94.7527 72.2478L98.0426 75.8214L113.294 66.3654L111.391 40.4008Z" fill="#FFBF9D"/>
<path d="M94.4141 67.2755C94.4141 67.2755 99.2721 67.0509 104.075 63.2764C104.075 63.2764 102.467 70.2148 94.7529 70.329L94.4141 67.2755Z" fill="#FF9A6C"/>
<path d="M89.2485 47.0869C89.2756 47.3745 89.4147 47.64 89.6359 47.8258C89.8571 48.0116 90.1426 48.1028 90.4305 48.0798C90.5708 48.0763 90.7089 48.0448 90.8367 47.9871C90.9646 47.9294 91.0797 47.8468 91.1751 47.744C91.2705 47.6412 91.3445 47.5204 91.3925 47.3886C91.4406 47.2568 91.4618 47.1167 91.4549 46.9766C91.4269 46.6894 91.2875 46.4246 91.0665 46.239C90.8456 46.0534 90.5607 45.9618 90.2729 45.9837C90.1325 45.9867 89.9942 46.0179 89.866 46.0754C89.7379 46.1328 89.6227 46.2155 89.5271 46.3184C89.4316 46.4213 89.3577 46.5424 89.3098 46.6744C89.2619 46.8064 89.2411 46.9467 89.2485 47.0869Z" fill="#1D1D1B"/>
<path d="M86.8136 43.8562C86.9634 43.9822 87.7277 43.2849 88.9058 43.1627C90.0838 43.0406 91.0058 43.5567 91.1201 43.3794C91.1752 43.3124 91.0097 43.0682 90.6039 42.8318C90.0578 42.534 89.4333 42.4116 88.8152 42.4811C88.203 42.5442 87.6265 42.7993 87.1682 43.21C86.8333 43.5291 86.7388 43.7971 86.8136 43.8562Z" fill="#1D1D1B"/>
<path d="M99.6463 46.2044C99.6733 46.492 99.8125 46.7574 100.034 46.9432C100.255 47.129 100.54 47.2203 100.828 47.1973C100.969 47.1937 101.107 47.1622 101.234 47.1046C101.362 47.0469 101.477 46.9642 101.573 46.8614C101.668 46.7586 101.742 46.6378 101.79 46.506C101.838 46.3742 101.86 46.2342 101.853 46.0941C101.826 45.8061 101.687 45.5404 101.466 45.3539C101.244 45.1675 100.959 45.0753 100.671 45.0972C100.53 45.1013 100.392 45.1333 100.264 45.1914C100.136 45.2495 100.021 45.3325 99.9259 45.4356C99.8305 45.5387 99.7566 45.6598 99.7086 45.7918C99.6606 45.9238 99.6394 46.0641 99.6463 46.2044Z" fill="#1D1D1B"/>
<path d="M98.3932 43.1154C98.543 43.2454 99.3113 42.5441 100.485 42.422C101.659 42.2998 102.589 42.816 102.7 42.6426C102.755 42.5717 102.593 42.3274 102.187 42.095C101.64 41.7957 101.014 41.6732 100.395 41.7443C99.7819 41.8047 99.2046 42.0602 98.7478 42.4732C98.4169 42.7884 98.3223 43.0603 98.3932 43.1154Z" fill="#1D1D1B"/>
<path d="M95.1234 52.6069C95.1234 52.5399 94.3788 52.4887 93.1771 52.4611C92.8737 52.4611 92.5821 52.4335 92.5112 52.2326C92.4517 51.9255 92.4889 51.6075 92.6176 51.3225L93.2637 48.9585C94.1542 45.5701 94.7649 42.7963 94.6309 42.7608C94.497 42.7254 93.6577 45.444 92.7673 48.8363L92.1605 51.22C92.0122 51.5982 92.001 52.0165 92.129 52.402C92.1828 52.5046 92.2595 52.5935 92.353 52.6619C92.4466 52.7302 92.5547 52.7761 92.6688 52.796C92.8402 52.817 93.0135 52.817 93.1849 52.796C94.3866 52.7448 95.1274 52.6739 95.1234 52.6069Z" fill="#1D1D1B"/>
<path d="M98.6733 53.056C98.4803 53.056 98.6142 54.3405 97.6174 55.3649C96.6206 56.3893 95.2534 56.3893 95.2534 56.5705C95.2534 56.6493 95.5804 56.7872 96.1596 56.7399C96.9056 56.6699 97.6031 56.3393 98.1296 55.8062C98.6321 55.2904 98.9146 54.5996 98.9176 53.8795C98.9373 53.3397 98.76 53.0403 98.6733 53.056Z" fill="#1D1D1B"/>
<path d="M97.9562 38.3323C98.1059 38.6396 99.2643 38.3638 100.663 38.3874C102.062 38.4111 103.22 38.6672 103.37 38.3598C103.437 38.2141 103.212 37.9343 102.728 37.6703C102.085 37.3586 101.379 37.1967 100.665 37.1967C99.9505 37.1967 99.2453 37.3586 98.6024 37.6703C98.1059 37.9067 97.8892 38.1865 97.9562 38.3323Z" fill="#1D1D1B"/>
<path d="M86.8888 39.8925C87.1213 40.1368 87.9054 39.7743 88.8785 39.6561C89.8517 39.5379 90.6988 39.6561 90.8485 39.3488C90.9195 39.203 90.7619 38.9548 90.3757 38.7342C89.8585 38.4819 89.278 38.3888 88.7078 38.4666C88.1375 38.5445 87.6032 38.7898 87.1725 39.1715C86.8652 39.4828 86.7825 39.7704 86.8888 39.8925Z" fill="#1D1D1B"/>
<path d="M111.364 46.1414C111.49 46.0704 116.462 44.0295 116.848 49.2934C117.234 54.5572 111.896 53.8401 111.86 53.6904C111.825 53.5407 111.364 46.1414 111.364 46.1414Z" fill="#FFBF9D"/>
<path d="M113.318 51.5825C113.342 51.5825 113.413 51.6377 113.574 51.6968C113.799 51.7745 114.045 51.7617 114.26 51.6613C114.8 51.417 115.202 50.5029 115.158 49.5534C115.14 49.1017 115.02 48.66 114.808 48.2611C114.746 48.1008 114.647 47.9579 114.517 47.8447C114.388 47.7315 114.234 47.6512 114.067 47.611C113.96 47.5899 113.85 47.6072 113.754 47.6598C113.659 47.7124 113.586 47.797 113.547 47.8986C113.484 48.0523 113.527 48.1547 113.5 48.1665C113.472 48.1783 113.381 48.0838 113.405 47.8671C113.426 47.7339 113.491 47.6116 113.59 47.5204C113.727 47.4011 113.905 47.3402 114.087 47.3509C114.305 47.3768 114.514 47.459 114.691 47.5895C114.869 47.7201 115.009 47.8944 115.099 48.0956C115.358 48.5338 115.504 49.0292 115.525 49.5376C115.568 50.5975 115.099 51.6298 114.343 51.9016C114.205 51.9535 114.057 51.9737 113.911 51.9608C113.764 51.9478 113.622 51.902 113.496 51.8268C113.338 51.7086 113.303 51.5904 113.318 51.5825Z" fill="#FF9A6C"/>
<path d="M87.6805 31.914C86.8019 31.4964 89.1777 28.5768 91.2265 27.4933C94.2958 25.8582 99.0632 24.6644 102.03 25.3027C105.604 26.0907 108.63 27.6273 110.596 30.7084C112.562 33.7894 113.464 37.4655 113.598 41.1178C113.637 42.2329 113.598 43.3991 113.062 44.3762C112.404 45.5858 111.041 46.4093 111.206 48.0089C111.246 48.2977 111.227 48.5915 111.151 48.873C111.075 49.1545 110.944 49.418 110.765 49.6479C109.867 50.7354 108.63 49.8489 108.027 48.919C106.738 46.949 106.451 44.4865 106.199 42.1304C106.017 40.4599 105.84 38.7499 106.199 37.1109C106.396 36.2165 106.758 35.3615 106.908 34.4592C107.057 33.557 106.967 32.5523 106.368 31.8588C106.228 31.7134 106.075 31.5815 105.911 31.4648C105.136 30.8699 104.216 30.4927 103.246 30.3721C102.276 30.2516 101.292 30.3922 100.395 30.7793C97.499 32.0164 92.5464 33.9076 91.1596 32.9857C89.1699 31.6618 88.6498 30.732 88.6498 30.732L87.6805 31.914Z" fill="#1D1D1B"/>
<path d="M82.3144 78.0435C82.011 78.4651 77.7046 79.8953 76.0695 82.6179C74.4344 85.3404 72.819 97.5623 72.819 97.5623L71.7788 105.592C73.8276 108.831 76.5777 113.121 79.4933 116.147L82.3144 78.0435Z" fill="#0357A0"/>
<g opacity="0.3">
<path d="M114.673 89.832C114.789 91.4799 115.102 93.1081 115.603 94.6821C116.167 96.2306 117.156 97.6884 118.602 98.4882C119.204 98.8191 119.886 99.0398 120.394 99.5126C120.902 99.9854 121.21 100.75 121.702 101.305C122.318 101.916 123.079 102.362 123.913 102.602C126.26 103.462 128.75 103.863 131.249 103.784C131.328 102.94 131.332 99.8435 131.41 98.9964L114.673 89.832Z" fill="#1D1D1B"/>
</g>
<path d="M127.932 72.1256C127.932 72.1256 133.361 73.7332 134.953 76.0459C136.545 78.3587 139.362 87.3262 139.941 88.9888C140.52 90.6515 140.012 94.5048 138.928 97.2628C137.845 100.021 135.962 102.42 132.711 102.779C129.461 103.137 124.323 101.262 123.164 100.021C122.006 98.7797 121.529 96.0336 121.529 96.0336C122.973 95.7805 124.396 95.4237 125.788 94.9658" fill="#0357A0"/>
<path d="M125.788 94.9934L125.721 95.021L125.517 95.0958C125.335 95.1589 125.063 95.2495 124.705 95.3559C123.669 95.6657 122.617 95.9182 121.553 96.1124L121.596 96.0533C121.728 96.7302 121.914 97.3955 122.152 98.043C122.281 98.41 122.438 98.7669 122.621 99.1107C122.808 99.4781 123.054 99.8123 123.35 100.1C123.683 100.386 124.051 100.629 124.445 100.825C124.861 101.043 125.288 101.239 125.725 101.412C126.663 101.787 127.627 102.092 128.609 102.326C129.67 102.586 130.756 102.725 131.848 102.739C132.132 102.742 132.416 102.729 132.699 102.7C132.984 102.667 133.267 102.617 133.546 102.55C134.119 102.422 134.668 102.208 135.177 101.916C136.237 101.303 137.127 100.435 137.766 99.3904C138.442 98.3058 138.959 97.1304 139.303 95.8996C139.583 94.9539 139.792 93.9885 139.929 93.0116C140.076 92.0656 140.123 91.107 140.071 90.1511C140.04 89.6913 139.946 89.2379 139.791 88.8037C139.641 88.3624 139.496 87.925 139.354 87.4916L138.507 84.9582C137.947 83.3113 137.396 81.755 136.844 80.309C136.36 78.9635 135.776 77.6558 135.099 76.3966C134.785 75.8614 134.367 75.395 133.869 75.0255C133.435 74.6802 132.974 74.3706 132.49 74.0996C131.713 73.6562 130.909 73.2614 130.083 72.9176C129.405 72.6379 128.869 72.4409 128.507 72.3108L128.093 72.1651C128.044 72.1519 127.997 72.1334 127.951 72.1099C128.001 72.1163 128.05 72.1282 128.097 72.1454L128.519 72.2714C128.889 72.3896 129.433 72.5748 130.118 72.8427C130.952 73.1716 131.763 73.5519 132.549 73.9814C133.042 74.2524 133.512 74.562 133.956 74.9073C134.469 75.2835 134.9 75.7592 135.225 76.306C135.918 77.572 136.513 78.8892 137.006 80.246C137.569 81.688 138.124 83.2483 138.688 84.8952C138.968 85.7187 139.251 86.5657 139.543 87.4286C139.689 87.8581 139.834 88.2954 139.98 88.7367C140.142 89.1859 140.242 89.6552 140.276 90.1314C140.332 91.1015 140.286 92.0748 140.138 93.0352C139.999 94.0227 139.787 94.9985 139.503 95.9548C139.152 97.2065 138.621 98.4008 137.927 99.5008C137.271 100.573 136.355 101.463 135.264 102.089C134.739 102.388 134.172 102.607 133.582 102.739C133.295 102.808 133.004 102.859 132.711 102.893C132.419 102.893 132.128 102.944 131.844 102.933C130.737 102.912 129.636 102.767 128.562 102.499C127.571 102.261 126.599 101.949 125.654 101.565C125.215 101.387 124.784 101.186 124.366 100.963C123.961 100.759 123.582 100.507 123.239 100.21C122.934 99.9082 122.681 99.5581 122.491 99.1738C122.308 98.8247 122.151 98.4625 122.022 98.0903C121.791 97.4312 121.61 96.7555 121.482 96.069V96.0178H121.533C122.92 95.7775 123.984 95.5056 124.705 95.3086L125.524 95.0761L125.733 95.0171C125.765 94.9934 125.788 94.9895 125.788 94.9934Z" fill="#1D1D1B"/>
<path d="M135.753 92.0896C135.713 92.0896 135.587 91.4198 135.134 90.4191C134.539 89.1181 133.708 87.9386 132.683 86.9401C132.116 86.3997 131.473 85.9432 130.776 85.5847L130.3 85.3719C130.142 85.301 129.976 85.2695 129.827 85.2183C129.543 85.129 129.252 85.0683 128.956 85.037L128.759 85.0095H128.223C128.038 85.0067 127.853 85.0225 127.672 85.0567C127.513 85.0885 127.352 85.1057 127.191 85.108C127.34 85.0462 127.496 85.0025 127.656 84.9779C127.839 84.9259 128.029 84.8981 128.219 84.8952H128.574H128.767L128.972 84.9188C129.277 84.9401 129.58 84.9929 129.874 85.0764C130.039 85.1179 130.202 85.1678 130.363 85.2262L130.859 85.4389C131.582 85.7959 132.246 86.2609 132.829 86.8179C133.876 87.8298 134.706 89.0444 135.268 90.3876C135.368 90.616 135.455 90.8502 135.528 91.0889C135.589 91.2683 135.639 91.4512 135.678 91.6365C135.717 91.7848 135.742 91.9366 135.753 92.0896Z" fill="#1D1D1B"/>
<path d="M138.715 87.2159C138.492 86.6424 138.217 86.09 137.896 85.565C137.079 84.3187 135.857 83.3931 134.436 82.9449C132.77 82.4366 131.151 82.5942 130.02 82.7006L128.668 82.8622C128.505 82.8917 128.338 82.9062 128.172 82.9055C128.328 82.8447 128.49 82.8036 128.656 82.7834C128.972 82.7203 129.444 82.6376 130.004 82.5588C131.497 82.2978 133.029 82.3623 134.496 82.7479C135.298 82.9892 136.044 83.3913 136.686 83.9299C137.212 84.3769 137.662 84.9065 138.018 85.498C138.262 85.8862 138.456 86.3031 138.597 86.7391C138.655 86.8929 138.694 87.0529 138.715 87.2159Z" fill="#1D1D1B"/>
<path d="M134.622 81.3886C132.498 80.8878 130.278 80.975 128.2 81.6407C128.472 81.4629 128.772 81.3299 129.086 81.2467C129.832 81.0175 130.604 80.8851 131.383 80.8527C132.163 80.8251 132.942 80.8966 133.704 81.0655C134.024 81.1267 134.334 81.2356 134.622 81.3886Z" fill="#1D1D1B"/>
<path d="M125.835 73.481C125.867 73.481 125.788 74.0366 125.725 74.927C125.56 77.2078 125.757 79.5003 126.308 81.7196L126.166 81.7668C126.005 81.3137 125.879 80.9434 125.796 80.6833C125.744 80.5566 125.707 80.4244 125.686 80.2893C125.766 80.4117 125.829 80.5442 125.875 80.6833C125.981 80.9316 126.127 81.294 126.308 81.7432L126.166 81.7865C125.854 80.6964 125.647 79.5789 125.548 78.4494C125.445 77.2809 125.455 76.1052 125.579 74.9388C125.63 74.4936 125.69 74.1508 125.737 73.8868C125.75 73.7475 125.783 73.6109 125.835 73.481Z" fill="#1D1D1B"/>
<path d="M118.156 63.3749C118.156 63.3749 115.339 63.3749 114.985 66.7594C114.713 69.3598 114.985 71.8814 114.985 73.024C114.985 74.1666 114.484 78.2129 114.484 78.2129C114.484 78.2129 112.562 79.919 112.593 81.9678C112.625 84.0166 114.09 84.6548 114.09 84.6548C113.845 85.2897 113.79 85.9828 113.935 86.6481C114.079 87.3134 114.415 87.9218 114.902 88.3978C114.902 88.3978 114.086 90.2851 114.756 91.5498C115.142 92.179 115.745 92.6455 116.45 92.8619C116.335 93.1108 116.274 93.3817 116.272 93.6562C116.27 93.9307 116.327 94.2024 116.439 94.453C116.551 94.7036 116.716 94.9273 116.922 95.1088C117.127 95.2904 117.37 95.4257 117.632 95.5056C118.579 95.7988 119.57 95.9202 120.56 95.8641L122.664 95.8247L124.516 96.8491C124.516 96.8491 127.691 95.4662 127.77 93.5947L127.853 91.7232C127.853 91.7232 126.943 88.65 126.868 87.665C126.793 86.68 127.601 84.3278 127.112 83.2719C126.623 82.216 124.917 81.5935 125.079 80.1199C125.241 78.6463 124.917 77.8268 124.185 77.0112C123.452 76.1957 120.217 74.5724 120.217 74.5724C120.217 74.5724 119.386 72.2084 119.386 70.589C119.386 68.9697 121.005 63.9935 118.156 63.3749Z" fill="#FFBF9D"/>
<path d="M120.056 75.187C119.813 75.3852 119.549 75.5545 119.268 75.6914C118.771 75.9829 118.086 76.369 117.298 76.7867C116.51 77.2043 115.824 77.5747 115.328 77.8308C115.059 77.993 114.774 78.1251 114.477 78.2248C114.718 78.0244 114.982 77.8537 115.265 77.7165C115.761 77.425 116.447 77.0388 117.235 76.6212C118.023 76.2036 118.708 75.8332 119.205 75.5771C119.472 75.4149 119.758 75.284 120.056 75.187Z" fill="#FF9A6C"/>
<path d="M121.907 81.558C121.907 81.558 121.828 81.6486 121.659 81.7787C121.424 81.9633 121.179 82.1356 120.926 82.2948C120.094 82.828 119.21 83.2742 118.286 83.6265C117.363 83.9846 116.406 84.2487 115.43 84.4145C115.036 84.4736 114.748 84.5091 114.539 84.5209C114.43 84.5414 114.318 84.5414 114.208 84.5209C114.208 84.4894 114.666 84.4263 115.39 84.2727C116.346 84.0718 117.286 83.7978 118.2 83.4532C119.112 83.1003 119.994 82.6761 120.84 82.1845C121.185 81.9576 121.541 81.7485 121.907 81.558Z" fill="#FF9A6C"/>
<path d="M124.326 79.5289C124.377 79.5486 124.271 79.9229 123.932 80.2105C123.593 80.4982 123.231 80.5848 123.219 80.5336C123.207 80.4824 123.499 80.3327 123.794 80.0569C124.09 79.7811 124.271 79.5053 124.326 79.5289Z" fill="#FF9A6C"/>
<path d="M123.164 87.1331C122.786 87.3169 122.39 87.4621 121.982 87.5665C121.013 87.8549 120.026 88.08 119.027 88.2403C118.029 88.403 117.021 88.4977 116.009 88.5239C115.59 88.5563 115.169 88.5431 114.752 88.4845C115.166 88.4256 115.583 88.3914 116.001 88.3821C116.789 88.3269 117.834 88.2245 118.996 88.0393C120.158 87.8541 121.194 87.6138 121.943 87.4247C122.344 87.3038 122.752 87.2064 123.164 87.1331Z" fill="#FF9A6C"/>
<path d="M125.741 86.68C125.801 86.4748 125.873 86.2735 125.958 86.0772C126.114 85.5959 126.166 85.0869 126.111 84.5839C126.049 84.0813 125.876 83.5984 125.607 83.1695C125.479 82.9982 125.362 82.8192 125.256 82.6336C125.256 82.6139 125.481 82.7597 125.729 83.0867C126.048 83.5189 126.249 84.0265 126.312 84.5597C126.376 85.0929 126.3 85.6334 126.092 86.1284C125.93 86.4869 125.761 86.68 125.741 86.68Z" fill="#FF9A6C"/>
<path d="M123.322 92.8382C122.999 92.9572 122.663 93.0366 122.321 93.0746C121.503 93.2037 120.675 93.2683 119.847 93.2677C119.016 93.2662 118.187 93.1964 117.368 93.0589C117.026 93.0202 116.69 92.9395 116.368 92.8185C116.71 92.8245 117.051 92.8575 117.388 92.917C118.204 93.0093 119.025 93.0579 119.847 93.0628C120.667 93.0611 121.486 93.0164 122.301 92.9288C122.639 92.8715 122.98 92.8412 123.322 92.8382Z" fill="#FF9A6C"/>
<path d="M118.31 70.6284C118.31 70.6521 118.18 70.7585 117.916 70.853C117.568 70.9691 117.199 71.0068 116.836 70.9632C116.472 70.9196 116.122 70.7958 115.812 70.6009C115.576 70.4472 115.465 70.3132 115.481 70.2935C115.917 70.5123 116.381 70.6688 116.86 70.7585C117.347 70.7844 117.835 70.7406 118.31 70.6284Z" fill="#FF9A6C"/>
<path d="M126.324 86.9046C126.36 87.0017 126.376 87.1047 126.371 87.208C126.371 87.488 126.338 87.7671 126.273 88.0393C126.198 88.3821 126.068 88.78 125.942 89.2213C125.789 89.683 125.739 90.1725 125.796 90.6555C125.863 91.1559 126.237 91.5577 126.296 92.066C126.337 92.4956 126.227 92.9259 125.985 93.2835C125.838 93.5205 125.668 93.7423 125.477 93.9454C125.343 94.0912 125.26 94.1621 125.248 94.1542C125.237 94.1463 125.52 93.8075 125.859 93.2125C126.063 92.8771 126.15 92.4837 126.107 92.0936C126.06 91.6641 125.682 91.2622 125.591 90.6909C125.531 90.1777 125.589 89.6576 125.761 89.1701C125.898 88.7249 126.04 88.3348 126.131 87.9881C126.222 87.6322 126.286 87.27 126.324 86.9046Z" fill="#FF9A6C"/>
<path d="M127.384 89.3789C127.448 89.4944 127.494 89.6194 127.518 89.7493C127.589 89.9896 127.684 90.3442 127.77 90.7855C127.877 91.3046 127.94 91.8318 127.959 92.3615C127.993 93.0239 127.872 93.685 127.605 94.2921C127.295 94.8734 126.884 95.395 126.391 95.8326C125.999 96.1896 125.582 96.5175 125.142 96.8137C124.768 97.0698 124.453 97.2589 124.232 97.381C124.124 97.4544 124.006 97.5128 123.881 97.5544C123.862 97.5268 124.335 97.2274 125.063 96.6955C125.486 96.3879 125.889 96.0536 126.269 95.6947C126.737 95.2665 127.129 94.7615 127.427 94.2015C127.68 93.6219 127.8 92.9933 127.778 92.3615C127.769 91.8399 127.722 91.3198 127.636 90.8052C127.483 89.9266 127.353 89.3868 127.384 89.3789Z" fill="#1D1D1B"/>
<path d="M97.6568 76.2626C97.4929 76.1662 97.3397 76.0526 97.1997 75.9238L96.0177 74.9349L95.1982 74.2454C95.0582 74.1143 94.902 74.0018 94.7333 73.9105C94.6516 73.8686 94.5611 73.8468 94.4693 73.8468C94.3775 73.8468 94.2871 73.8686 94.2053 73.9105C93.8665 74.0878 93.638 74.5212 93.3504 74.8836C93.0627 75.2461 92.7791 75.6716 92.4796 76.0656C92.0068 76.7039 91.5458 77.3146 91.1243 77.882L90.8682 78.2208L90.9509 77.8032C91.1768 76.6315 91.5051 75.4818 91.932 74.3675C92.0896 73.9735 92.2314 73.6347 92.326 73.418C92.3703 73.3016 92.4299 73.1916 92.5033 73.0909C92.4762 73.2111 92.438 73.3285 92.389 73.4416C92.3063 73.6662 92.1841 73.9932 92.0423 74.4108C91.657 75.5309 91.3554 76.6779 91.14 77.8426L90.9627 77.7638L92.3141 75.9435L93.1849 74.7615L93.6025 74.206C93.7351 74.0086 93.9136 73.8464 94.1226 73.7332C94.2321 73.6852 94.3511 73.6627 94.4705 73.6675C94.59 73.6722 94.7068 73.7041 94.8121 73.7607C94.9911 73.8616 95.1566 73.9847 95.3046 74.1272L96.0926 74.8364L97.2431 75.8726C97.391 75.9915 97.5294 76.1219 97.6568 76.2626Z" fill="#1D1D1B"/>
<path d="M114.291 72.9334C114.245 72.9852 114.194 73.0314 114.138 73.0713L113.673 73.4337L111.935 74.7379L106.139 79.0049L106.053 79.0679L105.994 78.9773C105.946 78.9064 105.899 78.8276 105.848 78.7527L102.94 74.1587L103.046 74.1942C101.926 74.6392 100.845 75.1783 99.8156 75.8056C99.4453 76.0302 99.1576 76.1996 98.9606 76.3454C98.8649 76.4176 98.7619 76.4796 98.6533 76.5306C98.7369 76.4437 98.8293 76.3657 98.9291 76.2981C99.1182 76.1602 99.398 75.9593 99.7644 75.7189C100.781 75.0573 101.857 74.4927 102.979 74.0326L103.046 74.005L103.086 74.0641C103.941 75.3919 104.945 76.964 106.021 78.6424C106.072 78.7173 106.12 78.7961 106.167 78.867L106.017 78.8394L111.852 74.6236L113.625 73.3668L114.114 73.0358C114.228 72.9609 114.287 72.9255 114.291 72.9334Z" fill="#1D1D1B"/>
<path d="M78.9299 88.6027C78.9479 88.6935 78.9558 88.786 78.9535 88.8785C78.9535 89.0834 78.9535 89.3474 78.9732 89.6665C78.9732 90.3797 79.0087 91.3765 79.0284 92.5979C79.0757 95.0722 79.1742 98.5079 79.3042 102.271C79.4342 106.033 79.5091 109.469 79.5169 111.947C79.5169 113.188 79.5169 114.189 79.5169 114.883C79.5169 115.21 79.5169 115.477 79.4972 115.671C79.5015 115.764 79.4949 115.858 79.4775 115.95C79.4718 115.857 79.4718 115.764 79.4775 115.671C79.4775 115.47 79.4775 115.202 79.4539 114.883C79.4539 114.165 79.4224 113.169 79.3987 111.951C79.3554 109.473 79.253 106.041 79.1269 102.275C79.0008 98.5079 78.922 95.0761 78.9141 92.5979C78.9141 91.3607 78.9141 90.356 78.9141 89.6665C78.9141 89.3356 78.9141 89.0716 78.9141 88.8785C78.9135 88.7863 78.9187 88.6942 78.9299 88.6027Z" fill="#1D1D1B"/>
<path d="M97.7866 124.189C97.7734 124.153 97.7655 124.116 97.7629 124.078C97.7629 123.992 97.7629 123.881 97.7275 123.744C97.6959 123.432 97.6526 123.003 97.6014 122.455C97.4911 121.336 97.365 119.697 97.2389 117.708C97.1128 115.718 97.0064 113.307 96.9395 110.651C96.8725 107.995 96.8646 105.068 96.9395 101.983C97.0143 98.8979 97.1522 95.9942 97.3335 93.3425C97.5147 90.6909 97.7275 88.3033 97.9402 86.3057C98.153 84.3081 98.3342 82.6888 98.5076 81.5777C98.5864 81.0301 98.6455 80.6045 98.6888 80.2972C98.7125 80.1593 98.7282 80.049 98.744 79.9623C98.7459 79.9245 98.7539 79.8873 98.7676 79.852C98.7737 79.8898 98.7737 79.9284 98.7676 79.9663C98.7676 80.0529 98.7479 80.1632 98.7361 80.3011C98.7006 80.6085 98.6534 81.0379 98.5903 81.5856C98.4564 82.7046 98.283 84.32 98.0899 86.3136C97.8969 88.3072 97.6959 90.6988 97.5265 93.3504C97.3571 96.002 97.2271 98.9216 97.1562 101.987C97.0852 105.052 97.1049 107.972 97.1562 110.627C97.2074 113.283 97.3059 115.671 97.4162 117.676C97.5265 119.681 97.625 121.309 97.7117 122.428C97.7472 122.975 97.7787 123.409 97.7984 123.72C97.7984 123.858 97.7984 123.968 97.8181 124.055C97.8113 124.1 97.8007 124.145 97.7866 124.189Z" fill="#1D1D1B"/>
<path d="M86.0454 59.6989L85.6278 59.9747L84.3985 60.7627C83.8548 61.1133 83.2165 61.6137 82.4679 62.1653C82.0739 62.449 81.7114 62.7918 81.2859 63.1385L80.6437 63.6783C80.4231 63.8674 80.2142 64.0723 79.9897 64.289C77.8106 66.3218 75.8964 68.6212 74.2924 71.1328L73.5911 72.2596C73.3429 72.6339 73.1538 73.0476 72.9252 73.4416C72.6967 73.8356 72.4721 74.2611 72.2673 74.6945C72.0624 75.1279 71.8733 75.5731 71.6605 76.0223C71.562 76.2469 71.4517 76.4675 71.3571 76.7C71.2626 76.9324 71.1798 77.1688 71.0892 77.4092C70.9119 77.882 70.7228 78.3587 70.5494 78.8512C70.2579 79.848 69.8875 80.8567 69.6669 81.9323C68.5436 86.5862 68.3561 91.4169 69.1153 96.1439C70.1031 102.231 72.652 107.958 76.5132 112.766C80.3745 117.574 85.4163 121.299 91.1466 123.578C96.8769 125.857 103.1 126.611 109.209 125.767C115.317 124.923 121.103 122.51 126.001 118.763C127.238 117.813 128.414 116.787 129.523 115.69L130.311 114.855C130.579 114.579 130.839 114.299 131.099 114.004L131.848 113.141C132.084 112.842 132.317 112.542 132.553 112.247C136.117 107.656 138.495 102.258 139.476 96.53C139.706 95.2001 139.863 93.8585 139.945 92.5112C139.984 91.8453 139.984 91.1874 140.008 90.5412C140.031 89.895 139.96 89.2371 139.937 88.5948C139.937 88.2757 139.909 87.9526 139.897 87.6335C139.886 87.3143 139.826 87.0031 139.795 86.6879C139.716 86.0614 139.641 85.4389 139.566 84.8243C139.492 84.2096 139.33 83.6107 139.212 83.0119C139.113 82.418 138.981 81.83 138.818 81.2507L138.329 79.5447C138.253 79.2648 138.159 78.9898 138.05 78.7212C137.947 78.4493 137.845 78.1775 137.746 77.9096C137.537 77.3777 137.352 76.8339 137.128 76.3336C136.903 75.8332 136.659 75.3249 136.426 74.8324C134.713 71.2703 132.414 68.0207 129.626 65.2188C127.513 63.1198 125.156 61.2823 122.605 59.7462L121.1 58.8833C120.872 58.7501 120.638 58.6291 120.398 58.5208L119.736 58.2056L118.554 57.6461C118.2 57.4649 117.849 57.3625 117.554 57.2521L116.183 56.7242L115.718 56.5351L116.19 56.7045L117.565 57.2167C117.865 57.3349 118.216 57.4373 118.574 57.6107L119.756 58.1623L120.422 58.4775C120.663 58.583 120.899 58.7014 121.127 58.8321L122.636 59.691C125.204 61.2175 127.576 63.0513 129.701 65.1518C132.506 67.9517 134.82 71.2028 136.548 74.7694C136.781 75.2698 137.017 75.7701 137.258 76.2823C137.498 76.7945 137.652 77.3343 137.88 77.8583L138.187 78.67C138.297 78.9399 138.391 79.2162 138.467 79.4974C138.633 80.0647 138.798 80.6321 138.964 81.2113C139.134 81.7928 139.272 82.3834 139.377 82.9803C139.495 83.5792 139.637 84.1623 139.74 84.7967C139.842 85.431 139.889 86.0417 139.968 86.6721C140.004 86.9873 140.055 87.3025 140.075 87.6217C140.094 87.9408 140.102 88.2639 140.114 88.587C140.138 89.2331 140.173 89.8832 140.189 90.557C140.205 91.2307 140.169 91.8769 140.126 92.527C139.723 99.7393 137.136 106.658 132.707 112.365L131.99 113.263L131.233 114.134C130.989 114.429 130.725 114.713 130.445 114.989L129.657 115.832C128.541 116.935 127.357 117.967 126.111 118.921C121.19 122.683 115.377 125.106 109.24 125.953C103.103 126.8 96.8518 126.043 91.0948 123.755C85.3378 121.467 80.2719 117.726 76.3909 112.898C72.5099 108.069 69.9462 102.317 68.9498 96.203C68.55 93.7383 68.4179 91.2376 68.5558 88.7446C68.6551 86.445 68.9865 84.1613 69.5447 81.9284C69.7654 80.8488 70.1397 79.8402 70.4312 78.8355C70.6085 78.3469 70.8016 77.8662 70.9828 77.3895C71.0734 77.1531 71.1641 76.9167 71.2507 76.6803C71.3374 76.4439 71.4596 76.2272 71.5581 75.9987C71.7669 75.5495 71.9521 75.1082 72.1688 74.6709C72.3855 74.2335 72.6179 73.8277 72.8346 73.414C73.0513 73.0003 73.2562 72.5906 73.5044 72.2123L74.2136 71.0855C75.826 68.57 77.7554 66.2725 79.9542 64.2496C80.1788 64.0408 80.3876 63.828 80.6082 63.6389L81.2544 63.0991C81.6799 62.7563 82.0424 62.4175 82.4364 62.1338C83.2047 61.5822 83.8351 61.0897 84.3828 60.743L85.6239 59.955C85.8918 59.7816 86.0454 59.6989 86.0454 59.6989Z" fill="#1D1D1B"/>
</svg>
