<svg width="51" height="50" viewBox="0 0 51 50" fill="none" xmlns="http://www.w3.org/2000/svg">
<path fill-rule="evenodd" clip-rule="evenodd" d="M41.4754 0.00335536C42.7755 0.00335536 43.8323 1.05997 43.8323 2.35992V6.66972H48.1426C48.6089 6.66962 49.0646 6.80778 49.4523 7.06671C49.84 7.32565 50.1421 7.69373 50.3206 8.1244C50.499 8.55506 50.5457 9.02897 50.4547 9.48616C50.3637 9.94335 50.1392 10.3633 49.8094 10.6929L44.9424 15.5593C44.2317 16.2683 43.2694 16.6673 42.2655 16.6693H37.3651L25.5975 28.4354C25.1235 28.877 24.4967 29.1174 23.849 29.106C23.2012 29.0945 22.5832 28.8322 22.1252 28.3741C21.6671 27.9161 21.4047 27.2982 21.3933 26.6506C21.3818 26.0029 21.6223 25.3761 22.0639 24.9022L33.8315 13.1361V8.23632C33.8315 7.23303 34.2315 6.26974 34.9416 5.55644L39.8086 0.689991C40.0268 0.470138 40.2865 0.295903 40.5727 0.177444C40.8588 0.0589846 41.1657 -0.00132794 41.4754 2.21754e-05M5.49589 26.6688C5.49554 23.9507 6.09968 21.2666 7.26456 18.8107C8.42945 16.3548 10.1259 14.1886 12.2312 12.469C14.3364 10.7494 16.7978 9.51944 19.437 8.86809C22.0762 8.21674 24.8273 8.16033 27.491 8.70296C28.1375 8.82629 28.8065 8.68979 29.3529 8.32307C29.8994 7.95635 30.2792 7.38898 30.4099 6.74405C30.5407 6.09913 30.4119 5.42866 30.0514 4.8781C29.6909 4.32755 29.1279 3.94131 28.4844 3.80318C23.5696 2.80407 18.4636 3.41483 13.9231 5.54495C9.3827 7.67507 5.64946 11.2112 3.27669 15.6292C0.903923 20.0473 0.0178966 25.1121 0.749926 30.0732C1.48196 35.0342 3.79308 39.6275 7.34079 43.1721C10.8885 46.7168 15.484 49.0243 20.4462 49.7526C25.4084 50.4809 30.4733 49.5913 34.8901 47.2156C39.307 44.8399 42.8408 41.1045 44.9679 36.5631C47.0949 32.0216 47.702 26.9158 46.6992 22.0024C46.567 21.3526 46.1821 20.782 45.6291 20.416C45.0762 20.05 44.4005 19.9186 43.7506 20.0508C43.1008 20.1829 42.5301 20.5678 42.164 21.1207C41.798 21.6736 41.6666 22.3492 41.7988 22.999C42.041 24.1834 42.1633 25.4067 42.1655 26.6688C42.1655 31.5309 40.2338 36.1938 36.7954 39.6319C33.3569 43.0699 28.6934 45.0013 23.8307 45.0013C18.968 45.0013 14.3045 43.0699 10.866 39.6319C7.42759 36.1938 5.49589 31.5309 5.49589 26.6688ZM23.3773 18.3492C24.0395 18.3138 24.6606 18.0169 25.1038 17.5237C25.5471 17.0305 25.7762 16.3814 25.7408 15.7193C25.7055 15.0572 25.4085 14.4362 24.9152 13.993C24.422 13.5498 23.7728 13.3207 23.1106 13.3561C20.5502 13.4941 18.0838 14.3672 16.007 15.871C13.9303 17.3748 12.3312 19.4455 11.4014 21.8348C10.4715 24.2242 10.2505 26.8309 10.7646 29.3427C11.2787 31.8545 12.5062 34.1648 14.3 35.9968C16.0939 37.8288 18.3779 39.1048 20.8786 39.6719C23.3792 40.2391 25.9904 40.0733 28.3992 39.1944C30.808 38.3155 32.9123 36.7608 34.4599 34.7166C36.0076 32.6724 36.9329 30.2254 37.1251 27.6688C37.1742 27.0075 36.9585 26.3539 36.5256 25.8516C36.0926 25.3493 35.4779 25.0396 34.8166 24.9906C34.1552 24.9415 33.5015 25.1571 32.9992 25.59C32.4969 26.0229 32.1871 26.6375 32.138 27.2988C32.0164 28.8959 31.4371 30.424 30.4693 31.7004C29.5016 32.9768 28.1865 33.9472 26.6814 34.4956C25.1763 35.044 23.5451 35.147 21.983 34.7924C20.4208 34.4378 18.994 33.6406 17.8733 32.4962C16.7526 31.3517 15.9855 29.9086 15.6638 28.3395C15.3422 26.7705 15.4796 25.142 16.0596 23.649C16.6396 22.156 17.6377 20.8617 18.9343 19.9212C20.2309 18.9807 21.7712 18.4338 23.3707 18.3459" fill="#FEFEFE"/>
</svg>
