<svg width="229" height="180" viewBox="0 0 229 180" fill="none" xmlns="http://www.w3.org/2000/svg">
<path fill-rule="evenodd" clip-rule="evenodd" d="M218.475 65.8056L218.58 65.7056C217.933 64.7328 217.03 61.9078 216.476 60.6008C215.727 58.8378 214.978 57.2639 214.074 55.4336C212.415 52.0784 210.062 48.1332 207.262 46.3843C203.965 44.3243 203.327 47.4902 198.121 50.7683C193.201 53.8661 191.785 53.2839 188.872 49.9983C187.664 48.6367 186.531 46.6959 186.413 45.0627C186.059 40.1479 188.897 40.1088 193.045 38.0787C194.058 37.5832 197.83 36.5666 198.285 36.1795C199.243 35.3662 198.508 32.7426 197.856 31.4071C197.063 29.7805 195.513 27.7376 194.417 26.3283L187.47 15.2276L186.961 15.7408C183.579 18.6985 172.407 27.7436 168.572 27.5611C165.18 27.3997 164.163 16.4788 160.397 15.0414C158.479 14.3096 155.097 15.794 154.228 15.9171L151.102 18.0037C151.08 18.0404 150.587 18.4304 150.552 18.4128C150.541 18.4076 148.152 20.2449 148.05 22.2495C147.798 27.1881 156.648 32.6694 155.091 36.0549C154.218 37.9549 144.459 43.4425 141.277 44.805C139.719 45.472 137.842 46.698 136.431 47.3637C138.266 50.8125 140.113 54.4252 141.783 57.9539C143.446 61.4691 145.497 65.4162 148.932 65.4958C152.549 65.5796 153.002 61.9718 158.334 59.0225C160.23 57.9739 161.914 57.6111 163.271 58.5317C166.294 60.583 168.627 63.9325 168.275 67.7435C168.074 69.9251 167.933 70.2668 165.261 71.8245C163.509 72.846 161.627 73.7992 159.818 74.6183C157.774 75.5435 155.888 75.7188 155.516 77.8701C154.707 82.5467 160.708 88.671 163.806 92.2204C164.717 93.2648 166.775 95.9614 167.667 96.5521C167.712 95.9745 168.962 95.2841 169.974 94.5054C172.52 92.5466 180.418 86.4194 182.386 85.1546C188.215 81.4077 188.982 85.6103 190.284 88.9165C191.06 90.888 191.111 92.0344 192.439 94.1405C196.508 100.589 204.955 93.579 205.947 91.25C207.199 88.3102 203.427 83.1087 201.682 81.1475C200.558 79.8842 198.771 78.4595 199.186 76.6752C200.421 71.3741 211.721 67.5804 217.17 66.0229C217.661 65.8826 217.992 65.7002 218.475 65.8058L218.475 65.8056Z" fill="#7503A6"/>
<path fill-rule="evenodd" clip-rule="evenodd" d="M131.397 105.269C131.438 106.511 132.689 112.917 132.992 115.719C133.365 119.158 134.031 124.029 132.189 126.393C128.949 130.552 120.733 124.306 116.492 128.589C114.793 130.305 115.205 131.657 114.616 133.209C114.606 133.236 114.573 133.341 114.565 133.32C114.557 133.298 114.532 133.395 114.512 133.431V136.353C114.839 137.234 115.208 139.884 116.547 141.129C122.157 144.374 128.56 138.445 131.825 142.295C133.68 144.483 132.776 149.421 132.607 152.68C132.329 158.075 132.34 159.787 131.825 163.57C137.347 164.389 149.517 165.677 153.971 162.695C156.555 160.965 153.747 158.583 154.302 152.192C154.475 150.203 154.979 148.566 156.182 147.745C157.839 146.615 163.742 145.72 166.42 147.89C166.935 148.307 167.45 148.812 167.875 149.514C168.479 150.511 168.356 150.879 168.227 152.15C167.972 154.65 167.501 157.801 166.748 160.222C166.363 161.457 166.287 161.698 167.194 162.368C169.768 164.271 174.864 163.548 178.339 163.344C179.947 163.249 189.658 162.857 190.295 162.552L189.903 162.432L189.06 150.481C188.885 148.705 188.664 146.151 188.847 144.351C188.998 142.874 189.741 140.26 190.941 140.078C191.513 139.992 195.123 141.131 196.206 141.248C200.643 141.728 202.988 143.2 205.216 138.846C205.957 137.399 206.023 135.153 205.732 133.358C205.03 129.027 204.169 127.783 198.553 127.799C192.61 127.816 190.465 130.161 188.82 126.665C187.424 123.698 187.519 119.105 187.88 115.381C188.077 113.35 188.27 111.618 188.561 109.727C188.776 108.325 189.485 105.451 189.454 104.283C188.653 104.335 187.321 104.063 186.378 103.983L177.744 102.705C174.123 101.924 169.4 102.09 167.632 104.92C166.513 106.71 167.008 108.497 167.472 110.341C168.101 112.842 169.36 119.601 166.56 121.157C163.947 122.609 158.833 122.662 155.83 120.638C155.298 120.28 154.301 119.44 154.039 119.061C153.359 118.075 154.217 111.152 154.397 110.016C154.782 107.583 155.465 106.678 153.839 104.882C152.615 103.53 151.054 103.366 149.125 102.979C145.433 102.236 140.522 103.691 137.247 104.036C134.677 104.306 132.559 105.17 131.397 105.269Z" fill="#D91424"/>
<path fill-rule="evenodd" clip-rule="evenodd" d="M73.1686 47.0007C73.3206 48.88 73.7884 50.6263 73.8752 52.3968C73.9641 54.2099 74.2757 56.1401 74.3587 58.1223C74.9746 72.8508 73.0002 69.9622 68.641 69.4313C62.1984 68.6467 57.9963 67.1261 56.9811 75.044C56.7347 76.9652 56.8916 78.9858 57.5853 80.4695C59.9082 85.4377 69.629 81.6097 72.9895 83.2563C73.8 83.6533 74.6094 86.3763 74.8498 87.5404C75.6092 91.2167 75.6499 95.3905 75.1845 99.1638C74.9506 101.06 74.4497 102.451 74.1995 104.258C74.5402 104.603 74.9053 104.625 75.379 104.766C80.6396 106.337 91.837 109.115 95.5652 105.277C96.82 103.985 96.0864 101.829 95.8134 100.162C95.3897 97.5735 94.9663 91.163 97.4984 89.3355C99.5046 87.8875 110.015 86.426 110.041 94.0508C110.05 96.5409 109.504 97.5396 109.129 99.6228C108.501 103.116 106.975 107.085 113.669 107.001C115.928 106.973 125.536 105.969 128.625 105.659C129.853 105.536 131.23 105.614 131.563 105.148L130.069 94.5237C129.792 91.3583 129.523 86.1442 130.904 83.568C131.676 82.1298 132.849 82.6129 135.684 82.8417C137.455 82.9846 139.837 83.3687 141.538 83.2709C147.251 82.942 147.397 78.5522 147.989 77.3432V74.1294C147.201 72.5435 147.854 71.3628 146.233 69.7014C142.806 66.1892 135.414 70.7887 130.927 67.9934C130.103 67.4798 129.797 67.3474 129.728 66.0711C129.566 63.099 129.585 60.2141 129.776 57.2419C130.152 51.3577 130.685 51.2259 131.419 46.6608C127.48 46.2799 123.279 46.1524 119.384 45.6687C115.432 45.1778 110.96 44.8976 109.101 47.831C107.867 49.7791 108.642 50.9627 109.098 53.0086C109.702 55.7109 110.691 61.7313 107.404 62.9995C105.734 63.6438 103.907 64.0811 101.93 64.0127C99.3859 63.9248 96.3601 62.4051 95.3823 60.7127C94.7232 59.5719 95.538 53.1073 95.7164 51.7338C95.9917 49.6158 96.9085 48.244 95.2585 46.7545C93.046 44.7572 87.8186 44.7297 84.3882 45.2513C80.6716 45.8166 76.7893 46.289 73.1687 47.0008L73.1686 47.0007Z" fill="#0357A0"/>
<path fill-rule="evenodd" clip-rule="evenodd" d="M16.4501 105.256C16.4906 106.498 17.8416 112.965 18.1447 115.767C18.517 119.207 18.6388 124.033 16.7974 126.396C13.5573 130.555 6.37484 125.051 2.13432 129.334C0.43493 131.05 0.693138 131.661 0.104063 133.212C0.0938004 133.239 0.0610626 133.344 0.053263 133.323C0.0453608 133.302 0.0199095 133.398 0 133.434V136.357C0.326865 137.237 0.285711 139.29 1.62488 140.535C5.10535 143.771 13.1681 138.448 16.4327 142.298C18.2878 144.486 17.8991 149.312 17.731 152.57C17.4526 157.966 16.6198 159.237 16.1043 163.02C21.6263 163.839 34.1249 165.68 38.5792 162.698C41.1634 160.968 38.3549 158.586 38.9098 152.195C39.0825 150.206 39.5871 148.57 40.7903 147.748C42.4464 146.618 48.3497 145.723 51.0276 147.893C51.5428 148.311 52.0579 148.816 52.4829 149.518C53.0864 150.514 52.9638 150.882 52.8346 152.153C52.5803 154.654 52.1093 157.804 51.3556 160.226C50.9713 161.461 50.8949 161.701 51.8017 162.371C54.3759 164.274 59.4719 163.551 62.947 163.347C64.5549 163.253 74.2657 162.861 74.9031 162.555L74.5108 162.436L73.6682 150.484C73.4929 148.708 73.2715 146.155 73.455 144.355C73.6058 142.877 74.3485 140.263 75.5493 140.082C76.121 139.995 79.7307 141.134 80.8137 141.252C85.2509 141.731 87.5954 143.204 89.8241 138.85C90.5647 137.403 90.6313 135.157 90.3404 133.362C89.6382 129.031 88.7773 127.786 83.1609 127.802C77.2175 127.819 75.0725 130.164 73.4277 126.669C72.0314 123.701 72.1264 119.109 72.4877 115.385C72.6847 113.353 72.8781 111.622 73.1688 109.73C73.3843 108.328 74.093 105.454 74.0615 104.286C73.2605 104.338 71.9288 104.066 70.986 103.987L62.3515 102.708C58.7311 101.927 54.0077 102.094 52.2397 104.923C51.1209 106.714 51.6157 108.5 52.0799 110.345C52.7093 112.845 53.968 119.604 51.168 121.16C48.5549 122.613 43.4406 122.665 40.4377 120.641C39.9061 120.283 38.9085 119.443 38.6471 119.064C37.967 118.078 38.8246 111.155 39.0046 110.019C39.3902 107.586 40.0727 106.681 38.4465 104.885C37.2226 103.534 35.6619 103.37 33.7328 102.982C30.0412 102.24 25.1302 103.695 21.8549 104.039C19.2849 104.309 17.6117 105.157 16.45 105.256H16.4501Z" fill="#57A40A"/>
<path fill-rule="evenodd" clip-rule="evenodd" d="M74.1996 104.258L74.0618 104.287C74.0932 105.455 73.3847 108.328 73.1692 109.73C72.8784 111.622 72.6851 113.353 72.488 115.385C72.1268 119.109 72.0318 123.701 73.4281 126.669C75.0728 130.165 77.2179 127.819 83.1613 127.803C88.7776 127.787 89.6384 129.031 90.3407 133.362C90.6316 135.157 90.565 137.403 89.8245 138.85C87.5957 143.204 85.2512 141.731 80.814 141.252C79.7311 141.135 76.1213 139.995 75.5497 140.082C74.3488 140.263 73.6061 142.877 73.4554 144.355C73.2717 146.155 73.4933 148.708 73.6685 150.484L74.5111 162.436L74.9034 162.556C79.1892 161.843 92.4184 160.961 95.465 163.15C98.1603 165.087 95.2093 174.857 97.5569 178.074C98.7523 179.712 100.549 179.643 101.324 180H104.934C104.971 179.98 105.027 179.913 105.048 179.947C105.053 179.957 107.559 179.432 108.67 177.787C111.407 173.734 107.518 164.376 110.528 162.332C112.217 161.185 123.681 162.04 126.985 162.573C128.603 162.834 130.508 163.406 132.005 163.59C132.269 159.693 132.538 155.476 132.979 151.599C133.419 147.736 133.762 143.302 130.99 141.413C128.071 139.423 125.851 142.241 119.973 141.912C117.883 141.795 116.318 141.209 115.679 139.709C114.254 136.367 114.06 132.29 116.301 129.246C117.584 127.503 117.875 127.288 120.861 127.385C122.82 127.449 124.849 127.639 126.751 127.905C128.898 128.205 130.533 129.057 131.94 127.431C134.999 123.895 133.224 115.52 132.506 110.868C132.295 109.499 131.991 106.122 131.564 105.148C131.231 105.614 129.853 105.536 128.625 105.659C125.536 105.969 115.928 106.973 113.669 107.001C106.975 107.085 108.501 103.116 109.129 99.6224C109.504 97.5393 110.05 96.5405 110.041 94.0504C110.015 86.4255 99.5048 87.8871 97.4987 89.335C94.9665 91.1626 95.3899 97.573 95.8136 100.161C96.0866 101.828 96.8202 103.984 95.5654 105.276C91.8373 109.115 80.6398 106.336 75.3792 104.766C74.9055 104.624 74.5404 104.603 74.1997 104.258L74.1996 104.258Z" fill="#7503A6"/>
<path fill-rule="evenodd" clip-rule="evenodd" d="M16.45 105.256C17.6118 105.158 19.285 104.31 21.855 104.039C25.1303 103.695 30.0413 102.24 33.7329 102.982C35.6619 103.37 37.2226 103.534 38.4465 104.885C40.0729 106.681 39.3903 107.586 39.0047 110.019C38.8247 111.155 37.9671 118.078 38.6472 119.064C38.9086 119.443 39.9062 120.283 40.4378 120.641C43.4406 122.665 48.5551 122.613 51.1681 121.16C53.968 119.604 52.7093 112.845 52.0799 110.345C51.6157 108.5 51.121 106.714 52.2398 104.923C54.0079 102.094 58.7311 101.927 62.3516 102.708L70.986 103.987C71.929 104.066 73.2606 104.339 74.0616 104.286L74.1994 104.258C74.4496 102.451 74.9505 101.059 75.1844 99.1634C75.6499 95.3902 75.6091 91.2163 74.8497 87.5401C74.6093 86.376 73.7999 83.653 72.9894 83.2559C69.6289 81.6094 59.9081 85.4374 57.5852 80.4691C56.8916 78.9855 56.7346 76.9648 56.981 75.0437C57.9962 67.1258 62.1983 68.6464 68.6408 69.431C73.0001 69.9618 74.9745 72.8505 74.3586 58.1219C74.2756 56.1397 73.964 54.2095 73.8751 52.3964C73.7884 50.6259 73.3206 48.8796 73.1685 47.0003C68.1348 47.9209 56.2523 50.2473 52.6555 46.6754C48.2928 42.3431 54.5349 34.1687 48.1673 30.6293C47.4307 30.2198 46.5153 30.1164 45.9188 29.8105H43.4469C42.8264 30.1234 41.7954 30.2882 41.0983 30.5784C40.4229 30.8595 39.5777 31.2858 39.1105 31.6689C34.6946 35.2905 40.4528 42.6825 37.5315 46.3704C35.3374 49.1403 19.606 48.2926 16.3004 46.6973C15.2745 51.5413 13.9626 65.0816 16.5266 68.8713C18.3662 71.5903 20.0409 68.9609 26.6763 69.3073C31.2785 69.5475 32.294 71.1216 32.7208 75.5683C33.068 79.1864 31.6355 83.1533 28.1674 83.4657C25.3709 83.7176 22.2611 83.7249 19.4674 83.2258C16.4546 82.6874 15.1776 80.2769 15.9007 93.4068C16.1065 97.1429 15.9897 101.66 16.4497 105.256L16.45 105.256Z" fill="#DC7B04"/>
<path fill-rule="evenodd" clip-rule="evenodd" d="M44.6857 63.1946H45.0571C47.1142 63.1946 45.6579 65.8193 45.0784 66.7674C44.7158 67.361 42.81 69.9876 42.2516 70.661C42.0921 70.8533 41.9811 71.0336 41.8339 71.2104C41.5476 71.5544 41.2758 71.9425 40.9929 72.3017C40.8221 72.5185 40.2536 73.1895 40.1988 73.4017C40.0576 73.9488 40.6521 74.5322 41.1218 74.3252C41.4324 74.1883 42.7867 72.6409 43.1686 72.3245C43.2306 72.2732 43.2398 72.2647 43.2869 72.218L44.008 71.4891C44.6723 70.7716 45.2752 70.2278 45.9167 69.5348C46.4436 68.9656 47.2576 69.1227 46.4927 70.5921L43.8108 76.5301C43.5566 77.4495 44.7443 78.0518 45.1901 77.1633C46.0531 75.4431 47.3278 73.3549 48.2838 71.6429C48.4157 71.4066 48.8819 70.4275 49.224 70.7812C49.4983 71.0646 49.2602 72.0194 49.2438 72.4276C49.2202 73.0161 49.1015 73.6043 49.0566 74.1741C48.9675 75.3015 48.7002 76.5093 48.7002 77.6653C48.7002 78.1541 49.0038 78.3394 49.4795 78.3072C50.0729 78.2672 50.2307 76.8007 50.2973 76.2886C50.3905 75.5711 50.589 74.6057 50.703 73.8389L51.1572 71.4234C51.2392 71.0989 51.387 70.5474 51.7746 70.6066C52.4022 70.7023 52.3405 72.1134 52.4476 72.7723C52.4884 73.0226 52.4917 73.1319 52.5094 73.3946C52.5195 73.543 52.5482 73.5709 52.5636 73.693C52.5787 73.8123 52.5648 73.9272 52.5858 74.0454C52.6859 74.611 52.6944 76.1498 53.0141 76.4687C53.2863 76.7401 53.8951 76.6096 53.9624 76.2131C54.3695 73.8166 53.7488 70.1251 54.4298 68.4579C54.6521 67.9134 54.9371 67.416 55.1544 66.8062C55.5807 65.6098 56.165 64.314 56.1516 63.0292C56.1455 62.4419 55.869 61.5402 55.534 61.2457C55.4134 61.1397 54.9156 60.9445 54.7464 60.8435C53.7415 60.2437 53.5727 60.0669 52.7586 59.2666C52.5398 59.0516 52.3929 58.8443 52.0662 58.7599C51.2853 58.5584 50.5637 58.6001 49.7786 58.7628C49.6457 58.7903 49.472 58.8637 49.3337 58.9138L47.246 59.792C47.0054 59.886 45.4826 60.619 45.2539 60.7751C44.8119 61.0768 42.8424 61.6667 42.2073 61.8839C41.9433 61.9742 41.43 61.9461 41.1163 61.9869C39.9366 62.1402 41.0845 63.279 42.4196 63.2893C42.8146 63.2924 43.2159 63.2935 43.6106 63.2854C43.7889 63.2818 44.2915 63.1946 44.6858 63.1946H44.6857Z" fill="#FEFEFE"/>
<path fill-rule="evenodd" clip-rule="evenodd" d="M38.4555 50.8459C38.4555 51.2005 38.5858 52.0606 38.619 52.6298C38.6498 53.1604 38.6898 53.8641 38.7655 54.3807C38.8461 54.9303 38.7924 55.6393 38.8622 56.1851C38.9035 56.5085 38.9152 56.6945 38.9208 57.0502C38.9233 57.2122 39.1826 58.6649 38.6603 58.5372C38.4802 58.4932 38.3234 58.2607 38.2293 58.1205C37.6492 57.2558 35.8281 53.2768 35.255 52.4373C34.8965 51.9123 34.2389 52.3323 34.1474 52.5244C33.9583 52.922 34.3004 53.5871 34.4335 53.89C35.1473 55.513 35.8457 57.0125 36.5409 58.688C36.6552 58.9634 36.9849 59.7082 36.7461 59.9947C36.4875 60.305 35.9021 59.898 35.6238 59.5717L34.8311 58.6198C34.761 58.524 34.7143 58.4786 34.6419 58.3985C34.5604 58.3085 34.5252 58.242 34.4462 58.1503C34.3169 58.0002 34.1698 57.8106 34.0395 57.6663L33.2589 56.7385C33.0363 56.4797 32.6704 55.9361 32.3527 55.888C31.9612 55.8287 31.4386 56.1467 31.7732 56.7767C31.9804 57.1668 32.1813 57.5202 32.4106 57.8843L33.7749 59.9757C34.2365 60.6564 34.7564 61.3322 35.1378 62.0995C35.6523 63.1345 35.6675 63.7353 35.8535 64.8504C36.0102 65.7901 36.3088 66.7269 36.587 67.5619C36.9169 68.5523 37.6236 69.6161 38.5487 69.91C38.7603 69.9773 39.1094 69.8992 39.342 69.8716C39.5658 69.8452 39.9537 69.8332 40.156 69.8242C41.0977 69.7824 40.8337 70.1826 41.4811 69.263C41.7737 68.8474 42.0886 68.49 42.4026 68.0271C42.8078 67.4298 43.3064 66.8369 43.7619 66.1207C43.8817 65.9322 44.4564 64.8501 44.4793 64.6836C44.1724 64.6482 44.0477 64.7058 43.8278 64.7325L42.5309 64.7482C39.6649 64.7482 38.2463 62.3528 39.7967 61.001C40.3039 60.5588 40.7044 60.6424 41.2774 60.511C41.6263 60.431 41.4562 60.6092 42.0978 60.3685L43.594 59.8957C43.8278 59.7931 44.109 59.6911 44.3186 59.6109C44.3455 59.3266 44.29 58.9902 44.3283 58.6941C44.3675 58.3905 44.3442 58.0805 44.3583 57.7548C44.3852 57.1393 44.4425 56.4918 44.4446 55.8975C44.4461 55.5758 44.5051 55.4451 44.5049 55.1177L44.6618 52.6411C44.7157 52.3592 44.6808 52.1365 44.721 51.8495C44.7623 51.5554 44.7848 51.4009 44.615 51.1362C44.4381 50.8606 43.6545 50.6216 43.4031 51.1192C43.2822 51.3584 43.1677 52.247 43.101 52.5776C42.9208 53.4698 42.6511 54.6304 42.5114 55.513L42.2278 57.0019C42.1545 57.3489 42.087 58.1864 41.7963 58.3151C41.5293 58.4332 41.3173 58.2053 41.2335 58.0503C41.0611 57.7318 40.819 55.6571 40.7019 55.0504C40.524 54.1291 40.3783 52.9362 40.2048 52.0179C40.0373 51.1306 40.071 50.4606 39.4327 50.1564C39.082 49.9894 38.4553 50.3135 38.4553 50.8457L38.4555 50.8459Z" fill="#FEFEFE"/>
<path fill-rule="evenodd" clip-rule="evenodd" d="M57.1299 64.9385C57.4874 64.4853 57.4877 63.5914 57.4917 62.8807C57.4957 62.1756 57.2056 61.4722 56.9307 60.9646L56.636 60.9653C56.5145 61.2692 56.6057 61.1996 56.8572 61.8549C56.9882 62.1961 57.0363 62.5409 57.0358 62.9553C57.0351 63.4136 57.027 63.6982 56.9708 64.1346C56.9258 64.4832 56.5983 64.9512 57.13 64.9385H57.1299Z" fill="#FEFEFE"/>
<path fill-rule="evenodd" clip-rule="evenodd" d="M58.4267 62.9927C58.4267 63.5223 58.3709 63.7006 58.2679 64.1992C58.1658 64.6939 57.9335 65.0257 58.0724 65.1844C58.3514 65.3474 58.4562 65.054 58.5414 64.8498C58.8279 64.1643 58.9283 63.0579 58.8121 62.3423C58.7782 62.134 58.6183 61.3828 58.4318 61.2756C58.3057 61.2032 58.1694 61.2732 58.1241 61.3858C58.0902 61.4697 58.2627 61.936 58.3103 62.1068C58.3892 62.3899 58.4265 62.6692 58.4265 62.9927H58.4267Z" fill="#FEFEFE"/>
<path fill-rule="evenodd" clip-rule="evenodd" d="M34.0806 68.9907C33.9651 69.1024 33.9548 69.0114 34.0944 69.4911C34.1507 69.6845 34.2194 69.8583 34.3018 70.0351C34.666 70.8165 35.1823 71.5671 35.8997 72.0371C36.006 72.1068 36.2562 72.3072 36.4025 72.2093C36.5774 72.0924 36.5254 71.9178 36.2827 71.7677C36.1738 71.7004 36.1727 71.6984 36.0682 71.6103L35.9367 71.5219C35.9297 71.5174 35.9201 71.512 35.9133 71.5073C35.3866 71.1438 34.9223 70.3624 34.6545 69.7551C34.4474 69.2854 34.4173 68.6649 34.0805 68.9907H34.0806Z" fill="#FEFEFE"/>
<path fill-rule="evenodd" clip-rule="evenodd" d="M37.8919 71.2291C37.7371 71.0971 37.2834 70.8919 37.0024 70.6748C36.8054 70.5225 36.449 70.1741 36.2933 69.9364C36.106 69.6507 35.8905 69.358 35.7385 69.0441C35.6801 68.9236 35.5865 68.6233 35.5318 68.5444C35.3947 68.3466 35.1119 68.4217 35.1597 68.7472C35.2307 69.2303 35.9749 70.2685 36.2604 70.5635C36.6199 70.9349 36.994 71.2479 37.4922 71.4858C37.7844 71.6253 37.9013 71.5535 37.8919 71.2292V71.2291Z" fill="#FEFEFE"/>
<path fill-rule="evenodd" clip-rule="evenodd" d="M94.2668 150.275C94.2668 149.218 94.3256 148.435 94.7399 147.513C94.96 147.023 94.9188 147.069 95.2073 146.608C95.5323 146.089 95.9725 145.531 96.4515 145.156L97.241 144.573C97.7505 144.293 98.6091 143.855 99.2172 143.805C99.2172 144.466 99.1404 148.828 99.2878 149.126C99.3206 149.192 99.4797 149.428 99.5263 149.475C99.771 149.722 100.085 149.788 100.441 149.786L106.474 149.782C106.896 149.775 106.88 149.647 106.812 150.566C106.791 150.846 106.691 151.321 106.629 151.56C106.12 153.531 104.487 155.316 102.508 155.918C101.494 156.226 100.426 156.327 99.3588 156.113L98.4027 155.844C96.7023 155.249 95.3946 153.929 94.7144 152.278C94.5224 151.812 94.2668 150.91 94.2668 150.275ZM100.845 158.411H100.167C99.0261 158.366 97.894 158.094 96.8645 157.578C95.9703 157.129 94.786 156.298 94.1971 155.54C94.0988 155.413 94.0415 155.379 93.9438 155.254C93.3299 154.468 93.2021 154.201 92.7795 153.33C91.8576 151.432 91.8345 148.622 92.7147 146.664C93.1021 145.802 93.2552 145.516 93.7905 144.799C93.9188 144.627 94.0602 144.431 94.2045 144.282C95.8986 142.523 97.0014 142.066 99.2173 141.55C99.2173 140.864 99.211 140.175 99.2149 139.489C99.2237 137.964 101.374 138.171 101.374 139.393V141.942H107.158C108.573 141.942 108.573 144.148 107.158 144.148H101.374V147.579H107.501C108.08 147.579 108.466 147.882 108.637 148.305L109.378 150.358C109.494 150.653 110.082 152.236 110.098 152.431C110.851 152.431 111.603 152.432 112.355 152.429C113.995 152.425 113.761 154.588 112.549 154.588H109.265C108.942 154.588 108.734 154.435 108.565 154.259C108.37 154.057 108.307 153.912 108.236 153.607C108.135 153.682 107.81 154.329 107.645 154.585C107.068 155.486 106.264 156.274 105.394 156.892C104.078 157.826 102.471 158.347 100.845 158.411Z" fill="#FEFEFE"/>
<path fill-rule="evenodd" clip-rule="evenodd" d="M100.149 137.531C100.931 137.531 101.268 137.463 101.877 136.858C102.835 135.907 102.549 134.201 101.326 133.56C101.056 133.419 100.781 133.34 100.51 133.316H100.143C98.8441 133.43 97.7976 134.759 98.357 136.235C98.4218 136.406 98.6457 136.737 98.7628 136.859C99.0586 137.166 99.5717 137.531 100.149 137.531V137.531Z" fill="#FEFEFE"/>
<path fill-rule="evenodd" clip-rule="evenodd" d="M22.5274 132.188C22.8628 131.686 22.7861 131.67 22.9825 131.02C24.8357 124.878 34.0704 125.498 35.0944 131.749C35.7921 136.009 32.9655 137.58 31.3667 139.567C30.5083 140.633 29.9848 142.167 29.2128 143.205C27.7175 145.216 26.4171 143.398 25.193 143.638C24.6988 145.673 28.0854 145.586 29.4395 144.783C30.7634 143.998 31.0366 142.146 32.1528 140.732C33.8967 138.524 37.5055 136.456 36.4356 131.374C35.7334 128.039 32.7296 125.256 28.7187 125.293C24.6874 125.33 21.385 128.896 21.4509 131.658L22.5273 132.188H22.5274Z" fill="#FEFEFE"/>
<path fill-rule="evenodd" clip-rule="evenodd" d="M24.2004 130.943L24.9815 131.464C25.2533 131.23 27.2991 127.298 31.0653 129.479C34.6822 131.574 32.2291 135.67 32.1947 135.897C32.6599 136.294 32.2251 136.052 32.8828 136.293C34.6485 135.121 34.971 130.52 31.8693 128.482C30.6148 127.658 28.8191 127.3 27.1821 127.906C25.9 128.381 24.3821 129.552 24.2004 130.943Z" fill="#FEFEFE"/>
<path fill-rule="evenodd" clip-rule="evenodd" d="M33.5508 122.348C36.924 124.161 39.2774 126.464 40.0845 131.122L41.1409 130.715L40.9204 129.341C39.9264 125.873 37.4836 122.768 34.1284 121.332L33.5508 122.348V122.348Z" fill="#FEFEFE"/>
<path fill-rule="evenodd" clip-rule="evenodd" d="M167.051 45.0624C166.322 44.6173 165.526 42.2947 167.114 40.7166C168.393 39.4456 170.49 39.5629 171.474 40.6528L167.051 45.0625V45.0624ZM172.784 40.5625L174.19 39.1663C175.001 39.3782 176.426 40.3367 177.083 40.8236C177.301 40.9852 177.516 41.1726 177.713 41.3358C177.821 41.4256 177.88 41.5156 177.982 41.6124L178.833 42.4975C178.964 42.6466 179.284 42.996 179.356 43.1574C179.076 43.7404 177.443 45.2169 177.003 45.549C175.022 47.0457 172.654 47.9633 170.026 48.0643C168.974 48.1046 166.689 47.9099 165.836 47.4715L166.958 46.3622C167.892 46.8486 168.514 47.2121 169.832 47.0618C170.332 47.0048 170.837 46.8447 171.236 46.6389C171.444 46.5318 171.633 46.4155 171.803 46.2929C173.381 45.1556 173.968 42.9144 173.102 41.1437C173.007 40.9506 172.833 40.701 172.784 40.5625H172.784ZM166.297 45.7981L164.945 47.149C164.536 47.0415 163.768 46.6109 163.416 46.41C162.627 45.9605 162.08 45.5181 161.422 44.9788L159.78 43.1575C159.857 42.9916 160.167 42.6497 160.301 42.4977C160.875 41.8478 161.409 41.3051 162.13 40.7656C163.006 40.1111 163.974 39.5218 165.176 39.0614C166.382 38.5991 167.69 38.3058 169.108 38.2507C170.159 38.2098 172.474 38.4091 173.299 38.8429L172.221 39.9095C171.728 39.5607 171.722 39.4453 171.01 39.1267C169.382 38.398 167.487 38.8909 166.379 39.9853C165.199 41.1517 164.844 43.0201 165.499 44.5651C165.688 45.0113 166.047 45.5577 166.297 45.7981ZM179.483 33.9032C179.82 33.5527 179.628 33.2036 179.372 33.1275C179.019 33.0226 178.729 33.4339 178.573 33.5888C178.34 33.8195 178.141 34.017 177.909 34.2486L173.96 38.1677C171.61 37.4193 169.557 37.1576 166.979 37.6688C164.83 38.095 162.905 39.0892 161.558 40.1507C160.837 40.7193 160.821 40.7665 160.24 41.3434C160.149 41.4334 160.061 41.487 159.976 41.5796L159.536 42.0995C159.242 42.4687 158.722 42.9646 158.87 43.3288C158.954 43.5336 159.737 44.4627 159.955 44.7102C160.045 44.8129 160.12 44.8534 160.218 44.9476C160.873 45.5752 160.823 45.6384 161.79 46.3425C162.157 46.6095 162.555 46.8743 162.979 47.1191L164.276 47.8013C164.094 48.043 160.231 51.8125 159.652 52.4125C159.315 52.7617 159.504 53.11 159.763 53.187C160.109 53.2901 160.411 52.8795 160.563 52.7275L162.53 50.7693C162.982 50.3174 163.403 49.8999 163.857 49.449L165.175 48.1478C167.564 48.8833 169.477 49.1597 172.116 48.6517C174.934 48.1092 176.583 46.9634 178.377 45.5031L179.579 44.2419C179.895 43.8332 180.404 43.3742 180.267 42.9899C180.199 42.7969 179.556 42.0389 179.406 41.8818C179.31 41.7817 179.268 41.7051 179.18 41.6043L178.665 41.1152C178.575 41.0259 178.52 40.9386 178.427 40.8531C178.274 40.7129 178.052 40.5325 177.879 40.3946C177.234 39.8798 176.276 39.1917 175.509 38.8388C175.336 38.7594 175.016 38.6152 174.859 38.5137L179.483 33.9032H179.483Z" fill="#FEFEFE"/>
<path d="M18.3703 140.693C18.6133 140.693 18.8103 140.496 18.8103 140.253C18.8103 140.01 18.6133 139.813 18.3703 139.813C18.1273 139.813 17.9303 140.01 17.9303 140.253C17.9303 140.496 18.1273 140.693 18.3703 140.693Z" fill="#FEFEFE"/>
<path d="M20.9002 139.043C21.204 139.043 21.4502 138.796 21.4502 138.493C21.4502 138.189 21.204 137.943 20.9002 137.943C20.5965 137.943 20.3502 138.189 20.3502 138.493C20.3502 138.796 20.5965 139.043 20.9002 139.043Z" fill="#FEFEFE"/>
<path d="M26.3454 135.193C26.6187 135.193 26.8404 134.996 26.8404 134.753C26.8404 134.51 26.6187 134.313 26.3454 134.313C26.072 134.313 25.8503 134.51 25.8503 134.753C25.8503 134.996 26.072 135.193 26.3454 135.193Z" fill="#FEFEFE"/>
<path d="M28.9305 133.433C29.2343 133.433 29.4805 133.211 29.4805 132.938C29.4805 132.664 29.2343 132.443 28.9305 132.443C28.6267 132.443 28.3805 132.664 28.3805 132.938C28.3805 133.211 28.6267 133.433 28.9305 133.433Z" fill="#FEFEFE"/>
<path d="M24.7752 137.337L23.448 135.331L22.6358 135.868L23.963 137.875L24.7752 137.337Z" fill="#FEFEFE"/>
<path fill-rule="evenodd" clip-rule="evenodd" d="M33.6604 125.04C35.8115 126.161 37.3121 127.584 37.8268 130.463L38.5005 130.211L38.36 129.362C37.7261 127.219 36.1684 125.3 34.0289 124.413L33.6605 125.04H33.6604Z" fill="#FEFEFE"/>
<path fill-rule="evenodd" clip-rule="evenodd" d="M93.4046 74.1234C93.541 74.1024 93.6804 74.0591 93.8314 74.0349C95.0482 73.8399 95.7591 74.0178 96.3209 72.6587C96.8712 71.3278 96.7458 70.2457 96.0333 69.1107C95.2413 67.8489 94.9284 67.5976 93.721 66.7267C92.7158 66.0017 91.237 65.5654 89.8729 65.3899C88.4874 65.2118 87.3907 65.4518 86.336 65.8703C84.365 66.6524 82.4842 68.8733 81.7079 70.7184C81.3125 71.6582 81.0621 73.6177 82.0202 74.2458C81.9366 74.4774 81.5947 75.1449 81.6393 75.3478C81.6643 75.4617 82.0564 75.9728 82.1508 76.1148C82.321 76.3709 82.4645 76.6614 82.6275 76.9221C83.2036 77.8433 83.9696 78.4777 85.2014 78.3156C85.9777 78.2134 86.1607 77.6811 86.4567 76.844L87.4457 76.7747C87.623 76.035 87.2481 75.6663 87.2438 75.21C87.9518 75.3581 88.4277 75.6568 89.1151 75.86C89.8952 76.0906 90.3188 76.0805 91.0679 76.1166C91.6911 76.1466 92.297 76.122 92.6755 75.8047C93.147 75.4093 93.214 74.7801 93.4046 74.1234L93.4046 74.1234Z" fill="#FEFEFE"/>
<path fill-rule="evenodd" clip-rule="evenodd" d="M80.0244 70.4421C80.3355 69.0719 80.8812 67.9212 81.5913 66.9284C82.0639 66.2678 82.7046 65.6277 83.3271 65.174C85.3181 63.723 87.8126 63.0979 90.9298 63.804C93.7808 64.4499 95.4891 65.8141 96.8522 67.5053C98.0386 68.9775 99.402 71.7069 98.9671 73.613C98.8803 73.9935 98.78 74.1702 98.6647 74.5095C98.3707 75.375 98.2647 76.1455 98.5587 76.987C98.7148 77.4339 99.0063 77.8463 99.2129 78.2184C99.3786 78.5165 99.3879 78.4899 99.5206 78.8463C99.5896 79.0316 99.6591 79.3373 99.6508 79.5677C99.6435 79.7735 99.5787 79.7963 99.4283 79.8387C99.316 79.8703 99.1941 79.9017 99.072 79.9249C97.8239 80.1619 97.7703 79.9448 97.7499 81.3543C97.742 81.897 97.7962 81.9268 97.5528 82.0807C97.1364 82.3438 97.2043 82.4359 97.2995 82.6372C97.4663 82.99 97.4491 82.9766 97.2522 83.3625C96.8 84.2489 96.9713 84.8644 96.6019 85.7887C96.5323 85.9627 96.456 85.9959 96.2888 86.0327C95.449 86.2175 93.753 85.4544 92.6248 86.1115C92.2464 86.3319 91.7515 86.8564 91.7129 87.5269C91.7054 87.656 91.7253 87.8635 91.7713 87.9564C91.8502 88.1157 92.03 88.0246 92.137 87.977C92.5372 87.7992 92.3723 87.6032 92.603 87.242C92.7653 86.9879 93.0035 86.8171 93.2093 86.727C94.3399 86.2317 95.7338 87.289 96.8403 86.6238C97.0744 86.483 97.218 86.268 97.3013 85.9062C97.3662 85.6729 97.5152 84.7189 97.5818 84.3915C97.666 83.9779 97.8212 83.7487 98.0183 83.444C98.4361 82.7982 98.0796 82.7172 98.1967 82.568C98.2949 82.4429 98.4124 82.3891 98.4657 82.2018C98.5226 82.0014 98.4105 81.2215 98.4801 80.7451C99.1035 80.6958 99.767 80.6513 100.162 80.3238C100.676 79.8972 100.403 79.0336 100.214 78.6062C99.9817 78.0802 99.7337 77.6176 99.5009 77.1079C99.3025 76.6734 99.0348 76.0161 99.1813 75.3719C99.3057 74.825 99.5188 74.4131 99.6363 73.8969C100.088 71.9101 99.0652 69.423 98.0694 67.7938C97.9302 67.566 97.747 67.3307 97.5807 67.1009C97.4949 66.9824 97.3962 66.8654 97.3042 66.7578C97.2056 66.6425 97.1249 66.546 97.0242 66.4335C94.575 63.6975 90.5976 62.3196 86.9509 62.9015C85.5363 63.1272 84.3893 63.5623 83.2238 64.3C83.0893 64.3852 82.9674 64.4764 82.8594 64.544C82.742 64.6174 82.6184 64.7144 82.5071 64.8064C82.3924 64.9012 82.2953 64.976 82.1795 65.0803C81.2609 65.9077 80.5006 66.8887 79.9685 68.0665C79.1924 69.784 78.8307 71.8053 78.9715 73.6514C79.2432 77.2138 81.5976 78.6313 80.7654 82.2745C80.6251 82.8885 80.4684 83.3763 80.2441 83.9468C80.1485 84.1901 79.8373 84.8256 79.9112 85.0786C79.9387 85.1729 80.0673 85.2722 80.1805 85.264C80.2968 85.2557 80.5959 84.9847 80.6863 84.8766C80.8308 84.7036 80.9275 84.4525 81.0234 84.2217C81.6929 82.6107 81.9262 80.9965 81.5586 79.3086C81.1235 77.3107 79.9506 76.1065 79.7515 73.8919C79.6572 72.8424 79.765 71.5849 80.0245 70.4422L80.0244 70.4421Z" fill="#FEFEFE"/>
<g filter="url(#filter0_d_97_4426)">
<path d="M131.821 136.293L134.292 130.749H135.56L138.039 136.293H136.692L134.665 131.398H135.172L133.136 136.293H131.821ZM133.057 135.105L133.397 134.131H136.249L136.597 135.105H133.057Z" fill="#FEFEFE"/>
<path d="M140.547 136.356C140.088 136.356 139.679 136.264 139.32 136.079C138.961 135.889 138.678 135.627 138.472 135.295C138.272 134.962 138.171 134.585 138.171 134.162C138.171 133.735 138.272 133.357 138.472 133.03C138.678 132.697 138.961 132.438 139.32 132.253C139.679 132.063 140.088 131.968 140.547 131.968C140.996 131.968 141.387 132.063 141.719 132.253C142.052 132.438 142.298 132.705 142.456 133.053L141.498 133.568C141.387 133.368 141.247 133.22 141.078 133.125C140.914 133.03 140.735 132.982 140.539 132.982C140.328 132.982 140.138 133.03 139.969 133.125C139.8 133.22 139.665 133.354 139.565 133.529C139.47 133.703 139.423 133.914 139.423 134.162C139.423 134.41 139.47 134.622 139.565 134.796C139.665 134.97 139.8 135.105 139.969 135.2C140.138 135.295 140.328 135.342 140.539 135.342C140.735 135.342 140.914 135.297 141.078 135.208C141.247 135.113 141.387 134.962 141.498 134.756L142.456 135.279C142.298 135.622 142.052 135.889 141.719 136.079C141.387 136.264 140.996 136.356 140.547 136.356Z" fill="#FEFEFE"/>
<path d="M145.173 136.356C144.713 136.356 144.304 136.264 143.945 136.079C143.586 135.889 143.303 135.627 143.097 135.295C142.897 134.962 142.796 134.585 142.796 134.162C142.796 133.735 142.897 133.357 143.097 133.03C143.303 132.697 143.586 132.438 143.945 132.253C144.304 132.063 144.713 131.968 145.173 131.968C145.621 131.968 146.012 132.063 146.345 132.253C146.677 132.438 146.923 132.705 147.081 133.053L146.123 133.568C146.012 133.368 145.872 133.22 145.703 133.125C145.539 133.03 145.36 132.982 145.165 132.982C144.953 132.982 144.763 133.03 144.594 133.125C144.425 133.22 144.291 133.354 144.19 133.529C144.095 133.703 144.048 133.914 144.048 134.162C144.048 134.41 144.095 134.622 144.19 134.796C144.291 134.97 144.425 135.105 144.594 135.2C144.763 135.295 144.953 135.342 145.165 135.342C145.36 135.342 145.539 135.297 145.703 135.208C145.872 135.113 146.012 134.962 146.123 134.756L147.081 135.279C146.923 135.622 146.677 135.889 146.345 136.079C146.012 136.264 145.621 136.356 145.173 136.356Z" fill="#FEFEFE"/>
<path d="M149.853 136.356C149.367 136.356 148.94 136.261 148.57 136.071C148.206 135.881 147.923 135.622 147.723 135.295C147.522 134.962 147.422 134.585 147.422 134.162C147.422 133.735 147.519 133.357 147.715 133.03C147.915 132.697 148.187 132.438 148.531 132.253C148.874 132.063 149.262 131.968 149.695 131.968C150.112 131.968 150.487 132.058 150.819 132.238C151.157 132.412 151.424 132.665 151.619 132.998C151.815 133.325 151.912 133.719 151.912 134.178C151.912 134.226 151.91 134.281 151.905 134.344C151.899 134.402 151.894 134.458 151.889 134.511H148.428V133.79H151.239L150.764 134.004C150.764 133.782 150.719 133.589 150.629 133.426C150.54 133.262 150.416 133.135 150.257 133.045C150.099 132.95 149.914 132.903 149.703 132.903C149.492 132.903 149.304 132.95 149.14 133.045C148.982 133.135 148.858 133.265 148.768 133.434C148.678 133.597 148.633 133.793 148.633 134.02V134.21C148.633 134.442 148.684 134.648 148.784 134.828C148.89 135.002 149.035 135.136 149.22 135.231C149.41 135.321 149.631 135.366 149.885 135.366C150.112 135.366 150.31 135.332 150.479 135.263C150.653 135.194 150.812 135.092 150.954 134.954L151.611 135.667C151.416 135.889 151.171 136.06 150.875 136.182C150.579 136.298 150.239 136.356 149.853 136.356Z" fill="#FEFEFE"/>
<path d="M154.169 136.356C153.804 136.356 153.453 136.314 153.115 136.229C152.783 136.14 152.519 136.029 152.323 135.897L152.735 135.01C152.93 135.131 153.16 135.231 153.424 135.311C153.693 135.385 153.957 135.422 154.216 135.422C154.501 135.422 154.702 135.387 154.818 135.319C154.939 135.25 155 135.155 155 135.033C155 134.933 154.953 134.859 154.858 134.812C154.768 134.759 154.646 134.719 154.493 134.693C154.34 134.666 154.171 134.64 153.986 134.614C153.807 134.587 153.625 134.553 153.44 134.511C153.255 134.463 153.086 134.395 152.933 134.305C152.78 134.215 152.656 134.094 152.561 133.94C152.471 133.787 152.426 133.589 152.426 133.346C152.426 133.077 152.503 132.84 152.656 132.634C152.814 132.428 153.041 132.267 153.337 132.15C153.633 132.029 153.986 131.968 154.398 131.968C154.689 131.968 154.984 132 155.285 132.063C155.586 132.127 155.837 132.219 156.038 132.341L155.626 133.22C155.42 133.098 155.211 133.016 155 132.974C154.794 132.927 154.594 132.903 154.398 132.903C154.124 132.903 153.923 132.94 153.796 133.014C153.67 133.088 153.606 133.183 153.606 133.299C153.606 133.405 153.651 133.484 153.741 133.537C153.836 133.589 153.96 133.632 154.113 133.663C154.266 133.695 154.433 133.724 154.612 133.75C154.797 133.771 154.982 133.806 155.167 133.853C155.351 133.901 155.518 133.969 155.665 134.059C155.819 134.144 155.943 134.263 156.038 134.416C156.133 134.563 156.18 134.759 156.18 135.002C156.18 135.266 156.101 135.501 155.943 135.707C155.784 135.907 155.555 136.066 155.254 136.182C154.958 136.298 154.596 136.356 154.169 136.356Z" fill="#FEFEFE"/>
<path d="M158.376 136.356C158.012 136.356 157.661 136.314 157.323 136.229C156.99 136.14 156.726 136.029 156.531 135.897L156.943 135.01C157.138 135.131 157.368 135.231 157.632 135.311C157.901 135.385 158.165 135.422 158.424 135.422C158.709 135.422 158.909 135.387 159.026 135.319C159.147 135.25 159.208 135.155 159.208 135.033C159.208 134.933 159.16 134.859 159.065 134.812C158.975 134.759 158.854 134.719 158.701 134.693C158.548 134.666 158.379 134.64 158.194 134.614C158.014 134.587 157.832 134.553 157.647 134.511C157.463 134.463 157.294 134.395 157.141 134.305C156.987 134.215 156.863 134.094 156.768 133.94C156.679 133.787 156.634 133.589 156.634 133.346C156.634 133.077 156.71 132.84 156.863 132.634C157.022 132.428 157.249 132.267 157.545 132.15C157.84 132.029 158.194 131.968 158.606 131.968C158.896 131.968 159.192 132 159.493 132.063C159.794 132.127 160.045 132.219 160.245 132.341L159.833 133.22C159.628 133.098 159.419 133.016 159.208 132.974C159.002 132.927 158.801 132.903 158.606 132.903C158.331 132.903 158.131 132.94 158.004 133.014C157.877 133.088 157.814 133.183 157.814 133.299C157.814 133.405 157.859 133.484 157.948 133.537C158.043 133.589 158.168 133.632 158.321 133.663C158.474 133.695 158.64 133.724 158.82 133.75C159.004 133.771 159.189 133.806 159.374 133.853C159.559 133.901 159.725 133.969 159.873 134.059C160.026 134.144 160.15 134.263 160.245 134.416C160.34 134.563 160.388 134.759 160.388 135.002C160.388 135.266 160.309 135.501 160.15 135.707C159.992 135.907 159.762 136.066 159.461 136.182C159.166 136.298 158.804 136.356 158.376 136.356Z" fill="#FEFEFE"/>
<path d="M163.891 136.388C163.463 136.388 163.064 136.319 162.695 136.182C162.33 136.039 162.013 135.839 161.744 135.58C161.475 135.321 161.264 135.018 161.111 134.669C160.963 134.321 160.889 133.938 160.889 133.521C160.889 133.104 160.963 132.721 161.111 132.372C161.264 132.024 161.475 131.72 161.744 131.461C162.019 131.203 162.338 131.005 162.703 130.867C163.067 130.725 163.466 130.654 163.898 130.654C164.379 130.654 164.812 130.738 165.197 130.907C165.588 131.071 165.915 131.314 166.179 131.636L165.356 132.396C165.166 132.18 164.954 132.018 164.722 131.913C164.49 131.802 164.236 131.747 163.962 131.747C163.703 131.747 163.466 131.789 163.249 131.873C163.033 131.958 162.845 132.079 162.687 132.238C162.528 132.396 162.404 132.583 162.314 132.8C162.23 133.016 162.188 133.257 162.188 133.521C162.188 133.785 162.23 134.025 162.314 134.241C162.404 134.458 162.528 134.645 162.687 134.804C162.845 134.962 163.033 135.084 163.249 135.168C163.466 135.253 163.703 135.295 163.962 135.295C164.236 135.295 164.49 135.242 164.722 135.136C164.954 135.026 165.166 134.859 165.356 134.637L166.179 135.398C165.915 135.72 165.588 135.965 165.197 136.134C164.812 136.303 164.376 136.388 163.891 136.388Z" fill="#FEFEFE"/>
<path d="M168.927 136.356C168.441 136.356 168.013 136.261 167.643 136.071C167.279 135.881 166.997 135.622 166.796 135.295C166.595 134.962 166.495 134.585 166.495 134.162C166.495 133.735 166.593 133.357 166.788 133.03C166.989 132.697 167.261 132.438 167.604 132.253C167.947 132.063 168.335 131.968 168.768 131.968C169.185 131.968 169.56 132.058 169.893 132.238C170.231 132.412 170.497 132.665 170.693 132.998C170.888 133.325 170.986 133.719 170.986 134.178C170.986 134.226 170.983 134.281 170.978 134.344C170.973 134.402 170.967 134.458 170.962 134.511H167.501V133.79H170.313L169.837 134.004C169.837 133.782 169.792 133.589 169.703 133.426C169.613 133.262 169.489 133.135 169.33 133.045C169.172 132.95 168.987 132.903 168.776 132.903C168.565 132.903 168.377 132.95 168.214 133.045C168.055 133.135 167.931 133.265 167.841 133.434C167.752 133.597 167.707 133.793 167.707 134.02V134.21C167.707 134.442 167.757 134.648 167.857 134.828C167.963 135.002 168.108 135.136 168.293 135.231C168.483 135.321 168.705 135.366 168.958 135.366C169.185 135.366 169.383 135.332 169.552 135.263C169.726 135.194 169.885 135.092 170.027 134.954L170.685 135.667C170.489 135.889 170.244 136.06 169.948 136.182C169.653 136.298 169.312 136.356 168.927 136.356Z" fill="#FEFEFE"/>
<path d="M171.808 136.293V132.032H172.988V133.236L172.822 132.887C172.949 132.586 173.152 132.359 173.432 132.206C173.712 132.048 174.052 131.968 174.454 131.968V133.109C174.401 133.104 174.353 133.101 174.311 133.101C174.269 133.096 174.224 133.093 174.176 133.093C173.839 133.093 173.564 133.191 173.353 133.386C173.147 133.576 173.044 133.874 173.044 134.281V136.293H171.808Z" fill="#FEFEFE"/>
<path d="M177.078 136.356C176.576 136.356 176.185 136.229 175.906 135.976C175.626 135.717 175.486 135.334 175.486 134.828V131.089H176.721V134.812C176.721 134.991 176.769 135.131 176.864 135.231C176.959 135.326 177.088 135.374 177.252 135.374C177.447 135.374 177.614 135.321 177.751 135.216L178.084 136.087C177.957 136.177 177.804 136.245 177.624 136.293C177.45 136.335 177.268 136.356 177.078 136.356ZM174.828 133.077V132.127H177.783V133.077H174.828Z" fill="#FEFEFE"/>
<path d="M178.777 136.293V132.032H180.013V136.293H178.777ZM179.395 131.438C179.168 131.438 178.983 131.372 178.841 131.24C178.698 131.108 178.627 130.944 178.627 130.749C178.627 130.553 178.698 130.39 178.841 130.258C178.983 130.126 179.168 130.06 179.395 130.06C179.622 130.06 179.807 130.123 179.949 130.25C180.092 130.371 180.163 130.529 180.163 130.725C180.163 130.931 180.092 131.102 179.949 131.24C179.812 131.372 179.627 131.438 179.395 131.438Z" fill="#FEFEFE"/>
<path d="M181.31 136.293V131.937C181.31 131.456 181.452 131.073 181.738 130.788C182.023 130.498 182.429 130.353 182.957 130.353C183.137 130.353 183.308 130.371 183.472 130.408C183.641 130.445 183.784 130.503 183.9 130.582L183.575 131.477C183.506 131.43 183.43 131.393 183.345 131.366C183.261 131.34 183.171 131.327 183.076 131.327C182.897 131.327 182.757 131.38 182.656 131.485C182.561 131.586 182.514 131.739 182.514 131.945V132.341L182.545 132.871V136.293H181.31ZM180.653 133.077V132.127H183.607V133.077H180.653Z" fill="#FEFEFE"/>
<path d="M184.838 137.893C184.616 137.893 184.397 137.858 184.181 137.79C183.964 137.721 183.787 137.626 183.65 137.505L184.102 136.625C184.197 136.71 184.305 136.776 184.426 136.823C184.553 136.871 184.677 136.895 184.799 136.895C184.973 136.895 185.11 136.852 185.21 136.768C185.316 136.689 185.411 136.554 185.496 136.364L185.717 135.841L185.812 135.707L187.341 132.032H188.529L186.604 136.554C186.467 136.897 186.309 137.167 186.129 137.362C185.955 137.557 185.76 137.695 185.543 137.774C185.332 137.853 185.097 137.893 184.838 137.893ZM185.567 136.459L183.666 132.032H184.941L186.414 135.596L185.567 136.459Z" fill="#FEFEFE"/>
</g>
<defs>
<filter id="filter0_d_97_4426" x="125.821" y="130.06" width="68.7076" height="19.833" filterUnits="userSpaceOnUse" color-interpolation-filters="sRGB">
<feFlood flood-opacity="0" result="BackgroundImageFix"/>
<feColorMatrix in="SourceAlpha" type="matrix" values="0 0 0 0 0 0 0 0 0 0 0 0 0 0 0 0 0 0 127 0" result="hardAlpha"/>
<feOffset dy="6"/>
<feGaussianBlur stdDeviation="3"/>
<feComposite in2="hardAlpha" operator="out"/>
<feColorMatrix type="matrix" values="0 0 0 0 0 0 0 0 0 0 0 0 0 0 0 0 0 0 0.25 0"/>
<feBlend mode="normal" in2="BackgroundImageFix" result="effect1_dropShadow_97_4426"/>
<feBlend mode="normal" in="SourceGraphic" in2="effect1_dropShadow_97_4426" result="shape"/>
</filter>
</defs>
</svg>
