<svg width="21" height="20" viewBox="0 0 21 20" fill="none" xmlns="http://www.w3.org/2000/svg">
<path d="M10.7593 7C9.96365 7 9.20059 7.31607 8.63798 7.87868C8.07537 8.44129 7.7593 9.20435 7.7593 10C7.7593 10.7956 8.07537 11.5587 8.63798 12.1213C9.20059 12.6839 9.96365 13 10.7593 13C11.555 13 12.318 12.6839 12.8806 12.1213C13.4432 11.5587 13.7593 10.7956 13.7593 10C13.7593 9.20435 13.4432 8.44129 12.8806 7.87868C12.318 7.31607 11.555 7 10.7593 7ZM10.7593 5C12.0854 5 13.3572 5.52678 14.2948 6.46447C15.2325 7.40215 15.7593 8.67392 15.7593 10C15.7593 11.3261 15.2325 12.5979 14.2948 13.5355C13.3572 14.4732 12.0854 15 10.7593 15C9.43322 15 8.16145 14.4732 7.22377 13.5355C6.28609 12.5979 5.7593 11.3261 5.7593 10C5.7593 8.67392 6.28609 7.40215 7.22377 6.46447C8.16145 5.52678 9.43322 5 10.7593 5ZM17.2593 4.75C17.2593 5.08152 17.1276 5.39946 16.8932 5.63388C16.6588 5.8683 16.3408 6 16.0093 6C15.6778 6 15.3598 5.8683 15.1254 5.63388C14.891 5.39946 14.7593 5.08152 14.7593 4.75C14.7593 4.41848 14.891 4.10054 15.1254 3.86612C15.3598 3.6317 15.6778 3.5 16.0093 3.5C16.3408 3.5 16.6588 3.6317 16.8932 3.86612C17.1276 4.10054 17.2593 4.41848 17.2593 4.75ZM10.7593 2C8.2853 2 7.8813 2.007 6.7303 2.058C5.9463 2.095 5.4203 2.2 4.9323 2.39C4.52413 2.54037 4.15502 2.78063 3.8523 3.093C3.53957 3.39562 3.29896 3.76474 3.1483 4.173C2.9583 4.663 2.8533 5.188 2.8173 5.971C2.7653 7.075 2.7583 7.461 2.7583 10C2.7583 12.475 2.7653 12.878 2.8163 14.029C2.8533 14.812 2.9583 15.339 3.1473 15.826C3.3173 16.261 3.5173 16.574 3.8493 16.906C4.1863 17.242 4.4993 17.443 4.9293 17.609C5.4233 17.8 5.9493 17.906 6.7293 17.942C7.8333 17.994 8.2193 18 10.7583 18C13.2333 18 13.6363 17.993 14.7873 17.942C15.5693 17.905 16.0953 17.8 16.5843 17.611C16.9925 17.4606 17.3616 17.2204 17.6643 16.908C18.0013 16.572 18.2023 16.259 18.3683 15.828C18.5583 15.336 18.6643 14.81 18.7003 14.028C18.7523 12.925 18.7583 12.538 18.7583 10C18.7583 7.526 18.7513 7.122 18.7003 5.971C18.6633 5.189 18.5573 4.661 18.3683 4.173C18.2179 3.76483 17.9777 3.39572 17.6653 3.093C17.3627 2.78027 16.9936 2.53966 16.5853 2.389C16.0953 2.199 15.5693 2.094 14.7873 2.058C13.6843 2.006 13.2983 2 10.7583 2M10.7583 0C13.4753 0 13.8143 0.00999994 14.8813 0.0599999C15.9453 0.11 16.6713 0.277 17.3083 0.525C17.9683 0.779 18.5243 1.123 19.0803 1.678C19.589 2.17773 19.9825 2.78247 20.2333 3.45C20.4803 4.087 20.6483 4.813 20.6983 5.878C20.7453 6.944 20.7583 7.283 20.7583 10C20.7583 12.717 20.7483 13.056 20.6983 14.122C20.6483 15.188 20.4803 15.912 20.2333 16.55C19.9825 17.2175 19.589 17.8223 19.0803 18.322C18.5806 18.8307 17.9758 19.2242 17.3083 19.475C16.6713 19.722 15.9453 19.89 14.8813 19.94C13.8143 19.987 13.4753 20 10.7583 20C8.0413 20 7.7023 19.99 6.6353 19.94C5.5713 19.89 4.8463 19.722 4.2083 19.475C3.54077 19.2242 2.93603 18.8307 2.4363 18.322C1.92761 17.8223 1.53412 17.2175 1.2833 16.55C1.0353 15.913 0.868301 15.187 0.818301 14.122C0.770301 13.056 0.758301 12.717 0.758301 10C0.758301 7.283 0.768301 6.944 0.818301 5.878C0.868301 4.812 1.0353 4.088 1.2833 3.45C1.53412 2.78247 1.92761 2.17773 2.4363 1.678C2.93603 1.16931 3.54077 0.775816 4.2083 0.525C4.8453 0.277 5.5703 0.11 6.6353 0.0599999C7.7033 0.0129999 8.0423 0 10.7593 0" fill="#FEFEFE"/>
</svg>
