<svg width="22" height="20" viewBox="0 0 22 20" fill="none" xmlns="http://www.w3.org/2000/svg">
<path fill-rule="evenodd" clip-rule="evenodd" d="M11.6769 5.728V7.99067C12.1507 7.2689 12.8038 6.68253 13.5723 6.28894C14.3408 5.89536 15.1983 5.70804 16.0609 5.74533C20.6675 5.74533 21.6635 8.62533 21.6635 12.372V20H17.3969V13.2373C17.3969 11.624 17.0715 9.54933 14.5595 9.54933C12.1235 9.54933 11.7075 11.3053 11.7075 13.1173V20H7.4542V5.728H11.6769ZM4.59687 2.14133C4.59634 2.564 4.47105 2.97711 4.23671 3.32887C4.00236 3.68063 3.66939 3.95537 3.27953 4.11867C2.88984 4.28064 2.46076 4.32301 2.04691 4.24038C1.63306 4.15776 1.25315 3.95387 0.955534 3.65467C0.657355 3.35528 0.454353 2.97441 0.372057 2.55996C0.28976 2.1455 0.331844 1.71597 0.493014 1.32537C0.654185 0.934769 0.927247 0.600542 1.27786 0.364719C1.62848 0.128895 2.04099 0.00200321 2.46353 0C2.74436 -1.97452e-06 3.02243 0.0554421 3.28178 0.163152C3.54113 0.270862 3.77666 0.428718 3.97486 0.627665C4.17307 0.826611 4.33004 1.06273 4.43678 1.32248C4.54352 1.58224 4.59792 1.86051 4.59687 2.14133Z" fill="#FEFEFE"/>
<path d="M4.59638 5.74487H0.329712V19.9995H4.59638V5.74487Z" fill="#FEFEFE"/>
</svg>
