<svg width="30" height="20" viewBox="0 0 30 20" fill="none" xmlns="http://www.w3.org/2000/svg">
<path d="M12.1869 14.2857L19.6012 10L12.1869 5.71429V14.2857ZM28.7012 3.1C28.8869 3.77143 29.0154 4.67143 29.1012 5.81429C29.2012 6.95714 29.244 7.94286 29.244 8.8L29.3297 10C29.3297 13.1286 29.1012 15.4286 28.7012 16.9C28.344 18.1857 27.5154 19.0143 26.2297 19.3714C25.5583 19.5571 24.3297 19.6857 22.444 19.7714C20.5869 19.8714 18.8869 19.9143 17.3154 19.9143L15.044 20C9.0583 20 5.32973 19.7714 3.8583 19.3714C2.57259 19.0143 1.74402 18.1857 1.38687 16.9C1.20116 16.2286 1.07259 15.3286 0.986872 14.1857C0.886872 13.0429 0.844015 12.0571 0.844015 11.2L0.758301 10C0.758301 6.87143 0.986872 4.57143 1.38687 3.1C1.74402 1.81429 2.57259 0.985714 3.8583 0.628572C4.52973 0.442857 5.7583 0.314286 7.64402 0.228571C9.50116 0.128571 11.2012 0.0857142 12.7726 0.0857142L15.044 0C21.0297 0 24.7583 0.228572 26.2297 0.628572C27.5154 0.985714 28.344 1.81429 28.7012 3.1Z" fill="#FEFEFE"/>
</svg>
